<svg width="16" height="17" viewBox="0 0 16 17" fill="none" xmlns="http://www.w3.org/2000/svg">
<g clip-path="url(#clip0_2326_16130)">
<path d="M8.09382 0.907013C8.26816 1.00589 8.26816 1.00589 8.31257 1.09488C8.31638 1.17129 8.31837 1.24686 8.31899 1.32331C8.31929 1.34683 8.3196 1.37036 8.31992 1.39459C8.32091 1.47253 8.32169 1.55046 8.32246 1.62839C8.3231 1.68236 8.32376 1.73632 8.32443 1.79029C8.32615 1.93246 8.32769 2.07463 8.3292 2.21681C8.33077 2.36183 8.33251 2.50685 8.33424 2.65188C8.3376 2.93653 8.34077 3.22118 8.34382 3.50584C9.07772 3.83078 9.81339 4.15099 10.552 4.46507C11.1329 4.71213 11.7122 4.9625 12.2907 5.21514C12.7853 5.43112 12.7853 5.43112 13.2824 5.64099C13.3057 5.65065 13.3289 5.66032 13.3529 5.67027C13.4564 5.71317 13.5599 5.75575 13.6638 5.79774C13.6984 5.81197 13.733 5.82619 13.7686 5.84084C13.7978 5.85266 13.8271 5.86447 13.8572 5.87664C13.9672 5.93158 14.069 5.99234 14.1251 6.10466C14.1281 6.19618 14.1291 6.28694 14.1288 6.37846C14.1289 6.4215 14.1289 6.4215 14.1289 6.46541C14.129 6.56215 14.1288 6.65888 14.1286 6.75561C14.1286 6.82472 14.1286 6.89383 14.1286 6.96294C14.1286 7.15105 14.1285 7.33917 14.1282 7.52728C14.128 7.72369 14.128 7.9201 14.128 8.1165C14.1279 8.44632 14.1277 8.77614 14.1274 9.10596C14.1271 9.44572 14.1269 9.78547 14.1268 10.1252C14.1268 10.1566 14.1268 10.1566 14.1268 10.1887C14.1267 10.2937 14.1267 10.3987 14.1266 10.5037C14.1263 11.3753 14.1258 12.2468 14.1251 13.1184C14.1495 13.123 14.174 13.1277 14.1992 13.1325C14.2756 13.1485 14.337 13.17 14.4079 13.202C14.4317 13.2127 14.4555 13.2233 14.48 13.2343C14.5053 13.2459 14.5307 13.2575 14.5568 13.2694C14.5968 13.2874 14.5968 13.2874 14.6375 13.3058C14.6939 13.3313 14.7503 13.3569 14.8066 13.3825C14.8915 13.4212 14.9766 13.4596 15.0617 13.498C15.2186 13.5689 15.3751 13.6407 15.5313 13.7133C15.5521 13.7229 15.5728 13.7324 15.5942 13.7423C15.6473 13.767 15.7001 13.7923 15.7529 13.8176C15.7808 13.831 15.8088 13.8443 15.8376 13.8581C15.9136 13.9057 15.953 13.9504 16.0001 14.0264C16.0207 14.1229 16.0183 14.2113 16.0001 14.3082C15.926 14.413 15.8793 14.4555 15.7551 14.4878C15.4772 14.511 15.1605 14.2991 14.9127 14.1839C14.8825 14.1699 14.8523 14.156 14.8212 14.1416C14.7905 14.1274 14.7598 14.1132 14.7282 14.0985C14.6971 14.0842 14.6661 14.0698 14.6341 14.055C14.5704 14.0253 14.5069 13.9954 14.4435 13.9651C14.3509 13.9211 14.2579 13.8783 14.1646 13.8356C14.1366 13.8219 14.1086 13.8082 14.0797 13.7941C13.9443 13.7333 13.8499 13.6974 13.7051 13.7433C13.6572 13.7637 13.6097 13.7851 13.5626 13.8072C13.5072 13.83 13.4517 13.8527 13.3963 13.8754C13.3343 13.902 13.2724 13.9287 13.2105 13.9554C13.1766 13.97 13.1426 13.9846 13.1077 13.9996C12.9962 14.0476 12.8849 14.0957 12.7735 14.1438C12.7149 14.169 12.6564 14.1943 12.5978 14.2195C11.9815 14.4849 11.3661 14.7524 10.7508 15.0203C10.1854 15.2665 9.61951 15.5113 9.05225 15.753C8.90295 15.8168 8.75434 15.8819 8.60603 15.9479C8.57125 15.9631 8.53648 15.9783 8.50066 15.994C8.43963 16.0207 8.37881 16.0479 8.31827 16.0757C8.27913 16.0926 8.27913 16.0926 8.23921 16.1099C8.20681 16.1245 8.20681 16.1245 8.17377 16.1393C7.92489 16.1899 7.7051 16.0898 7.48213 15.989C7.45038 15.975 7.41863 15.961 7.38591 15.9466C7.31725 15.9164 7.24865 15.8859 7.18013 15.8553C7.01325 15.7808 6.84592 15.7074 6.67864 15.6338C6.6204 15.6082 6.56219 15.5825 6.50398 15.5568C6.14285 15.3975 5.77995 15.2424 5.41664 15.0882C4.69915 14.7836 3.98373 14.4743 3.26945 14.1622C3.20632 14.1347 3.14314 14.1073 3.0799 14.0801C2.93329 14.0169 2.78765 13.9525 2.64331 13.8842C2.61664 13.872 2.58997 13.8598 2.56249 13.8472C2.5133 13.8246 2.46441 13.8013 2.41594 13.7772C2.29141 13.7211 2.21256 13.7038 2.08055 13.7456C2.03248 13.7651 1.98482 13.7857 1.93757 13.8072C1.91344 13.8175 1.88931 13.8278 1.86446 13.8384C1.78672 13.8723 1.70979 13.9075 1.63288 13.9432C1.59078 13.9625 1.59078 13.9625 1.54783 13.9822C1.45893 14.0229 1.37012 14.0637 1.28132 14.1047C1.16421 14.1586 1.04701 14.2124 0.929758 14.2661C0.890195 14.2845 0.890195 14.2845 0.849833 14.3032C0.407739 14.5055 0.407739 14.5055 0.22468 14.4784C0.0619521 14.4049 0.0619521 14.4049 7.09537e-05 14.3082C-0.0251116 14.1693 -0.0281874 14.0673 0.0535912 13.9488C0.12863 13.8659 0.184146 13.8308 0.285349 13.7856C0.317311 13.771 0.349274 13.7565 0.382204 13.7415C0.416589 13.7264 0.450973 13.7112 0.486399 13.6957C0.521891 13.6797 0.557383 13.6637 0.593951 13.6473C0.669324 13.6134 0.744747 13.5797 0.820292 13.5462C0.91924 13.5024 1.01787 13.4578 1.11641 13.413C1.21231 13.3694 1.30834 13.3261 1.40437 13.2827C1.44063 13.2663 1.47688 13.2498 1.51424 13.2329C1.56469 13.2104 1.56469 13.2104 1.61616 13.1873C1.64585 13.174 1.67553 13.1606 1.70612 13.1469C1.78132 13.1184 1.78132 13.1184 1.87507 13.1184C1.87493 13.0824 1.87478 13.0464 1.87463 13.0093C1.87125 12.1548 1.86867 11.3003 1.86709 10.4458C1.8669 10.3407 1.86669 10.2355 1.86649 10.1304C1.86645 10.1095 1.86641 10.0885 1.86636 10.067C1.86568 9.72791 1.86445 9.38887 1.86302 9.04983C1.86155 8.70199 1.8607 8.35415 1.86037 8.00631C1.86017 7.81091 1.85968 7.61552 1.85855 7.42013C1.85749 7.23629 1.85716 7.05247 1.8574 6.86864C1.85735 6.8011 1.85704 6.73355 1.85644 6.66601C1.85567 6.57391 1.85585 6.48186 1.85628 6.38976C1.85583 6.36292 1.85537 6.33609 1.8549 6.30844C1.8566 6.17337 1.86208 6.12105 1.9487 6.0118C2.03878 5.94236 2.12355 5.89577 2.22737 5.84928C2.24736 5.84026 2.26735 5.83123 2.28795 5.82194C2.35844 5.7904 2.4292 5.75959 2.50007 5.72893C2.54078 5.71128 2.54078 5.71128 2.58232 5.69328C2.77518 5.60995 2.96851 5.52774 3.16195 5.44579C3.34893 5.36654 3.53578 5.287 3.7226 5.2074C3.7418 5.19923 3.761 5.19105 3.78078 5.18262C4.20571 5.00157 4.62938 4.81761 5.0528 4.63304C5.19005 4.57323 5.3273 4.51341 5.46455 4.45361C5.51346 4.4323 5.51346 4.4323 5.56337 4.41055C5.89833 4.26471 6.23394 4.1204 6.56986 3.97679C6.93277 3.82156 7.29456 3.66376 7.65632 3.50584C7.65636 3.47598 7.65641 3.44612 7.65646 3.41536C7.65698 3.13387 7.65831 2.85239 7.66045 2.5709C7.66152 2.42619 7.6623 2.28148 7.66243 2.13676C7.66257 1.99708 7.66345 1.85741 7.66486 1.71773C7.66527 1.66447 7.6654 1.6112 7.66526 1.55793C7.66511 1.48325 7.66592 1.40864 7.66696 1.33397C7.66669 1.31199 7.66642 1.29001 7.66615 1.26736C7.66897 1.1464 7.68493 1.09807 7.76308 1.00362C7.88057 0.908607 7.94264 0.892448 8.09382 0.907013ZM7.45891 4.31149C7.43134 4.32351 7.40377 4.33553 7.37536 4.34792C7.34517 4.36128 7.31499 4.37465 7.28388 4.38842C7.25202 4.40236 7.22015 4.4163 7.18732 4.43066C7.11783 4.46108 7.04838 4.49157 6.97896 4.52212C6.81052 4.59625 6.64188 4.66991 6.47325 4.7436C6.41418 4.76942 6.35512 4.79525 6.29606 4.82109C5.87535 5.00506 5.45339 5.18607 5.03132 5.3669C4.88613 5.42913 4.74095 5.49139 4.59577 5.55366C4.56107 5.56854 4.52637 5.58343 4.49062 5.59876C4.00359 5.80775 3.51737 6.01865 3.03132 6.22991C3.12023 6.30151 3.20557 6.34979 3.31054 6.39416C3.34133 6.40727 3.37212 6.42038 3.40384 6.43389C3.43712 6.44787 3.47041 6.46184 3.50471 6.47624C3.53942 6.49098 3.57413 6.50571 3.6099 6.5209C3.70355 6.56063 3.79726 6.60021 3.89099 6.63974C3.98881 6.68104 4.08655 6.72254 4.18429 6.76404C4.22326 6.78059 4.26224 6.79713 4.30121 6.81368C4.32994 6.82588 4.32994 6.82588 4.35924 6.83832C4.41692 6.8628 4.47462 6.88726 4.53231 6.91171C4.79168 7.02168 5.05051 7.13275 5.30866 7.24556C5.76749 7.44577 6.22756 7.64305 6.68757 7.84048C6.70692 7.84878 6.72626 7.85708 6.74619 7.86564C6.80359 7.89027 6.86099 7.91491 6.91839 7.93954C6.95521 7.95536 6.99202 7.97117 7.02995 7.98747C7.10169 8.01821 7.17348 8.04884 7.24533 8.07935C7.38873 8.14035 7.53145 8.20139 7.67133 8.27016C7.69116 8.27964 7.71098 8.28912 7.7314 8.29889C7.77972 8.32228 7.82755 8.34667 7.87531 8.37118C8.01764 8.4004 8.11853 8.35107 8.25007 8.29645C8.27679 8.2856 8.30352 8.27475 8.33105 8.26357C8.4218 8.22598 8.51198 8.18723 8.60212 8.14821C8.63606 8.13362 8.66999 8.11903 8.70496 8.10401C8.8164 8.05607 8.92777 8.00796 9.03913 7.95985C9.0977 7.93461 9.15627 7.90939 9.21485 7.88417C9.83064 7.61902 10.4455 7.35177 11.0602 7.08402C11.6954 6.80738 12.3319 6.53378 12.9688 6.26122C12.8809 6.19054 12.7968 6.14229 12.6931 6.09846C12.663 6.08565 12.6329 6.07284 12.6019 6.05963C12.5693 6.04596 12.5367 6.03228 12.5031 6.01819C12.4519 5.99647 12.4519 5.99647 12.3997 5.9743C12.3263 5.94317 12.2529 5.91211 12.1794 5.88113C12.0634 5.83218 11.9475 5.78305 11.8316 5.73383C11.8123 5.72564 11.793 5.71745 11.7731 5.70902C11.7342 5.69251 11.6954 5.67599 11.6565 5.65948C11.5982 5.63474 11.5399 5.61001 11.4816 5.5853C11.1779 5.4565 10.8749 5.32619 10.5723 5.19468C10.5282 5.17555 10.4841 5.15642 10.44 5.1373C10.2259 5.04439 10.0118 4.95128 9.79781 4.85798C9.6141 4.77789 9.43031 4.69796 9.24648 4.61812C9.1737 4.58647 9.10096 4.55476 9.02823 4.52298C8.92671 4.47863 8.82509 4.43448 8.72346 4.39038C8.6774 4.37017 8.6774 4.37017 8.63042 4.34954C8.6022 4.33735 8.57399 4.32515 8.54492 4.31259C8.5203 4.30186 8.49568 4.29114 8.47032 4.28009C8.40292 4.25207 8.40292 4.25207 8.31257 4.25731C8.31213 4.29616 8.31213 4.29616 8.31168 4.3358C8.31001 4.45316 8.30739 4.57049 8.30476 4.68783C8.30431 4.7286 8.30387 4.76937 8.30341 4.81137C8.30241 4.85052 8.3014 4.88967 8.30036 4.93001C8.29971 4.96608 8.29905 5.00215 8.29838 5.03932C8.27799 5.15248 8.24501 5.18878 8.15632 5.25926C8.06819 5.30341 8.00413 5.29826 7.90632 5.29057C7.76156 5.21966 7.76156 5.21966 7.71882 5.13402C7.71399 5.06815 7.71101 5.00214 7.70893 4.93612C7.70697 4.87709 7.70697 4.87709 7.70497 4.81687C7.70374 4.77558 7.70251 4.73429 7.70124 4.69175C7.69989 4.6498 7.69853 4.60784 7.69715 4.56589C7.69383 4.46303 7.69064 4.36017 7.68757 4.25731C7.59019 4.25731 7.54664 4.27291 7.45891 4.31149ZM2.50007 6.7622C2.50007 8.75641 2.50007 10.7506 2.50007 12.8053C2.67689 12.7462 2.83309 12.6917 2.99934 12.6142C3.03872 12.5961 3.07811 12.578 3.1175 12.5599C3.17816 12.5318 3.23878 12.5037 3.29933 12.4754C3.35872 12.4477 3.41827 12.4204 3.47785 12.3931C3.51289 12.3768 3.54792 12.3605 3.58401 12.3437C3.73584 12.2859 3.85483 12.2545 4.00984 12.3101C4.13221 12.3928 4.13221 12.3928 4.15632 12.4921C4.15808 12.6141 4.1548 12.707 4.07475 12.803C3.98551 12.8805 3.89198 12.9229 3.78388 12.9669C3.76333 12.9757 3.74277 12.9844 3.72159 12.9933C3.65633 13.021 3.59091 13.0482 3.52546 13.0753C3.45969 13.1027 3.39396 13.1302 3.32833 13.158C3.28759 13.1752 3.24676 13.1922 3.20584 13.209C3.09821 13.2494 3.09821 13.2494 3.03132 13.3375C3.85428 13.6961 4.67727 14.0546 5.50257 14.4077C5.81292 14.5406 6.12279 14.6745 6.43232 14.8093C6.54295 14.8574 6.65359 14.9055 6.76422 14.9536C6.83645 14.985 6.90865 15.0165 6.98082 15.048C7.08121 15.0919 7.18168 15.1356 7.28217 15.1793C7.31238 15.1926 7.34259 15.2058 7.37371 15.2195C7.41529 15.2375 7.41529 15.2375 7.4577 15.2559C7.48185 15.2664 7.506 15.2769 7.53087 15.2878C7.59742 15.3154 7.59742 15.3154 7.68757 15.3101C7.68757 13.2229 7.68757 11.1357 7.68757 8.98529C7.3717 8.82662 7.3717 8.82662 7.05036 8.68221C7.02656 8.67203 7.00276 8.66184 6.97824 8.65135C6.92671 8.62933 6.87516 8.60735 6.82359 8.58543C6.73922 8.54955 6.6549 8.51354 6.5706 8.47749C6.44657 8.42446 6.32252 8.37148 6.19845 8.31854C5.88437 8.18447 5.57054 8.04984 5.25673 7.91515C5.1833 7.88364 5.10986 7.85214 5.03642 7.82066C4.63464 7.6484 4.23321 7.47541 3.83271 7.3002C3.77411 7.27457 3.7155 7.24895 3.65688 7.22335C3.47183 7.14248 3.28686 7.06142 3.10202 6.98007C3.03594 6.95114 2.96985 6.92223 2.90376 6.89331C2.87357 6.87995 2.84339 6.86658 2.81228 6.85281C2.78471 6.84079 2.75714 6.82877 2.72873 6.81638C2.70479 6.80585 2.68086 6.79533 2.6562 6.78448C2.59014 6.75694 2.59014 6.75694 2.50007 6.7622ZM13.2714 6.81638C13.2438 6.8284 13.2163 6.84042 13.1879 6.85281C13.1577 6.86618 13.1275 6.87954 13.0964 6.89331C13.0486 6.91423 13.0486 6.91423 12.9998 6.93557C12.9303 6.96599 12.8608 6.99648 12.7914 7.02704C12.6232 7.10104 12.4549 7.17459 12.2865 7.24816C12.2275 7.27394 12.1685 7.29975 12.1096 7.32556C11.684 7.51166 11.2571 7.69473 10.8301 7.87766C10.6837 7.94043 10.5373 8.00322 10.3909 8.06601C10.3566 8.08075 10.3222 8.09549 10.2868 8.11067C9.91079 8.27203 9.53536 8.43476 9.16029 8.59834C9.05633 8.64358 8.95228 8.6886 8.84821 8.73358C8.7971 8.75571 8.7971 8.75571 8.74495 8.7783C8.68139 8.80582 8.61781 8.83329 8.5542 8.8607C8.51308 8.87854 8.51308 8.87854 8.47114 8.89674C8.44716 8.9071 8.42318 8.91747 8.39847 8.92814C8.34428 8.94999 8.34428 8.94999 8.31257 8.98529C8.30951 9.06686 8.30851 9.14759 8.30881 9.22917C8.30879 9.25503 8.30876 9.28088 8.30873 9.30752C8.30868 9.39483 8.30885 9.48214 8.30902 9.56945C8.30903 9.63177 8.30903 9.69408 8.30901 9.7564C8.309 9.92615 8.30918 10.0959 8.3094 10.2656C8.3096 10.4428 8.30962 10.62 8.30965 10.7972C8.30975 11.133 8.31001 11.4687 8.31032 11.8045C8.31067 12.1867 8.31084 12.5689 8.311 12.951C8.31132 13.7374 8.31187 14.5238 8.31257 15.3101C8.41663 15.2903 8.50788 15.2664 8.60509 15.224C8.64456 15.2069 8.64456 15.2069 8.68483 15.1894C8.71333 15.1769 8.74183 15.1644 8.77119 15.1515C8.81679 15.1317 8.81679 15.1317 8.86331 15.1115C8.92948 15.0827 8.99562 15.0539 9.06174 15.025C9.20403 14.9628 9.34648 14.901 9.48891 14.8391C9.56414 14.8064 9.63936 14.7737 9.71458 14.741C10.0979 14.5744 10.482 14.4095 10.8661 14.2449C11.4688 13.9865 12.0712 13.7273 12.6723 13.4653C12.771 13.4224 12.8699 13.3799 12.9688 13.3375C12.9208 13.2414 12.8288 13.2231 12.7338 13.1842C12.6918 13.1664 12.6497 13.1486 12.6077 13.1308C12.5413 13.1031 12.4748 13.0754 12.4083 13.0478C12.3442 13.0211 12.2802 12.994 12.2163 12.9669C12.1866 12.9549 12.1866 12.9549 12.1564 12.9425C12.0394 12.8927 11.9569 12.8405 11.8751 12.7426C11.8314 12.6224 11.8327 12.5206 11.879 12.4021C11.9512 12.3201 11.986 12.2941 12.0938 12.273C12.2856 12.2985 12.4581 12.364 12.6328 12.4444C12.6558 12.4548 12.6788 12.4651 12.7026 12.4758C12.7752 12.5084 12.8476 12.5413 12.92 12.5743C12.9932 12.6075 13.0665 12.6406 13.1398 12.6736C13.1851 12.694 13.2305 12.7146 13.2757 12.7353C13.3836 12.7875 13.3836 12.7875 13.5001 12.8053C13.5001 10.811 13.5001 8.81684 13.5001 6.7622C13.4027 6.7622 13.3591 6.7778 13.2714 6.81638Z" fill="white"/>
<path d="M11.0938 11.74C11.2682 11.8389 11.2682 11.8389 11.3126 11.9279C11.3257 12.0237 11.3277 12.1141 11.3126 12.2097C11.2444 12.296 11.1916 12.3486 11.0938 12.3976C10.9292 12.4163 10.8474 12.3742 10.7188 12.2723C10.6645 12.1636 10.6687 12.0465 10.6876 11.9279C10.8099 11.7731 10.8978 11.7211 11.0938 11.74Z" fill="white"/>
<path d="M5.09381 11.74C5.26815 11.8389 5.26815 11.8389 5.31256 11.9279C5.3257 12.0237 5.32772 12.1141 5.31256 12.2097C5.24438 12.296 5.19156 12.3486 5.09381 12.3976C4.92916 12.4163 4.84741 12.3742 4.71881 12.2723C4.66455 12.1636 4.66875 12.0465 4.68756 11.9279C4.80987 11.7731 4.89784 11.7211 5.09381 11.74Z" fill="white"/>
<path d="M8.09381 5.91776C8.26815 6.01664 8.26815 6.01664 8.31256 6.10563C8.3257 6.20142 8.32772 6.29183 8.31256 6.38743C8.24438 6.47372 8.19156 6.52632 8.09381 6.5753C7.92916 6.59405 7.84741 6.55194 7.71881 6.45005C7.66455 6.34132 7.66875 6.22424 7.68756 6.10563C7.80987 5.95083 7.89784 5.89888 8.09381 5.91776Z" fill="white"/>
</g>
<defs>
<clipPath id="clip0_2326_16130">
<rect width="16" height="16" fill="white" transform="translate(0 0.5)"/>
</clipPath>
</defs>
</svg>
