<svg width="16" height="17" viewBox="0 0 16 17" fill="none" xmlns="http://www.w3.org/2000/svg">
<path d="M7.31335 4.91267C7.52057 4.78833 7.75769 4.72266 7.99935 4.72266C8.24101 4.72266 8.47813 4.78833 8.68535 4.91267L11.0093 6.30734C11.108 6.36658 11.1896 6.45033 11.2462 6.55045C11.3029 6.65056 11.3327 6.76363 11.3327 6.87867V9.74667C11.3327 9.97692 11.2731 10.2032 11.1596 10.4036C11.0462 10.604 10.8828 10.7715 10.6853 10.89L8.68535 12.09C8.47813 12.2143 8.24101 12.28 7.99935 12.28C7.75769 12.28 7.52057 12.2143 7.31335 12.09L5.31335 10.89C5.11591 10.7715 4.95252 10.604 4.83908 10.4036C4.72564 10.2032 4.66601 9.97692 4.66602 9.74667V6.87867C4.66611 6.76357 4.696 6.65045 4.75277 6.55033C4.80955 6.45021 4.89128 6.3665 4.99002 6.30734L7.31335 4.91267Z" stroke="white" stroke-linecap="round" stroke-linejoin="round"/>
<path d="M4.66602 6.5L7.99935 8.33933M7.99935 8.33933L11.3327 6.5M7.99935 8.33933V11.8333" stroke="white" stroke-linejoin="round"/>
<path d="M3.99967 1.83398H2.66634C2.31272 1.83398 1.97358 1.97446 1.72353 2.22451C1.47348 2.47456 1.33301 2.8137 1.33301 3.16732V4.50065M11.9997 15.1673H13.333C13.6866 15.1673 14.0258 15.0268 14.2758 14.7768C14.5259 14.5267 14.6663 14.1876 14.6663 13.834V12.5007M14.6663 4.50065V3.16732C14.6663 2.8137 14.5259 2.47456 14.2758 2.22451C14.0258 1.97446 13.6866 1.83398 13.333 1.83398H11.9997M1.33301 12.5007V13.834C1.33301 14.1876 1.47348 14.5267 1.72353 14.7768C1.97358 15.0268 2.31272 15.1673 2.66634 15.1673H3.99967" stroke="white" stroke-linecap="round" stroke-linejoin="round"/>
</svg>
