<svg width="16" height="17" viewBox="0 0 16 17" fill="none" xmlns="http://www.w3.org/2000/svg">
<path d="M8.12497 2.75048C8.23595 2.80499 8.34247 2.86584 8.44919 2.92821C8.48081 2.94639 8.51242 2.96456 8.545 2.98329C8.64477 3.04077 8.74428 3.09869 8.84372 3.15673C8.87432 3.17454 8.90492 3.19236 8.93645 3.21071C9.05807 3.28154 9.17965 3.35244 9.30107 3.4236C9.47461 3.52523 9.64866 3.62589 9.82346 3.72533C9.85261 3.74192 9.85261 3.74192 9.88235 3.75885C9.97667 3.81251 10.0711 3.86607 10.1655 3.91946C10.7943 4.27662 10.7943 4.27662 10.8437 4.37548C10.8469 4.41788 10.8482 4.46043 10.8485 4.50295C10.8488 4.52963 10.8491 4.55631 10.8493 4.5838C10.8495 4.6278 10.8495 4.6278 10.8498 4.6727C10.8501 4.71897 10.8501 4.71897 10.8505 4.76617C10.8513 4.86857 10.8518 4.97096 10.8523 5.07335C10.8524 5.10827 10.8526 5.14318 10.8528 5.17915C10.8536 5.36392 10.8542 5.54869 10.8547 5.73346C10.8552 5.92451 10.8566 6.11554 10.8582 6.30659C10.8592 6.45331 10.8596 6.60003 10.8598 6.74676C10.86 6.81719 10.8605 6.88763 10.8612 6.95806C10.8622 7.05659 10.8622 7.15509 10.862 7.25363C10.8625 7.28277 10.863 7.31192 10.8635 7.34195C10.8621 7.48348 10.8595 7.54308 10.7691 7.65728C10.6933 7.71484 10.6193 7.76651 10.5367 7.81371C10.5075 7.83055 10.4784 7.84738 10.4483 7.86473C10.417 7.88246 10.3857 7.90018 10.3535 7.91845C10.3208 7.93724 10.2881 7.95604 10.2544 7.9754C10.1848 8.01539 10.1151 8.05528 10.0454 8.09507C9.93694 8.15703 9.8287 8.21935 9.72056 8.28185C9.55372 8.37825 9.38681 8.47451 9.21976 8.57053C9.15293 8.60927 9.08634 8.64842 9.01993 8.68787C8.98611 8.70793 8.9523 8.72798 8.91745 8.74865C8.88683 8.76696 8.8562 8.78527 8.82465 8.80414C8.74997 8.84423 8.74997 8.84423 8.68747 8.84423C8.69779 9.1536 8.7081 9.46298 8.71872 9.78173C8.8631 9.78173 9.00747 9.78173 9.15622 9.78173C9.33683 9.86585 9.45009 9.96201 9.56247 10.1255C9.58786 10.2153 9.58786 10.2153 9.59372 10.2817C9.62466 10.2714 9.6556 10.2611 9.68747 10.2505C9.91934 10.2295 10.1221 10.2305 10.3125 10.3755C10.4303 10.4843 10.5211 10.5839 10.5312 10.7505C10.5622 10.7402 10.5931 10.7299 10.625 10.7192C10.8567 10.6983 11.0598 10.6991 11.25 10.8442C11.3875 10.9738 11.4884 11.1069 11.5083 11.3001C11.5086 11.3289 11.5088 11.3577 11.5091 11.3873C11.5095 11.4202 11.5099 11.4531 11.5103 11.487C11.5103 11.5223 11.5104 11.5576 11.5105 11.594C11.5107 11.6308 11.5109 11.6676 11.5111 11.7055C11.5114 11.7836 11.5116 11.8616 11.5116 11.9396C11.5117 12.0576 11.5128 12.1755 11.514 12.2934C11.5174 13.0109 11.3846 13.4813 10.9807 14.0836C10.9058 14.2103 10.9025 14.3216 10.9018 14.4673C10.9012 14.503 10.9006 14.5387 10.9 14.5754C10.8989 14.6505 10.8984 14.7255 10.8983 14.8005C10.8975 14.8362 10.8968 14.8719 10.896 14.9087C10.8955 14.9576 10.8955 14.9576 10.8951 15.0074C10.875 15.0942 10.875 15.0942 10.8152 15.1611C10.6781 15.2437 10.5624 15.2367 10.4051 15.2354C10.3579 15.2357 10.3579 15.2357 10.3098 15.2361C10.2058 15.2366 10.1019 15.2363 9.99802 15.2358C9.92575 15.2359 9.85348 15.236 9.78122 15.2362C9.6298 15.2364 9.47839 15.2361 9.32697 15.2355C9.13287 15.2348 8.9388 15.2352 8.7447 15.236C8.59549 15.2364 8.44627 15.2363 8.29706 15.236C8.22549 15.2359 8.15392 15.236 8.08236 15.2363C7.98233 15.2366 7.88234 15.2361 7.78232 15.2354C7.75274 15.2357 7.72316 15.2359 7.69268 15.2362C7.56079 15.2345 7.48735 15.2304 7.37219 15.1613C7.29253 15.0718 7.29331 15.0193 7.29368 14.9005C7.29295 14.8438 7.29295 14.8438 7.29221 14.7859C7.29245 14.7465 7.29269 14.7071 7.29294 14.6665C7.29294 14.181 7.21869 13.9072 6.87386 13.5617C6.85034 13.5386 6.82682 13.5154 6.80259 13.4916C6.778 13.4674 6.75341 13.4431 6.72807 13.4182C6.67867 13.37 6.62894 13.3221 6.57882 13.2746C6.27612 12.9814 6.07562 12.6339 6.05809 12.2059C6.05787 12.1667 6.05766 12.1275 6.05744 12.0871C6.05728 12.0654 6.05713 12.0436 6.05697 12.0212C6.05652 11.9497 6.0563 11.8783 6.05613 11.8069C6.05595 11.757 6.05577 11.7071 6.05559 11.6572C6.05526 11.553 6.05508 11.4487 6.05497 11.3444C6.05479 11.2108 6.05404 11.0772 6.05316 10.9436C6.05257 10.8407 6.05241 10.7378 6.05236 10.6349C6.05227 10.5857 6.05202 10.5364 6.05161 10.4872C6.05107 10.4183 6.05113 10.3496 6.05134 10.2807C6.05122 10.2416 6.05111 10.2025 6.05099 10.1622C6.06328 10.056 6.08214 10.0133 6.15622 9.93798C6.40566 9.83116 6.8026 9.89655 7.0521 9.97081C7.12497 10.0005 7.12497 10.0005 7.28122 10.0942C7.29669 9.47548 7.29669 9.47548 7.31247 8.84423C7.2506 8.8236 7.18872 8.80298 7.12497 8.78173C7.04799 8.7396 6.97325 8.69648 6.89841 8.65087C6.8514 8.62271 6.80436 8.5946 6.7573 8.56652C6.73146 8.55107 6.70562 8.53563 6.67899 8.51972C6.51604 8.42323 6.35164 8.32925 6.18747 8.23485C6.11777 8.19462 6.04806 8.15438 5.97837 8.11413C5.85723 8.04419 5.73591 7.9746 5.61435 7.90539C5.56646 7.87785 5.51856 7.8503 5.47068 7.82274C5.44927 7.8107 5.42786 7.79865 5.4058 7.78624C5.29655 7.72298 5.21623 7.67467 5.15622 7.56298C5.14192 7.46162 5.14278 7.36089 5.1431 7.25866C5.14284 7.22781 5.14257 7.19695 5.1423 7.16516C5.14157 7.0631 5.14154 6.96106 5.14158 6.859C5.14135 6.78809 5.14111 6.71718 5.14085 6.64626C5.14043 6.4976 5.14039 6.34895 5.14057 6.20028C5.14075 6.00972 5.1398 5.81919 5.13853 5.62863C5.13773 5.48217 5.13764 5.33572 5.13775 5.18927C5.1377 5.11901 5.13739 5.04875 5.13684 4.97849C5.13615 4.88025 5.13645 4.78207 5.137 4.68384C5.13658 4.65479 5.13617 4.62574 5.13574 4.59581C5.13758 4.45478 5.1407 4.39512 5.2307 4.28127C5.30929 4.22164 5.38559 4.17068 5.47226 4.12365C5.50314 4.10667 5.53401 4.08969 5.56582 4.0722C5.59888 4.05433 5.63193 4.03647 5.66599 4.01806C5.7369 3.97905 5.80779 3.93999 5.87864 3.90087C5.9146 3.88105 5.95056 3.86123 5.98761 3.84081C6.14868 3.75113 6.3078 3.65826 6.46677 3.56493C6.52829 3.52887 6.58982 3.49282 6.65134 3.45678C6.6824 3.43858 6.71346 3.42038 6.74546 3.40163C6.92304 3.2979 7.10114 3.19507 7.27927 3.09227C7.31276 3.07292 7.34626 3.05357 7.38076 3.03363C7.44363 2.99737 7.50659 2.96128 7.56966 2.92539C7.62549 2.8932 7.68085 2.86018 7.73559 2.82618C7.9621 2.68883 7.9621 2.68883 8.12497 2.75048ZM7.49997 3.47118C7.45153 3.50007 7.40307 3.52891 7.35459 3.55773C7.32793 3.57359 7.30126 3.58944 7.27379 3.60578C7.1149 3.69956 6.95483 3.7913 6.7949 3.88329C6.51332 4.0455 6.23199 4.20811 5.95115 4.37157C5.9188 4.39035 5.88645 4.40914 5.85312 4.42849C5.82355 4.44572 5.79399 4.46295 5.76352 4.4807C5.7244 4.50348 5.7244 4.50348 5.68448 4.52671C5.6269 4.5586 5.6269 4.5586 5.59372 4.59423C5.59075 4.67219 5.5898 4.74929 5.59018 4.82727C5.59017 4.85166 5.59017 4.87604 5.59016 4.90117C5.59018 4.98217 5.59043 5.06316 5.59067 5.14415C5.59073 5.20016 5.59078 5.25617 5.59081 5.31217C5.59093 5.45988 5.59123 5.60758 5.59158 5.75528C5.5919 5.90588 5.59204 6.05648 5.5922 6.20708C5.59253 6.5028 5.59307 6.79851 5.59372 7.09423C5.71145 7.0483 5.81843 6.99578 5.92807 6.93273C5.9629 6.91277 5.99773 6.8928 6.03361 6.87224C6.07123 6.85053 6.10885 6.82883 6.14646 6.80712C6.18539 6.78473 6.22433 6.76236 6.26327 6.73999C6.34376 6.69373 6.42422 6.6474 6.50464 6.60103C6.60167 6.54511 6.69881 6.48938 6.79601 6.43374C6.88552 6.38249 6.97497 6.33113 7.06443 6.27977C7.09686 6.26122 7.1293 6.24266 7.16272 6.22354C7.19381 6.20564 7.2249 6.18774 7.25693 6.1693C7.2836 6.15399 7.31027 6.13868 7.33775 6.12291C7.37066 6.10313 7.40357 6.08335 7.43747 6.06298C7.48034 6.04548 7.48034 6.04548 7.52407 6.02762C7.6311 5.97647 7.70129 5.93245 7.78122 5.84423C7.83017 5.65479 7.82136 5.47033 7.81479 5.27599C7.81415 5.22025 7.81366 5.16452 7.81332 5.10878C7.81201 4.96256 7.80864 4.81647 7.80483 4.6703C7.8013 4.52096 7.79974 4.37159 7.79801 4.22222C7.79433 3.9295 7.78847 3.63688 7.78122 3.34423C7.67444 3.34423 7.58941 3.41715 7.49997 3.47118ZM8.21872 3.34423C8.20929 3.66584 8.20208 3.98743 8.19768 4.30915C8.19556 4.45857 8.19269 4.60789 8.18808 4.75725C8.18365 4.90153 8.18123 5.04571 8.18018 5.19005C8.17943 5.24499 8.17797 5.29991 8.17577 5.35481C8.16918 5.52612 8.16933 5.67905 8.21872 5.84423C8.34128 5.96749 8.46501 6.02567 8.62497 6.09423C8.68838 6.13026 8.75141 6.16697 8.81382 6.2047C8.87779 6.24151 8.94179 6.27825 9.00583 6.31493C9.07639 6.35545 9.14695 6.39598 9.2175 6.43651C9.23541 6.44679 9.25333 6.45707 9.27178 6.46766C9.40319 6.54312 9.53427 6.61911 9.66526 6.6953C9.7024 6.71687 9.73954 6.73843 9.77668 6.75999C9.84736 6.80104 9.918 6.84216 9.98858 6.88336C10.0206 6.90191 10.0526 6.92045 10.0855 6.93956C10.1136 6.95589 10.1416 6.97222 10.1705 6.98904C10.2476 7.03045 10.3248 7.06243 10.4062 7.09423C10.4157 6.77261 10.4229 6.45103 10.4273 6.1293C10.4294 5.97989 10.4323 5.83056 10.4369 5.6812C10.4413 5.53693 10.4437 5.39274 10.4448 5.2484C10.4455 5.19347 10.447 5.13854 10.4492 5.08365C10.4558 4.91234 10.4556 4.75942 10.4062 4.59423C10.2838 4.47072 10.1599 4.41294 9.99997 4.34423C9.93059 4.30648 9.86316 4.26624 9.79526 4.22582C9.72486 4.1858 9.65443 4.14584 9.58396 4.10595C9.50751 4.06254 9.4311 4.01908 9.35471 3.97558C9.33561 3.9647 9.31651 3.95383 9.29682 3.94262C9.06689 3.81147 8.83871 3.67731 8.61096 3.54239C8.58211 3.52542 8.55326 3.50845 8.52353 3.49096C8.4985 3.47614 8.47347 3.46132 8.44767 3.44605C8.37308 3.4057 8.29763 3.3751 8.21872 3.34423ZM7.7739 6.33764C7.74149 6.35654 7.70908 6.37545 7.67569 6.39493C7.6409 6.41558 7.60612 6.43623 7.57029 6.45751C7.53389 6.47886 7.49747 6.50019 7.46104 6.5215C7.38591 6.56548 7.31087 6.60962 7.23589 6.65387C7.09983 6.73414 6.96324 6.8135 6.82666 6.8929C6.49836 7.08389 6.17089 7.27631 5.84372 7.46923C5.92836 7.55978 6.00892 7.62339 6.11728 7.68322C6.16081 7.7075 6.16081 7.7075 6.20522 7.73227C6.2361 7.74923 6.26698 7.7662 6.2988 7.78368C6.36339 7.81962 6.42797 7.85559 6.49253 7.89159C6.52501 7.90966 6.55749 7.92773 6.59096 7.94634C6.76316 8.04293 6.93351 8.14271 7.1038 8.24261C7.20248 8.31213 7.20248 8.31213 7.31247 8.34423C7.31368 8.30459 7.31368 8.30459 7.31492 8.26415C7.32693 8.02382 7.34231 7.82016 7.51426 7.64037C7.7074 7.47118 7.85741 7.4536 8.10959 7.45726C8.30483 7.47867 8.41128 7.56501 8.54294 7.7036C8.67464 7.90621 8.67323 8.10912 8.68747 8.34423C8.94538 8.21914 9.19466 8.08378 9.44138 7.93798C9.47284 7.91953 9.5043 7.90108 9.53672 7.88207C9.59872 7.84566 9.66062 7.80908 9.72242 7.77233C9.78298 7.73662 9.84393 7.70155 9.90522 7.6671C9.93383 7.65079 9.96244 7.63447 9.99192 7.61767C10.0176 7.60332 10.0432 7.58898 10.0697 7.57421C10.0879 7.56019 10.1062 7.54617 10.125 7.53173C10.125 7.50079 10.125 7.46985 10.125 7.43798C10.1052 7.42702 10.0855 7.41605 10.0652 7.40476C9.69261 7.19761 9.32115 6.98898 8.9531 6.77392C8.9068 6.74689 8.9068 6.74689 8.85956 6.71932C8.71684 6.6358 8.57456 6.55166 8.43308 6.46605C8.40857 6.45132 8.38406 6.43659 8.3588 6.42141C8.31377 6.39428 8.26888 6.36694 8.22416 6.33931C8.04452 6.23129 7.95172 6.23289 7.7739 6.33764ZM7.74997 8.03173C7.73132 8.15657 7.73365 8.28054 7.7349 8.40656C7.73478 8.44453 7.73465 8.4825 7.73453 8.52163C7.73434 8.60403 7.73438 8.6864 7.73479 8.7688C7.73543 8.89907 7.73511 9.02931 7.73466 9.15958C7.73382 9.43597 7.73403 9.71236 7.73435 9.98876C7.73469 10.2874 7.73486 10.586 7.73381 10.8846C7.73339 11.0141 7.73358 11.1436 7.73423 11.2732C7.73457 11.3725 7.73412 11.4719 7.7338 11.5712C7.73415 11.6072 7.73451 11.6431 7.73487 11.6802C7.73462 11.7129 7.73436 11.7457 7.7341 11.7795C7.73417 11.8222 7.73417 11.8222 7.73424 11.8659C7.71872 11.938 7.71872 11.938 7.66137 11.9951C7.56596 12.0468 7.50849 12.0294 7.40622 12.0005C7.31686 11.9111 7.33529 11.848 7.33408 11.723C7.33329 11.6789 7.3325 11.6348 7.3317 11.5907C7.33081 11.5215 7.33006 11.4523 7.32946 11.383C7.32637 11.0803 7.31849 10.817 7.15427 10.5532C6.95563 10.3715 6.75928 10.3414 6.49997 10.3442C6.49706 10.5909 6.49485 10.8376 6.4935 11.0843C6.49285 11.1989 6.49197 11.3134 6.49054 11.428C6.48917 11.5388 6.48844 11.6497 6.48811 11.7605C6.48778 11.8228 6.4868 11.8851 6.48581 11.9474C6.48571 12.3571 6.5962 12.6519 6.8801 12.9454C6.98142 13.0459 7.0843 13.1447 7.18784 13.2429C7.66134 13.7036 7.71502 14.1176 7.74997 14.7817C8.63685 14.7817 9.52372 14.7817 10.4375 14.7817C10.4478 14.5961 10.4581 14.4105 10.4687 14.2192C10.5152 13.9946 10.595 13.846 10.7215 13.6566C10.7875 13.5531 10.845 13.4478 10.9004 13.3384C10.918 13.3038 10.9356 13.2692 10.9537 13.2335C11.0569 12.9926 11.0727 12.7738 11.0741 12.5148C11.0744 12.4808 11.0746 12.4468 11.0749 12.4119C11.0754 12.3405 11.0757 12.269 11.0758 12.1976C11.0761 12.0884 11.0777 11.9792 11.0793 11.8699C11.0796 11.8004 11.0798 11.7308 11.0799 11.6612C11.0808 11.6124 11.0808 11.6124 11.0818 11.5625C11.0808 11.3749 11.0808 11.3749 10.9892 11.2141C10.888 11.1441 10.8394 11.1362 10.7187 11.1567C10.6454 11.1823 10.6454 11.1823 10.5937 11.2505C10.5667 11.3221 10.5448 11.3934 10.5252 11.4674C10.5 11.5317 10.5 11.5317 10.4062 11.5942C10.3105 11.5884 10.3105 11.5884 10.2187 11.563C10.153 11.4644 10.1487 11.4412 10.1488 11.3288C10.1483 11.3017 10.1478 11.2745 10.1473 11.2464C10.1467 11.1895 10.1466 11.1325 10.1468 11.0756C10.1435 10.9321 10.1406 10.8647 10.0514 10.7475C9.9724 10.6821 9.9724 10.6821 9.87497 10.6684C9.74703 10.6951 9.70397 10.7411 9.62497 10.8442C9.61047 10.9013 9.61047 10.9013 9.59568 10.9595C9.56247 11.063 9.56247 11.063 9.47263 11.1118C9.36902 11.1263 9.33286 11.1244 9.24997 11.063C9.21329 10.9896 9.21483 10.9449 9.21433 10.8631C9.21373 10.8359 9.21312 10.8086 9.2125 10.7804C9.21145 10.7231 9.21087 10.6657 9.21079 10.6083C9.20678 10.4647 9.20308 10.396 9.11374 10.2787C9.03487 10.2134 9.03487 10.2134 8.93747 10.1997C8.80953 10.2264 8.76647 10.2723 8.68747 10.3755C8.67297 10.4325 8.67297 10.4325 8.65818 10.4907C8.62497 10.5942 8.62497 10.5942 8.53513 10.6431C8.43152 10.6576 8.39536 10.6556 8.31247 10.5942C8.26515 10.4996 8.27672 10.4014 8.27679 10.2976C8.27668 10.2735 8.27657 10.2493 8.27646 10.2245C8.27623 10.1719 8.27607 10.1194 8.27595 10.0669C8.27573 9.98376 8.27524 9.90062 8.27466 9.81748C8.27302 9.58105 8.27152 9.34463 8.27104 9.1082C8.27072 8.96365 8.26981 8.81912 8.2685 8.67457C8.26811 8.61949 8.26795 8.56441 8.26802 8.50933C8.2681 8.43219 8.2674 8.3551 8.26654 8.27797C8.26674 8.25525 8.26695 8.23253 8.26716 8.20913C8.26439 8.05872 8.23242 7.98073 8.12497 7.87548C8.06356 7.85123 8.06356 7.85123 7.99997 7.85595C7.96904 7.85534 7.96904 7.85534 7.93747 7.85473C7.83319 7.88935 7.80627 7.93692 7.74997 8.03173Z" fill="white"/>
<path d="M11.5623 6.09446C11.6327 6.13898 11.6988 6.1837 11.7654 6.23313C11.7843 6.24692 11.8032 6.2607 11.8227 6.2749C12.2834 6.6134 12.7199 6.9786 13.1385 7.3679C13.1588 7.3867 13.1791 7.4055 13.2 7.42488C13.3408 7.55711 13.4692 7.69675 13.5936 7.84446C13.6075 7.86105 13.6215 7.87764 13.636 7.89474C13.7934 8.08479 13.93 8.27932 14.0467 8.49681C14.0569 8.51574 14.0671 8.53468 14.0776 8.55419C14.2163 8.82324 14.2768 9.12058 14.1993 9.41856C14.1153 9.6091 13.9593 9.76057 13.7703 9.84654C13.6005 9.90511 13.4352 9.94435 13.2549 9.93467C13.2128 9.93325 13.2128 9.93325 13.1697 9.9318C13.1114 9.92957 13.053 9.92673 12.9947 9.92326C12.8381 9.91912 12.7447 9.92567 12.6236 10.0306C12.5927 10.0622 12.5618 10.0939 12.5311 10.1257C12.4075 10.1875 12.2595 10.1704 12.1248 10.157C11.9724 10.1058 11.8688 10.0089 11.7811 9.87571C11.7726 9.8495 11.7642 9.82328 11.7555 9.79627C11.7257 9.71537 11.7257 9.71537 11.6545 9.68373C11.6282 9.67607 11.6019 9.6684 11.5748 9.6605C11.545 9.65134 11.5152 9.64217 11.4845 9.63272C11.4522 9.62332 11.4198 9.61392 11.3865 9.60423C9.92119 9.1474 9.92119 9.1474 9.73846 8.87461C9.71117 8.79041 9.72201 8.74036 9.74981 8.65696C9.78496 8.60032 9.78496 8.60032 9.84356 8.56321C10.0485 8.53952 10.1857 8.61028 10.367 8.69993C10.6392 8.8291 10.9145 8.94307 11.1971 9.04759C11.2498 9.06731 11.2498 9.06731 11.3037 9.08743C11.4922 9.15638 11.6761 9.21947 11.8748 9.25071C11.9609 9.1985 11.9609 9.1985 12.0311 9.12571C12.1902 9.04976 12.3316 9.05308 12.4998 9.09446C12.6502 9.17107 12.7308 9.25965 12.8123 9.40696C12.8123 9.4379 12.8123 9.46884 12.8123 9.50071C13.2918 9.5093 13.2918 9.5093 13.711 9.32554C13.7762 9.19992 13.772 9.07345 13.7315 8.94074C13.706 8.87939 13.6773 8.82118 13.6463 8.76243C13.6353 8.74104 13.6243 8.71965 13.6129 8.69762C13.4402 8.37538 13.2037 8.09361 12.9373 7.84446C12.8607 7.76845 12.7847 7.69195 12.7095 7.61448C12.2916 7.18674 11.7985 6.83131 11.3124 6.48472C11.2498 6.43821 11.2498 6.43821 11.1873 6.37571C11.1697 6.18211 11.1697 6.18211 11.2283 6.09837C11.3564 6.013 11.4269 6.03808 11.5623 6.09446ZM12.2498 9.50071C12.2292 9.52134 12.2086 9.54196 12.1873 9.56321C12.1973 9.64455 12.1973 9.64455 12.2186 9.71946C12.2701 9.70915 12.3217 9.69884 12.3748 9.68821C12.3851 9.65727 12.3954 9.62634 12.4061 9.59446C12.3631 9.54628 12.3631 9.54628 12.3123 9.50071C12.2917 9.50071 12.2711 9.50071 12.2498 9.50071Z" fill="white"/>
<path d="M4.03167 1.87442C4.17329 1.98771 4.21346 2.07806 4.25042 2.24942C4.26749 2.25287 4.28455 2.25632 4.30213 2.25987C4.47646 2.29663 4.64304 2.34443 4.81097 2.40372C4.83714 2.41292 4.86332 2.42211 4.89028 2.43159C5.25612 2.56306 5.61416 2.71627 5.96917 2.87442C5.99465 2.88557 6.02013 2.89671 6.04638 2.90819C6.1676 2.96414 6.23394 2.99865 6.28167 3.12442C6.27972 3.22013 6.27972 3.22013 6.25042 3.31192C6.16893 3.3841 6.12331 3.40741 6.01409 3.40091C5.86613 3.36442 5.73701 3.29964 5.60003 3.2338C5.22171 3.05649 4.83286 2.91602 4.43792 2.78067C4.40114 2.7677 4.36437 2.75473 4.32647 2.74137C4.23198 2.71255 4.18761 2.71752 4.09417 2.74942C4.0613 2.77069 4.02843 2.79196 3.99456 2.81388C3.85546 2.8971 3.72071 2.89585 3.56292 2.87442C3.4159 2.82172 3.31904 2.74427 3.21917 2.62442C3.19928 2.54117 3.19928 2.54117 3.18792 2.46817C2.71206 2.45021 2.71206 2.45021 2.28167 2.62442C2.21675 2.75428 2.23612 2.88643 2.27435 3.0214C2.45475 3.49655 2.80667 3.86147 3.15667 4.21817C3.17524 4.2372 3.19381 4.25623 3.21294 4.27583C3.31666 4.38104 3.42192 4.47938 3.53753 4.57169C3.65768 4.66823 3.77583 4.76648 3.893 4.86661C4.07544 5.0196 4.26701 5.15804 4.46198 5.29462C4.80225 5.53508 4.80225 5.53508 4.8305 5.68888C4.80869 5.80276 4.78343 5.84033 4.68792 5.90567C4.55704 5.92846 4.48351 5.90272 4.37664 5.83109C4.3303 5.7972 4.28434 5.76278 4.2387 5.72794C4.2141 5.70963 4.1895 5.69133 4.16415 5.67247C3.93666 5.5018 3.71468 5.32439 3.49646 5.14206C3.45835 5.11024 3.42015 5.07853 3.38183 5.04697C2.74414 4.5216 1.86763 3.76947 1.76995 2.89444C1.76092 2.64944 1.79273 2.47933 1.9505 2.2908C2.21218 2.03296 2.54129 2.02294 2.88714 2.017C2.91985 2.01729 2.95256 2.01758 2.98626 2.01788C3.18981 2.01894 3.18981 2.01894 3.36212 1.92276C3.39964 1.88337 3.39964 1.88337 3.43792 1.84317C3.64304 1.73272 3.83231 1.76736 4.03167 1.87442ZM3.65667 2.21817C3.63605 2.26974 3.61542 2.3213 3.59417 2.37442C3.6148 2.39505 3.63542 2.41567 3.65667 2.43692C3.69792 2.43692 3.73917 2.43692 3.78167 2.43692C3.80291 2.36201 3.80291 2.36201 3.81292 2.28067C3.7923 2.26005 3.77167 2.23942 3.75042 2.21817C3.71949 2.21817 3.68855 2.21817 3.65667 2.21817Z" fill="white"/>
<path d="M4.75002 6.0936C4.81252 6.1561 4.81252 6.1561 4.83009 6.25766C4.81016 6.39059 4.77518 6.42873 4.67018 6.50864C4.64497 6.52636 4.61975 6.54409 4.59377 6.56235C4.56082 6.58588 4.52786 6.6094 4.49391 6.63364C4.43769 6.67372 4.38142 6.71373 4.32502 6.75356C4.14718 6.87963 3.97912 7.01552 3.81252 7.1561C3.77717 7.18561 3.74181 7.21511 3.70644 7.2446C3.67017 7.27498 3.63392 7.30538 3.59767 7.33579C3.58093 7.34978 3.56419 7.36378 3.54695 7.3782C3.49959 7.4182 3.45291 7.45902 3.40627 7.49985C3.37658 7.52559 3.34689 7.55133 3.3163 7.57785C3.2434 7.64964 3.2434 7.64964 3.23915 7.73777C3.24209 7.7656 3.24503 7.79344 3.24806 7.82212C3.25527 7.99493 3.23436 8.11294 3.12502 8.24985C2.99148 8.37868 2.87178 8.41515 2.68752 8.41587C2.63539 8.41339 2.58327 8.4104 2.53127 8.4061C2.52293 8.4283 2.51459 8.45049 2.506 8.47336C2.45469 8.59599 2.38865 8.7087 2.32314 8.82419C2.25071 8.96589 2.23325 9.09052 2.25002 9.24985C2.35578 9.39408 2.45478 9.42879 2.62502 9.4686C3.70668 9.57586 4.89728 9.07248 5.84143 8.59739C5.95346 8.55654 6.03787 8.55153 6.15627 8.56235C6.25115 8.643 6.27873 8.68814 6.28908 8.81235C6.1833 9.06621 5.77248 9.16792 5.53684 9.26696C3.21374 10.2226 3.21374 10.2226 2.21877 9.8436C2.0136 9.73722 1.85221 9.56522 1.78127 9.3436C1.72999 8.89401 1.90923 8.53471 2.14833 8.16562C2.16126 8.14186 2.17419 8.11809 2.18752 8.0936C2.1772 8.07298 2.16689 8.05235 2.15627 8.0311C2.13886 7.84494 2.13996 7.68885 2.25002 7.5311C2.36673 7.41698 2.46497 7.34687 2.62502 7.31235C2.65529 7.31658 2.65529 7.31658 2.68617 7.3209C2.81824 7.3385 2.88311 7.32963 2.99233 7.24814C3.07421 7.17359 3.15202 7.09483 3.23061 7.01683C3.31255 6.93882 3.40076 6.86971 3.49025 6.80063C3.50813 6.78678 3.526 6.77292 3.54442 6.75865C3.60242 6.71389 3.66059 6.66937 3.71877 6.62485C3.76483 6.58938 3.81089 6.55389 3.85695 6.51841C3.9876 6.41797 4.11827 6.31759 4.25002 6.2186C4.2698 6.20357 4.28959 6.18853 4.30997 6.17304C4.47432 6.05105 4.56107 5.99913 4.75002 6.0936ZM2.59377 7.81235C2.60408 7.86391 2.61439 7.91548 2.62502 7.9686C2.67658 7.95829 2.72814 7.94798 2.78127 7.93735C2.79158 7.90641 2.80189 7.87548 2.81252 7.8436C2.78194 7.81169 2.75065 7.78046 2.71877 7.74985C2.67307 7.74696 2.67307 7.74696 2.59377 7.81235Z" fill="white"/>
<path d="M14.0622 2.31259C14.2307 2.52852 14.2451 2.73211 14.2185 3.00009C14.1458 3.29316 14.0135 3.53453 13.8435 3.78134C13.8332 3.80197 13.8229 3.82259 13.8122 3.84384C13.8225 3.87478 13.8329 3.90572 13.8435 3.93759C13.8677 4.13888 13.8405 4.3039 13.7185 4.46884C13.5663 4.58994 13.464 4.62883 13.2732 4.61338C13.1463 4.61164 13.1463 4.61164 13.0344 4.66379C12.9994 4.70074 12.9656 4.73882 12.9327 4.77768C12.8654 4.85444 12.7922 4.91478 12.7126 4.97861C12.5925 5.07515 12.4743 5.1734 12.3572 5.27353C11.6192 5.89109 11.6192 5.89109 11.4079 5.91806C11.3122 5.90634 11.3122 5.90634 11.238 5.85556C11.1712 5.7579 11.1659 5.71004 11.1872 5.59384C11.2983 5.46854 11.4247 5.37379 11.5603 5.27744C11.8847 5.04283 12.2031 4.80254 12.4956 4.52841C12.5535 4.47665 12.6107 4.43681 12.6755 4.39463C12.7639 4.29698 12.7585 4.27172 12.7556 4.14463C12.754 4.11465 12.7524 4.08468 12.7508 4.0538C12.749 3.91179 12.7873 3.81065 12.886 3.70432C12.9781 3.6224 13.0682 3.56252 13.1872 3.53134C13.2472 3.54005 13.2472 3.54005 13.3083 3.54892C13.3738 3.5545 13.3738 3.5545 13.4372 3.53134C13.6126 3.33852 13.7479 3.06708 13.7634 2.80478C13.7591 2.68894 13.7591 2.68894 13.6989 2.61338C13.3436 2.37024 12.8258 2.4724 12.4302 2.54511C11.6664 2.69906 10.9403 2.98668 10.234 3.30916C9.96993 3.42652 9.96993 3.42652 9.81223 3.37509C9.74051 3.29181 9.71714 3.24706 9.72239 3.13681C9.76959 3.00869 9.85273 2.95812 9.97336 2.90232C9.99972 2.89012 10.0261 2.87793 10.0532 2.86537C10.0964 2.84601 10.0964 2.84601 10.1404 2.82627C10.1706 2.81266 10.2009 2.79905 10.2321 2.78503C13.1879 1.47864 13.1879 1.47864 14.0622 2.31259ZM13.2497 3.96884C13.2291 3.98947 13.2085 4.01009 13.1872 4.03134C13.1972 4.09723 13.1972 4.09723 13.2185 4.15634C13.2776 4.17764 13.2776 4.17764 13.3435 4.18759C13.3641 4.16697 13.3847 4.14634 13.406 4.12509C13.396 4.05921 13.396 4.05921 13.3747 4.00009C13.3156 3.9788 13.3156 3.9788 13.2497 3.96884Z" fill="white"/>
</svg>
