<svg width="16" height="17" viewBox="0 0 16 17" fill="none" xmlns="http://www.w3.org/2000/svg">
<path d="M10.6663 9.16667H11.9997M11.333 6.5H4.66634C3.41967 6.5 2.79701 6.5 2.33301 6.79467C2.02901 6.988 1.77634 7.26533 1.60101 7.6C1.33301 8.11067 1.33301 8.796 1.33301 10.1667C1.33301 11.5373 1.33301 12.2227 1.60101 12.7333C1.77634 13.068 2.02901 13.3453 2.33301 13.5387C2.79701 13.8333 3.41967 13.8333 4.66634 13.8333C5.07501 13.8333 5.27967 13.8333 5.47301 13.802C5.99898 13.7136 6.48435 13.4636 6.86167 13.0867C7.00767 12.9433 7.13834 12.7707 7.40034 12.4247L7.62301 12.1313C7.75501 11.956 7.82167 11.8687 7.90301 11.834C7.96964 11.806 8.04402 11.8025 8.11301 11.824C8.19634 11.85 8.26967 11.9307 8.41567 12.0907L9.05701 12.796C9.21568 12.9713 9.29501 13.0587 9.37834 13.136C9.80367 13.5333 10.3317 13.774 10.8877 13.8233C10.9957 13.8333 11.1077 13.8333 11.333 13.8333C12.5797 13.8333 13.2023 13.8333 13.6663 13.5387C13.9703 13.3453 14.223 13.068 14.3983 12.7333C14.6663 12.2227 14.6663 11.5373 14.6663 10.1667C14.6663 8.796 14.6663 8.11067 14.3983 7.6C14.2288 7.27226 13.9765 6.9946 13.6663 6.79467C13.2023 6.5 12.5797 6.5 11.333 6.5Z" stroke="white" stroke-linecap="round"/>
<path d="M14.6663 10.4993V8.80068C14.6663 8.14735 14.6663 7.82068 14.615 7.50535C14.5892 7.35009 14.5543 7.19649 14.5103 7.04535C14.4217 6.74202 14.2843 6.46202 14.0097 5.90202C13.4583 4.77868 13.183 4.21735 12.781 3.84002C12.5893 3.65922 12.3713 3.50861 12.1343 3.39335C11.663 3.16602 11.1277 3.16602 10.0557 3.16602H5.94367C4.87234 3.16602 4.33701 3.16602 3.86567 3.39268C3.62869 3.50815 3.41064 3.65898 3.21901 3.84002C2.81767 4.21735 2.54167 4.77868 1.99034 5.90202C1.71567 6.46202 1.57834 6.74202 1.48967 7.04535C1.44577 7.19649 1.41082 7.35009 1.38501 7.50535C1.33301 7.82068 1.33301 8.14735 1.33301 8.80068V10.4993" stroke="white" stroke-linecap="round"/>
</svg>
