<svg width="49" height="49" viewBox="0 0 49 49" fill="none" xmlns="http://www.w3.org/2000/svg">
<g clip-path="url(#clip0_1072_6302)">
<path d="M24.6694 2.09018C25.1935 2.38681 25.1935 2.38681 25.3269 2.65378C25.3384 2.883 25.3444 3.10972 25.3462 3.33906C25.3472 3.40964 25.3481 3.48021 25.349 3.55292C25.352 3.78672 25.3543 4.02052 25.3567 4.25432C25.3586 4.41621 25.3606 4.57811 25.3626 4.74C25.3678 5.16652 25.3724 5.59304 25.3769 6.01957C25.3816 6.45464 25.3869 6.8897 25.3921 7.32477C25.4022 8.17873 25.4117 9.03269 25.4209 9.88666C27.6269 10.8615 29.8382 11.8221 32.0584 12.7644C33.8044 13.5055 35.5459 14.2566 37.2847 15.0146C38.7713 15.6625 38.7713 15.6625 40.2657 16.2921C40.3356 16.3211 40.4055 16.3501 40.4775 16.38C40.7885 16.5087 41.0998 16.6364 41.4119 16.7624C41.5159 16.805 41.62 16.8477 41.7271 16.8917C41.815 16.9271 41.9028 16.9626 41.9933 16.9991C42.3239 17.1639 42.6301 17.3462 42.7986 17.6831C42.8076 17.9577 42.8108 18.23 42.8099 18.5045C42.81 18.6337 42.81 18.6337 42.8101 18.7654C42.8103 19.0556 42.8097 19.3458 42.8092 19.636C42.8092 19.8433 42.8092 20.0506 42.8093 20.2579C42.8093 20.8223 42.8087 21.3866 42.8081 21.951C42.8075 22.5402 42.8074 23.1294 42.8073 23.7187C42.8071 24.7081 42.8065 25.6976 42.8056 26.687C42.8048 27.7063 42.8041 28.7256 42.8037 29.7448C42.8037 29.839 42.8037 29.839 42.8036 29.9351C42.8035 30.2502 42.8034 30.5652 42.8033 30.8803C42.8023 33.4949 42.8006 36.1096 42.7986 38.7242C42.8721 38.7383 42.9456 38.7523 43.0214 38.7667C43.2509 38.8146 43.4357 38.879 43.6486 38.9751C43.7201 39.0071 43.7917 39.0391 43.8654 39.0721C43.9416 39.1069 44.0178 39.1416 44.0964 39.1774C44.2165 39.2315 44.2165 39.2315 44.339 39.2867C44.5084 39.3631 44.6778 39.4398 44.847 39.5167C45.1024 39.6327 45.3581 39.7479 45.6138 39.863C46.0856 40.0758 46.556 40.2914 47.0256 40.509C47.0879 40.5377 47.1503 40.5665 47.2145 40.5961C47.3741 40.6702 47.5328 40.746 47.6915 40.822C47.7756 40.862 47.8596 40.9021 47.9462 40.9433C48.1746 41.0862 48.2931 41.2204 48.4346 41.4483C48.4967 41.7377 48.4895 42.0032 48.4346 42.2937C48.2118 42.6082 48.0717 42.7357 47.6982 42.8325C46.8628 42.9022 45.9109 42.2665 45.166 41.9209C45.0752 41.879 44.9845 41.8371 44.891 41.7939C44.7988 41.7513 44.7066 41.7087 44.6115 41.6648C44.5181 41.6217 44.4247 41.5785 44.3285 41.5341C44.1372 41.4451 43.9463 41.3552 43.7558 41.2646C43.4775 41.1324 43.1977 41.0039 42.9174 40.8759C42.8332 40.8348 42.7489 40.7937 42.6621 40.7514C42.2552 40.5692 41.9713 40.4612 41.5363 40.5991C41.3923 40.6602 41.2494 40.7243 41.1078 40.7908C40.9412 40.8592 40.7746 40.9274 40.6079 40.9954C40.4216 41.0751 40.2355 41.1551 40.0495 41.2355C39.9475 41.2792 39.8455 41.323 39.7404 41.3681C39.4054 41.5119 39.0707 41.6562 38.7359 41.8006C38.5599 41.8763 38.3838 41.9519 38.2078 42.0276C36.3551 42.8238 34.5053 43.6264 32.656 44.4301C30.9565 45.1686 29.2554 45.9029 27.5503 46.6282C27.1015 46.8194 26.6548 47.0147 26.209 47.2127C26.1045 47.2584 26 47.3041 25.8923 47.3511C25.7089 47.4313 25.526 47.5129 25.3441 47.5963C25.2264 47.6471 25.2264 47.6471 25.1064 47.6989C25.009 47.7425 25.009 47.7425 24.9097 47.787C24.1616 47.9387 23.5009 47.6385 22.8307 47.336C22.7353 47.2941 22.6399 47.2522 22.5415 47.209C22.3351 47.1182 22.1289 47.0269 21.923 46.9351C21.4214 46.7116 20.9184 46.4913 20.4155 46.2705C20.2405 46.1936 20.0655 46.1166 19.8906 46.0395C18.805 45.5616 17.7142 45.0964 16.6222 44.6337C14.4655 43.7198 12.315 42.7921 10.168 41.8558C9.9782 41.7733 9.78828 41.6912 9.5982 41.6094C9.15751 41.4198 8.71975 41.2266 8.28586 41.0219C8.20569 40.9852 8.12553 40.9485 8.04293 40.9107C7.89507 40.843 7.74812 40.7732 7.60244 40.7008C7.22812 40.5325 6.9911 40.4805 6.5943 40.6059C6.44981 40.6646 6.30653 40.7263 6.16451 40.7908C6.09199 40.8217 6.01946 40.8526 5.94474 40.8845C5.71106 40.9859 5.47983 41.0918 5.24866 41.1988C5.12211 41.2566 5.12211 41.2566 4.993 41.3156C4.72578 41.4377 4.45882 41.5603 4.19191 41.6831C3.83988 41.8451 3.4876 42.0065 3.13516 42.1675C3.01624 42.2225 3.01624 42.2225 2.89491 42.2787C1.56603 42.8857 1.56603 42.8857 1.01578 42.8045C0.526644 42.5839 0.526644 42.5839 0.340637 42.2937C0.264941 41.877 0.255696 41.5711 0.501512 41.2157C0.727068 40.9668 0.893944 40.8616 1.19815 40.7258C1.29422 40.6822 1.3903 40.6386 1.48928 40.5936C1.59264 40.5483 1.69599 40.5029 1.80248 40.4561C1.90916 40.4082 2.01585 40.3603 2.12576 40.3109C2.35232 40.2094 2.57904 40.1083 2.80611 40.0079C3.10354 39.8762 3.40001 39.7426 3.6962 39.6082C3.98448 39.4774 4.27314 39.3474 4.56177 39.2174C4.67076 39.168 4.77974 39.1187 4.89203 39.0678C5.04368 39.0002 5.04368 39.0002 5.19839 38.9312C5.28762 38.8911 5.37686 38.8511 5.46879 38.8098C5.69484 38.7242 5.69484 38.7242 5.97664 38.7242C5.97621 38.6162 5.97578 38.5082 5.97533 38.3969C5.96516 35.8335 5.95742 33.2701 5.95266 30.7067C5.95207 30.3912 5.95147 30.0758 5.95084 29.7603C5.95072 29.6975 5.9506 29.6347 5.95047 29.57C5.94843 28.5529 5.94472 27.5358 5.94041 26.5186C5.93602 25.4751 5.93344 24.4316 5.93245 23.3881C5.93184 22.8019 5.9304 22.2157 5.92699 21.6295C5.9238 21.078 5.92281 20.5266 5.92352 19.9751C5.92339 19.7724 5.92245 19.5698 5.92066 19.3672C5.91833 19.0909 5.91888 18.8147 5.92016 18.5384C5.9188 18.4579 5.91743 18.3774 5.91602 18.2945C5.92112 17.8893 5.9376 17.7323 6.19796 17.4045C6.46874 17.1962 6.72354 17.0564 7.0356 16.917C7.0957 16.8899 7.1558 16.8628 7.21772 16.8349C7.42958 16.7403 7.6423 16.6479 7.85531 16.5559C7.97769 16.503 7.97769 16.503 8.10254 16.449C8.68227 16.199 9.26338 15.9524 9.84485 15.7065C10.4069 15.4688 10.9685 15.2301 11.5301 14.9914C11.5878 14.9668 11.6455 14.9423 11.705 14.917C12.9823 14.3738 14.2557 13.822 15.5285 13.2683C15.941 13.0888 16.3536 12.9094 16.7661 12.73C16.9132 12.666 16.9132 12.666 17.0632 12.6008C18.07 12.1633 19.0788 11.7303 20.0886 11.2995C21.1794 10.8338 22.2669 10.3604 23.3543 9.88666C23.3545 9.79709 23.3546 9.70751 23.3547 9.61523C23.3563 8.77075 23.3603 7.9263 23.3667 7.08184C23.37 6.6477 23.3723 6.21359 23.3727 5.77943C23.3731 5.36037 23.3758 4.94138 23.38 4.52234C23.3812 4.36255 23.3816 4.20274 23.3812 4.04294C23.3808 3.8189 23.3832 3.59507 23.3863 3.37106C23.3855 3.30511 23.3847 3.23917 23.3839 3.17122C23.3923 2.80833 23.4403 2.66336 23.6752 2.37999C24.0284 2.09496 24.215 2.04649 24.6694 2.09018ZM22.7609 12.3036C22.6781 12.3397 22.5952 12.3757 22.5098 12.4129C22.4191 12.453 22.3283 12.4931 22.2348 12.5344C22.139 12.5762 22.0433 12.618 21.9446 12.6611C21.7357 12.7524 21.5269 12.8438 21.3183 12.9355C20.812 13.1579 20.3051 13.3789 19.7982 13.5999C19.6206 13.6774 19.4431 13.7549 19.2656 13.8324C18.001 14.3843 16.7326 14.9273 15.4639 15.4698C15.0275 15.6565 14.5911 15.8433 14.1547 16.0301C14.0504 16.0748 13.9461 16.1194 13.8386 16.1654C12.3747 16.7924 10.9132 17.4251 9.45218 18.0589C9.71944 18.2737 9.97595 18.4185 10.2915 18.5516C10.384 18.5909 10.4766 18.6303 10.5719 18.6708C10.672 18.7127 10.772 18.7547 10.8751 18.7979C10.9795 18.8421 11.0838 18.8863 11.1913 18.9318C11.4728 19.051 11.7545 19.1698 12.0362 19.2884C12.3303 19.4123 12.6241 19.5368 12.9179 19.6613C13.035 19.7109 13.1522 19.7605 13.2693 19.8102C13.3557 19.8468 13.3557 19.8468 13.4437 19.8841C13.6171 19.9575 13.7905 20.0309 13.964 20.1043C14.7436 20.4342 15.5216 20.7674 16.2976 21.1058C17.6767 21.7064 19.0597 22.2983 20.4424 22.8906C20.5005 22.9155 20.5587 22.9404 20.6186 22.9661C20.7911 23.04 20.9637 23.1139 21.1362 23.1878C21.2469 23.2352 21.3575 23.2827 21.4716 23.3315C21.6872 23.4238 21.903 23.5157 22.1189 23.6072C22.55 23.7902 22.979 23.9733 23.3995 24.1796C23.459 24.2081 23.5186 24.2365 23.58 24.2658C23.7253 24.336 23.869 24.4091 24.0126 24.4827C24.4404 24.5703 24.7437 24.4224 25.1391 24.2585C25.2194 24.2259 25.2997 24.1934 25.3825 24.1598C25.6553 24.0471 25.9263 23.9308 26.1973 23.8138C26.2993 23.77 26.4013 23.7262 26.5064 23.6812C26.8414 23.5373 27.1761 23.393 27.5109 23.2487C27.6869 23.173 27.863 23.0973 28.0391 23.0216C29.8901 22.2262 31.7383 21.4245 33.5859 20.6212C35.4952 19.7913 37.4084 18.9705 39.323 18.1528C39.0587 17.9408 38.806 17.796 38.4942 17.6645C38.4037 17.6261 38.3133 17.5877 38.2201 17.548C38.1221 17.507 38.0241 17.466 37.9232 17.4237C37.7693 17.3585 37.7693 17.3585 37.6124 17.292C37.3918 17.1987 37.1711 17.1055 36.9503 17.0125C36.6015 16.8657 36.253 16.7183 35.9046 16.5706C35.8466 16.5461 35.7887 16.5215 35.729 16.4962C35.6121 16.4467 35.4952 16.3971 35.3783 16.3476C35.203 16.2734 35.0278 16.1992 34.8526 16.125C33.9397 15.7386 33.0289 15.3477 32.1195 14.9532C31.9869 14.8958 31.8544 14.8384 31.7218 14.781C31.0781 14.5023 30.4346 14.223 29.7914 13.9431C29.2392 13.7028 28.6867 13.463 28.1341 13.2235C27.9154 13.1286 27.6967 13.0334 27.4781 12.9381C27.173 12.805 26.8675 12.6726 26.562 12.5403C26.4236 12.4796 26.4236 12.4796 26.2823 12.4178C26.1975 12.3812 26.1127 12.3446 26.0253 12.3069C25.9513 12.2747 25.8773 12.2426 25.8011 12.2094C25.5985 12.1253 25.5985 12.1253 25.3269 12.1411C25.3256 12.2576 25.3256 12.2576 25.3243 12.3765C25.3192 12.7286 25.3114 13.0806 25.3035 13.4326C25.3021 13.5549 25.3008 13.6772 25.2994 13.8032C25.2964 13.9207 25.2934 14.0381 25.2902 14.1592C25.2883 14.2674 25.2863 14.3756 25.2843 14.4871C25.223 14.8266 25.1239 14.9355 24.8573 15.1469C24.5924 15.2794 24.3998 15.2639 24.1058 15.2409C23.6707 15.0281 23.6707 15.0281 23.5422 14.7712C23.5277 14.5736 23.5187 14.3756 23.5125 14.1775C23.5066 14.0004 23.5066 14.0004 23.5006 13.8198C23.4969 13.6959 23.4932 13.572 23.4894 13.4444C23.4853 13.3185 23.4812 13.1927 23.4771 13.0668C23.4671 12.7582 23.4575 12.4497 23.4483 12.1411C23.1556 12.1411 23.0246 12.1879 22.7609 12.3036ZM7.85531 19.6557C7.85531 25.6384 7.85531 31.621 7.85531 37.7849C8.38682 37.6077 8.85633 37.4442 9.35605 37.2118C9.47443 37.1574 9.59283 37.1031 9.71123 37.0488C9.89357 36.9646 10.0758 36.8802 10.2578 36.7953C10.4363 36.7122 10.6153 36.6302 10.7944 36.5484C10.8997 36.4995 11.005 36.4506 11.1135 36.4002C11.5699 36.2268 11.9275 36.1325 12.3935 36.2996C12.7613 36.5477 12.7613 36.5477 12.8338 36.8456C12.8391 37.2114 12.8292 37.4901 12.5886 37.7781C12.3203 38.0107 12.0392 38.1377 11.7143 38.27C11.6525 38.2961 11.5907 38.3222 11.527 38.3491C11.3309 38.432 11.1343 38.5136 10.9375 38.5951C10.7398 38.6773 10.5422 38.7598 10.345 38.843C10.2225 38.8947 10.0998 38.9457 9.97677 38.9961C9.65325 39.1174 9.65325 39.1174 9.45218 39.3818C11.9259 40.4574 14.3997 41.5329 16.8804 42.5923C17.8133 42.9909 18.7447 43.3927 19.6752 43.797C20.0077 43.9413 20.3402 44.0855 20.6728 44.2298C20.8899 44.3241 21.1069 44.4186 21.3239 44.5133C21.6256 44.645 21.9276 44.776 22.2297 44.907C22.3205 44.9468 22.4113 44.9866 22.5048 45.0277C22.6298 45.0816 22.6298 45.0816 22.7573 45.1367C22.8299 45.1683 22.9025 45.1999 22.9773 45.2325C23.1773 45.3153 23.1773 45.3153 23.4483 45.2996C23.4483 39.038 23.4483 32.7764 23.4483 26.325C22.4988 25.849 22.4988 25.849 21.5329 25.4158C21.4614 25.3852 21.3898 25.3547 21.3161 25.3232C21.1612 25.2571 21.0063 25.1912 20.8513 25.1254C20.5976 25.0178 20.3442 24.9098 20.0908 24.8016C19.718 24.6425 19.3451 24.4836 18.9722 24.3248C18.0281 23.9226 17.0848 23.5187 16.1415 23.1146C15.9207 23.0201 15.7 22.9256 15.4792 22.8311C14.2716 22.3143 13.0649 21.7954 11.8611 21.2698C11.6849 21.1929 11.5087 21.116 11.3325 21.0392C10.7763 20.7966 10.2203 20.5534 9.6647 20.3093C9.46606 20.2226 9.26741 20.1358 9.06874 20.0491C8.97801 20.009 8.88727 19.9689 8.79379 19.9276C8.71091 19.8915 8.62803 19.8554 8.54264 19.8183C8.47069 19.7867 8.39874 19.7551 8.32461 19.7226C8.12605 19.64 8.12605 19.64 7.85531 19.6557ZM40.2326 19.8183C40.1497 19.8543 40.0668 19.8904 39.9814 19.9276C39.8907 19.9677 39.7999 20.0078 39.7065 20.0491C39.5627 20.1118 39.5627 20.1118 39.4161 20.1758C39.2072 20.2671 38.9984 20.3586 38.7897 20.4503C38.2842 20.6723 37.7782 20.8929 37.2721 21.1136C37.0948 21.191 36.9175 21.2684 36.7402 21.3458C35.4609 21.9041 34.1778 22.4533 32.8944 23.0021C32.4544 23.1904 32.0143 23.3788 31.5742 23.5672C31.471 23.6114 31.3677 23.6556 31.2613 23.7012C30.131 24.1852 29.0025 24.6734 27.8751 25.1641C27.5626 25.2999 27.2498 25.4349 26.937 25.5699C26.7834 25.6363 26.7834 25.6363 26.6266 25.704C26.4356 25.7866 26.2444 25.869 26.0532 25.9513C25.9297 26.0048 25.9297 26.0048 25.8036 26.0594C25.7315 26.0904 25.6594 26.1215 25.5851 26.1536C25.4223 26.2191 25.4223 26.2191 25.3269 26.325C25.3177 26.5697 25.3147 26.8119 25.3156 27.0567C25.3156 27.1342 25.3155 27.2118 25.3154 27.2917C25.3152 27.5536 25.3158 27.8156 25.3163 28.0775C25.3163 28.2644 25.3163 28.4514 25.3162 28.6383C25.3162 29.1476 25.3168 29.6568 25.3174 30.1661C25.318 30.6976 25.3181 31.2292 25.3182 31.7607C25.3185 32.768 25.3192 33.7754 25.3202 34.7827C25.3212 35.9292 25.3217 37.0757 25.3222 38.2222C25.3232 40.5813 25.3248 42.9404 25.3269 45.2996C25.6397 45.24 25.914 45.1683 26.2062 45.041C26.3249 44.9898 26.3249 44.9898 26.4459 44.9375C26.5316 44.8999 26.6172 44.8624 26.7055 44.8237C26.8425 44.7643 26.8425 44.7643 26.9824 44.7036C27.1813 44.6174 27.3801 44.5309 27.5788 44.4442C28.0066 44.2577 28.4347 44.0721 28.8629 43.8865C29.089 43.7885 29.3151 43.6904 29.5412 43.5922C30.6933 43.0922 31.8478 42.5977 33.0025 42.1037C34.8142 41.3286 36.6248 40.551 38.4318 39.765C38.7285 39.6362 39.0256 39.5087 39.323 39.3818C39.1788 39.0933 38.9021 39.0385 38.6167 38.9216C38.4903 38.8683 38.3639 38.815 38.2375 38.7617C38.0379 38.6783 37.8381 38.5952 37.6382 38.5125C37.4455 38.4324 37.2532 38.3513 37.0609 38.27C36.9718 38.2337 36.9718 38.2337 36.8809 38.1967C36.5292 38.0474 36.2813 37.8907 36.0354 37.597C35.9041 37.2363 35.908 36.9309 36.0471 36.5755C36.2643 36.3293 36.3687 36.2514 36.6929 36.188C37.2694 36.2646 37.7879 36.461 38.3129 36.7025C38.3821 36.7335 38.4514 36.7645 38.5227 36.7964C38.7409 36.8943 38.9586 36.9931 39.1763 37.0921C39.3963 37.1917 39.6165 37.291 39.8368 37.3899C39.9732 37.4511 40.1095 37.5128 40.2455 37.5749C40.5697 37.7316 40.5697 37.7316 40.9199 37.7849C40.9199 31.8023 40.9199 25.8197 40.9199 19.6557C40.6272 19.6557 40.4963 19.7025 40.2326 19.8183Z" fill="#074139"/>
<path d="M33.687 34.5912C34.211 34.8878 34.211 34.8878 34.3445 35.1548C34.384 35.4421 34.3901 35.7134 34.3445 36.0002C34.1396 36.259 33.9808 36.4169 33.687 36.5638C33.192 36.62 32.9463 36.4937 32.5598 36.1881C32.3967 35.8619 32.4093 35.5106 32.4658 35.1548C32.8335 34.6904 33.0979 34.5345 33.687 34.5912Z" fill="#074139"/>
<path d="M15.6517 34.5912C16.1757 34.8878 16.1757 34.8878 16.3092 35.1548C16.3487 35.4421 16.3548 35.7134 16.3092 36.0002C16.1043 36.259 15.9455 36.4169 15.6517 36.5638C15.1568 36.62 14.911 36.4937 14.5245 36.1881C14.3614 35.8619 14.374 35.5106 14.4305 35.1548C14.7982 34.6904 15.0626 34.5345 15.6517 34.5912Z" fill="#074139"/>
<path d="M24.6694 17.1195C25.1934 17.4161 25.1934 17.4161 25.3269 17.6831C25.3664 17.9705 25.3725 18.2417 25.3269 18.5285C25.122 18.7874 24.9632 18.9452 24.6694 19.0921C24.1745 19.1483 23.9287 19.022 23.5422 18.7164C23.3791 18.3902 23.3917 18.0389 23.4482 17.6831C23.8159 17.2187 24.0803 17.0629 24.6694 17.1195Z" fill="#074139"/>
</g>
<defs>
<clipPath id="clip0_1072_6302">
<rect width="48.0939" height="48" fill="white" transform="translate(0.340576 0.869141)"/>
</clipPath>
</defs>
</svg>
