<svg width="48" height="49" viewBox="0 0 48 49" fill="none" xmlns="http://www.w3.org/2000/svg">
<path d="M22.1245 12.4909C22.7462 12.1179 23.4575 11.9209 24.1825 11.9209C24.9075 11.9209 25.6188 12.1179 26.2405 12.4909L33.2125 16.6749C33.5083 16.8527 33.7531 17.1039 33.9231 17.4043C34.0931 17.7046 34.1824 18.0438 34.1825 18.3889V26.9929C34.1825 27.6837 34.0036 28.3627 33.6633 28.9637C33.323 29.5648 32.8328 30.0675 32.2405 30.4229L26.2405 34.0229C25.6188 34.3959 24.9075 34.593 24.1825 34.593C23.4575 34.593 22.7462 34.3959 22.1245 34.0229L16.1245 30.4229C15.5322 30.0675 15.042 29.5648 14.7017 28.9637C14.3614 28.3627 14.1825 27.6837 14.1825 26.9929L14.1825 18.3889C14.1828 18.0436 14.2724 17.7043 14.4428 17.4039C14.6131 17.1036 14.8583 16.8524 15.1545 16.6749L22.1245 12.4909Z" stroke="black" stroke-width="2" stroke-linecap="round" stroke-linejoin="round"/>
<path d="M14 18.8691L24 24.3871M24 24.3871L34 18.8691M24 24.3871V34.8691" stroke="black" stroke-width="2" stroke-linejoin="round"/>
<path d="M12 4.86914H8C6.93913 4.86914 5.92172 5.29057 5.17157 6.04071C4.42143 6.79086 4 7.80827 4 8.86914L4 12.8691M36 44.8691H40C41.0609 44.8691 42.0783 44.4477 42.8284 43.6976C43.5786 42.9474 44 41.93 44 40.8691V36.8691M44 12.8691V8.86914C44 7.80827 43.5786 6.79086 42.8284 6.04071C42.0783 5.29057 41.0609 4.86914 40 4.86914L36 4.86914M4 36.8691L4 40.8691C4 41.93 4.42143 42.9474 5.17157 43.6976C5.92172 44.4477 6.93913 44.8691 8 44.8691H12" stroke="black" stroke-width="2" stroke-linecap="round" stroke-linejoin="round"/>
</svg>
