<svg width="49" height="49" viewBox="0 0 49 49" fill="none" xmlns="http://www.w3.org/2000/svg">
<path d="M24.8096 7.6196C25.1425 7.78314 25.4621 7.96568 25.7823 8.1528C25.8771 8.20733 25.972 8.26185 26.0697 8.31803C26.369 8.49049 26.6675 8.66423 26.9659 8.83835C27.0577 8.89179 27.1495 8.94524 27.244 9.00031C27.6089 9.21279 27.9736 9.42548 28.3379 9.63898C28.8585 9.94386 29.3807 10.2458 29.9051 10.5442C29.9925 10.5939 29.9925 10.5939 30.0817 10.6447C30.3647 10.8057 30.6478 10.9664 30.9313 11.1265C32.8176 12.198 32.8176 12.198 32.9659 12.4946C32.9754 12.6218 32.9793 12.7495 32.9803 12.877C32.9811 12.9571 32.9819 13.0371 32.9827 13.1196C32.9833 13.2516 32.9833 13.2516 32.9839 13.3863C32.9851 13.5251 32.9851 13.5251 32.9863 13.6667C32.9886 13.9739 32.9901 14.281 32.9915 14.5882C32.992 14.693 32.9925 14.7977 32.993 14.9056C32.9955 15.4599 32.9973 16.0142 32.9987 16.5685C33.0002 17.1417 33.0044 17.7148 33.0092 18.2879C33.0124 18.7281 33.0135 19.1683 33.014 19.6084C33.0146 19.8197 33.0161 20.031 33.0183 20.2423C33.0212 20.5379 33.0213 20.8334 33.0206 21.1291C33.0221 21.2165 33.0236 21.3039 33.0252 21.394C33.0211 21.8186 33.0131 21.9974 32.7419 22.34C32.5144 22.5127 32.2927 22.6677 32.0448 22.8093C31.9573 22.8598 31.8698 22.9103 31.7796 22.9623C31.6857 23.0155 31.5919 23.0687 31.4952 23.1235C31.3971 23.1799 31.299 23.2363 31.1979 23.2944C30.9891 23.4143 30.7801 23.534 30.5709 23.6534C30.2455 23.8393 29.9208 24.0262 29.5964 24.2137C29.0959 24.5029 28.5951 24.7917 28.094 25.0798C27.8935 25.196 27.6937 25.3134 27.4945 25.4318C27.393 25.4919 27.2916 25.5521 27.1871 25.6141C27.0952 25.669 27.0033 25.724 26.9086 25.7806C26.6846 25.9008 26.6846 25.9008 26.4971 25.9008C26.5281 26.829 26.559 27.7571 26.5909 28.7133C27.024 28.7133 27.4571 28.7133 27.9034 28.7133C28.4452 28.9657 28.785 29.2542 29.1221 29.7446C29.1983 30.0141 29.1983 30.0141 29.2159 30.2133C29.3087 30.1824 29.4015 30.1515 29.4971 30.1196C30.1927 30.0567 30.8011 30.0596 31.3721 30.4946C31.7257 30.8211 31.9981 31.1198 32.0284 31.6196C32.1212 31.5887 32.214 31.5577 32.3096 31.5258C33.0047 31.463 33.6142 31.4654 34.1846 31.9008C34.5973 32.2896 34.8998 32.6889 34.9597 33.2685C34.9604 33.3548 34.9611 33.4411 34.9619 33.5301C34.963 33.6287 34.9642 33.7274 34.9655 33.829C34.9657 33.935 34.9659 34.0409 34.9661 34.1501C34.9667 34.2606 34.9674 34.371 34.968 34.4848C34.969 34.7189 34.9694 34.9529 34.9694 35.1869C34.9698 35.5408 34.9732 35.8946 34.9767 36.2485C34.9869 38.401 34.5885 39.8122 33.3768 41.619C33.1522 41.999 33.1422 42.333 33.1402 42.77C33.1384 42.8771 33.1366 42.9841 33.1347 43.0944C33.1315 43.3195 33.1298 43.5446 33.1296 43.7697C33.1273 43.8768 33.125 43.9839 33.1226 44.0942C33.1213 44.2409 33.1213 44.2409 33.1199 44.3905C33.0596 44.6508 33.0596 44.6508 32.8803 44.8516C32.4689 45.0993 32.122 45.0784 31.6501 45.0744C31.5084 45.0754 31.5084 45.0754 31.364 45.0764C31.0522 45.078 30.7405 45.0769 30.4288 45.0756C30.212 45.0759 29.9951 45.0763 29.7783 45.0767C29.3241 45.0773 28.8699 45.0765 28.4156 45.0747C27.8333 45.0726 27.2511 45.0738 26.6688 45.0761C26.2212 45.0774 25.7735 45.077 25.3259 45.076C25.1112 45.0758 24.8965 45.0761 24.6818 45.077C24.3817 45.0779 24.0817 45.0765 23.7817 45.0744C23.6929 45.0751 23.6042 45.0759 23.5127 45.0767C23.117 45.0716 22.8967 45.0593 22.5513 44.8522C22.3123 44.5836 22.3146 44.4261 22.3157 44.0697C22.3135 43.8995 22.3135 43.8995 22.3113 43.726C22.312 43.6077 22.3128 43.4895 22.3135 43.3676C22.3135 41.9111 22.0908 41.0899 21.0563 40.0534C20.9857 39.9839 20.9152 39.9144 20.8425 39.8429C20.7687 39.7702 20.6949 39.6976 20.6189 39.6227C20.4707 39.4781 20.3215 39.3344 20.1712 39.1919C19.2631 38.3124 18.6616 37.27 18.6089 35.9857C18.6083 35.8682 18.6077 35.7507 18.607 35.6296C18.6065 35.5642 18.6061 35.4989 18.6056 35.4316C18.6042 35.2173 18.6036 35.0031 18.6031 34.7888C18.6025 34.6392 18.602 34.4895 18.6015 34.3399C18.6005 34.027 18.5999 33.7142 18.5996 33.4013C18.5991 33.0006 18.5968 32.5998 18.5942 32.199C18.5924 31.8903 18.5919 31.5817 18.5918 31.273C18.5915 31.1252 18.5907 30.9774 18.5895 30.8296C18.5879 30.6232 18.5881 30.4168 18.5887 30.2104C18.5884 30.093 18.588 29.9756 18.5877 29.8547C18.6245 29.5363 18.6811 29.4079 18.9034 29.1821C19.6517 28.8616 20.8425 29.0578 21.591 29.2806C21.8096 29.3696 21.8096 29.3696 22.2784 29.6508C22.3248 27.7946 22.3248 27.7946 22.3721 25.9008C22.1865 25.839 22.0009 25.7771 21.8096 25.7133C21.5787 25.587 21.3545 25.4576 21.1299 25.3208C20.9889 25.2363 20.8478 25.152 20.7066 25.0677C20.6291 25.0214 20.5515 24.9751 20.4717 24.9273C19.9828 24.6378 19.4896 24.3559 18.9971 24.0727C18.788 23.952 18.5789 23.8313 18.3698 23.7105C18.0064 23.5007 17.6424 23.292 17.2778 23.0843C17.1341 23.0017 16.9904 22.9191 16.8467 22.8364C16.7825 22.8003 16.7183 22.7641 16.6521 22.7269C16.3244 22.5371 16.0834 22.3922 15.9034 22.0571C15.8605 21.753 15.863 21.4508 15.864 21.1442C15.8632 21.0516 15.8624 20.959 15.8616 20.8636C15.8594 20.5575 15.8593 20.2513 15.8594 19.9452C15.8588 19.7324 15.858 19.5197 15.8573 19.307C15.856 18.861 15.8558 18.415 15.8564 17.969C15.857 17.3973 15.8541 16.8257 15.8503 16.2541C15.8479 15.8147 15.8476 15.3753 15.8479 14.936C15.8478 14.7252 15.8469 14.5144 15.8452 14.3036C15.8431 14.0089 15.844 13.7144 15.8457 13.4197C15.8444 13.3325 15.8432 13.2454 15.8419 13.1556C15.8474 12.7325 15.8568 12.5535 16.1268 12.212C16.3626 12.0331 16.5915 11.8802 16.8515 11.7391C16.9441 11.6882 17.0367 11.6372 17.1322 11.5848C17.2313 11.5312 17.3305 11.4776 17.4327 11.4223C17.6454 11.3053 17.858 11.1881 18.0706 11.0708C18.1785 11.0113 18.2864 10.9519 18.3975 10.8906C18.8807 10.6216 19.3581 10.343 19.835 10.063C20.0196 9.95479 20.2041 9.84663 20.3887 9.73849C20.4819 9.6839 20.5751 9.62931 20.6711 9.57306C21.2038 9.26185 21.7381 8.95337 22.2725 8.64499C22.373 8.58693 22.4735 8.52887 22.577 8.46905C22.7656 8.36027 22.9545 8.25201 23.1437 8.14433C23.3112 8.04777 23.4772 7.94871 23.6414 7.84669C24.321 7.43466 24.321 7.43466 24.8096 7.6196ZM22.9346 9.78171C22.7893 9.86836 22.6439 9.95491 22.4985 10.0414C22.4185 10.0889 22.3385 10.1365 22.2561 10.1855C21.7794 10.4669 21.2992 10.7421 20.8194 11.018C19.9747 11.5047 19.1307 11.9925 18.2881 12.4829C18.1911 12.5392 18.094 12.5956 17.994 12.6536C17.9053 12.7053 17.8166 12.757 17.7253 12.8103C17.6079 12.8786 17.6079 12.8786 17.4881 12.9483C17.3154 13.044 17.3154 13.044 17.2159 13.1508C17.207 13.3847 17.2041 13.616 17.2052 13.85C17.2052 13.9231 17.2052 13.9963 17.2052 14.0717C17.2052 14.3147 17.206 14.5576 17.2067 14.8006C17.2069 14.9686 17.207 15.1367 17.2071 15.3047C17.2075 15.7478 17.2084 16.1909 17.2094 16.634C17.2104 17.0858 17.2108 17.5376 17.2113 17.9894C17.2123 18.8766 17.2139 19.7637 17.2159 20.6508C17.569 20.5131 17.89 20.3555 18.2189 20.1664C18.3234 20.1065 18.4279 20.0466 18.5355 19.9849C18.6484 19.9198 18.7612 19.8546 18.8741 19.7895C18.9909 19.7224 19.1077 19.6552 19.2245 19.5881C19.466 19.4493 19.7073 19.3104 19.9486 19.1713C20.2397 19.0035 20.5311 18.8363 20.8227 18.6694C21.0913 18.5156 21.3596 18.3615 21.628 18.2075C21.7253 18.1518 21.8226 18.0961 21.9228 18.0388C22.0161 17.9851 22.1094 17.9314 22.2055 17.8761C22.2855 17.8301 22.3655 17.7842 22.4479 17.7369C22.5467 17.6776 22.6454 17.6182 22.7471 17.5571C22.8757 17.5046 22.8757 17.5046 23.0069 17.451C23.328 17.2976 23.5386 17.1655 23.7784 16.9008C23.9252 16.3325 23.8988 15.7792 23.8791 15.1961C23.8771 15.0289 23.8757 14.8617 23.8747 14.6945C23.8707 14.2559 23.8606 13.8176 23.8492 13.3791C23.8386 12.931 23.8339 12.4829 23.8287 12.0348C23.8177 11.1567 23.8001 10.2788 23.7784 9.40085C23.458 9.40085 23.2029 9.61963 22.9346 9.78171ZM25.0909 9.40085C25.0626 10.3657 25.0409 11.3304 25.0277 12.2956C25.0214 12.7439 25.0128 13.1918 24.9989 13.6399C24.9856 14.0728 24.9784 14.5053 24.9752 14.9383C24.973 15.1031 24.9686 15.2679 24.962 15.4326C24.9422 15.9465 24.9427 16.4053 25.0909 16.9008C25.4585 17.2706 25.8297 17.4452 26.3096 17.6508C26.4998 17.7589 26.6889 17.8691 26.8761 17.9823C27.0681 18.0927 27.2601 18.2029 27.4522 18.313C27.6639 18.4345 27.8755 18.5561 28.0872 18.6777C28.1409 18.7085 28.1947 18.7394 28.25 18.7712C28.6443 18.9975 29.0375 19.2255 29.4305 19.4541C29.5419 19.5188 29.6533 19.5835 29.7647 19.6481C29.9768 19.7713 30.1887 19.8946 30.4004 20.0182C30.4964 20.0739 30.5924 20.1295 30.6913 20.1869C30.7755 20.2358 30.8596 20.2848 30.9463 20.3353C31.1775 20.4595 31.4092 20.5555 31.6534 20.6508C31.6817 19.686 31.7033 18.7212 31.7165 17.7561C31.7229 17.3078 31.7315 16.8599 31.7453 16.4118C31.7586 15.9789 31.7658 15.5464 31.769 15.1134C31.7712 14.9486 31.7756 14.7838 31.7822 14.6191C31.802 14.1052 31.8014 13.6464 31.6534 13.1508C31.2862 12.7803 30.9144 12.607 30.4346 12.4008C30.2265 12.2876 30.0242 12.1669 29.8205 12.0456C29.6093 11.9256 29.398 11.8057 29.1866 11.686C28.9572 11.5558 28.728 11.4254 28.4988 11.2949C28.4415 11.2623 28.3842 11.2296 28.3252 11.196C27.6354 10.8026 26.9508 10.4001 26.2676 9.99535C26.181 9.94442 26.0945 9.8935 26.0053 9.84103C25.9302 9.79658 25.8551 9.75212 25.7777 9.70631C25.5539 9.58527 25.3276 9.49348 25.0909 9.40085ZM23.7564 18.3811C23.6592 18.4378 23.5619 18.4945 23.4618 18.5529C23.3574 18.6149 23.2531 18.6769 23.1456 18.7407C23.0364 18.8048 22.9271 18.8687 22.8178 18.9327C22.5924 19.0646 22.3673 19.197 22.1424 19.3298C21.7342 19.5706 21.3244 19.8087 20.9147 20.0469C19.9298 20.6198 18.9474 21.1971 17.9659 21.7758C18.2198 22.0475 18.4615 22.2383 18.7865 22.4178C18.9171 22.4907 18.9171 22.4907 19.0504 22.565C19.143 22.6159 19.2356 22.6668 19.3311 22.7192C19.5249 22.827 19.7186 22.9349 19.9123 23.0429C20.0097 23.0971 20.1072 23.1513 20.2076 23.2072C20.7242 23.497 21.2352 23.7963 21.7461 24.096C22.0421 24.3046 22.0421 24.3046 22.3721 24.4008C22.3757 24.2819 22.3757 24.2819 22.3794 24.1606C22.4155 23.4396 22.4616 22.8286 22.9775 22.2893C23.5569 21.7817 24.0069 21.7289 24.7635 21.74C25.3492 21.8042 25.6685 22.0632 26.0635 22.479C26.4586 23.0868 26.4544 23.6955 26.4971 24.4008C27.2708 24.0256 28.0187 23.6195 28.7588 23.1821C28.8532 23.1267 28.9476 23.0714 29.0448 23.0144C29.2308 22.9051 29.4165 22.7954 29.6019 22.6851C29.7836 22.578 29.9665 22.4728 30.1503 22.3695C30.2362 22.3205 30.322 22.2716 30.4104 22.2212C30.4874 22.1781 30.5644 22.1351 30.6437 22.0908C30.6984 22.0487 30.7532 22.0067 30.8096 21.9633C30.8096 21.8705 30.8096 21.7777 30.8096 21.6821C30.7504 21.6492 30.6912 21.6163 30.6302 21.5824C29.5125 20.961 28.3981 20.3351 27.294 19.6899C27.1551 19.6088 27.1551 19.6088 27.0134 19.5261C26.5852 19.2756 26.1584 19.0231 25.7339 18.7663C25.6604 18.7221 25.5869 18.6779 25.5111 18.6324C25.376 18.551 25.2413 18.469 25.1072 18.3861C24.5683 18.062 24.2898 18.0668 23.7564 18.3811ZM23.6846 23.4633C23.6286 23.8379 23.6357 24.2098 23.6394 24.5878C23.639 24.7018 23.6387 24.8157 23.6383 24.933C23.6377 25.1803 23.6378 25.4274 23.6391 25.6746C23.641 26.0654 23.64 26.4561 23.6387 26.8469C23.6362 27.6761 23.6368 28.5053 23.6377 29.3344C23.6388 30.2303 23.6393 31.1261 23.6361 32.022C23.6349 32.4105 23.6354 32.7991 23.6374 33.1877C23.6384 33.4857 23.6371 33.7838 23.6361 34.0819C23.6372 34.1897 23.6382 34.2975 23.6393 34.4086C23.6385 34.5069 23.6378 34.6052 23.637 34.7065C23.6372 34.8349 23.6372 34.8349 23.6374 34.9658C23.5909 35.1821 23.5909 35.1821 23.4188 35.3535C23.1326 35.5084 22.9602 35.4563 22.6534 35.3696C22.3853 35.1015 22.4406 34.9122 22.4369 34.5372C22.4346 34.4049 22.4322 34.2727 22.4298 34.1404C22.4271 33.9327 22.4249 33.7249 22.4231 33.5172C22.4138 32.609 22.3902 31.819 21.8975 31.0278C21.3016 30.4826 20.7125 30.3924 19.9346 30.4008C19.9259 31.1409 19.9192 31.8809 19.9152 32.621C19.9132 32.9647 19.9106 33.3084 19.9063 33.6522C19.9022 33.9847 19.9 34.3172 19.899 34.6497C19.898 34.8366 19.8951 35.0234 19.8921 35.2103C19.8918 36.4394 20.2233 37.3238 21.075 38.2043C21.3789 38.5059 21.6876 38.8022 21.9982 39.0969C23.4187 40.479 23.5798 41.721 23.6846 43.7133C26.3452 43.7133 29.0059 43.7133 31.7471 43.7133C31.7781 43.1565 31.809 42.5996 31.8409 42.0258C31.9803 41.3518 32.2197 40.9062 32.5993 40.338C32.7972 40.0276 32.9697 39.7115 33.1358 39.3833C33.1886 39.2795 33.2414 39.1756 33.2958 39.0687C33.6053 38.346 33.6529 37.6896 33.6569 36.9124C33.6578 36.8106 33.6586 36.7087 33.6595 36.6037C33.6608 36.3895 33.6617 36.1753 33.662 35.961C33.6631 35.6333 33.6678 35.3057 33.6725 34.9779C33.6734 34.7693 33.674 34.5606 33.6745 34.3519C33.6772 34.2053 33.6772 34.2053 33.68 34.0556C33.677 33.4929 33.677 33.4929 33.4024 33.0103C33.0986 32.8005 32.953 32.7767 32.5909 32.8383C32.3709 32.9152 32.3709 32.9152 32.2159 33.1196C32.1348 33.3344 32.0691 33.5484 32.0104 33.7704C31.9346 33.9633 31.9346 33.9633 31.6534 34.1508C31.3663 34.1333 31.3663 34.1333 31.0909 34.0571C30.8938 33.7615 30.8809 33.6917 30.881 33.3547C30.8795 33.2731 30.878 33.1916 30.8764 33.1075C30.8749 32.9366 30.8744 32.7657 30.875 32.5948C30.8651 32.1646 30.8565 31.9624 30.5888 31.6108C30.3519 31.4145 30.3519 31.4145 30.0596 31.3735C29.6758 31.4535 29.5466 31.5914 29.3096 31.9008C29.2661 32.072 29.2661 32.072 29.2217 32.2465C29.1221 32.5571 29.1221 32.5571 28.8526 32.7036C28.5417 32.7471 28.4333 32.7413 28.1846 32.5571C28.0746 32.337 28.0792 32.2028 28.0777 31.9576C28.0759 31.8757 28.0741 31.7939 28.0722 31.7095C28.069 31.5374 28.0673 31.3653 28.0671 31.1931C28.055 30.7622 28.0439 30.5561 27.7759 30.2042C27.5393 30.0082 27.5393 30.0082 27.2471 29.9673C26.8633 30.0472 26.7341 30.1852 26.4971 30.4946C26.4536 30.6657 26.4536 30.6657 26.4092 30.8403C26.3096 31.1508 26.3096 31.1508 26.0401 31.2973C25.7292 31.3408 25.6208 31.335 25.3721 31.1508C25.2301 30.8669 25.2648 30.5725 25.2651 30.261C25.2647 30.1886 25.2644 30.1162 25.2641 30.0415C25.2634 29.884 25.2629 29.7264 25.2626 29.5689C25.2619 29.3194 25.2604 29.07 25.2587 28.8206C25.2538 28.1113 25.2493 27.4021 25.2478 26.6928C25.2469 26.2591 25.2441 25.8255 25.2402 25.3919C25.239 25.2266 25.2386 25.0614 25.2388 24.8961C25.239 24.6647 25.2369 24.4335 25.2343 24.2021C25.2349 24.1339 25.2355 24.0658 25.2362 23.9955C25.2279 23.5443 25.132 23.3103 24.8096 22.9946C24.6254 22.9218 24.6254 22.9218 24.4346 22.936C24.3418 22.9342 24.3418 22.9342 24.2471 22.9323C23.9343 23.0362 23.8535 23.1789 23.6846 23.4633Z" fill="#074139"/>
<path d="M35.1221 17.6506C35.3333 17.7841 35.5315 17.9183 35.7315 18.0666C35.7882 18.1079 35.8448 18.1493 35.9032 18.1919C37.2854 19.2074 38.595 20.303 39.8506 21.4709C39.9116 21.5273 39.9725 21.5837 40.0353 21.6418C40.4575 22.0385 40.8429 22.4574 41.2159 22.9006C41.2578 22.9503 41.2998 23.0001 41.343 23.0514C41.8153 23.6216 42.2253 24.2051 42.5752 24.8576C42.6058 24.9144 42.6364 24.9712 42.6679 25.0297C43.084 25.8369 43.2657 26.7289 43.033 27.6229C42.7812 28.1945 42.313 28.6489 41.7461 28.9068C41.2368 29.0825 40.7407 29.2002 40.2 29.1712C40.0735 29.1669 40.0735 29.1669 39.9444 29.1626C39.7692 29.1559 39.5942 29.1474 39.4192 29.137C38.9493 29.1245 38.6692 29.1442 38.3059 29.459C38.2132 29.5539 38.1206 29.6489 38.0284 29.7443C37.6575 29.9297 37.2137 29.8783 36.8096 29.8381C36.3523 29.6845 36.0415 29.394 35.7784 28.9943C35.7531 28.9157 35.7277 28.837 35.7017 28.756C35.6122 28.5133 35.6122 28.5133 35.3987 28.4184C35.3198 28.3954 35.2408 28.3724 35.1595 28.3487C35.0701 28.3212 34.9807 28.2937 34.8886 28.2654C34.7916 28.2371 34.6947 28.2089 34.5948 28.1799C30.1987 26.8094 30.1987 26.8094 29.6505 25.991C29.5687 25.7384 29.6012 25.5883 29.6846 25.3381C29.7901 25.1681 29.7901 25.1681 29.9659 25.0568C30.5808 24.9857 30.9922 25.198 31.5362 25.467C32.3529 25.8545 33.1786 26.1964 34.0264 26.5099C34.1847 26.5691 34.1847 26.5691 34.3462 26.6295C34.9118 26.8363 35.4635 27.0256 36.0596 27.1193C36.3179 26.9627 36.3179 26.9627 36.5284 26.7443C37.0058 26.5165 37.4299 26.5264 37.9346 26.6506C38.3858 26.8804 38.6276 27.1461 38.8721 27.5881C38.8721 27.6809 38.8721 27.7737 38.8721 27.8693C40.3105 27.8951 40.3105 27.8951 41.5681 27.3438C41.7636 26.967 41.7511 26.5875 41.6298 26.1894C41.5532 26.0054 41.4672 25.8307 41.3741 25.6545C41.341 25.5903 41.308 25.5262 41.2739 25.46C40.7557 24.4933 40.0462 23.648 39.2471 22.9006C39.0172 22.6725 38.7892 22.443 38.5638 22.2106C37.3099 20.9274 35.8308 19.8611 34.3725 18.8213C34.1846 18.6818 34.1846 18.6818 33.9971 18.4943C33.9443 17.9135 33.9443 17.9135 34.1202 17.6623C34.5043 17.4062 34.7158 17.4814 35.1221 17.6506ZM37.1846 27.8693C37.1227 27.9312 37.0609 27.9931 36.9971 28.0568C37.0271 28.3008 37.0271 28.3008 37.0909 28.5256C37.2455 28.4946 37.4002 28.4637 37.5596 28.4318C37.5905 28.339 37.6215 28.2462 37.6534 28.1506C37.5245 28.006 37.5245 28.006 37.3721 27.8693C37.3102 27.8693 37.2484 27.8693 37.1846 27.8693Z" fill="#074139"/>
<path d="M12.5284 4.99436C12.9532 5.33424 13.0737 5.60526 13.1846 6.11936C13.2358 6.1297 13.287 6.14004 13.3397 6.1507C13.8627 6.26097 14.3625 6.40438 14.8663 6.58225C14.9448 6.60985 15.0233 6.63744 15.1042 6.66586C16.2017 7.06027 17.2758 7.51991 18.3409 7.99436C18.4173 8.02779 18.4937 8.06122 18.5725 8.09567C18.9362 8.2635 19.1352 8.36704 19.2784 8.74436C19.2725 9.03147 19.2725 9.03147 19.1846 9.30686C18.9401 9.52341 18.8033 9.59331 18.4756 9.57383C18.0317 9.46437 17.6444 9.27002 17.2334 9.07249C16.0985 8.54056 14.9319 8.11916 13.7471 7.71311C13.6368 7.6742 13.5264 7.63529 13.4128 7.59519C13.1293 7.50874 12.9962 7.52365 12.7159 7.61936C12.6173 7.68317 12.5186 7.74698 12.417 7.81272C11.9997 8.06238 11.5955 8.05863 11.1221 7.99436C10.6811 7.83625 10.3905 7.60389 10.0909 7.24436C10.0312 6.99461 10.0312 6.99461 9.99712 6.77561C8.56954 6.72174 8.56954 6.72174 7.27837 7.24436C7.08359 7.63392 7.14171 8.03038 7.2564 8.43528C7.79761 9.86074 8.85336 10.9555 9.90337 12.0256C9.95907 12.0827 10.0148 12.1398 10.0722 12.1986C10.3833 12.5142 10.6991 12.8092 11.0459 13.0862C11.4064 13.3758 11.7608 13.6705 12.1124 13.9709C12.6597 14.4299 13.2344 14.8452 13.8193 15.255C14.8401 15.9763 14.8401 15.9763 14.9249 16.4377C14.8594 16.7794 14.7836 16.8921 14.4971 17.0881C14.1045 17.1565 13.8839 17.0793 13.5633 16.8644C13.4242 16.7627 13.2864 16.6594 13.1495 16.5549C13.0757 16.5 13.0018 16.4451 12.9258 16.3885C12.2433 15.8765 11.5774 15.3443 10.9227 14.7973C10.8084 14.7018 10.6938 14.6067 10.5788 14.512C8.66577 12.9359 6.03624 10.6795 5.74321 8.05442C5.71611 7.31941 5.81154 6.80909 6.28484 6.24351C7.06989 5.46997 8.05721 5.43992 9.09477 5.4221C9.1929 5.42297 9.29102 5.42383 9.39211 5.42473C10.0028 5.42791 10.0028 5.42791 10.5197 5.13938C10.6323 5.02119 10.6323 5.02119 10.7471 4.90061C11.3625 4.56927 11.9303 4.67317 12.5284 4.99436ZM11.4034 6.02561C11.3415 6.1803 11.2796 6.33499 11.2159 6.49436C11.2777 6.55624 11.3396 6.61811 11.4034 6.68186C11.5271 6.68186 11.6509 6.68186 11.7784 6.68186C11.8421 6.45713 11.8421 6.45713 11.8721 6.21311C11.8102 6.15124 11.7484 6.08936 11.6846 6.02561C11.5918 6.02561 11.499 6.02561 11.4034 6.02561Z" fill="#074139"/>
<path d="M14.6846 17.6499C14.8721 17.8374 14.8721 17.8374 14.9249 18.1421C14.865 18.5409 14.7601 18.6553 14.4451 18.8951C14.3695 18.9482 14.2938 19.0014 14.2159 19.0562C14.117 19.1268 14.0182 19.1973 13.9163 19.2701C13.7476 19.3903 13.5788 19.5103 13.4096 19.6298C12.8761 20.008 12.3719 20.4157 11.8721 20.8374C11.7661 20.926 11.66 21.0145 11.5539 21.1029C11.4451 21.1941 11.3363 21.2853 11.2276 21.3765C11.1774 21.4185 11.1271 21.4605 11.0754 21.5037C10.9333 21.6238 10.7933 21.7462 10.6534 21.8687C10.5643 21.9459 10.4752 22.0231 10.3835 22.1027C10.1648 22.318 10.1648 22.318 10.152 22.5824C10.1609 22.6659 10.1697 22.7495 10.1788 22.8355C10.2004 23.3539 10.1377 23.708 9.80962 24.1187C9.409 24.5052 9.04992 24.6146 8.49712 24.6167C8.34074 24.6093 8.18439 24.6003 8.02837 24.5874C8.00336 24.654 7.97834 24.7206 7.95257 24.7892C7.79865 25.1571 7.60053 25.4952 7.40398 25.8417C7.18669 26.2668 7.13431 26.6407 7.18462 27.1187C7.50192 27.5514 7.7989 27.6555 8.30962 27.7749C11.5546 28.0967 15.1264 26.5866 17.9589 25.1613C18.2949 25.0388 18.5482 25.0237 18.9034 25.0562C19.188 25.2981 19.2708 25.4336 19.3018 25.8062C18.9845 26.5678 17.752 26.8729 17.0451 27.17C10.0758 30.0371 10.0758 30.0371 7.09087 28.8999C6.47538 28.5808 5.99121 28.0648 5.77837 27.3999C5.62453 26.0512 6.16225 24.9733 6.87957 23.866C6.91836 23.7947 6.95715 23.7234 6.99712 23.6499C6.96618 23.5881 6.93525 23.5262 6.90337 23.4624C6.85114 22.904 6.85445 22.4357 7.18462 21.9624C7.53476 21.6201 7.82949 21.4098 8.30962 21.3062C8.40044 21.3189 8.40044 21.3189 8.49309 21.3318C8.88928 21.3847 9.0839 21.358 9.41155 21.1136C9.6572 20.8899 9.89062 20.6536 10.1264 20.4196C10.3722 20.1856 10.6368 19.9783 10.9053 19.771C10.959 19.7295 11.0126 19.6879 11.0678 19.6451C11.2418 19.5108 11.4163 19.3773 11.5909 19.2437C11.7291 19.1373 11.8673 19.0308 12.0054 18.9244C12.3974 18.6231 12.7894 18.3219 13.1846 18.0249C13.244 17.9798 13.3033 17.9347 13.3645 17.8883C13.8575 17.5223 14.1178 17.3665 14.6846 17.6499ZM8.21587 22.8062C8.24681 22.9609 8.27775 23.1156 8.30962 23.2749C8.46431 23.244 8.619 23.2131 8.77837 23.1812C8.80931 23.0884 8.84025 22.9956 8.87212 22.8999C8.78039 22.8042 8.68651 22.7105 8.59087 22.6187C8.45379 22.61 8.45379 22.61 8.21587 22.8062Z" fill="#074139"/>
<path d="M42.6221 6.30692C43.1274 6.95471 43.1708 7.56546 43.0909 8.36942C42.8728 9.24862 42.476 9.97273 41.9659 10.7132C41.9349 10.775 41.904 10.8369 41.8721 10.9007C41.9031 10.9935 41.934 11.0863 41.9659 11.1819C42.0385 11.7858 41.957 12.2808 41.5909 12.7757C41.1344 13.139 40.8273 13.2556 40.2549 13.2093C39.8742 13.204 39.8742 13.204 39.5386 13.3605C39.4336 13.4714 39.3321 13.5856 39.2336 13.7022C39.0318 13.9325 38.8121 14.1135 38.5733 14.305C38.2128 14.5946 37.8584 14.8893 37.5069 15.1897C35.293 17.0424 35.293 17.0424 34.6592 17.1233C34.3721 17.0882 34.3721 17.0882 34.1495 16.9358C33.949 16.6428 33.9331 16.4993 33.9971 16.1507C34.3303 15.7748 34.7097 15.4905 35.1163 15.2015C36.0896 14.4976 37.0448 13.7768 37.9222 12.9544C38.0959 12.7991 38.2676 12.6796 38.462 12.553C38.727 12.2601 38.711 12.1843 38.7022 11.803C38.6975 11.7131 38.6928 11.6232 38.6879 11.5306C38.6824 11.1045 38.7973 10.8011 39.0933 10.4821C39.3697 10.2364 39.64 10.0567 39.9971 9.96317C40.1769 9.98928 40.1769 9.98928 40.3604 10.0159C40.5568 10.0327 40.5568 10.0327 40.7471 9.96317C41.2733 9.38469 41.6793 8.57037 41.7256 7.78348C41.7127 7.43595 41.7127 7.43595 41.5323 7.20927C40.4662 6.47987 38.9127 6.78634 37.7262 7.00446C35.4346 7.46631 33.2562 8.32919 31.1375 9.29662C30.3452 9.6487 30.3452 9.6487 29.8721 9.49442C29.657 9.24457 29.5868 9.11031 29.6026 8.77958C29.7442 8.39521 29.9936 8.24349 30.3555 8.07609C30.4346 8.03951 30.5137 8.00293 30.5951 7.96524C30.7245 7.90718 30.7245 7.90718 30.8565 7.84794C30.9473 7.80711 31.0381 7.76629 31.1316 7.72423C39.9991 3.80507 39.9991 3.80507 42.6221 6.30692ZM40.1846 11.2757C40.1227 11.3375 40.0609 11.3994 39.9971 11.4632C40.027 11.6608 40.027 11.6608 40.0909 11.8382C40.2682 11.9021 40.2682 11.9021 40.4659 11.9319C40.5277 11.87 40.5896 11.8082 40.6534 11.7444C40.6235 11.5468 40.6235 11.5468 40.5596 11.3694C40.3823 11.3055 40.3823 11.3055 40.1846 11.2757Z" fill="#074139"/>
</svg>
