<svg width="49" height="49" viewBox="0 0 49 49" fill="none" xmlns="http://www.w3.org/2000/svg">
<path d="M22.0404 0.88197C22.0837 0.881669 22.127 0.881369 22.1716 0.881059C22.2187 0.881001 22.2658 0.880942 22.3144 0.880881C22.3643 0.88062 22.4142 0.880359 22.4656 0.88009C22.6308 0.879322 22.796 0.878963 22.9612 0.878673C23.0761 0.87837 23.191 0.878067 23.3059 0.877764C23.547 0.877212 23.788 0.876904 24.029 0.876721C24.3375 0.876433 24.6459 0.875169 24.9543 0.873672C25.1918 0.872691 25.4292 0.872419 25.6666 0.872338C25.7803 0.872179 25.894 0.871758 26.0077 0.871066C26.167 0.870166 26.3262 0.870269 26.4855 0.870609C26.5322 0.870125 26.5789 0.86964 26.627 0.869141C26.9659 0.871404 27.2633 0.912581 27.5225 1.16465C27.569 1.23014 27.569 1.23014 27.6165 1.29695C27.6481 1.34007 27.6798 1.38319 27.7124 1.42761C27.9081 1.7519 27.9716 2.00923 27.959 2.38497C27.9583 2.42345 27.9576 2.46192 27.9569 2.50156C27.9552 2.59529 27.9525 2.68901 27.9496 2.78271C28.0281 2.79267 28.0281 2.79267 28.1082 2.80284C28.2716 2.83073 28.3992 2.8669 28.5505 2.93391C28.6145 2.96218 28.6145 2.96218 28.6799 2.99103C28.8207 3.05706 28.9575 3.13069 29.0953 3.20345C29.2232 3.25809 29.3516 3.31105 29.4804 3.36308C29.5935 3.41383 29.5935 3.41383 29.7429 3.51901C29.8419 3.55591 29.9415 3.59126 30.0418 3.6242C30.0418 3.65891 30.0418 3.69362 30.0418 3.72938C30.086 3.74457 30.1302 3.75976 30.1757 3.7754C30.316 3.82571 30.4528 3.88022 30.5898 3.93976C30.5898 3.97447 30.5898 4.00918 30.5898 4.04494C30.6259 4.05918 30.6621 4.07342 30.6993 4.08809C31.1401 4.2841 31.5242 4.62073 31.9019 4.92513C32.0479 5.04269 32.1926 5.15541 32.3467 5.26116C32.473 5.35272 32.5557 5.43515 32.6508 5.56028C32.763 5.70113 32.8746 5.82431 33.0088 5.94158C33.5685 6.44671 34.0326 7.05344 34.4599 7.6831C34.5047 7.7491 34.5501 7.81473 34.5958 7.88004C34.7188 8.05703 34.8048 8.18797 34.8239 8.41017C34.8568 8.41017 34.8897 8.41017 34.9236 8.41017C35.1254 8.78783 35.3075 9.14868 35.4217 9.56722C35.4546 9.56722 35.4875 9.56722 35.5213 9.56722C35.5213 9.61929 35.5213 9.67136 35.5213 9.725C35.5655 9.73693 35.6097 9.74886 35.6552 9.76116C35.8477 9.84169 35.9284 9.93382 36.0693 10.0932C36.1364 10.1539 36.2038 10.2141 36.2717 10.2739C36.4378 10.4253 36.5506 10.5793 36.6671 10.7769C36.701 10.8127 36.7349 10.8485 36.7698 10.8853C36.9713 11.098 37.0612 11.3572 37.1496 11.6381C37.1608 11.6714 37.172 11.7048 37.1836 11.7392C37.2564 11.9683 37.2757 12.1665 37.2648 12.4072C37.3007 12.4067 37.3366 12.4061 37.3736 12.4056C37.5376 12.4034 37.7017 12.402 37.8657 12.4007C37.9222 12.3998 37.9787 12.3989 38.0368 12.398C38.5169 12.395 38.8125 12.4315 39.1714 12.7863C39.5046 13.1516 39.5213 13.5842 39.5201 14.0642C39.5204 14.1186 39.5206 14.1729 39.5209 14.2289C39.5216 14.4079 39.5216 14.5868 39.5214 14.7657C39.5216 14.8905 39.5218 15.0152 39.5221 15.14C39.5225 15.4012 39.5224 15.6624 39.5222 15.9236C39.5219 16.258 39.5227 16.5924 39.5239 16.9268C39.5246 17.1844 39.5247 17.4419 39.5245 17.6994C39.5245 17.8227 39.5248 17.946 39.5253 18.0693C39.5259 18.2418 39.5256 18.4142 39.525 18.5866C39.5254 18.6374 39.5258 18.6881 39.5262 18.7403C39.5228 19.192 39.3922 19.5354 39.1079 19.8755C38.8038 20.1777 38.5345 20.2255 38.1244 20.2188C38.0616 20.2161 37.9989 20.2135 37.9342 20.2108C37.8697 20.2093 37.8052 20.2079 37.7387 20.2064C37.5807 20.2027 37.4228 20.1976 37.2648 20.191C37.27 20.2948 37.27 20.2948 37.2753 20.4006C37.2748 20.6685 37.2093 20.8611 37.0967 21.0983C37.0789 21.1367 37.0611 21.1751 37.0428 21.2146C36.7784 21.7641 36.4474 22.2152 35.9712 22.5795C35.8583 22.6636 35.8583 22.6636 35.7704 22.8207C35.4235 23.0139 35.0696 23.1722 34.6745 23.1888C34.6717 23.2332 34.6717 23.2332 34.6689 23.2784C34.6135 24.0259 34.5097 24.7481 34.304 25.4668C34.2896 25.5173 34.2753 25.5678 34.2605 25.6198C34.1756 25.9038 34.072 26.142 33.9273 26.397C33.8782 26.5304 33.8782 26.5304 33.8463 26.6534C33.8133 26.7746 33.8133 26.7746 33.7778 26.8704C33.7285 26.8964 33.7285 26.8964 33.6782 26.923C33.6161 27.0481 33.5578 27.1733 33.5008 27.301C32.9968 28.3924 32.2533 29.4356 31.3868 30.2363C31.3539 30.2363 31.321 30.2363 31.2871 30.2363C31.2707 30.2884 31.2543 30.3405 31.2373 30.3941C31.1271 30.4953 31.017 30.59 30.9011 30.6834C30.8701 30.7089 30.8392 30.7345 30.8073 30.7608C30.6387 30.8986 30.4755 31.0134 30.2909 31.1304C30.2744 32.1023 30.258 33.0742 30.2411 34.0756C32.3616 34.0756 34.4822 34.0756 36.6671 34.0756C36.6671 34.1103 36.6671 34.145 36.6671 34.1808C36.7249 34.1788 36.7826 34.1769 36.8422 34.1748C37.0542 34.175 37.2479 34.2168 37.4516 34.2761C37.5215 34.2957 37.5913 34.3152 37.6612 34.3347C37.7123 34.3492 37.7123 34.3492 37.7645 34.364C37.9034 34.4025 38.0434 34.4358 38.1833 34.4701C38.3976 34.5266 38.5895 34.6011 38.7884 34.7016C38.9349 34.7719 39.0845 34.829 39.2356 34.8875C39.4668 34.9798 39.6677 35.0835 39.8723 35.229C39.9771 35.3005 40.086 35.3477 40.2039 35.3904C40.2039 35.4252 40.2039 35.4599 40.2039 35.4956C40.2553 35.5143 40.2553 35.5143 40.3078 35.5334C40.4816 35.6141 40.6298 35.7206 40.7829 35.8375C40.8134 35.8606 40.844 35.8838 40.8754 35.9076C41.1244 36.0999 41.3513 36.3085 41.5761 36.5319C41.6825 36.6371 41.7915 36.7355 41.9038 36.8335C42.2924 37.1909 42.6263 37.6613 42.8938 38.1253C42.8938 38.16 42.8938 38.1947 42.8938 38.2305C42.9267 38.2305 42.9596 38.2305 42.9934 38.2305C43.0025 38.259 43.0115 38.2876 43.0209 38.317C43.0334 38.3546 43.0459 38.3922 43.0588 38.431C43.071 38.4682 43.0831 38.5054 43.0956 38.5438C43.1366 38.6534 43.1366 38.6534 43.2145 38.7255C43.3421 38.8625 43.4119 39.0361 43.4916 39.2067C43.5092 39.2443 43.5269 39.2819 43.5451 39.3206C43.693 39.6421 43.8403 39.9712 43.8403 40.3342C43.8732 40.3342 43.906 40.3342 43.9399 40.3342C44.031 40.5066 44.0748 40.675 44.1174 40.8667C44.1626 41.0797 44.1626 41.0797 44.2388 41.2809C44.3227 41.8805 44.3505 42.4831 44.3571 43.0888C44.3584 43.1497 44.3597 43.2106 44.361 43.2733C44.3617 43.609 44.3527 43.8133 44.1392 44.0683C44.1104 44.1095 44.0816 44.1507 44.052 44.1932C43.9146 44.298 43.8067 44.3053 43.6391 44.2957C43.4459 44.262 43.3315 44.1681 43.2051 44.0157C43.0875 43.8171 43.0813 43.6344 43.0682 43.4051C43.062 43.3016 43.062 43.3016 43.0557 43.196C43.0515 43.123 43.0474 43.05 43.0433 42.977C43.0371 42.8693 43.0309 42.7616 43.0245 42.6539C43.0187 42.5556 43.013 42.4574 43.0074 42.3591C43.0062 42.0337 43.0062 42.0337 42.8938 41.7542C42.8754 41.6681 42.8591 41.5814 42.844 41.4945C42.8116 41.3027 42.8116 41.3027 42.7444 41.1231C42.7424 41.0179 42.7422 40.9127 42.7444 40.8075C42.7115 40.8075 42.6786 40.8075 42.6447 40.8075C42.6297 40.7567 42.6146 40.7058 42.599 40.6535C42.4869 40.2831 42.3691 39.9332 42.1923 39.5903C42.1466 39.4927 42.1466 39.4927 42.1466 39.3875C42.0973 39.3702 42.048 39.3528 41.9972 39.3349C41.9442 39.2166 41.9442 39.2166 41.8975 39.072C41.879 39.0231 41.8605 38.9743 41.8415 38.924C41.8271 38.8861 41.8127 38.8481 41.7979 38.809C41.765 38.809 41.7321 38.809 41.6983 38.809C41.6389 38.7239 41.6389 38.7239 41.5706 38.6052C41.1988 37.9988 40.6843 37.4938 40.1241 37.0835C40.1011 37.0628 40.0781 37.0421 40.0544 37.0208C40.0544 36.9861 40.0544 36.9514 40.0544 36.9156C39.9979 36.9015 39.9414 36.8874 39.8832 36.8729C39.8246 36.8523 39.7661 36.8317 39.7057 36.8105C39.6893 36.7584 39.6728 36.7063 39.6559 36.6527C39.577 36.5892 39.577 36.5892 39.4781 36.5374C39.4416 36.5171 39.4051 36.4967 39.3675 36.4757C39.3291 36.4549 39.2907 36.4341 39.2512 36.4127C39.2139 36.3917 39.1767 36.3708 39.1383 36.3491C38.9156 36.2264 38.7044 36.1374 38.4604 36.0742C38.4604 36.0394 38.4604 36.0047 38.4604 35.969C38.4182 35.9635 38.3761 35.9581 38.3327 35.9525C38.1615 35.9164 38.1615 35.9164 38.0089 35.8441C37.0898 35.4107 35.9672 35.4785 34.9852 35.4743C34.8143 35.4735 34.6435 35.4721 34.4726 35.4708C34.1505 35.4683 33.8284 35.4664 33.5063 35.4646C33.1389 35.4626 32.7716 35.46 32.4043 35.4574C31.65 35.452 30.8957 35.4473 30.1414 35.443C30.1422 35.5008 30.143 35.5586 30.1438 35.6181C30.1415 35.8057 30.117 35.9189 30.0511 36.0906C29.951 36.3621 29.8687 36.6356 29.7927 36.9156C29.7599 36.9156 29.727 36.9156 29.6931 36.9156C29.6803 36.9518 29.6675 36.988 29.6544 37.0253C29.4349 37.5777 29.1171 38.0442 28.7466 38.4934C28.7217 38.5267 28.6968 38.56 28.6711 38.5943C28.3174 39.0633 27.8341 39.3979 27.3518 39.7031C27.3167 39.726 27.2815 39.7489 27.2452 39.7725C27.1038 39.8623 27.0217 39.9135 26.8537 39.9135C26.8537 39.9482 26.8537 39.9829 26.8537 40.0186C26.793 40.0396 26.7323 40.0605 26.6698 40.0821C26.5889 40.1103 26.5081 40.1384 26.4272 40.1666C26.3873 40.1803 26.3475 40.194 26.3064 40.2082C26.1278 40.2705 25.96 40.3326 25.7907 40.4203C25.3442 40.5959 24.8278 40.5541 24.3568 40.5544C24.3019 40.5551 24.247 40.5557 24.1904 40.5564C23.6869 40.5573 23.2419 40.4556 22.7627 40.3013C22.7246 40.2893 22.6864 40.2772 22.6471 40.2648C22.5548 40.2355 22.4626 40.206 22.3704 40.1764C22.3704 40.1417 22.3704 40.107 22.3704 40.0712C22.3304 40.0669 22.2903 40.0626 22.249 40.0581C21.9538 39.9925 21.6921 39.8459 21.424 39.7031C21.424 39.6684 21.424 39.6337 21.424 39.5979C21.3762 39.5881 21.3762 39.5881 21.3275 39.5782C21.2936 39.5673 21.2597 39.5565 21.2247 39.5453C21.2083 39.5106 21.1918 39.4759 21.1749 39.4401C21.1388 39.4261 21.1027 39.4122 21.0655 39.3978C20.8909 39.3192 20.7691 39.2014 20.6332 39.0654C20.6069 39.0395 20.5807 39.0137 20.5537 38.9871C20.348 38.782 20.1591 38.5663 19.9794 38.3357C19.9542 38.3052 19.929 38.2748 19.9031 38.2434C19.7303 38.0331 19.7303 38.0331 19.7303 37.9149C19.681 37.8976 19.6317 37.8802 19.5809 37.8623C19.4417 37.6643 19.3701 37.4376 19.287 37.2094C19.2358 37.0824 19.1767 36.9733 19.1076 36.8565C18.9873 36.6366 18.9261 36.414 18.8679 36.1695C18.8594 36.1338 18.8508 36.0982 18.842 36.0615C18.795 35.8506 18.7806 35.6588 18.7838 35.443C17.8666 35.4438 16.9494 35.446 16.0322 35.45C15.6062 35.4518 15.1803 35.4531 14.7543 35.4533C14.3825 35.4535 14.0107 35.4546 13.6389 35.4567C13.4425 35.4578 13.2461 35.4585 13.0497 35.4581C12.0259 35.4562 11.0749 35.517 10.1143 35.9322C10.0166 35.969 10.0166 35.969 9.86713 35.969C9.86713 36.0037 9.86713 36.0384 9.86713 36.0742C9.7685 36.0915 9.66987 36.1089 9.56825 36.1267C9.56825 36.1615 9.56825 36.1962 9.56825 36.2319C9.46962 36.2493 9.37098 36.2666 9.26936 36.2845C9.25292 36.3366 9.23649 36.3887 9.21955 36.4423C9.12721 36.4911 9.0347 36.5395 8.94149 36.5863C8.2605 36.9615 7.6122 37.6209 7.17718 38.2831C7.14777 38.3238 7.11836 38.3646 7.08806 38.4065C6.85888 38.7314 6.71767 39.0641 6.57941 39.4401C6.54157 39.5324 6.50323 39.6245 6.46421 39.7162C6.43984 39.7736 6.43984 39.7736 6.41498 39.8321C6.39774 39.8724 6.39774 39.8724 6.38015 39.9135C6.33084 39.9135 6.28152 39.9135 6.23071 39.9135C6.20036 40.0449 6.17032 40.1764 6.14042 40.3079C6.13217 40.3435 6.12392 40.3791 6.11542 40.4158C6.08596 40.546 6.05859 40.6767 6.03145 40.8075C6.01845 40.8676 6.00546 40.9276 5.99206 40.9894C5.86841 41.6084 5.85991 42.2116 5.8603 42.8423C5.86013 42.9766 5.85876 43.1108 5.8573 43.2451C5.85771 43.2854 5.85812 43.3258 5.85854 43.3673C5.85398 43.7168 5.74722 43.9339 5.52397 44.1965C5.32672 44.3122 5.15616 44.3285 4.93555 44.2787C4.77207 44.1456 4.7018 44.0642 4.63666 43.8579C4.60378 43.8579 4.57091 43.8579 4.53703 43.8579C4.53453 43.5737 4.53275 43.2896 4.53156 43.0054C4.53107 42.9091 4.53039 42.8128 4.52952 42.7165C4.51544 41.1217 4.51544 41.1217 4.73629 40.7024C4.75238 40.6086 4.7656 40.5142 4.77676 40.4197C4.83178 40.0371 4.95301 39.6945 5.08499 39.3349C5.11787 39.3349 5.15074 39.3349 5.18462 39.3349C5.18924 39.2601 5.18924 39.2601 5.19396 39.1837C5.30838 38.3498 6.02085 37.5002 6.54987 36.9095C6.67965 36.7667 6.67965 36.7667 6.77866 36.6001C6.81154 36.6001 6.84442 36.6001 6.87829 36.6001C6.87829 36.5654 6.87829 36.5307 6.87829 36.4949C7.00096 36.3609 7.14142 36.2461 7.2768 36.1267C7.31829 36.0889 7.35977 36.0511 7.40251 36.0121C7.83327 35.6267 8.7567 34.8119 9.36899 34.8119C9.36899 34.7772 9.36899 34.7425 9.36899 34.7067C9.69109 34.5864 10.0058 34.4819 10.3421 34.4175C10.7033 34.356 10.7033 34.356 11.0129 34.1808C11.4293 34.065 11.8446 34.0612 12.2723 34.0637C12.3421 34.0637 12.4119 34.0637 12.4817 34.0636C12.6694 34.0636 12.857 34.0642 13.0447 34.065C13.2415 34.0656 13.4383 34.0657 13.6351 34.0658C14.007 34.0661 14.3788 34.067 14.7507 34.068C15.1744 34.0692 15.5981 34.0698 16.0218 34.0703C16.8927 34.0714 17.7635 34.0733 18.6344 34.0756C18.6425 33.6723 18.6458 33.2692 18.6459 32.8658C18.6465 32.7287 18.6482 32.5916 18.651 32.4546C18.7101 31.6801 18.7101 31.6801 18.4561 30.9944C18.3039 30.8756 18.1568 30.7957 17.9868 30.7097C17.9012 30.6248 17.8177 30.5375 17.7377 30.4467C17.6745 30.3958 17.6103 30.3463 17.5447 30.2988C17.367 30.1608 17.2298 30.0108 17.0888 29.8324C16.9935 29.7141 16.8943 29.6008 16.7935 29.4877C15.9943 28.5872 15.9943 28.5872 15.9943 28.343C15.9449 28.3256 15.8956 28.3083 15.8448 28.2904C15.7919 28.172 15.7919 28.172 15.7452 28.0274C15.7174 27.9542 15.7174 27.9542 15.6891 27.8795C15.6748 27.8415 15.6604 27.8036 15.6456 27.7644C15.6127 27.7644 15.5798 27.7644 15.5459 27.7644C15.4186 27.542 15.3182 27.3292 15.2356 27.0848C15.1966 26.9738 15.153 26.8666 15.1069 26.7586C15.0903 26.7193 15.0737 26.68 15.0565 26.6394C15.0123 26.5357 14.9674 26.4322 14.9223 26.3288C14.7614 25.9502 14.6458 25.6003 14.5995 25.1874C14.5666 25.1874 14.5337 25.1874 14.4998 25.1874C14.3932 24.841 14.3473 24.4886 14.2975 24.1289C14.2803 24.0072 14.2631 23.8854 14.2459 23.7637C14.2384 23.7101 14.231 23.6565 14.2233 23.6013C14.2026 23.4629 14.1782 23.326 14.1511 23.1888C14.1251 23.1799 14.0991 23.1709 14.0723 23.1617C13.2775 22.8854 13.2775 22.8854 13.0552 22.7681C13.0552 22.7334 13.0552 22.6987 13.0552 22.6629C13.0193 22.6499 12.9833 22.6369 12.9463 22.6235C12.3525 22.3448 12.0028 21.584 11.7601 20.9799C11.6689 20.7038 11.6508 20.4795 11.6604 20.191C11.6268 20.1916 11.5932 20.1921 11.5586 20.1927C11.4037 20.1949 11.2487 20.1963 11.0938 20.1976C11.041 20.1985 10.9881 20.1994 10.9337 20.2003C10.232 20.2048 10.232 20.2048 9.96676 20.0858C9.90928 19.9799 9.90928 19.9799 9.86713 19.8755C9.80161 19.8386 9.73507 19.8037 9.66788 19.7703C9.47543 19.6089 9.41281 19.4406 9.36899 19.1918C9.35498 19.0029 9.35486 18.8149 9.35531 18.6256C9.35505 18.5698 9.3548 18.514 9.35454 18.4565C9.35385 18.2727 9.35389 18.0889 9.35401 17.9051C9.35381 17.7769 9.3536 17.6487 9.35336 17.5206C9.35299 17.2522 9.353 16.9838 9.35327 16.7154C9.35356 16.3719 9.35271 16.0284 9.35156 15.6849C9.35082 15.4203 9.35078 15.1557 9.35093 14.891C9.35091 14.7644 9.35065 14.6378 9.35015 14.5112C9.34953 14.3339 9.34987 14.1567 9.35044 13.9795C9.35006 13.9275 9.34968 13.8755 9.34929 13.8219C9.35198 13.4467 9.3938 13.1387 9.63363 12.8444C9.6999 12.7842 9.6999 12.7842 9.7675 12.7228C9.79242 12.6989 9.81733 12.6749 9.843 12.6503C10.0909 12.4183 10.2552 12.4005 10.5793 12.4021C10.6394 12.4023 10.6994 12.4025 10.7613 12.4026C10.8237 12.4031 10.8862 12.4035 10.9506 12.404C11.0455 12.4043 11.0455 12.4043 11.1423 12.4047C11.2984 12.4053 11.4545 12.4062 11.6106 12.4072C11.6133 12.377 11.6159 12.3467 11.6187 12.3155C11.6783 11.6885 11.8591 11.1842 12.2084 10.6717C12.2345 10.6316 12.2607 10.5915 12.2876 10.5503C12.3108 10.5209 12.3339 10.4915 12.3578 10.4613C12.3907 10.4613 12.4236 10.4613 12.4575 10.4613C12.4679 10.4315 12.4784 10.4018 12.4892 10.3711C12.582 10.2068 12.7006 10.1233 12.8466 10.011C12.8983 9.97077 12.95 9.93057 13.0033 9.88915C13.1549 9.77759 13.1549 9.77759 13.2874 9.7063C13.4442 9.5899 13.5071 9.44403 13.5845 9.26481C13.5988 9.23349 13.613 9.20217 13.6277 9.1699C13.6985 9.01287 13.7641 8.85434 13.8271 8.69368C13.8979 8.52522 13.9773 8.37962 14.0733 8.2261C14.2063 8.01046 14.3317 7.79356 14.45 7.56868C14.4829 7.56868 14.5158 7.56868 14.5496 7.56868C14.5629 7.53844 14.5762 7.50821 14.5899 7.47706C14.7754 7.10587 15.0707 6.79343 15.3371 6.486C15.435 6.37214 15.5296 6.25611 15.6238 6.13881C15.7672 5.96509 15.9211 5.81397 16.0877 5.66526C16.2448 5.52403 16.396 5.37586 16.548 5.22849C16.6418 5.1494 16.6418 5.1494 16.7415 5.1494C16.7415 5.11469 16.7415 5.07998 16.7415 5.04421C16.8234 4.96676 16.8234 4.96676 16.9314 4.88315C16.9666 4.85542 17.0019 4.82769 17.0382 4.79912C17.14 4.72865 17.14 4.72865 17.2894 4.67606C17.3233 4.63809 17.3572 4.60013 17.3922 4.56101C17.5734 4.36024 17.8045 4.22375 18.0366 4.09754C18.0695 4.09754 18.1024 4.09754 18.1363 4.09754C18.1363 4.06282 18.1363 4.02811 18.1363 3.99235C18.3962 3.8282 18.6433 3.69757 18.936 3.61228C19.0477 3.5654 19.0982 3.50288 19.1823 3.41383C19.4197 3.30215 19.6724 3.23826 19.9296 3.20345C19.9296 3.16874 19.9296 3.13403 19.9296 3.09827C19.9953 3.09827 20.0611 3.09827 20.1288 3.09827C20.1288 3.06356 20.1288 3.02884 20.1288 2.99308C20.3114 2.90641 20.4681 2.87023 20.6674 2.85502C20.716 2.85109 20.7646 2.84716 20.8147 2.84311C20.8514 2.84053 20.8881 2.83796 20.9258 2.8353C20.9247 2.76683 20.9235 2.69835 20.9223 2.6278C20.9214 2.537 20.9205 2.44619 20.9196 2.35539C20.9188 2.31037 20.9179 2.26536 20.9171 2.21898C20.9147 1.88825 20.9474 1.64413 21.1251 1.36269C21.158 1.36269 21.1908 1.36269 21.2247 1.36269C21.2412 1.31063 21.2576 1.25856 21.2745 1.20491C21.3487 1.13383 21.3487 1.13383 21.4395 1.06686C21.4691 1.04448 21.4987 1.02211 21.5292 0.999062C21.6943 0.898783 21.8525 0.882754 22.0404 0.88197Z" fill="#363636"/>
<path d="M14.9307 10.7584C14.9814 10.7583 14.9814 10.7583 15.0331 10.7582C15.1465 10.758 15.2599 10.7582 15.3734 10.7584C15.4554 10.7583 15.5375 10.7582 15.6195 10.7581C15.8452 10.7579 16.0709 10.758 16.2965 10.7582C16.5398 10.7583 16.7831 10.7581 17.0264 10.758C17.5031 10.7577 17.9798 10.7578 18.4565 10.7579C18.8438 10.7581 19.2311 10.7581 19.6184 10.758C19.6735 10.758 19.7285 10.758 19.7853 10.758C19.8971 10.758 20.009 10.758 20.1209 10.758C21.1704 10.7578 22.2199 10.758 23.2694 10.7583C24.1705 10.7585 25.0717 10.7585 25.9728 10.7582C27.0186 10.7579 28.0643 10.7578 29.1101 10.758C29.2216 10.758 29.333 10.758 29.4445 10.758C29.4993 10.758 29.5541 10.758 29.6106 10.7581C29.9976 10.7581 30.3846 10.758 30.7716 10.7579C31.243 10.7577 31.7144 10.7578 32.1858 10.7581C32.4264 10.7582 32.667 10.7583 32.9077 10.7581C33.1278 10.7579 33.3479 10.758 33.5679 10.7583C33.6478 10.7584 33.7276 10.7583 33.8074 10.7582C33.9155 10.758 34.0236 10.7582 34.1318 10.7584C34.1919 10.7585 34.2521 10.7585 34.3141 10.7585C34.441 10.764 34.5447 10.778 34.6652 10.8177C34.6652 10.8524 34.6652 10.8871 34.6652 10.9228C34.7084 10.9283 34.7515 10.9337 34.796 10.9393C34.9724 10.9772 35.1057 11.0423 35.263 11.1332C35.263 11.1679 35.263 11.2026 35.263 11.2384C35.3031 11.2563 35.3031 11.2563 35.344 11.2746C35.5265 11.3811 35.7288 11.501 35.7954 11.7183C35.8005 11.7509 35.8057 11.7834 35.811 11.8169C35.8464 11.8495 35.8464 11.8495 35.8826 11.8827C36.1524 12.2018 36.0748 12.772 36.0745 13.1687C36.0748 13.2467 36.0751 13.3246 36.0755 13.4026C36.0764 13.6134 36.0766 13.8242 36.0767 14.035C36.0768 14.167 36.077 14.2989 36.0772 14.4309C36.0782 14.8918 36.0786 15.3528 36.0785 15.8138C36.0784 16.2424 36.0795 16.6711 36.0811 17.0997C36.0824 17.4686 36.0829 17.8376 36.0828 18.2065C36.0828 18.4265 36.0831 18.6464 36.0841 18.8664C36.0851 19.0733 36.0851 19.2803 36.0844 19.4872C36.0843 19.5628 36.0845 19.6384 36.0851 19.714C36.0902 20.3958 35.959 20.8871 35.5121 21.3889C35.2588 21.6339 34.9814 21.7798 34.6652 21.9148C34.6324 21.9322 34.5995 21.9495 34.5656 21.9674C34.4796 21.9727 34.3935 21.9747 34.3073 21.9751C34.2252 21.9757 34.2252 21.9757 34.1415 21.9763C34.0811 21.9764 34.0208 21.9766 33.9586 21.9767C33.8952 21.9771 33.8319 21.9774 33.7666 21.9778C33.5561 21.9789 33.3456 21.9794 33.135 21.9799C33.0625 21.9801 32.9899 21.9804 32.9173 21.9806C32.5762 21.9816 32.2351 21.9823 31.8939 21.9828C31.5008 21.9833 31.1077 21.9847 30.7145 21.9868C30.4103 21.9884 30.1062 21.9892 29.802 21.9893C29.6205 21.9895 29.439 21.9899 29.2575 21.9912C29.0546 21.9927 28.8517 21.9925 28.6487 21.9921C28.5594 21.9931 28.5594 21.9931 28.4683 21.9942C27.9306 21.9906 27.4897 21.8343 27.0935 21.4415C26.9851 21.3074 26.8907 21.1647 26.7946 21.0207C26.5328 20.6541 26.2779 20.3242 25.9011 20.0872C25.8672 20.0655 25.8333 20.0438 25.7983 20.0215C25.7983 19.9867 25.7983 19.952 25.7983 19.9163C25.729 19.9081 25.729 19.9081 25.6582 19.8998C25.4995 19.8637 25.4995 19.8637 25.4279 19.7848C25.206 19.56 24.6427 19.6295 24.3432 19.6354C23.7817 19.6643 23.2653 19.8672 22.8593 20.2844C22.8188 20.3258 22.7783 20.3673 22.7365 20.4099C22.6137 20.5437 22.5027 20.6815 22.3923 20.8268C22.3535 20.8772 22.3146 20.9275 22.2746 20.9794C22.206 21.0686 22.1375 21.158 22.0695 21.2477C21.7641 21.6365 21.364 21.9304 20.876 21.9823C20.7084 21.9882 20.5414 21.9893 20.3737 21.9886C20.3101 21.989 20.2466 21.9894 20.1811 21.9897C20.0078 21.9907 19.8345 21.9906 19.6611 21.9903C19.5161 21.9902 19.371 21.9905 19.2259 21.9908C18.8835 21.9915 18.5411 21.9915 18.1987 21.9909C17.8462 21.9903 17.4938 21.991 17.1413 21.9924C16.8379 21.9936 16.5345 21.9939 16.2311 21.9936C16.0502 21.9934 15.8693 21.9936 15.6885 21.9945C15.4867 21.9954 15.285 21.9947 15.0833 21.9938C14.9941 21.9945 14.9941 21.9945 14.9032 21.9953C14.5566 21.9921 14.3399 21.9454 14.0422 21.757C13.9827 21.7342 13.9231 21.7115 13.8617 21.688C13.6533 21.578 13.5223 21.436 13.3947 21.2311C13.3947 21.1964 13.3947 21.1617 13.3947 21.1259C13.3618 21.1259 13.3289 21.1259 13.295 21.1259C13.2551 21.0473 13.2158 20.9683 13.1767 20.8892C13.1548 20.8453 13.1328 20.8014 13.1102 20.7561C12.9297 20.3172 12.9315 19.8969 12.9319 19.4253C12.9316 19.3494 12.9312 19.2735 12.9308 19.1976C12.93 18.9924 12.9297 18.7873 12.9297 18.5821C12.9296 18.4537 12.9294 18.3253 12.9291 18.1969C12.9282 17.7482 12.9278 17.2995 12.9279 16.8508C12.9279 16.4336 12.9269 16.0165 12.9253 15.5993C12.924 15.2402 12.9235 14.881 12.9235 14.5219C12.9236 14.3078 12.9233 14.0938 12.9222 13.8797C12.9213 13.6783 12.9213 13.4769 12.922 13.2754C12.9221 13.2019 12.9218 13.1283 12.9212 13.0548C12.918 12.6282 12.9344 12.2447 13.1456 11.8695C13.1785 11.8522 13.2113 11.8348 13.2452 11.8169C13.2565 11.78 13.2678 11.7432 13.2795 11.7052C13.4735 11.2564 13.9215 10.9868 14.3411 10.8177C14.5398 10.765 14.7262 10.7585 14.9307 10.7584Z" fill="#CAEDE5"/>
<path d="M25.2196 21.065C25.3089 21.1379 25.3089 21.1379 25.3587 21.2957C25.4152 21.3536 25.4719 21.4114 25.5289 21.4687C25.631 21.5852 25.7141 21.7117 25.8008 21.8414C26.3033 22.5801 26.955 23.0148 27.7996 23.1891C27.9917 23.2093 28.182 23.2121 28.375 23.2118C28.456 23.2126 28.456 23.2126 28.5387 23.2134C28.715 23.215 28.8912 23.2155 29.0675 23.216C29.1906 23.2169 29.3137 23.2178 29.4368 23.2188C29.7592 23.2213 30.0815 23.2229 30.4038 23.2243C30.7334 23.2258 31.063 23.2283 31.3926 23.2307C32.038 23.2352 32.6835 23.2387 33.3289 23.2416C33.3298 23.3422 33.3304 23.4427 33.331 23.5433C33.3313 23.5993 33.3317 23.6553 33.3321 23.713C33.3281 23.9134 33.2985 24.0855 33.2542 24.2804C33.2334 24.3743 33.2334 24.3743 33.2122 24.4702C33.196 24.5389 33.196 24.5389 33.1795 24.6091C33.1466 24.6091 33.1137 24.6091 33.0799 24.6091C33.0786 24.6397 33.0773 24.6704 33.076 24.7019C33.0512 25.0804 32.9549 25.4113 32.8308 25.7661C32.7979 25.7661 32.765 25.7661 32.7312 25.7661C32.7238 25.7974 32.7165 25.8286 32.709 25.8608C32.5679 26.4112 32.2901 26.87 31.9963 27.3421C31.9018 27.494 31.812 27.647 31.7281 27.8055C31.6297 27.9851 31.528 28.0949 31.3862 28.238C31.311 28.3252 31.2363 28.4129 31.162 28.501C31.0087 28.6818 30.8535 28.8575 30.6888 29.0269C30.6639 29.0556 30.6389 29.0842 30.6133 29.1138C30.3883 29.3663 30.1406 29.5775 29.8793 29.7862C29.8445 29.8142 29.8098 29.8422 29.774 29.8711C29.7407 29.8972 29.7074 29.9234 29.673 29.9504C29.6432 29.9738 29.6134 29.9973 29.5827 30.0215C29.4869 30.0828 29.4033 30.1087 29.294 30.1313C29.294 30.1661 29.294 30.2008 29.294 30.2365C29.1917 30.3178 29.0906 30.3913 28.9826 30.4633C28.9509 30.4846 28.9192 30.5059 28.8865 30.5278C28.6028 30.7135 28.3126 30.8524 27.9988 30.9728C27.9167 31.005 27.9167 31.005 27.8328 31.0378C27.7157 31.0827 27.5982 31.1267 27.4804 31.1699C27.3646 31.2125 27.2494 31.2569 27.1349 31.3034C25.8517 31.8023 24.3657 31.8304 23.0174 31.6565C23.0174 31.6218 23.0174 31.5871 23.0174 31.5514C22.9812 31.55 22.945 31.5486 22.9077 31.5473C22.5776 31.5276 22.2956 31.4687 21.9851 31.3502C21.7963 31.2787 21.6057 31.2159 21.414 31.1536C21.3457 31.131 21.2773 31.1084 21.2089 31.0858C21.1041 31.0514 20.9991 31.0174 20.8937 30.9848C20.1748 30.7535 19.0576 30.1188 18.6338 29.4476C18.5964 29.4241 18.559 29.4006 18.5205 29.3763C18.3605 29.2745 18.235 29.1498 18.1045 29.0105C18.0657 28.9692 18.0657 28.9692 18.0261 28.927C16.8526 27.6527 16.0553 26.0443 15.6605 24.3231C15.6493 24.277 15.6381 24.2308 15.6266 24.1833C15.616 24.1373 15.6054 24.0913 15.5946 24.0439C15.5851 24.0034 15.5756 23.9629 15.5658 23.9212C15.5464 23.7758 15.5433 23.6415 15.544 23.495C15.5442 23.4476 15.5444 23.4002 15.5446 23.3513C15.5448 23.3151 15.5451 23.2789 15.5453 23.2416C15.6101 23.2412 15.675 23.2408 15.7418 23.2404C16.3544 23.2363 16.9671 23.2317 17.5797 23.2265C17.8947 23.2239 18.2096 23.2215 18.5245 23.2195C18.8288 23.2175 19.133 23.2151 19.4373 23.2123C19.553 23.2113 19.6688 23.2105 19.7845 23.2099C19.9474 23.209 20.1102 23.2075 20.273 23.2058C20.3203 23.2057 20.3675 23.2056 20.4161 23.2055C20.9065 23.1991 21.3689 23.1275 21.8219 22.9261C21.8681 22.9087 21.9144 22.8914 21.962 22.8735C22.0712 22.8291 22.0712 22.8291 22.1367 22.7502C22.2761 22.6051 22.4429 22.5 22.6051 22.3854C22.7293 22.2967 22.7293 22.2967 22.8182 22.1372C22.851 22.1372 22.8839 22.1372 22.9178 22.1372C22.9305 22.1082 22.9432 22.0793 22.9563 22.0495C23.1764 21.6076 23.5048 21.1142 23.9549 20.9193C24.4001 20.7946 24.8163 20.8337 25.2196 21.065Z" fill="#CAEDE5"/>
<path d="M28.9471 31.9717C28.9506 32.3558 28.9533 32.7399 28.9549 33.124C28.9556 33.3024 28.9567 33.4809 28.9584 33.6593C28.9755 35.582 28.9755 35.582 28.5984 36.1791C28.5768 36.2345 28.5553 36.2898 28.533 36.3468C28.3504 36.8033 28.1017 37.1948 27.7983 37.5696C27.7737 37.6 27.749 37.6304 27.7237 37.6618C27.5634 37.8545 27.3973 38.0225 27.2036 38.1777C27.1708 38.1777 27.1379 38.1777 27.104 38.1777C27.104 38.2124 27.104 38.2471 27.104 38.2829C27.0315 38.327 26.9588 38.3707 26.8861 38.4143C26.8254 38.4509 26.8254 38.4509 26.7635 38.4883C26.6557 38.5458 26.6557 38.5458 26.556 38.5458C26.556 38.5805 26.556 38.6152 26.556 38.651C25.5843 39.266 24.2444 39.2962 23.1667 39.015C22.8369 38.9066 22.5276 38.7681 22.2222 38.5984C22.2222 38.5637 22.2222 38.529 22.2222 38.4932C22.1894 38.4911 22.1565 38.4889 22.1226 38.4867C21.5571 38.3125 21.0324 37.6028 20.678 37.1258C20.6257 37.0043 20.5759 36.8815 20.5286 36.7577C20.4963 36.6957 20.4631 36.6344 20.4289 36.5736C20.1939 36.1472 19.9919 35.6283 20.0304 35.1273C19.9975 35.1273 19.9647 35.1273 19.9308 35.1273C19.9308 34.1033 19.9308 33.0793 19.9308 32.0243C20.1799 32.0243 20.1799 32.0243 20.2906 32.1198C20.4788 32.2761 20.6703 32.3237 20.899 32.3891C21.1929 32.4754 21.4785 32.5703 21.764 32.6842C22.1091 32.8157 22.4442 32.8866 22.8075 32.9348C22.871 32.9434 22.9344 32.952 22.9998 32.9608C24.313 33.1268 25.6567 33.0918 26.9314 32.7037C27.2013 32.6282 27.4749 32.5876 27.7516 32.5502C27.7516 32.5155 27.7516 32.4808 27.7516 32.445C27.7895 32.4329 27.8275 32.4207 27.8666 32.4082C28.1678 32.3078 28.437 32.1974 28.706 32.0218C28.7977 31.9717 28.7977 31.9717 28.9471 31.9717Z" fill="#CAEDE5"/>
<path d="M22.1729 2.2041C23.6688 2.2041 25.1647 2.2041 26.7059 2.2041C26.7059 4.56448 26.7059 6.92486 26.7059 9.35677C25.21 9.35677 23.7141 9.35677 22.1729 9.35677C22.1729 6.99639 22.1729 4.63601 22.1729 2.2041Z" fill="#CAEDE5"/>
<path d="M0.849921 46.6319C0.910789 46.6325 0.910789 46.6325 0.972887 46.633C1.03534 46.6331 1.03534 46.6331 1.09906 46.6331C1.18717 46.6333 1.27527 46.6337 1.36337 46.6343C1.4985 46.6353 1.63361 46.6354 1.76874 46.6354C1.85423 46.6357 1.93972 46.636 2.02521 46.6363C2.06579 46.6364 2.10637 46.6364 2.14817 46.6365C2.43395 46.6391 2.43395 46.6391 2.54514 46.6978C2.54514 46.9754 2.54514 47.2531 2.54514 47.5392C16.9947 47.5392 31.4442 47.5392 46.3316 47.5392C46.3316 47.2963 46.3316 47.0533 46.3316 46.8029C46.3645 46.7509 46.3974 46.6988 46.4313 46.6452C46.5797 46.6311 46.7176 46.6269 46.866 46.6298C46.909 46.63 46.9519 46.6302 46.9962 46.6304C47.1338 46.6313 47.2713 46.6333 47.4089 46.6353C47.502 46.6361 47.5952 46.6368 47.6883 46.6375C47.9169 46.6392 48.1454 46.6419 48.374 46.6452C48.4552 46.8167 48.4309 47.0057 48.4305 47.1941C48.4305 47.2381 48.4305 47.282 48.4306 47.3273C48.4306 47.4203 48.4305 47.5134 48.4303 47.6064C48.4301 47.749 48.4303 47.8917 48.4306 48.0344C48.4306 48.1246 48.4305 48.2149 48.4305 48.3051C48.4306 48.348 48.4307 48.3908 48.4308 48.435C48.4296 48.7368 48.4296 48.7368 48.374 48.8541C48.0912 48.8554 47.8083 48.8563 47.5254 48.857C47.4291 48.8572 47.3328 48.8576 47.2365 48.858C47.0984 48.8587 46.9603 48.859 46.8222 48.8592C46.7572 48.8596 46.7572 48.8596 46.6909 48.86C46.5877 48.86 46.4846 48.8573 46.3815 48.8541C46.365 48.8367 46.3486 48.8194 46.3316 48.8015C46.3316 48.5238 46.3316 48.2461 46.3316 47.96C31.8821 47.96 17.4326 47.96 2.54514 47.96C2.54514 48.2203 2.54514 48.4807 2.54514 48.7489C2.41714 48.884 2.33156 48.8671 2.15705 48.8687C2.11771 48.8685 2.07838 48.8683 2.03786 48.868C1.97723 48.8682 1.97723 48.8682 1.91539 48.8683C1.82984 48.8684 1.74429 48.8682 1.65874 48.8678C1.52776 48.8672 1.39682 48.8678 1.26584 48.8685C1.18278 48.8684 1.09972 48.8683 1.01667 48.868C0.95782 48.8684 0.95782 48.8684 0.897783 48.8687C0.706681 48.867 0.615717 48.8635 0.452953 48.7489C0.438428 48.5972 0.433231 48.4569 0.434857 48.3051C0.434832 48.2612 0.434807 48.2172 0.434781 48.1719C0.434898 48.0789 0.435383 47.9859 0.436207 47.8929C0.437382 47.7502 0.437231 47.6076 0.4369 47.4649C0.437178 47.3746 0.437532 47.2844 0.43797 47.1941C0.437925 47.1513 0.437879 47.1084 0.437832 47.0643C0.442268 46.6937 0.498789 46.6334 0.849921 46.6319Z" fill="#4E4F4F"/>
<path d="M20.9268 4.20313C20.9268 5.90399 20.9268 7.60485 20.9268 9.35725C18.9706 9.35725 17.0144 9.35725 14.9989 9.35725C15.0487 9.14688 15.0487 9.14688 15.0985 9.04169C15.1314 9.04169 15.1643 9.04169 15.1982 9.04169C15.2109 8.99525 15.2237 8.94881 15.2369 8.90096C15.4592 8.26275 16.0299 7.69621 16.4591 7.19765C16.4842 7.16816 16.5093 7.13868 16.5351 7.1083C16.6631 6.96162 16.7743 6.86797 16.9416 6.78019C16.9753 6.7103 17.0085 6.64014 17.0413 6.56982C17.1481 6.46422 17.1481 6.46422 17.281 6.35287C17.3302 6.31158 17.3794 6.27029 17.4301 6.22775C17.4831 6.18398 17.5362 6.14022 17.5892 6.09648C17.6423 6.05217 17.6953 6.00787 17.7484 5.96356C19.364 4.62387 19.364 4.62387 20.0799 4.62387C20.0799 4.58916 20.0799 4.55445 20.0799 4.51868C20.1598 4.47582 20.2397 4.43312 20.3197 4.39049C20.3642 4.36669 20.4087 4.3429 20.4545 4.31838C20.6279 4.23043 20.731 4.20313 20.9268 4.20313Z" fill="#CAEBED"/>
<path d="M27.9502 4.20312C28.1495 4.25572 28.1495 4.25572 28.2678 4.30831C28.4105 4.36574 28.5464 4.39126 28.6974 4.4135C28.6974 4.44821 28.6974 4.48292 28.6974 4.51868C28.7606 4.53821 28.7606 4.53821 28.8251 4.55813C28.9775 4.61666 29.1074 4.68649 29.2452 4.77651C29.3598 4.84279 29.4786 4.89472 29.5989 4.94825C29.9875 5.12777 30.3917 5.33393 30.7011 5.64389C30.8173 5.75475 30.9429 5.84826 31.0698 5.94527C31.3609 6.17324 31.6239 6.42411 31.8871 6.68671C32.0034 6.80277 32.1233 6.91238 32.2467 7.02014C32.4495 7.20494 32.6114 7.42048 32.7777 7.6414C32.8609 7.7517 32.9458 7.85812 33.0343 7.96353C33.2902 8.27684 33.5397 8.60006 33.6788 8.9891C33.7055 9.02598 33.7322 9.06286 33.7598 9.10086C33.8282 9.19947 33.8282 9.19947 33.8282 9.35725C31.8885 9.35725 29.9487 9.35725 27.9502 9.35725C27.9502 7.65639 27.9502 5.95553 27.9502 4.20312Z" fill="#CAEDE5"/>
<path d="M2.5459 47.5918C16.9954 47.5918 31.445 47.5918 46.3324 47.5918C46.3324 47.6092 46.3324 47.6265 46.3324 47.6444C41.4008 47.6704 41.4008 47.6704 36.3696 47.697C36.3696 47.7491 36.3696 47.8011 36.3696 47.8548C39.6573 47.8548 42.945 47.8548 46.3324 47.8548C46.3324 47.8721 46.3324 47.8895 46.3324 47.9074C42.2035 47.9101 38.0746 47.9126 33.9457 47.914C33.8846 47.9141 33.8235 47.9141 33.7606 47.9141C32.4336 47.9146 31.1065 47.915 29.7795 47.9154C29.1288 47.9156 28.478 47.9158 27.8273 47.916C27.7625 47.916 27.6978 47.9161 27.631 47.9161C25.5305 47.9168 23.4299 47.9179 21.3293 47.9194C19.1714 47.9209 17.0136 47.9219 14.8557 47.9222C14.5512 47.9222 14.2467 47.9223 13.9422 47.9223C13.8523 47.9223 13.8523 47.9223 13.7606 47.9224C12.7943 47.9225 11.8279 47.9233 10.8616 47.9242C9.89106 47.9251 8.92055 47.9255 7.95003 47.9253C7.37279 47.9251 6.79555 47.9255 6.2183 47.9264C5.83327 47.927 5.44824 47.927 5.06321 47.9266C4.84346 47.9263 4.62372 47.9264 4.40397 47.9271C4.20434 47.9277 4.00472 47.9276 3.80509 47.9269C3.73305 47.9268 3.661 47.927 3.58896 47.9274C3.4916 47.928 3.39423 47.9275 3.29686 47.927C3.21578 47.927 3.21578 47.927 3.13307 47.927C2.97782 47.905 2.9094 47.8597 2.79497 47.7496C2.81141 47.7322 2.82785 47.7149 2.84478 47.697C2.69683 47.6709 2.69683 47.6709 2.5459 47.6444C2.5459 47.627 2.5459 47.6097 2.5459 47.5918Z" fill="#373737"/>
<path d="M34.4746 14.3003C34.6803 14.4088 34.7879 14.4974 34.8731 14.721C34.9021 14.9732 34.9025 15.2368 34.7735 15.4573C34.7353 15.4814 34.6971 15.5055 34.6577 15.5303C34.5237 15.6155 34.4285 15.7039 34.3187 15.821C34.2794 15.8627 34.2401 15.9044 34.1996 15.9473C34.1571 15.9928 34.1147 16.0383 34.071 16.0851C34.0016 16.1589 33.9322 16.2327 33.8627 16.3065C33.7884 16.3856 33.7142 16.4648 33.64 16.5441C33.4852 16.7095 33.3299 16.8745 33.1745 17.0393C32.7329 17.5081 32.2919 17.9775 31.8513 18.4474C31.6078 18.7071 31.3639 18.9664 31.1196 19.2253C30.9652 19.3891 30.8112 19.5532 30.6576 19.7178C30.5394 19.8441 30.4205 19.9698 30.3017 20.0956C30.2594 20.1412 30.2171 20.1868 30.1735 20.2338C30.134 20.2753 30.0946 20.3168 30.0539 20.3596C30.02 20.3957 29.986 20.4319 29.9511 20.4691C29.7424 20.6405 29.5018 20.6906 29.2425 20.6848C29.0622 20.6466 28.9706 20.5396 28.8456 20.4011C28.8456 20.3663 28.8456 20.3316 28.8456 20.2959C28.8127 20.2959 28.7798 20.2959 28.746 20.2959C28.7364 20.2173 28.7297 20.1382 28.7242 20.0592C28.7201 20.0153 28.7161 19.9713 28.7119 19.9261C28.8028 19.5095 29.2773 19.1486 29.5556 18.8549C29.6004 18.8074 29.6452 18.7599 29.6914 18.711C29.8133 18.5819 29.9353 18.4529 30.0573 18.3241C30.1337 18.2434 30.21 18.1627 30.2863 18.082C30.553 17.8 30.8197 17.5181 31.0866 17.2364C31.3349 16.9743 31.5829 16.7118 31.8308 16.4493C32.0443 16.2232 32.258 15.9974 32.4718 15.7716C32.5992 15.6371 32.7266 15.5025 32.8537 15.3677C32.9953 15.2176 33.1373 15.0679 33.2794 14.9183C33.3212 14.8738 33.3631 14.8292 33.4063 14.7834C33.4451 14.7426 33.4839 14.7019 33.5239 14.6599C33.5574 14.6245 33.5908 14.5891 33.6253 14.5527C33.8965 14.3012 34.1219 14.246 34.4746 14.3003Z" fill="#363636"/>
<path d="M0.849921 46.6328C0.910789 46.6334 0.910789 46.6334 0.972887 46.634C1.03534 46.634 1.03534 46.634 1.09906 46.634C1.18717 46.6342 1.27527 46.6346 1.36337 46.6353C1.4985 46.6362 1.63361 46.6363 1.76874 46.6363C1.85423 46.6366 1.93972 46.6369 2.02521 46.6372C2.06579 46.6373 2.10637 46.6374 2.14817 46.6374C2.43395 46.64 2.43395 46.64 2.54514 46.6987C2.54514 46.9764 2.54514 47.2541 2.54514 47.5402C16.9947 47.5402 31.4442 47.5402 46.3316 47.5402C46.3316 47.5575 46.3316 47.5749 46.3316 47.5928C46.2752 47.5928 46.2752 47.5928 46.2176 47.5928C42.1205 47.596 38.0235 47.5993 33.9264 47.6033C33.8653 47.6034 33.8041 47.6035 33.7411 47.6035C32.4123 47.6048 31.0835 47.6061 29.7546 47.6075C29.103 47.6081 28.4514 47.6088 27.7998 47.6094C27.7349 47.6095 27.6701 47.6096 27.6033 47.6096C25.4996 47.6117 23.3959 47.6135 21.2922 47.6151C19.1312 47.6167 16.9703 47.6187 14.8094 47.6211C14.5045 47.6214 14.1996 47.6218 13.8948 47.6221C13.8048 47.6222 13.8048 47.6222 13.7129 47.6223C12.7451 47.6234 11.7772 47.624 10.8094 47.6246C9.83752 47.6252 8.86567 47.6261 7.89383 47.6274C7.31567 47.6282 6.73753 47.6287 6.15937 47.6288C5.77387 47.6288 5.38836 47.6293 5.00286 47.6301C4.78275 47.6305 4.56265 47.6307 4.34255 47.6305C4.14272 47.6304 3.94289 47.6306 3.74305 47.6313C3.67083 47.6315 3.5986 47.6315 3.52637 47.6313C3.42899 47.631 3.33161 47.6315 3.23423 47.6319C3.18011 47.632 3.12598 47.632 3.07021 47.6321C2.93527 47.632 2.93527 47.632 2.84403 47.7505C2.9591 47.7679 3.07417 47.7852 3.19272 47.8031C3.04017 47.897 2.93265 47.9203 2.75685 47.9149C2.71704 47.9139 2.67723 47.913 2.63621 47.912C2.60616 47.9108 2.5761 47.9096 2.54514 47.9083C2.5463 47.9678 2.54745 48.0274 2.54864 48.0887C2.54958 48.1666 2.55048 48.2446 2.55137 48.3225C2.5522 48.3617 2.55304 48.401 2.5539 48.4414C2.55477 48.5443 2.55028 48.6471 2.54514 48.7498C2.41714 48.8849 2.33156 48.868 2.15705 48.8696C2.11771 48.8694 2.07838 48.8692 2.03786 48.869C1.97723 48.8691 1.97723 48.8691 1.91539 48.8693C1.82984 48.8693 1.74429 48.8691 1.65874 48.8687C1.52776 48.8681 1.39682 48.8687 1.26584 48.8694C1.18278 48.8693 1.09972 48.8692 1.01667 48.869C0.95782 48.8693 0.95782 48.8693 0.897783 48.8696C0.706681 48.8679 0.615717 48.8644 0.452953 48.7498C0.438428 48.5981 0.433231 48.4578 0.434857 48.306C0.434832 48.2621 0.434807 48.2181 0.434781 48.1728C0.434898 48.0798 0.435383 47.9868 0.436207 47.8938C0.437382 47.7511 0.437231 47.6085 0.4369 47.4658C0.437178 47.3755 0.437532 47.2853 0.43797 47.195C0.437925 47.1522 0.437879 47.1093 0.437832 47.0652C0.442268 46.6947 0.498789 46.6343 0.849921 46.6328Z" fill="#6D6E6D"/>
<path d="M37.3149 13.7217C37.6273 13.7217 37.9396 13.7217 38.2614 13.7217C38.2614 15.4225 38.2614 17.1234 38.2614 18.8758C37.9326 18.8758 37.6038 18.8758 37.2651 18.8758C37.264 18.2116 37.2631 17.5473 37.2625 16.8831C37.2623 16.5747 37.2619 16.2663 37.2614 15.9579C37.2608 15.6605 37.2605 15.3631 37.2604 15.0658C37.2603 14.9521 37.2601 14.8383 37.2598 14.7246C37.2595 14.5659 37.2594 14.4072 37.2595 14.2485C37.2593 14.201 37.2591 14.1535 37.2589 14.1046C37.2594 13.7803 37.2594 13.7803 37.3149 13.7217Z" fill="#CAEDE5"/>
<path d="M10.6143 13.7217C10.943 13.7217 11.2718 13.7217 11.6105 13.7217C11.6117 14.3859 11.6126 15.0502 11.6131 15.7144C11.6134 16.0228 11.6137 16.3312 11.6143 16.6396C11.6148 16.937 11.6151 17.2343 11.6153 17.5317C11.6154 17.6454 11.6155 17.7591 11.6158 17.8729C11.6162 18.0316 11.6162 18.1902 11.6162 18.3489C11.6164 18.3965 11.6166 18.444 11.6167 18.4929C11.6162 18.8172 11.6162 18.8172 11.5607 18.8758C11.2484 18.8758 10.9361 18.8758 10.6143 18.8758C10.6143 17.1749 10.6143 15.4741 10.6143 13.7217Z" fill="#CAEDE5"/>
<path d="M34.8238 17.9821C34.9515 18.0511 34.9515 18.0511 35.0231 18.1399C35.0231 18.192 35.0231 18.244 35.0231 18.2977C35.056 18.2977 35.0889 18.2977 35.1227 18.2977C35.181 18.4208 35.1894 18.5088 35.1974 18.6461C35.2028 18.7106 35.2028 18.7106 35.2083 18.7764C35.1691 18.9435 35.126 18.9974 35.0187 19.1231C34.987 19.1603 34.9553 19.1975 34.9227 19.2358C34.6683 19.5285 34.4093 19.8159 34.1466 20.1003C34.0749 20.1785 34.0037 20.2573 33.933 20.3366C33.8299 20.4522 33.7251 20.5658 33.6197 20.6792C33.5733 20.7324 33.5733 20.7324 33.526 20.7867C33.3371 20.9854 33.2111 21.0549 32.9408 21.0601C32.7652 21.0518 32.6884 21.0364 32.5324 20.9438C32.3765 20.7535 32.291 20.6335 32.2646 20.3784C32.3018 20.0061 32.4601 19.8373 32.7217 19.6096C32.8795 19.4622 33.0118 19.2948 33.1469 19.1246C33.1743 19.0947 33.2016 19.0648 33.2298 19.034C33.2627 19.034 33.2955 19.034 33.3294 19.034C33.3487 18.988 33.3487 18.988 33.3683 18.9411C33.4339 18.8141 33.5063 18.728 33.6034 18.6264C33.6489 18.578 33.6489 18.578 33.6952 18.5286C33.7777 18.4555 33.7777 18.4555 33.8774 18.4555C33.9103 18.386 33.9431 18.3166 33.977 18.2451C34.0099 18.2451 34.0428 18.2451 34.0766 18.2451C34.0766 18.2104 34.0766 18.1757 34.0766 18.1399C34.3262 17.9778 34.5375 17.9391 34.8238 17.9821Z" fill="#383838"/>
<path d="M46.7295 47.0664C47.1569 47.0664 47.5843 47.0664 48.0247 47.0664C48.0247 47.5177 48.0247 47.9689 48.0247 48.4338C47.5973 48.4338 47.1698 48.4338 46.7295 48.4338C46.7295 47.9826 46.7295 47.5313 46.7295 47.0664Z" fill="#CAEBED"/>
<path d="M0.85083 47.0664C1.27823 47.0664 1.70564 47.0664 2.14599 47.0664C2.14599 47.5177 2.14599 47.9689 2.14599 48.4338C1.71859 48.4338 1.29119 48.4338 0.85083 48.4338C0.85083 47.9826 0.85083 47.5313 0.85083 47.0664Z" fill="#CAEDE5"/>
<path d="M0.850638 46.6324C0.911506 46.633 0.911506 46.633 0.973604 46.6335C1.03606 46.6336 1.03606 46.6336 1.09978 46.6336C1.18788 46.6338 1.27599 46.6342 1.36409 46.6348C1.49922 46.6358 1.63433 46.6359 1.76946 46.6359C1.85495 46.6362 1.94044 46.6365 2.02592 46.6368C2.0665 46.6369 2.10708 46.6369 2.14889 46.637C2.43467 46.6396 2.43467 46.6396 2.54586 46.6982C2.54586 46.9759 2.54586 47.2536 2.54586 47.5397C2.52942 47.5397 2.51298 47.5397 2.49604 47.5397C2.49604 47.2794 2.49604 47.0191 2.49604 46.7508C1.73165 46.7769 1.73165 46.7769 0.95181 46.8034C0.935372 46.8729 0.918933 46.9423 0.901996 47.0138C1.34584 47.0138 1.78968 47.0138 2.24697 47.0138C2.24812 47.2226 2.24911 47.4313 2.24971 47.6401C2.24996 47.7111 2.2503 47.7822 2.25073 47.8533C2.25133 47.9552 2.25159 48.0572 2.25184 48.1591C2.2521 48.2206 2.25236 48.282 2.25263 48.3453C2.24697 48.4864 2.24697 48.4864 2.19716 48.539C1.96602 48.5524 1.73433 48.5487 1.50288 48.5489C1.43741 48.5495 1.37195 48.5502 1.3045 48.5508C1.24211 48.5509 1.17973 48.551 1.11546 48.5511C1.02906 48.5515 1.02906 48.5515 0.940926 48.5518C0.802368 48.539 0.802368 48.539 0.70274 48.4338C0.653425 48.4599 0.653425 48.4599 0.603112 48.4864C0.570457 48.6193 0.570457 48.6193 0.553298 48.7494C0.520421 48.7494 0.487544 48.7494 0.45367 48.7494C0.451212 48.4667 0.449401 48.184 0.448198 47.9013C0.447696 47.8051 0.447016 47.7089 0.446154 47.6126C0.444949 47.4745 0.444381 47.3364 0.443941 47.1983C0.443427 47.1551 0.442913 47.1119 0.442383 47.0675C0.442363 46.9619 0.447568 46.8563 0.45367 46.7508C0.583522 46.6137 0.673812 46.6331 0.850638 46.6324ZM0.852182 47.0664C0.852182 47.5176 0.852182 47.9689 0.852182 48.4338C1.27959 48.4338 1.70699 48.4338 2.14735 48.4338C2.14735 47.9826 2.14735 47.5313 2.14735 47.0664C1.71994 47.0664 1.29254 47.0664 0.852182 47.0664Z" fill="#4B4B4B"/>
<path d="M46.4316 46.6455C47.0727 46.6455 47.7139 46.6455 48.3744 46.6455C48.4556 46.817 48.4313 47.006 48.4308 47.1944C48.4309 47.2384 48.4309 47.2824 48.431 47.3277C48.431 47.4207 48.4309 47.5137 48.4307 47.6067C48.4304 47.7494 48.4307 47.892 48.431 48.0347C48.431 48.125 48.4309 48.2152 48.4308 48.3055C48.4309 48.3483 48.431 48.3912 48.4311 48.4353C48.4299 48.7371 48.4299 48.7371 48.3744 48.8544C48.0915 48.8557 47.8087 48.8567 47.5258 48.8573C47.4295 48.8576 47.3332 48.8579 47.2369 48.8584C47.0988 48.859 46.9607 48.8593 46.8226 48.8596C46.7576 48.86 46.7576 48.86 46.6913 48.8604C46.5881 48.8604 46.4849 48.8577 46.3818 48.8544C46.332 48.8018 46.332 48.8018 46.3271 48.6126C46.3275 48.5343 46.3281 48.4561 46.3289 48.3778C46.3291 48.3379 46.3293 48.298 46.3296 48.2569C46.3302 48.158 46.3311 48.0592 46.332 47.9603C46.3485 47.9603 46.3649 47.9603 46.3818 47.9603C46.3983 48.2207 46.4147 48.481 46.4316 48.7492C47.3686 48.7753 47.3686 48.7753 48.3246 48.8018C48.3246 48.125 48.3246 47.4481 48.3246 46.7507C48.2872 46.9084 48.2543 47.0646 48.2249 47.224C48.2085 47.224 48.1921 47.224 48.1751 47.224C48.1733 47.2786 48.1733 47.2786 48.1713 47.3342C48.1656 47.498 48.1595 47.6618 48.1533 47.8256C48.1514 47.8828 48.1494 47.9401 48.1474 47.9991C48.1443 48.0807 48.1443 48.0807 48.1411 48.1639C48.1393 48.2143 48.1374 48.2647 48.1355 48.3167C48.1253 48.4337 48.1253 48.4337 48.0755 48.4863C47.9765 48.4915 47.8773 48.4931 47.7782 48.4933C47.7179 48.4933 47.6576 48.4934 47.5955 48.4935C47.532 48.4933 47.4684 48.4931 47.403 48.4928C47.3395 48.493 47.276 48.4932 47.2106 48.4935C47.1201 48.4934 47.1201 48.4934 47.0279 48.4933C46.9721 48.4932 46.9163 48.4931 46.8589 48.4931C46.7305 48.4863 46.7305 48.4863 46.6807 48.4337C46.6757 48.3291 46.6742 48.2244 46.6741 48.1198C46.674 48.0561 46.674 47.9924 46.6739 47.9268C46.6741 47.8598 46.6743 47.7927 46.6745 47.7237C46.6743 47.6566 46.6741 47.5896 46.6739 47.5205C46.674 47.4568 46.674 47.3932 46.6741 47.3276C46.6742 47.2687 46.6742 47.2098 46.6743 47.1491C46.6807 47.0137 46.6807 47.0137 46.7305 46.9611C46.8191 46.9528 46.908 46.9479 46.9969 46.9444C47.0507 46.9422 47.1045 46.94 47.1599 46.9377C47.2165 46.9357 47.2731 46.9336 47.3314 46.9315C47.4166 46.9281 47.4166 46.9281 47.5035 46.9246C47.6444 46.919 47.7852 46.9136 47.9261 46.9085C47.9261 46.8738 47.9261 46.8391 47.9261 46.8033C47.1863 46.7773 47.1863 46.7773 46.4316 46.7507C46.4316 46.716 46.4316 46.6813 46.4316 46.6455ZM46.7305 47.0663C46.7305 47.5175 46.7305 47.9688 46.7305 48.4337C47.1579 48.4337 47.5853 48.4337 48.0257 48.4337C48.0257 47.9824 48.0257 47.5312 48.0257 47.0663C47.5983 47.0663 47.1709 47.0663 46.7305 47.0663Z" fill="#676767"/>
<path d="M0.98506 47.0078C1.04323 47.0081 1.10141 47.0084 1.16134 47.0086C1.22411 47.0088 1.28688 47.009 1.35155 47.0092C1.41833 47.0096 1.4851 47.01 1.55188 47.0105C1.61885 47.0108 1.68582 47.011 1.75279 47.0112C1.91725 47.0118 2.0817 47.0127 2.24616 47.0138C2.24739 47.2225 2.24829 47.4313 2.2489 47.6401C2.24915 47.7111 2.24949 47.7822 2.24992 47.8533C2.25052 47.9552 2.25078 48.0572 2.25102 48.1591C2.25142 48.2512 2.25142 48.2512 2.25181 48.3452C2.24616 48.4864 2.24616 48.4864 2.19635 48.539C2.0931 48.5436 1.98971 48.5446 1.88637 48.5441C1.8236 48.544 1.76083 48.5438 1.69616 48.5436C1.62939 48.5432 1.56261 48.5427 1.49584 48.5423C1.42887 48.542 1.3619 48.5418 1.29493 48.5416C1.13047 48.5409 0.966011 48.5401 0.801554 48.539C0.800325 48.3302 0.79942 48.1215 0.798817 47.9127C0.798566 47.8416 0.798226 47.7706 0.797796 47.6995C0.797194 47.5976 0.796936 47.4956 0.796689 47.3936C0.796428 47.3322 0.796167 47.2708 0.795898 47.2075C0.803508 47.0176 0.805172 47.0158 0.98506 47.0078ZM0.851368 47.0664C0.851368 47.5176 0.851368 47.9689 0.851368 48.4338C1.27877 48.4338 1.70618 48.4338 2.14653 48.4338C2.14653 47.9825 2.14653 47.5313 2.14653 47.0664C1.71913 47.0664 1.29172 47.0664 0.851368 47.0664Z" fill="#747474"/>
<path d="M28.7963 31.9717C28.8456 31.9717 28.8949 31.9717 28.9457 31.9717C28.9492 32.3558 28.9518 32.7399 28.9535 33.124C28.9542 33.3024 28.9553 33.4809 28.957 33.6593C28.9705 35.1799 28.9705 35.1799 28.7963 35.811C28.7798 35.811 28.7634 35.811 28.7465 35.811C28.7402 35.4139 28.7402 35.4139 28.771 35.2973C28.802 35.1532 28.8044 35.0189 28.8065 34.8711C28.8075 34.809 28.8085 34.7469 28.8095 34.6829C28.8103 34.6161 28.8112 34.5493 28.812 34.4805C28.8131 34.412 28.8141 34.3434 28.8152 34.2727C28.8179 34.0908 28.8204 33.9089 28.8228 33.727C28.8253 33.5412 28.8281 33.3554 28.8308 33.1696C28.8362 32.8054 28.8412 32.4411 28.8461 32.0769C28.8132 32.0595 28.7803 32.0422 28.7465 32.0243C28.7629 32.0069 28.7793 31.9896 28.7963 31.9717Z" fill="#BFBFBF"/>
<path d="M19.9308 32.0244C20.013 32.0244 20.0952 32.0244 20.1799 32.0244C20.1963 32.0591 20.2127 32.0938 20.2297 32.1296C20.1639 32.1296 20.0982 32.1296 20.0304 32.1296C20.0363 32.529 20.0425 32.9285 20.049 33.3279C20.0511 33.4635 20.0532 33.5992 20.0552 33.7348C20.0581 33.9308 20.0613 34.1267 20.0645 34.3227C20.0653 34.3824 20.0661 34.4422 20.067 34.5037C20.0739 34.9061 20.0969 35.3051 20.13 35.7059C20.1136 35.7059 20.0972 35.7059 20.0802 35.7059C20.0638 35.515 20.0474 35.3241 20.0304 35.1274C19.9975 35.1274 19.9647 35.1274 19.9308 35.1274C19.9308 34.1034 19.9308 33.0794 19.9308 32.0244Z" fill="#C3C4C3"/>
<path d="M34.4261 15.668C34.4508 15.7721 34.4508 15.7721 34.4759 15.8783C34.4501 15.9019 34.4242 15.9254 34.3975 15.9496C34.3628 15.9814 34.328 16.0132 34.2923 16.046C34.2582 16.0771 34.2241 16.1082 34.1889 16.1403C34.0642 16.2591 33.9464 16.3833 33.8284 16.5095C33.6623 16.6848 33.4963 16.8601 33.3302 17.0354C33.2884 17.0801 33.2466 17.1247 33.2035 17.1708C33.0942 17.2848 32.9826 17.3928 32.8663 17.4989C32.8316 17.5307 32.7968 17.5625 32.7611 17.5952C32.7352 17.6187 32.7093 17.6423 32.6826 17.6665C32.6498 17.6492 32.6169 17.6318 32.583 17.6139C33.1912 16.9718 33.7995 16.3296 34.4261 15.668Z" fill="#DDDDDD"/>
<path d="M37.0652 11.5654C37.2408 11.7508 37.2637 11.9802 37.2672 12.2354C37.2663 12.292 37.2654 12.3486 37.2645 12.4069C37.3004 12.4064 37.3363 12.4058 37.3733 12.4053C37.5373 12.4031 37.7013 12.4017 37.8654 12.4003C37.9501 12.399 37.9501 12.399 38.0365 12.3977C38.3305 12.3959 38.5816 12.4043 38.8585 12.5121C38.7152 12.5877 38.6161 12.5416 38.46 12.5121C38.3596 12.5048 38.259 12.4993 38.1584 12.4955C38.1032 12.4933 38.048 12.4911 37.9911 12.4888C37.9342 12.4867 37.8773 12.4847 37.8187 12.4825C37.7606 12.4803 37.7026 12.478 37.6428 12.4756C37.5001 12.4701 37.3574 12.4647 37.2147 12.4595C37.1982 12.338 37.1818 12.2165 37.1649 12.0914C37.132 12.0914 37.0991 12.0914 37.0652 12.0914C37.0488 12.1608 37.0323 12.2302 37.0154 12.3017C37.0104 12.1173 37.0302 11.956 37.0652 11.7758C37.0652 11.7064 37.0652 11.637 37.0652 11.5654Z" fill="#5C5C5C"/>
<path d="M28.9964 19.4541C28.9964 19.6119 28.9964 19.6119 28.9466 19.7697C28.9509 19.8958 28.9586 20.0219 28.9684 20.1477C28.976 20.248 28.976 20.248 28.9838 20.3504C28.988 20.4018 28.9921 20.4531 28.9964 20.506C28.9471 20.4713 28.8978 20.4365 28.847 20.4008C28.847 20.3661 28.847 20.3314 28.847 20.2956C28.8141 20.2956 28.7812 20.2956 28.7474 20.2956C28.7092 19.8421 28.7092 19.8421 28.8028 19.6645C28.8719 19.579 28.8719 19.579 28.9964 19.4541Z" fill="#626262"/>
<path d="M43.8916 40.334C44.0298 40.5027 44.0762 40.6501 44.122 40.8665C44.1651 41.0797 44.1651 41.0797 44.2403 41.2807C44.2438 41.3617 44.2445 41.4428 44.2434 41.5239C44.243 41.5669 44.2425 41.6099 44.2421 41.6542C44.2415 41.6871 44.2409 41.7201 44.2403 41.754C44.0352 41.4291 43.9659 41.1404 43.9321 40.758C43.928 40.717 43.9239 40.6761 43.9197 40.6338C43.9099 40.5339 43.9007 40.434 43.8916 40.334Z" fill="#8A8A8A"/>
<path d="M6.28137 37.2314C6.28137 37.2835 6.28137 37.3356 6.28137 37.3892C6.24849 37.4239 6.21562 37.4586 6.18174 37.4944C6.16633 37.553 6.15092 37.6116 6.13504 37.6719C6.0868 37.8457 6.05266 37.9463 5.93267 38.0729C5.88336 38.0729 5.83404 38.0729 5.78323 38.0729C5.76679 38.1424 5.75035 38.2118 5.73342 38.2833C5.70054 38.2833 5.66766 38.2833 5.63379 38.2833C5.7009 38.0261 5.80337 37.8494 5.95758 37.639C6.01691 37.5573 6.01691 37.5573 6.07745 37.4739C6.18174 37.3366 6.18174 37.3366 6.28137 37.2314Z" fill="#5E5E5E"/>
<path d="M37.2666 20.1904C37.6611 20.1904 38.0557 20.1904 38.4621 20.1904C38.4457 20.2251 38.4293 20.2599 38.4123 20.2956C38.3812 20.2967 38.35 20.2977 38.3179 20.2988C38.1771 20.3038 38.0363 20.3095 37.8955 20.3153C37.8464 20.317 37.7974 20.3186 37.7468 20.3203C37.7 20.3223 37.6531 20.3243 37.6048 20.3264C37.5398 20.3289 37.5398 20.3289 37.4736 20.3314C37.3558 20.3383 37.3558 20.3383 37.2666 20.4534C37.2666 20.3666 37.2666 20.2798 37.2666 20.1904Z" fill="#D5D5D5"/>
<path d="M30.1916 18.1924C30.1916 18.3756 30.1691 18.3967 30.0577 18.5277C30.0303 18.5599 30.0029 18.5922 29.9746 18.6255C29.7765 18.8501 29.5699 19.0508 29.3447 19.2442C29.3119 19.2269 29.279 19.2095 29.2451 19.1917C29.5575 18.8619 29.8698 18.5321 30.1916 18.1924Z" fill="#6D6D6D"/>
<path d="M16.1945 5.57031C16.2273 5.62238 16.2602 5.67445 16.2941 5.72809C16.2132 5.81797 16.13 5.90557 16.045 5.99106C16.0121 5.99106 15.9793 5.99106 15.9454 5.99106C15.929 6.04312 15.9125 6.09519 15.8956 6.14884C15.7981 6.22232 15.6986 6.29283 15.5967 6.35921C15.5638 6.34185 15.5309 6.3245 15.4971 6.30662C15.7099 6.03133 15.9362 5.79798 16.1945 5.57031Z" fill="#474747"/>
<path d="M28.5977 36.127C28.6476 36.2321 28.6476 36.2321 28.6102 36.4195C28.5896 36.4792 28.5691 36.5388 28.5479 36.6003C28.4986 36.6176 28.4493 36.635 28.3985 36.6529C28.3944 36.7115 28.3903 36.77 28.386 36.8304C28.3487 37.021 28.3487 37.021 28.2459 37.0966C28.2141 37.1064 28.1822 37.1162 28.1494 37.1262C28.2335 36.8895 28.3399 36.6675 28.4483 36.4425C28.4771 36.3818 28.5058 36.321 28.5355 36.2584C28.556 36.215 28.5766 36.1717 28.5977 36.127Z" fill="#787878"/>
<path d="M30.8398 19.4541C30.8563 19.5235 30.8727 19.5929 30.8897 19.6645C30.8275 19.7226 30.7652 19.7807 30.7029 19.8387C30.6682 19.871 30.6335 19.9034 30.5978 19.9367C30.4986 20.026 30.397 20.1091 30.2919 20.1904C30.259 20.173 30.2261 20.1557 30.1923 20.1378C30.406 19.9122 30.6197 19.6866 30.8398 19.4541Z" fill="#DDDDDD"/>
<path d="M33.878 16.3516C33.8945 16.3863 33.9109 16.421 33.9279 16.4567C33.7156 16.6547 33.5035 16.8511 33.2803 17.0353C33.3083 16.8358 33.3883 16.7436 33.5231 16.6047C33.5753 16.5499 33.5753 16.5499 33.6286 16.4939C33.7286 16.4042 33.7286 16.4042 33.878 16.3516Z" fill="#E5E5E5"/>
<path d="M26.8568 31.2852C26.9293 31.2868 26.9293 31.2868 27.0032 31.2884C26.8937 31.404 26.8514 31.416 26.7047 31.4499C26.6458 31.4636 26.6458 31.4636 26.5858 31.4777C26.5447 31.4868 26.5037 31.496 26.4614 31.5054C26.4005 31.5197 26.4005 31.5197 26.3383 31.5344C26.1537 31.5766 25.9982 31.604 25.8076 31.604C25.8076 31.5693 25.8076 31.5346 25.8076 31.4988C25.8682 31.488 25.9287 31.4773 25.9911 31.4662C26.0701 31.4518 26.149 31.4375 26.2279 31.4232C26.2679 31.4161 26.3079 31.409 26.3491 31.4017C26.5304 31.3686 26.6831 31.2889 26.8568 31.2852Z" fill="#CACACA"/>
<path d="M5.48256 44.0156C5.53188 44.033 5.58119 44.0503 5.632 44.0682C5.48087 44.2329 5.36931 44.296 5.15566 44.3049C4.98718 44.2978 4.94482 44.287 4.80696 44.1734C4.77151 44.1213 4.77151 44.1213 4.73535 44.0682C4.78467 44.0856 4.83398 44.1029 4.88479 44.1208C4.98748 44.1244 5.09028 44.1253 5.19302 44.1241C5.24715 44.1236 5.30128 44.1231 5.35705 44.1227C5.39847 44.1221 5.43989 44.1214 5.48256 44.1208C5.48256 44.0861 5.48256 44.0514 5.48256 44.0156Z" fill="#6E6E6E"/>
<path d="M35.0733 18.2979C35.1938 18.425 35.193 18.4705 35.2009 18.6463C35.1981 18.938 35.0904 19.0748 34.9005 19.2762C34.8753 19.3004 34.8502 19.3247 34.8242 19.3497C34.8078 19.2976 34.7914 19.2456 34.7744 19.1919C34.8402 19.1572 34.9059 19.1225 34.9737 19.0867C34.9737 19.052 34.9737 19.0173 34.9737 18.9816C35.0065 18.9816 35.0394 18.9816 35.0733 18.9816C35.0733 18.7559 35.0733 18.5303 35.0733 18.2979Z" fill="#4E4E4E"/>
<path d="M20.8761 30.9199C20.9027 30.9295 20.9293 30.939 20.9567 30.9489C21.2093 31.0389 21.4627 31.1211 21.7196 31.1962C21.8226 31.2355 21.8226 31.2355 21.9222 31.3407C21.687 31.3039 21.46 31.2459 21.231 31.1796C21.1967 31.1698 21.1624 31.16 21.1271 31.1499C21.0434 31.126 20.9597 31.1019 20.8761 31.0777C20.8761 31.0256 20.8761 30.9736 20.8761 30.9199Z" fill="#8E8F8E"/>
<path d="M7.72665 37.5469C7.76712 37.6356 7.76712 37.6356 7.77646 37.7572C7.66438 37.892 7.66438 37.892 7.52739 38.0202C7.4976 38.0517 7.4678 38.0831 7.4371 38.1155C7.41758 38.1361 7.39806 38.1568 7.37795 38.178C7.34507 38.1606 7.31219 38.1433 7.27832 38.1254C7.33428 38.0486 7.39034 37.9719 7.44644 37.8953C7.47765 37.8526 7.50886 37.8099 7.54101 37.7659C7.62702 37.6521 7.62702 37.6521 7.72665 37.5469Z" fill="#CACACA"/>
<path d="M6.23247 39.9131C6.29871 40.1229 6.24156 40.2282 6.18265 40.439C6.17425 40.5134 6.16698 40.5879 6.16086 40.6625C6.13284 40.8598 6.13284 40.8598 6.05501 40.9649C6.03138 40.9823 6.00775 40.9997 5.9834 41.0175C6.01212 40.631 6.11842 40.2805 6.23247 39.9131Z" fill="#A3A3A3"/>
<path d="M7.07724 36.4424C7.07724 36.6002 7.07724 36.6002 6.99007 36.6961C6.95308 36.7284 6.91609 36.7608 6.87799 36.7941C6.841 36.8268 6.80401 36.8596 6.7659 36.8933C6.73714 36.9181 6.70837 36.9428 6.67873 36.9683C6.64585 36.9336 6.61298 36.8989 6.5791 36.8631C6.64289 36.7733 6.7095 36.6857 6.77836 36.6002C6.81123 36.6002 6.84411 36.6002 6.87799 36.6002C6.87799 36.5655 6.87799 36.5307 6.87799 36.495C6.94374 36.4776 7.00949 36.4603 7.07724 36.4424Z" fill="#505050"/>
<path d="M35.7726 20.7168C35.789 20.7862 35.8054 20.8556 35.8224 20.9272C35.7895 20.9272 35.7566 20.9272 35.7227 20.9272C35.7227 20.9792 35.7227 21.0313 35.7227 21.0849C35.6899 21.0849 35.657 21.0849 35.6231 21.0849C35.619 21.1164 35.6149 21.1479 35.6107 21.1803C35.5631 21.3267 35.495 21.3707 35.374 21.4531C35.3412 21.4357 35.3083 21.4184 35.2744 21.4005C35.2937 21.3776 35.3129 21.3547 35.3328 21.3311C35.4956 21.1345 35.6401 20.9373 35.7726 20.7168Z" fill="#707070"/>
<path d="M5.03716 39.5449C5.11043 39.7796 5.02859 39.9004 4.93753 40.1234C4.92494 40.2966 4.92494 40.2966 4.93753 40.439C4.88821 40.4564 4.8389 40.4737 4.78809 40.4916C4.81248 40.1439 4.90437 39.8631 5.03716 39.5449Z" fill="#6E6E6E"/>
<path d="M34.6128 17.9754C34.6526 17.9763 34.6924 17.9773 34.7334 17.9782C34.7634 17.9794 34.7935 17.9807 34.8245 17.9819C34.8409 18.0166 34.8573 18.0513 34.8743 18.0871C34.8283 18.0919 34.8283 18.0919 34.7815 18.0968C34.7412 18.1012 34.7009 18.1056 34.6595 18.1101C34.6196 18.1144 34.5797 18.1187 34.5386 18.1231C34.4179 18.1372 34.4179 18.1372 34.2765 18.1923C34.2436 18.1576 34.2108 18.1229 34.1769 18.0871C34.3294 17.9933 34.4369 17.9699 34.6128 17.9754Z" fill="#666766"/>
<path d="M37.0652 11.5654C37.2278 11.7371 37.2611 11.9552 37.2707 12.1933C37.2687 12.2291 37.2666 12.2649 37.2645 12.3017C37.248 12.2323 37.2316 12.1629 37.2147 12.0914C37.1654 12.0914 37.116 12.0914 37.0652 12.0914C37.0488 12.1608 37.0323 12.2302 37.0154 12.3017C37.0104 12.1173 37.0302 11.956 37.0652 11.7758C37.0652 11.7064 37.0652 11.637 37.0652 11.5654Z" fill="#696969"/>
<path d="M30.5401 29.1318C30.5401 29.3022 30.5306 29.3616 30.4405 29.5C30.2911 29.5953 30.2911 29.5953 30.1416 29.6578C30.1087 29.6404 30.0759 29.6231 30.042 29.6052C30.2064 29.449 30.3708 29.2928 30.5401 29.1318Z" fill="#666666"/>
<path d="M34.127 20.0332C34.1435 20.0853 34.1599 20.1373 34.1769 20.191C34.0618 20.3125 33.9467 20.434 33.8282 20.5591C33.7788 20.5418 33.7295 20.5244 33.6787 20.5065C33.8267 20.3503 33.9746 20.1941 34.127 20.0332Z" fill="#CFCFCF"/>
<path d="M23.3331 19.7852C23.3611 19.7976 23.3891 19.81 23.418 19.8228C23.2132 20.0081 23.0461 20.1383 22.7704 20.1383C22.8403 20.0751 22.911 20.0128 22.9821 19.951C23.0214 19.9162 23.0607 19.8814 23.1012 19.8456C23.2187 19.7702 23.2187 19.7702 23.3331 19.7852Z" fill="#6B6B6B"/>
<path d="M32.1358 16.1416C32.1523 16.1937 32.1687 16.2457 32.1856 16.2994C31.9637 16.5076 31.9637 16.5076 31.7373 16.7201C31.7044 16.7028 31.6716 16.6854 31.6377 16.6675C31.8021 16.494 31.9665 16.3204 32.1358 16.1416Z" fill="#666666"/>
<path d="M29.7442 29.8154C29.7771 29.8328 29.81 29.8501 29.8439 29.868C29.6911 30.1131 29.5656 30.1759 29.2959 30.2362C29.2959 30.2015 29.2959 30.1668 29.2959 30.131C29.394 30.0517 29.394 30.0517 29.5201 29.9666C29.5617 29.9383 29.6033 29.91 29.6462 29.8808C29.6785 29.8592 29.7109 29.8376 29.7442 29.8154Z" fill="#707070"/>
<path d="M36.6687 10.9346C36.759 10.9444 36.759 10.9444 36.868 10.9872C36.9582 11.1088 36.9582 11.1088 37.0174 11.2501C37.0018 11.3718 37.0018 11.3718 36.9676 11.4605C36.9676 11.4084 36.9676 11.3564 36.9676 11.3027C36.9183 11.3027 36.869 11.3027 36.8181 11.3027C36.6687 11.0807 36.6687 11.0807 36.6687 10.9346Z" fill="#555555"/>
<path d="M6.28035 37.2314C6.28035 37.2835 6.28035 37.3356 6.28035 37.3892C6.24747 37.4239 6.21459 37.4586 6.18072 37.4944C6.16634 37.5378 6.15195 37.5812 6.13713 37.6259C6.08109 37.7574 6.08109 37.7574 5.97524 37.8264C5.929 37.8443 5.929 37.8443 5.88184 37.8626C5.95701 37.6006 6.10882 37.4291 6.28035 37.2314Z" fill="#7D7D7D"/>
<path d="M29.5948 37.126C29.6259 37.2213 29.6259 37.2213 29.6446 37.3363C29.5953 37.4144 29.5953 37.4144 29.545 37.4941C29.5121 37.4941 29.4792 37.4941 29.4453 37.4941C29.4289 37.5809 29.4125 37.6677 29.3955 37.7571C29.3626 37.7571 29.3298 37.7571 29.2959 37.7571C29.3616 37.5144 29.456 37.3311 29.5948 37.126Z" fill="#B2B2B2"/>
<path d="M22.1221 20.9277C22.1221 21.1319 22.0726 21.239 21.9416 21.3879C21.9077 21.4205 21.9077 21.4205 21.8731 21.4537C21.8238 21.4363 21.7744 21.419 21.7236 21.4011C21.8551 21.2449 21.9867 21.0887 22.1221 20.9277Z" fill="#606060"/>
<path d="M33.2296 14.9844C33.2296 15.1422 33.2296 15.1422 33.1144 15.2736C33.0702 15.317 33.026 15.3604 32.9805 15.4051C32.9507 15.4366 32.9209 15.468 32.8902 15.5004C32.8707 15.5211 32.8512 15.5417 32.8311 15.5629C32.7982 15.5455 32.7653 15.5282 32.7314 15.5103C32.8958 15.3367 33.0602 15.1632 33.2296 14.9844Z" fill="#6C6C6C"/>
<path d="M15.0489 6.83203C15.0987 6.93722 15.0987 6.93722 15.0707 7.06541C14.9771 7.24153 14.8737 7.28228 14.7002 7.35796C14.7833 7.15067 14.9108 7.00089 15.0489 6.83203Z" fill="#717171"/>
<path d="M7.02838 38.4414C7.06125 38.4935 7.09413 38.5455 7.128 38.5992C7.09718 38.6198 7.06636 38.6404 7.0346 38.6616C6.91256 38.7715 6.878 38.8608 6.82912 39.0199C6.79624 39.0199 6.76337 39.0199 6.72949 39.0199C6.79216 38.7828 6.87416 38.6259 7.02838 38.4414Z" fill="#BDBDBD"/>
<path d="M11.96 11.0928C11.9929 11.1448 12.0258 11.1969 12.0597 11.2506C12.0258 11.2929 12.0258 11.2929 11.9912 11.336C11.8994 11.4776 11.8564 11.6127 11.8106 11.7765C11.7557 11.6047 11.7646 11.5127 11.8293 11.3459C11.843 11.3093 11.8568 11.2728 11.8709 11.2351C11.9102 11.1454 11.9102 11.1454 11.96 11.0928Z" fill="#6D6D6D"/>
<path d="M36.3682 47.6973C36.4832 47.6973 36.5983 47.6973 36.7169 47.6973C36.7169 47.7493 36.7169 47.8014 36.7169 47.855C36.6018 47.855 36.4867 47.855 36.3682 47.855C36.3682 47.803 36.3682 47.7509 36.3682 47.6973Z" fill="#373738"/>
<path d="M29.5938 18.8242C29.6431 18.8416 29.6924 18.8589 29.7433 18.8768C29.546 19.059 29.546 19.059 29.3447 19.245C29.3119 19.2276 29.279 19.2103 29.2451 19.1924C29.3602 19.0709 29.4753 18.9494 29.5938 18.8242Z" fill="#616161"/>
<path d="M30.5899 17.7715C30.6063 17.8062 30.6228 17.8409 30.6397 17.8767C30.5411 17.9982 30.4425 18.1197 30.3408 18.2448C30.308 18.2101 30.2751 18.1754 30.2412 18.1396C30.3563 18.0181 30.4714 17.8967 30.5899 17.7715Z" fill="#606060"/>
<path d="M7.82525 35.6533C7.85813 35.6707 7.89101 35.688 7.92488 35.7059C7.85912 35.7927 7.79337 35.8795 7.72562 35.9689C7.65987 35.9515 7.59411 35.9342 7.52637 35.9163C7.625 35.8295 7.72363 35.7427 7.82525 35.6533Z" fill="#6E6E6E"/>
<path d="M36.368 22.1895C36.4009 22.2415 36.4337 22.2936 36.4676 22.3472C36.4036 22.3927 36.3392 22.4375 36.2746 22.482C36.2388 22.507 36.2029 22.532 36.166 22.5578C36.134 22.5751 36.1021 22.5924 36.0691 22.6102C36.0362 22.5928 36.0034 22.5755 35.9695 22.5576C36.101 22.4361 36.2325 22.3146 36.368 22.1895Z" fill="#C9C9C9"/>
<path d="M26.207 20.4014C26.3004 20.4145 26.3004 20.4145 26.4063 20.454C26.4686 20.5624 26.4686 20.5624 26.5059 20.6643C26.3871 20.634 26.2735 20.6 26.1572 20.5591C26.1737 20.5071 26.1901 20.455 26.207 20.4014Z" fill="#454545"/>
<path d="M28.5967 38.4414C28.6132 38.4935 28.6296 38.5455 28.6465 38.5992C28.5643 38.686 28.4821 38.7727 28.3975 38.8622C28.4223 38.6682 28.4523 38.5674 28.5967 38.4414Z" fill="#434343"/>
<path d="M12.8585 9.98828C12.8913 10.0056 12.9242 10.023 12.9581 10.0409C12.8923 10.1277 12.8266 10.2144 12.7588 10.3038C12.6931 10.2865 12.6273 10.2691 12.5596 10.2512C12.6582 10.1645 12.7568 10.0777 12.8585 9.98828Z" fill="#656565"/>
<path d="M27.1038 38.1777C27.1367 38.1951 27.1696 38.2124 27.2035 38.2303C27.0914 38.3651 27.0914 38.3651 26.9544 38.4933C26.8392 38.4834 26.8392 38.4834 26.7551 38.4407C26.9917 38.2829 26.9917 38.2829 27.1038 38.2829C27.1038 38.2482 27.1038 38.2135 27.1038 38.1777Z" fill="#787878"/>
<path d="M37.7646 34.3392C38.0896 34.3198 38.0896 34.3198 38.2099 34.4181C38.2273 34.4441 38.2448 34.4702 38.2628 34.497C37.8767 34.4575 37.8767 34.4575 37.7646 34.3392Z" fill="#B7B7B7"/>
<path d="M32.9317 28.29C32.9646 28.3421 32.9974 28.3942 33.0313 28.4478C32.9162 28.5346 32.8012 28.6214 32.6826 28.7108C32.7509 28.5554 32.8315 28.4247 32.9317 28.29Z" fill="#C3C3C3"/>
<path d="M34.126 25.7129C34.1634 25.8016 34.1634 25.8016 34.1758 25.9233C34.0793 26.0679 34.0793 26.0679 33.9766 26.1862C33.9601 26.0995 33.9437 26.0127 33.9268 25.9233C33.9761 25.9233 34.0254 25.9233 34.0762 25.9233C34.0926 25.8538 34.1091 25.7844 34.126 25.7129Z" fill="#797979"/>
<path d="M15.5957 8.30469C15.6286 8.35675 15.6615 8.40882 15.6954 8.46247C15.6132 8.53189 15.531 8.60131 15.4463 8.67284C15.4463 8.48786 15.4874 8.44294 15.5957 8.30469Z" fill="#C5C5C5"/>
<path d="M15.796 5.93848C15.8288 5.95583 15.8617 5.97319 15.8956 5.99107C15.8167 6.15764 15.7734 6.23998 15.6123 6.32306C15.5743 6.335 15.5362 6.34693 15.4971 6.35922C15.5957 6.22038 15.6943 6.08153 15.796 5.93848Z" fill="#5E5E5E"/>
</svg>
