<svg width="49" height="49" viewBox="0 0 49 49" fill="none" xmlns="http://www.w3.org/2000/svg">
<path d="M32.4355 26.8691H36.4355M34.4355 18.8691L14.4355 18.8691C10.6955 18.8691 8.82755 18.8691 7.43555 19.7531C6.52355 20.3331 5.76555 21.1651 5.23955 22.1691C4.43555 23.7011 4.43555 25.7571 4.43555 29.8691C4.43555 33.9811 4.43555 36.0371 5.23955 37.5691C5.76555 38.5731 6.52355 39.4051 7.43555 39.9851C8.82755 40.8691 10.6955 40.8691 14.4355 40.8691C15.6615 40.8691 16.2755 40.8691 16.8555 40.7751C18.4334 40.51 19.8896 39.7599 21.0215 38.6291C21.4595 38.1991 21.8515 37.6811 22.6375 36.6431L23.3055 35.7631C23.7015 35.2371 23.9015 34.9751 24.1455 34.8711C24.3455 34.7872 24.5686 34.7766 24.7755 34.8411C25.0255 34.9191 25.2455 35.1611 25.6835 35.6411L27.6075 37.7571C28.0835 38.2831 28.3215 38.5451 28.5715 38.7771C29.8475 39.9691 31.4315 40.6911 33.0995 40.8391C33.4235 40.8691 33.7595 40.8691 34.4355 40.8691C38.1755 40.8691 40.0435 40.8691 41.4355 39.9851C42.3475 39.4051 43.1055 38.5731 43.6315 37.5691C44.4355 36.0371 44.4355 33.9811 44.4355 29.8691C44.4355 25.7571 44.4355 23.7011 43.6315 22.1691C43.123 21.1859 42.3659 20.353 41.4355 19.7531C40.0435 18.8691 38.1755 18.8691 34.4355 18.8691Z" stroke="#074139" stroke-width="1.5" stroke-linecap="round"/>
<path d="M44.4355 30.8691V25.7731C44.4355 23.8131 44.4355 22.8331 44.2815 21.8871C44.2041 21.4214 44.0993 20.9606 43.9675 20.5071C43.7015 19.5971 43.2895 18.7571 42.4655 17.0771C40.8115 13.7071 39.9855 12.0231 38.7795 10.8911C38.2045 10.3488 37.5504 9.89692 36.8395 9.55114C35.4255 8.86914 33.8195 8.86914 30.6035 8.86914L18.2675 8.86914C15.0535 8.86914 13.4475 8.86914 12.0335 9.54914C11.3226 9.89554 10.6684 10.348 10.0935 10.8911C8.88955 12.0231 8.06155 13.7071 6.40755 17.0771C5.58355 18.7571 5.17155 19.5971 4.90555 20.5071C4.77382 20.9606 4.66897 21.4214 4.59155 21.8871C4.43555 22.8331 4.43555 23.8131 4.43555 25.7731L4.43555 30.8691" stroke="#074139" stroke-width="1.5" stroke-linecap="round"/>
</svg>
