<svg width="68" height="69" viewBox="0 0 68 69" fill="none" xmlns="http://www.w3.org/2000/svg">
<path d="M42.8711 7.63737C40.0802 6.71809 37.0979 6.2207 33.9993 6.2207C18.3513 6.2207 5.66602 18.906 5.66602 34.554C5.66602 50.202 18.3513 62.8874 33.9993 62.8874C49.6473 62.8874 62.3327 50.202 62.3327 34.554C62.3327 31.5926 61.8782 28.7373 61.0356 26.054" stroke="#141B34" stroke-width="1.5" stroke-linecap="round"/>
<path d="M48.1673 34.5553C48.1673 42.3793 41.8246 48.722 34.0007 48.722C26.1766 48.722 19.834 42.3793 19.834 34.5553C19.834 26.7313 26.1766 20.3887 34.0007 20.3887" stroke="#141B34" stroke-width="1.5" stroke-linecap="round" stroke-linejoin="round"/>
<path d="M55.25 13.304L34 34.554M55.25 13.304V6.2207M55.25 13.304H62.3333" stroke="#141B34" stroke-width="1.5" stroke-linecap="round"/>
</svg>
