<svg width="726" height="768" viewBox="0 0 726 768" fill="none" xmlns="http://www.w3.org/2000/svg">
<g filter="url(#filter0_d_1247_8622)">
<path d="M499.601 600.174C500.443 577.562 500.864 566.256 507.726 556.815C514.589 547.374 525.213 543.484 546.461 535.705L611.255 511.984C632.504 504.205 643.128 500.315 649.467 504.923C655.807 509.531 655.386 520.837 654.544 543.449L651.978 612.401C651.136 635.013 650.715 646.319 643.853 655.76C636.99 665.201 626.366 669.091 605.118 676.87L540.324 700.591C519.076 708.37 508.451 712.26 502.112 707.652C495.772 703.044 496.193 691.738 497.035 669.126L499.601 600.174Z" fill="#074139"/>
<path d="M611.274 511.484C621.885 507.6 629.89 504.667 636.033 503.29C642.189 501.91 646.545 502.073 649.812 504.448C653.08 506.823 654.58 510.916 655.167 517.197C655.752 523.465 655.434 531.985 655.014 543.277L652.447 612.229C652.027 623.521 651.711 632.04 650.636 638.916C649.559 645.807 647.709 651.126 644.172 655.992C640.635 660.858 636.147 664.259 629.924 667.411C623.716 670.555 615.71 673.485 605.099 677.369L540.305 701.091C529.694 704.975 521.689 707.908 515.546 709.285C509.39 710.665 505.034 710.502 501.767 708.127C498.499 705.752 496.999 701.659 496.412 695.378C495.827 689.11 496.145 680.59 496.565 669.298L499.132 600.346C499.552 589.054 499.868 580.535 500.943 573.659C502.02 566.768 503.87 561.449 507.407 556.583C510.944 551.717 515.433 548.316 521.655 545.164C527.863 542.02 535.869 539.09 546.48 535.206L611.274 511.484Z" stroke="#CAEDE5"/>
</g>
<g filter="url(#filter1_d_1247_8622)">
<path d="M493.601 572.174C494.443 549.562 494.864 538.256 501.726 528.815C508.589 519.374 519.213 515.484 540.461 507.705L605.255 483.984C626.504 476.205 637.128 472.315 643.467 476.923C649.807 481.531 649.386 492.837 648.544 515.449L645.978 584.401C645.136 607.013 644.715 618.319 637.853 627.76C630.99 637.201 620.366 641.091 599.118 648.87L534.324 672.591C513.076 680.37 502.451 684.26 496.112 679.652C489.772 675.044 490.193 663.738 491.035 641.126L493.601 572.174Z" fill="#074139"/>
<path d="M605.274 483.484C615.885 479.6 623.89 476.667 630.033 475.29C636.189 473.91 640.545 474.073 643.812 476.448C647.08 478.823 648.58 482.916 649.167 489.197C649.752 495.465 649.434 503.985 649.014 515.277L646.447 584.229C646.027 595.521 645.711 604.04 644.636 610.916C643.559 617.807 641.709 623.126 638.172 627.992C634.635 632.858 630.147 636.259 623.924 639.411C617.716 642.555 609.71 645.485 599.099 649.369L534.305 673.091C523.694 676.975 515.689 679.908 509.546 681.285C503.39 682.665 499.034 682.502 495.767 680.127C492.499 677.752 490.999 673.659 490.412 667.378C489.827 661.11 490.145 652.59 490.565 641.298L493.132 572.346C493.552 561.054 493.868 552.535 494.943 545.659C496.02 538.768 497.87 533.449 501.407 528.583C504.944 523.717 509.433 520.316 515.655 517.164C521.863 514.02 529.869 511.09 540.48 507.206L605.274 483.484Z" stroke="#CAEDE5"/>
</g>
<g filter="url(#filter2_d_1247_8622)">
<path d="M479.601 543.174C480.443 520.562 480.864 509.256 487.726 499.815C494.589 490.374 505.213 486.484 526.461 478.705L591.255 454.984C612.504 447.205 623.128 443.315 629.467 447.923C635.807 452.531 635.386 463.837 634.544 486.449L631.978 555.401C631.136 578.013 630.715 589.319 623.853 598.76C616.99 608.201 606.366 612.091 585.118 619.87L520.324 643.591C499.076 651.37 488.451 655.26 482.112 650.652C475.772 646.044 476.193 634.738 477.035 612.126L479.601 543.174Z" fill="#074139"/>
<path d="M591.274 454.484C601.885 450.6 609.89 447.667 616.033 446.29C622.189 444.91 626.545 445.073 629.812 447.448C633.08 449.823 634.58 453.916 635.167 460.197C635.752 466.465 635.434 474.985 635.014 486.277L632.447 555.229C632.027 566.521 631.711 575.04 630.636 581.916C629.559 588.807 627.709 594.126 624.172 598.992C620.635 603.858 616.147 607.259 609.924 610.411C603.716 613.555 595.71 616.485 585.099 620.369L520.305 644.091C509.694 647.975 501.689 650.908 495.546 652.285C489.39 653.665 485.034 653.502 481.767 651.127C478.499 648.752 476.999 644.659 476.412 638.378C475.827 632.11 476.145 623.59 476.565 612.298L479.132 543.346C479.552 532.054 479.868 523.535 480.943 516.659C482.02 509.768 483.87 504.449 487.407 499.583C490.944 494.717 495.433 491.316 501.655 488.164C507.863 485.02 515.869 482.09 526.48 478.206L591.274 454.484Z" stroke="#CAEDE5"/>
</g>
<g filter="url(#filter3_d_1247_8622)">
<path d="M468.601 510.174C469.443 487.562 469.864 476.256 476.726 466.815C483.589 457.374 494.213 453.484 515.461 445.705L580.255 421.984C601.504 414.205 612.128 410.315 618.467 414.923C624.807 419.531 624.386 430.837 623.544 453.449L620.978 522.401C620.136 545.013 619.715 556.319 612.853 565.76C605.99 575.201 595.366 579.091 574.118 586.87L509.324 610.591C488.076 618.37 477.451 622.26 471.112 617.652C464.772 613.044 465.193 601.738 466.035 579.126L468.601 510.174Z" fill="#074139"/>
<path d="M580.274 421.484C590.885 417.6 598.89 414.667 605.033 413.29C611.189 411.91 615.545 412.073 618.812 414.448C622.08 416.823 623.58 420.916 624.167 427.197C624.752 433.465 624.434 441.985 624.014 453.277L621.447 522.229C621.027 533.521 620.711 542.04 619.636 548.916C618.559 555.807 616.709 561.126 613.172 565.992C609.635 570.858 605.147 574.259 598.924 577.411C592.716 580.555 584.71 583.485 574.099 587.369L509.305 611.091C498.694 614.975 490.689 617.908 484.546 619.285C478.39 620.665 474.034 620.502 470.767 618.127C467.499 615.752 465.999 611.659 465.412 605.378C464.827 599.11 465.145 590.59 465.565 579.298L468.132 510.346C468.552 499.054 468.868 490.535 469.943 483.659C471.02 476.768 472.87 471.449 476.407 466.583C479.944 461.717 484.433 458.316 490.655 455.164C496.863 452.02 504.869 449.09 515.48 445.206L580.274 421.484Z" stroke="#CAEDE5"/>
</g>
<g filter="url(#filter4_d_1247_8622)">
<path d="M459.601 475.174C460.443 452.562 460.864 441.256 467.726 431.815C474.589 422.374 485.213 418.484 506.461 410.705L571.255 386.984C592.504 379.205 603.128 375.315 609.467 379.923C615.807 384.531 615.386 395.837 614.544 418.449L611.978 487.401C611.136 510.013 610.715 521.319 603.853 530.76C596.99 540.201 586.366 544.091 565.118 551.87L500.324 575.591C479.076 583.37 468.451 587.26 462.112 582.652C455.772 578.044 456.193 566.738 457.035 544.126L459.601 475.174Z" fill="#074139"/>
<path d="M571.274 386.484C581.885 382.6 589.89 379.667 596.033 378.29C602.189 376.91 606.545 377.073 609.812 379.448C613.08 381.823 614.58 385.916 615.167 392.197C615.752 398.465 615.434 406.985 615.014 418.277L612.447 487.229C612.027 498.521 611.711 507.04 610.636 513.916C609.559 520.807 607.709 526.126 604.172 530.992C600.635 535.858 596.147 539.259 589.924 542.411C583.716 545.555 575.71 548.485 565.099 552.369L500.305 576.091C489.694 579.975 481.689 582.908 475.546 584.285C469.39 585.665 465.034 585.502 461.767 583.127C458.499 580.752 456.999 576.659 456.412 570.378C455.827 564.11 456.145 555.59 456.565 544.298L459.132 475.346C459.552 464.054 459.868 455.535 460.943 448.659C462.02 441.768 463.87 436.449 467.407 431.583C470.944 426.717 475.433 423.316 481.655 420.164C487.863 417.02 495.869 414.09 506.48 410.206L571.274 386.484Z" stroke="#CAEDE5"/>
</g>
<g filter="url(#filter5_d_1247_8622)">
<path d="M452.601 445.914C453.443 423.302 453.864 411.996 460.726 402.555C467.589 393.114 478.213 389.224 499.461 381.445L564.255 357.724C585.504 349.945 596.128 346.056 602.467 350.664C608.807 355.271 608.386 366.577 607.544 389.189L604.978 458.141C604.136 480.753 603.715 492.059 596.853 501.5C589.99 510.941 579.366 514.831 558.118 522.61L493.324 546.331C472.076 554.11 461.451 558 455.112 553.392C448.772 548.784 449.193 537.478 450.035 514.866L452.601 445.914Z" fill="#074139"/>
<path d="M564.274 357.224C574.885 353.34 582.89 350.408 589.033 349.03C595.189 347.65 599.545 347.814 602.812 350.189C606.08 352.564 607.58 356.656 608.167 362.938C608.752 369.206 608.434 377.725 608.014 389.017L605.447 457.969C605.027 469.261 604.711 477.78 603.636 484.656C602.559 491.547 600.709 496.866 597.172 501.732C593.635 506.598 589.147 510 582.924 513.151C576.716 516.295 568.71 519.225 558.099 523.11L493.305 546.831C482.694 550.716 474.689 553.648 468.546 555.025C462.39 556.406 458.034 556.242 454.767 553.867C451.499 551.492 449.999 547.399 449.412 541.118C448.827 534.85 449.145 526.33 449.565 515.038L452.132 446.086C452.552 434.794 452.868 426.275 453.943 419.399C455.02 412.508 456.87 407.19 460.407 402.323C463.944 397.457 468.433 394.056 474.655 390.904C480.863 387.76 488.869 384.83 499.48 380.946L564.274 357.224Z" stroke="#CAEDE5"/>
</g>
<g filter="url(#filter6_d_1247_8622)">
<path d="M446.601 397.174C447.443 374.562 447.864 363.256 454.726 353.815C461.589 344.374 472.213 340.484 493.461 332.705L558.255 308.984C579.504 301.205 590.128 297.315 596.467 301.923C602.807 306.531 602.386 317.837 601.544 340.449L598.978 409.401C598.136 432.013 597.715 443.319 590.853 452.76C583.99 462.201 573.366 466.091 552.118 473.87L487.324 497.591C466.076 505.37 455.451 509.26 449.112 504.652C442.772 500.044 443.193 488.738 444.035 466.126L446.601 397.174Z" fill="#074139"/>
<path d="M558.274 308.484C568.885 304.6 576.89 301.667 583.033 300.29C589.189 298.91 593.545 299.073 596.812 301.448C600.08 303.823 601.58 307.916 602.167 314.197C602.752 320.465 602.434 328.985 602.014 340.277L599.447 409.229C599.027 420.521 598.711 429.04 597.636 435.916C596.559 442.807 594.709 448.126 591.172 452.992C587.635 457.858 583.147 461.259 576.924 464.411C570.716 467.555 562.71 470.485 552.099 474.369L487.305 498.091C476.694 501.975 468.689 504.908 462.546 506.285C456.39 507.665 452.034 507.502 448.767 505.127C445.499 502.752 443.999 498.659 443.412 492.378C442.827 486.11 443.145 477.59 443.565 466.298L446.132 397.346C446.552 386.054 446.868 377.535 447.943 370.659C449.02 363.768 450.87 358.449 454.407 353.583C457.944 348.717 462.433 345.316 468.655 342.164C474.863 339.02 482.869 336.09 493.48 332.206L558.274 308.484Z" stroke="#CAEDE5"/>
</g>
<g filter="url(#filter7_d_1247_8622)">
<path d="M441.601 358.174C442.443 335.562 442.864 324.256 449.726 314.815C456.589 305.374 467.213 301.484 488.461 293.705L553.255 269.984C574.504 262.205 585.128 258.315 591.467 262.923C597.807 267.531 597.386 278.837 596.544 301.449L593.978 370.401C593.136 393.013 592.715 404.319 585.853 413.76C578.99 423.201 568.366 427.091 547.118 434.87L482.324 458.591C461.076 466.37 450.451 470.26 444.112 465.652C437.772 461.044 438.193 449.738 439.035 427.126L441.601 358.174Z" fill="#074139"/>
<path d="M553.274 269.484C563.885 265.6 571.89 262.667 578.033 261.29C584.189 259.91 588.545 260.073 591.812 262.448C595.08 264.823 596.58 268.916 597.167 275.197C597.752 281.465 597.434 289.985 597.014 301.277L594.447 370.229C594.027 381.521 593.711 390.04 592.636 396.916C591.559 403.807 589.709 409.126 586.172 413.992C582.635 418.858 578.147 422.259 571.924 425.411C565.716 428.555 557.71 431.485 547.099 435.369L482.305 459.091C471.694 462.975 463.689 465.908 457.546 467.285C451.39 468.665 447.034 468.502 443.767 466.127C440.499 463.752 438.999 459.659 438.412 453.378C437.827 447.11 438.145 438.59 438.565 427.298L441.132 358.346C441.552 347.054 441.868 338.535 442.943 331.659C444.02 324.768 445.87 319.449 449.407 314.583C452.944 309.717 457.433 306.316 463.655 303.164C469.863 300.02 477.869 297.09 488.48 293.206L553.274 269.484Z" stroke="#CAEDE5"/>
</g>
<g filter="url(#filter8_d_1247_8622)">
<path d="M436.601 326.914C437.443 304.302 437.864 292.996 444.726 283.555C451.589 274.114 462.213 270.224 483.461 262.445L548.255 238.724C569.504 230.945 580.128 227.056 586.467 231.664C592.807 236.271 592.386 247.577 591.544 270.189L588.978 339.141C588.136 361.753 587.715 373.059 580.853 382.5C573.99 391.941 563.366 395.831 542.118 403.61L477.324 427.331C456.076 435.11 445.451 439 439.112 434.392C432.772 429.784 433.193 418.478 434.035 395.866L436.601 326.914Z" fill="#074139"/>
<path d="M548.274 238.224C558.885 234.34 566.89 231.408 573.033 230.03C579.189 228.65 583.545 228.814 586.812 231.189C590.08 233.564 591.58 237.656 592.167 243.938C592.752 250.206 592.434 258.725 592.014 270.017L589.447 338.969C589.027 350.261 588.711 358.78 587.636 365.656C586.559 372.547 584.709 377.866 581.172 382.732C577.635 387.598 573.147 391 566.924 394.151C560.716 397.295 552.71 400.225 542.099 404.11L477.305 427.831C466.694 431.716 458.689 434.648 452.546 436.025C446.39 437.406 442.034 437.242 438.767 434.867C435.499 432.492 433.999 428.399 433.412 422.118C432.827 415.85 433.145 407.33 433.565 396.038L436.132 327.086C436.552 315.794 436.868 307.275 437.943 300.399C439.02 293.508 440.87 288.19 444.407 283.323C447.944 278.457 452.433 275.056 458.655 271.904C464.863 268.76 472.869 265.83 483.48 261.946L548.274 238.224Z" stroke="#CAEDE5"/>
</g>
<g filter="url(#filter9_d_1247_8622)">
<path d="M432.601 279.174C433.443 256.562 433.864 245.256 440.726 235.815C447.589 226.374 458.213 222.484 479.461 214.705L544.255 190.984C565.504 183.205 576.128 179.315 582.467 183.923C588.807 188.531 588.386 199.837 587.544 222.449L584.978 291.401C584.136 314.013 583.715 325.319 576.853 334.76C569.99 344.201 559.366 348.091 538.118 355.87L473.324 379.591C452.076 387.37 441.451 391.26 435.112 386.652C428.772 382.044 429.193 370.738 430.035 348.126L432.601 279.174Z" fill="#074139"/>
<path d="M544.274 190.484C554.885 186.6 562.89 183.667 569.033 182.29C575.189 180.91 579.545 181.073 582.812 183.448C586.08 185.823 587.58 189.916 588.167 196.197C588.752 202.465 588.434 210.985 588.014 222.277L585.447 291.229C585.027 302.521 584.711 311.04 583.636 317.916C582.559 324.807 580.709 330.126 577.172 334.992C573.635 339.858 569.147 343.259 562.924 346.411C556.716 349.555 548.71 352.485 538.099 356.369L473.305 380.091C462.694 383.975 454.689 386.908 448.546 388.285C442.39 389.665 438.034 389.502 434.767 387.127C431.499 384.752 429.999 380.659 429.412 374.378C428.827 368.11 429.145 359.59 429.565 348.298L432.132 279.346C432.552 268.054 432.868 259.535 433.943 252.659C435.02 245.768 436.87 240.449 440.407 235.583C443.944 230.717 448.433 227.316 454.655 224.164C460.863 221.02 468.869 218.09 479.48 214.206L544.274 190.484Z" stroke="#CAEDE5"/>
</g>
<g filter="url(#filter10_d_1247_8622)">
<path d="M428.601 243.174C429.443 220.562 429.864 209.256 436.726 199.815C443.589 190.374 454.213 186.484 475.461 178.705L540.255 154.984C561.504 147.205 572.128 143.315 578.467 147.923C584.807 152.531 584.386 163.837 583.544 186.449L580.978 255.401C580.136 278.013 579.715 289.319 572.853 298.76C565.99 308.201 555.366 312.091 534.118 319.87L469.324 343.591C448.076 351.37 437.451 355.26 431.112 350.652C424.772 346.044 425.193 334.738 426.035 312.126L428.601 243.174Z" fill="#074139"/>
<path d="M540.274 154.484C550.885 150.6 558.89 147.667 565.033 146.29C571.189 144.91 575.545 145.073 578.812 147.448C582.08 149.823 583.58 153.916 584.167 160.197C584.752 166.465 584.434 174.985 584.014 186.277L581.447 255.229C581.027 266.521 580.711 275.04 579.636 281.916C578.559 288.807 576.709 294.126 573.172 298.992C569.635 303.858 565.147 307.259 558.924 310.411C552.716 313.555 544.71 316.485 534.099 320.369L469.305 344.091C458.694 347.975 450.689 350.908 444.546 352.285C438.39 353.665 434.034 353.502 430.767 351.127C427.499 348.752 425.999 344.659 425.412 338.378C424.827 332.11 425.145 323.59 425.565 312.298L428.132 243.346C428.552 232.054 428.868 223.535 429.943 216.659C431.02 209.768 432.87 204.449 436.407 199.583C439.944 194.717 444.433 191.316 450.655 188.164C456.863 185.02 464.869 182.09 475.48 178.206L540.274 154.484Z" stroke="#CAEDE5"/>
</g>
<g filter="url(#filter11_d_1247_8622)">
<path d="M423.601 210.174C424.443 187.562 424.864 176.256 431.726 166.815C438.589 157.374 449.213 153.484 470.461 145.705L535.255 121.984C556.504 114.205 567.128 110.315 573.467 114.923C579.807 119.531 579.386 130.837 578.544 153.449L575.978 222.401C575.136 245.013 574.715 256.319 567.853 265.76C560.99 275.201 550.366 279.091 529.118 286.87L464.324 310.591C443.076 318.37 432.451 322.26 426.112 317.652C419.772 313.044 420.193 301.738 421.035 279.126L423.601 210.174Z" fill="#074139"/>
<path d="M535.274 121.484C545.885 117.6 553.89 114.667 560.033 113.29C566.189 111.91 570.545 112.073 573.812 114.448C577.08 116.823 578.58 120.916 579.167 127.197C579.752 133.465 579.434 141.985 579.014 153.277L576.447 222.229C576.027 233.521 575.711 242.04 574.636 248.916C573.559 255.807 571.709 261.126 568.172 265.992C564.635 270.858 560.147 274.259 553.924 277.411C547.716 280.555 539.71 283.485 529.099 287.369L464.305 311.091C453.694 314.975 445.689 317.908 439.546 319.285C433.39 320.665 429.034 320.502 425.767 318.127C422.499 315.752 420.999 311.659 420.412 305.378C419.827 299.11 420.145 290.59 420.565 279.298L423.132 210.346C423.552 199.054 423.868 190.535 424.943 183.659C426.02 176.768 427.87 171.449 431.407 166.583C434.944 161.717 439.433 158.316 445.655 155.164C451.863 152.02 459.869 149.09 470.48 145.206L535.274 121.484Z" stroke="#CAEDE5"/>
</g>
<g filter="url(#filter12_d_1247_8622)">
<path d="M416.601 181.174C417.443 158.562 417.864 147.256 424.726 137.815C431.589 128.374 442.213 124.484 463.461 116.705L528.255 92.9839C549.504 85.2049 560.128 81.3154 566.467 85.9233C572.807 90.5312 572.386 101.837 571.544 124.449L568.978 193.401C568.136 216.013 567.715 227.319 560.853 236.76C553.99 246.201 543.366 250.091 522.118 257.87L457.324 281.591C436.076 289.37 425.451 293.26 419.112 288.652C412.772 284.044 413.193 272.738 414.035 250.126L416.601 181.174Z" fill="#074139"/>
<path d="M528.274 92.4842C538.885 88.5996 546.89 85.6673 553.033 84.29C559.189 82.9096 563.545 83.0733 566.812 85.4483C570.08 87.8233 571.58 91.9157 572.167 98.1974C572.752 104.465 572.434 112.985 572.014 124.277L569.447 193.229C569.027 204.521 568.711 213.04 567.636 219.916C566.559 226.807 564.709 232.126 561.172 236.992C557.635 241.858 553.147 245.259 546.924 248.411C540.716 251.555 532.71 254.485 522.099 258.369L457.305 282.091C446.694 285.975 438.689 288.908 432.546 290.285C426.39 291.665 422.034 291.502 418.767 289.127C415.499 286.752 413.999 282.659 413.412 276.378C412.827 270.11 413.145 261.59 413.565 250.298L416.132 181.346C416.552 170.054 416.868 161.535 417.943 154.659C419.02 147.768 420.87 142.449 424.407 137.583C427.944 132.717 432.433 129.316 438.655 126.164C444.863 123.02 452.869 120.09 463.48 116.206L528.274 92.4842Z" stroke="#CAEDE5"/>
</g>
<g filter="url(#filter13_d_1247_8622)">
<path d="M408.601 156.174C409.443 133.562 409.864 122.256 416.726 112.815C423.589 103.374 434.213 99.4843 455.461 91.7052L520.255 67.9839C541.504 60.2049 552.128 56.3154 558.467 60.9233C564.807 65.5312 564.386 76.8371 563.544 99.4489L560.978 168.401C560.136 191.013 559.715 202.319 552.853 211.76C545.99 221.201 535.366 225.091 514.118 232.87L449.324 256.591C428.076 264.37 417.451 268.26 411.112 263.652C404.772 259.044 405.193 247.738 406.035 225.126L408.601 156.174Z" fill="#074139"/>
<path d="M520.274 67.4842C530.885 63.5996 538.89 60.6673 545.033 59.29C551.189 57.9096 555.545 58.0733 558.812 60.4483C562.08 62.8233 563.58 66.9157 564.167 73.1974C564.752 79.4654 564.434 87.9852 564.014 99.277L561.447 168.229C561.027 179.521 560.711 188.04 559.636 194.916C558.559 201.807 556.709 207.126 553.172 211.992C549.635 216.858 545.147 220.259 538.924 223.411C532.716 226.555 524.71 229.485 514.099 233.369L449.305 257.091C438.694 260.975 430.689 263.908 424.546 265.285C418.39 266.665 414.034 266.502 410.767 264.127C407.499 261.752 405.999 257.659 405.412 251.378C404.827 245.11 405.145 236.59 405.565 225.298L408.132 156.346C408.552 145.054 408.868 136.535 409.943 129.659C411.02 122.768 412.87 117.449 416.407 112.583C419.944 107.717 424.433 104.316 430.655 101.164C436.863 98.0197 444.869 95.0902 455.48 91.2056L520.274 67.4842Z" stroke="#CAEDE5"/>
</g>
<g filter="url(#filter14_d_1247_8622)">
<path d="M399.601 137.174C400.443 114.562 400.864 103.256 407.726 93.815C414.589 84.3738 425.213 80.4843 446.461 72.7052L511.255 48.9839C532.504 41.2049 543.128 37.3154 549.467 41.9233C555.807 46.5312 555.386 57.8371 554.544 80.4489L551.978 149.401C551.136 172.013 550.715 183.319 543.853 192.76C536.99 202.201 526.366 206.091 505.118 213.87L440.324 237.591C419.076 245.37 408.451 249.26 402.112 244.652C395.772 240.044 396.193 228.738 397.035 206.126L399.601 137.174Z" fill="#074139"/>
<path d="M511.274 48.4842C521.885 44.5996 529.89 41.6673 536.033 40.29C542.189 38.9096 546.545 39.0733 549.812 41.4483C553.08 43.8233 554.58 47.9157 555.167 54.1974C555.752 60.4654 555.434 68.9852 555.014 80.277L552.447 149.229C552.027 160.521 551.711 169.04 550.636 175.916C549.559 182.807 547.709 188.126 544.172 192.992C540.635 197.858 536.147 201.259 529.924 204.411C523.716 207.555 515.71 210.485 505.099 214.369L440.305 238.091C429.694 241.975 421.689 244.908 415.546 246.285C409.39 247.665 405.034 247.502 401.767 245.127C398.499 242.752 396.999 238.659 396.412 232.378C395.827 226.11 396.145 217.59 396.565 206.298L399.132 137.346C399.552 126.054 399.868 117.535 400.943 110.659C402.02 103.768 403.87 98.4493 407.407 93.5831C410.944 88.717 415.433 85.3156 421.655 82.1642C427.863 79.0197 435.869 76.0902 446.48 72.2056L511.274 48.4842Z" stroke="#CAEDE5"/>
</g>
<g filter="url(#filter15_d_1247_8622)">
<path d="M387.601 132.914C388.443 110.302 388.864 98.9964 395.726 89.5552C402.589 80.114 413.213 76.2245 434.461 68.4455L499.255 44.7241C520.504 36.9451 531.128 33.0556 537.467 37.6635C543.807 42.2715 543.386 53.5773 542.544 76.1891L539.978 145.141C539.136 167.753 538.715 179.059 531.853 188.5C524.99 197.941 514.366 201.831 493.118 209.61L428.324 233.331C407.076 241.11 396.451 245 390.112 240.392C383.772 235.784 384.193 224.478 385.035 201.866L387.601 132.914Z" fill="#074139"/>
<path d="M499.274 44.2245C509.885 40.3398 517.89 37.4076 524.033 36.0302C530.189 34.6499 534.545 34.8135 537.812 37.1885C541.08 39.5635 542.58 43.6559 543.167 49.9376C543.752 56.2057 543.434 64.7255 543.014 76.0172L540.447 144.969C540.027 156.261 539.711 164.78 538.636 171.656C537.559 178.547 535.709 183.866 532.172 188.732C528.635 193.598 524.147 197 517.924 200.151C511.716 203.295 503.71 206.225 493.099 210.11L428.305 233.831C417.694 237.716 409.689 240.648 403.546 242.025C397.39 243.406 393.034 243.242 389.767 240.867C386.499 238.492 384.999 234.399 384.412 228.118C383.827 221.85 384.145 213.33 384.565 202.038L387.132 133.086C387.552 121.794 387.868 113.275 388.943 106.399C390.02 99.5084 391.87 94.1895 395.407 89.3234C398.944 84.4572 403.433 81.0559 409.655 77.9045C415.863 74.7599 423.869 71.8305 434.48 67.9458L499.274 44.2245Z" stroke="#CAEDE5"/>
</g>
<g filter="url(#filter16_d_1247_8622)">
<path d="M372.601 118.779C373.443 96.1675 373.864 84.8616 380.726 75.4204C387.589 65.9792 398.213 62.0897 419.461 54.3107L484.255 30.5894C505.504 22.8103 516.128 18.9208 522.467 23.5288C528.807 28.1367 528.386 39.4426 527.544 62.0543L524.978 131.007C524.136 153.618 523.715 164.924 516.853 174.365C509.99 183.807 499.366 187.696 478.118 195.475L413.324 219.197C392.076 226.976 381.451 230.865 375.112 226.257C368.772 221.649 369.193 210.343 370.035 187.732L372.601 118.779Z" fill="#074139"/>
<path d="M484.274 30.0897C494.885 26.205 502.89 23.2728 509.033 21.8954C515.189 20.5151 519.545 20.6788 522.812 23.0538C526.08 25.4288 527.58 29.5212 528.167 35.8028C528.752 42.0709 528.434 50.5907 528.014 61.8824L525.447 130.835C525.027 142.126 524.711 150.645 523.636 157.521C522.559 164.412 520.709 169.731 517.172 174.597C513.635 179.463 509.147 182.865 502.924 186.016C496.716 189.161 488.71 192.09 478.099 195.975L413.305 219.696C402.694 223.581 394.689 226.513 388.546 227.89C382.39 229.271 378.034 229.107 374.767 226.732C371.499 224.357 369.999 220.265 369.412 213.983C368.827 207.715 369.145 199.195 369.565 187.903L372.132 118.951C372.552 107.659 372.868 99.1406 373.943 92.2646C375.02 85.3736 376.87 80.0547 380.407 75.1886C383.944 70.3225 388.433 66.9211 394.655 63.7697C400.863 60.6252 408.869 57.6957 419.48 53.811L484.274 30.0897Z" stroke="#CAEDE5"/>
</g>
<g filter="url(#filter17_d_1247_8622)">
<path d="M354.289 118.871C355.13 96.2593 355.551 84.9534 362.414 75.5122C369.276 66.071 379.9 62.1815 401.148 54.4025L465.943 30.6812C487.191 22.9021 497.815 19.0126 504.155 23.6206C510.494 28.2285 510.073 39.5344 509.232 62.1461L506.665 131.098C505.824 153.71 505.403 165.016 498.54 174.457C491.678 183.898 481.054 187.788 459.806 195.567L395.011 219.288C373.763 227.067 363.139 230.957 356.799 226.349C350.46 221.741 350.881 210.435 351.722 187.823L354.289 118.871Z" fill="#074139"/>
<path d="M465.961 30.1815C476.572 26.2968 484.578 23.3646 490.721 21.9872C496.877 20.6069 501.232 20.7706 504.5 23.1456C507.767 25.5206 509.267 29.613 509.854 35.8946C510.44 42.1627 510.122 50.6825 509.701 61.9742L507.135 130.927C506.714 142.218 506.399 150.737 505.324 157.613C504.246 164.504 502.396 169.823 498.859 174.689C495.322 179.555 490.834 182.957 484.612 186.108C478.403 189.253 470.398 192.182 459.787 196.067L394.993 219.788C384.382 223.673 376.376 226.605 370.233 227.982C364.077 229.363 359.722 229.199 356.454 226.824C353.187 224.449 351.687 220.357 351.1 214.075C350.514 207.807 350.833 199.287 351.253 187.995L353.819 119.043C354.24 107.751 354.555 99.2324 355.63 92.3564C356.708 85.4654 358.558 80.1465 362.095 75.2804C365.632 70.4143 370.12 67.0129 376.342 63.8615C382.551 60.717 390.556 57.7875 401.167 53.9028L465.961 30.1815Z" stroke="#CAEDE5"/>
</g>
<g filter="url(#filter18_d_1247_8622)">
<path d="M334.601 132.174C335.443 109.562 335.864 98.2562 342.726 88.815C349.589 79.3738 360.213 75.4843 381.461 67.7052L446.255 43.9839C467.504 36.2049 478.128 32.3154 484.467 36.9233C490.807 41.5312 490.386 52.8371 489.544 75.4489L486.978 144.401C486.136 167.013 485.715 178.319 478.853 187.76C471.99 197.201 461.366 201.091 440.118 208.87L375.324 232.591C354.076 240.37 343.451 244.26 337.112 239.652C330.772 235.044 331.193 223.738 332.035 201.126L334.601 132.174Z" fill="#074139"/>
<path d="M446.274 43.4842C456.885 39.5996 464.89 36.6673 471.033 35.29C477.189 33.9096 481.545 34.0733 484.812 36.4483C488.08 38.8233 489.58 42.9157 490.167 49.1974C490.752 55.4654 490.434 63.9852 490.014 75.277L487.447 144.229C487.027 155.521 486.711 164.04 485.636 170.916C484.559 177.807 482.709 183.126 479.172 187.992C475.635 192.858 471.147 196.259 464.924 199.411C458.716 202.555 450.71 205.485 440.099 209.369L375.305 233.091C364.694 236.975 356.689 239.908 350.546 241.285C344.39 242.665 340.034 242.502 336.767 240.127C333.499 237.752 331.999 233.659 331.412 227.378C330.827 221.11 331.145 212.59 331.565 201.298L334.132 132.346C334.552 121.054 334.868 112.535 335.943 105.659C337.02 98.7681 338.87 93.4493 342.407 88.5831C345.944 83.717 350.433 80.3156 356.655 77.1642C362.863 74.0197 370.869 71.0902 381.48 67.2056L446.274 43.4842Z" stroke="#CAEDE5"/>
</g>
<g filter="url(#filter19_d_1247_8622)">
<path d="M309.601 154.174C310.443 131.562 310.864 120.256 317.726 110.815C324.589 101.374 335.213 97.4843 356.461 89.7052L421.255 65.9839C442.504 58.2049 453.128 54.3154 459.467 58.9233C465.807 63.5312 465.386 74.8371 464.544 97.4489L461.978 166.401C461.136 189.013 460.715 200.319 453.853 209.76C446.99 219.201 436.366 223.091 415.118 230.87L350.324 254.591C329.076 262.37 318.451 266.26 312.112 261.652C305.772 257.044 306.193 245.738 307.035 223.126L309.601 154.174Z" fill="#074139"/>
<path d="M421.274 65.4842C431.885 61.5996 439.89 58.6673 446.033 57.29C452.189 55.9096 456.545 56.0733 459.812 58.4483C463.08 60.8233 464.58 64.9157 465.167 71.1974C465.752 77.4654 465.434 85.9852 465.014 97.277L462.447 166.229C462.027 177.521 461.711 186.04 460.636 192.916C459.559 199.807 457.709 205.126 454.172 209.992C450.635 214.858 446.147 218.259 439.924 221.411C433.716 224.555 425.71 227.485 415.099 231.369L350.305 255.091C339.694 258.975 331.689 261.908 325.546 263.285C319.39 264.665 315.034 264.502 311.767 262.127C308.499 259.752 306.999 255.659 306.412 249.378C305.827 243.11 306.145 234.59 306.565 223.298L309.132 154.346C309.552 143.054 309.868 134.535 310.943 127.659C312.02 120.768 313.87 115.449 317.407 110.583C320.944 105.717 325.433 102.316 331.655 99.1642C337.863 96.0197 345.869 93.0902 356.48 89.2056L421.274 65.4842Z" stroke="#CAEDE5"/>
</g>
<g filter="url(#filter20_d_1247_8622)">
<path d="M280.601 186.174C281.443 163.562 281.864 152.256 288.726 142.815C295.589 133.374 306.213 129.484 327.461 121.705L392.255 97.9839C413.504 90.2049 424.128 86.3154 430.467 90.9233C436.807 95.5312 436.386 106.837 435.544 129.449L432.978 198.401C432.136 221.013 431.715 232.319 424.853 241.76C417.99 251.201 407.366 255.091 386.118 262.87L321.324 286.591C300.076 294.37 289.451 298.26 283.112 293.652C276.772 289.044 277.193 277.738 278.035 255.126L280.601 186.174Z" fill="#074139"/>
<path d="M392.274 97.4842C402.885 93.5996 410.89 90.6673 417.033 89.29C423.189 87.9096 427.545 88.0733 430.812 90.4483C434.08 92.8233 435.58 96.9157 436.167 103.197C436.752 109.465 436.434 117.985 436.014 129.277L433.447 198.229C433.027 209.521 432.711 218.04 431.636 224.916C430.559 231.807 428.709 237.126 425.172 241.992C421.635 246.858 417.147 250.259 410.924 253.411C404.716 256.555 396.71 259.485 386.099 263.369L321.305 287.091C310.694 290.975 302.689 293.908 296.546 295.285C290.39 296.665 286.034 296.502 282.767 294.127C279.499 291.752 277.999 287.659 277.412 281.378C276.827 275.11 277.145 266.59 277.565 255.298L280.132 186.346C280.552 175.054 280.868 166.535 281.943 159.659C283.02 152.768 284.87 147.449 288.407 142.583C291.944 137.717 296.433 134.316 302.655 131.164C308.863 128.02 316.869 125.09 327.48 121.206L392.274 97.4842Z" stroke="#CAEDE5"/>
</g>
<g filter="url(#filter21_d_1247_8622)">
<path d="M262.601 209.174C263.443 186.562 263.864 175.256 270.726 165.815C277.589 156.374 288.213 152.484 309.461 144.705L374.255 120.984C395.504 113.205 406.128 109.315 412.467 113.923C418.807 118.531 418.386 129.837 417.544 152.449L414.978 221.401C414.136 244.013 413.715 255.319 406.853 264.76C399.99 274.201 389.366 278.091 368.118 285.87L303.324 309.591C282.076 317.37 271.451 321.26 265.112 316.652C258.772 312.044 259.193 300.738 260.035 278.126L262.601 209.174Z" fill="#074139"/>
<path d="M374.274 120.484C384.885 116.6 392.89 113.667 399.033 112.29C405.189 110.91 409.545 111.073 412.812 113.448C416.08 115.823 417.58 119.916 418.167 126.197C418.752 132.465 418.434 140.985 418.014 152.277L415.447 221.229C415.027 232.521 414.711 241.04 413.636 247.916C412.559 254.807 410.709 260.126 407.172 264.992C403.635 269.858 399.147 273.259 392.924 276.411C386.716 279.555 378.71 282.485 368.099 286.369L303.305 310.091C292.694 313.975 284.689 316.908 278.546 318.285C272.39 319.665 268.034 319.502 264.767 317.127C261.499 314.752 259.999 310.659 259.412 304.378C258.827 298.11 259.145 289.59 259.565 278.298L262.132 209.346C262.552 198.054 262.868 189.535 263.943 182.659C265.02 175.768 266.87 170.449 270.407 165.583C273.944 160.717 278.433 157.316 284.655 154.164C290.863 151.02 298.869 148.09 309.48 144.206L374.274 120.484Z" stroke="#CAEDE5"/>
</g>
<g filter="url(#filter22_d_1247_8622)">
<path d="M247.601 230.174C248.443 207.562 248.864 196.256 255.726 186.815C262.589 177.374 273.213 173.484 294.461 165.705L359.255 141.984C380.504 134.205 391.128 130.315 397.467 134.923C403.807 139.531 403.386 150.837 402.544 173.449L399.978 242.401C399.136 265.013 398.715 276.319 391.853 285.76C384.99 295.201 374.366 299.091 353.118 306.87L288.324 330.591C267.076 338.37 256.451 342.26 250.112 337.652C243.772 333.044 244.193 321.738 245.035 299.126L247.601 230.174Z" fill="#074139"/>
<path d="M359.274 141.484C369.885 137.6 377.89 134.667 384.033 133.29C390.189 131.91 394.545 132.073 397.812 134.448C401.08 136.823 402.58 140.916 403.167 147.197C403.752 153.465 403.434 161.985 403.014 173.277L400.447 242.229C400.027 253.521 399.711 262.04 398.636 268.916C397.559 275.807 395.709 281.126 392.172 285.992C388.635 290.858 384.147 294.259 377.924 297.411C371.716 300.555 363.71 303.485 353.099 307.369L288.305 331.091C277.694 334.975 269.689 337.908 263.546 339.285C257.39 340.665 253.034 340.502 249.767 338.127C246.499 335.752 244.999 331.659 244.412 325.378C243.827 319.11 244.145 310.59 244.565 299.298L247.132 230.346C247.552 219.054 247.868 210.535 248.943 203.659C250.02 196.768 251.87 191.449 255.407 186.583C258.944 181.717 263.433 178.316 269.655 175.164C275.863 172.02 283.869 169.09 294.48 165.206L359.274 141.484Z" stroke="#CAEDE5"/>
</g>
<g filter="url(#filter23_d_1247_8622)">
<path d="M233.601 251.174C234.443 228.562 234.864 217.256 241.726 207.815C248.589 198.374 259.213 194.484 280.461 186.705L345.255 162.984C366.504 155.205 377.128 151.315 383.467 155.923C389.807 160.531 389.386 171.837 388.544 194.449L385.978 263.401C385.136 286.013 384.715 297.319 377.853 306.76C370.99 316.201 360.366 320.091 339.118 327.87L274.324 351.591C253.076 359.37 242.451 363.26 236.112 358.652C229.772 354.044 230.193 342.738 231.035 320.126L233.601 251.174Z" fill="#074139"/>
<path d="M345.274 162.484C355.885 158.6 363.89 155.667 370.033 154.29C376.189 152.91 380.545 153.073 383.812 155.448C387.08 157.823 388.58 161.916 389.167 168.197C389.752 174.465 389.434 182.985 389.014 194.277L386.447 263.229C386.027 274.521 385.711 283.04 384.636 289.916C383.559 296.807 381.709 302.126 378.172 306.992C374.635 311.858 370.147 315.259 363.924 318.411C357.716 321.555 349.71 324.485 339.099 328.369L274.305 352.091C263.694 355.975 255.689 358.908 249.546 360.285C243.39 361.665 239.034 361.502 235.767 359.127C232.499 356.752 230.999 352.659 230.412 346.378C229.827 340.11 230.145 331.59 230.565 320.298L233.132 251.346C233.552 240.054 233.868 231.535 234.943 224.659C236.02 217.768 237.87 212.449 241.407 207.583C244.944 202.717 249.433 199.316 255.655 196.164C261.863 193.02 269.869 190.09 280.48 186.206L345.274 162.484Z" stroke="#CAEDE5"/>
</g>
<g filter="url(#filter24_d_1247_8622)">
<path d="M219.601 272.174C220.443 249.562 220.864 238.256 227.726 228.815C234.589 219.374 245.213 215.484 266.461 207.705L331.255 183.984C352.504 176.205 363.128 172.315 369.467 176.923C375.807 181.531 375.386 192.837 374.544 215.449L371.978 284.401C371.136 307.013 370.715 318.319 363.853 327.76C356.99 337.201 346.366 341.091 325.118 348.87L260.324 372.591C239.076 380.37 228.451 384.26 222.112 379.652C215.772 375.044 216.193 363.738 217.035 341.126L219.601 272.174Z" fill="#074139"/>
<path d="M331.274 183.484C341.885 179.6 349.89 176.667 356.033 175.29C362.189 173.91 366.545 174.073 369.812 176.448C373.08 178.823 374.58 182.916 375.167 189.197C375.752 195.465 375.434 203.985 375.014 215.277L372.447 284.229C372.027 295.521 371.711 304.04 370.636 310.916C369.559 317.807 367.709 323.126 364.172 327.992C360.635 332.858 356.147 336.259 349.924 339.411C343.716 342.555 335.71 345.485 325.099 349.369L260.305 373.091C249.694 376.975 241.689 379.908 235.546 381.285C229.39 382.665 225.034 382.502 221.767 380.127C218.499 377.752 216.999 373.659 216.412 367.378C215.827 361.11 216.145 352.59 216.565 341.298L219.132 272.346C219.552 261.054 219.868 252.535 220.943 245.659C222.02 238.768 223.87 233.449 227.407 228.583C230.944 223.717 235.433 220.316 241.655 217.164C247.863 214.02 255.869 211.09 266.48 207.206L331.274 183.484Z" stroke="#CAEDE5"/>
</g>
<g filter="url(#filter25_d_1247_8622)">
<path d="M208.285 296.174C209.127 273.562 209.547 262.256 216.41 252.815C223.272 243.374 233.896 239.484 255.145 231.705L319.939 207.984C341.187 200.205 351.811 196.315 358.151 200.923C364.49 205.531 364.069 216.837 363.228 239.449L360.661 308.401C359.82 331.013 359.399 342.319 352.536 351.76C345.674 361.201 335.05 365.091 313.802 372.87L249.007 396.591C227.759 404.37 217.135 408.26 210.796 403.652C204.456 399.044 204.877 387.738 205.718 365.126L208.285 296.174Z" fill="#074139"/>
<path d="M319.957 207.484C330.568 203.6 338.574 200.667 344.717 199.29C350.873 197.91 355.228 198.073 358.496 200.448C361.763 202.823 363.263 206.916 363.85 213.197C364.436 219.465 364.118 227.985 363.697 239.277L361.131 308.229C360.711 319.521 360.395 328.04 359.32 334.916C358.243 341.807 356.392 347.126 352.855 351.992C349.318 356.858 344.83 360.259 338.608 363.411C332.399 366.555 324.394 369.485 313.783 373.369L248.989 397.091C238.378 400.975 230.372 403.908 224.229 405.285C218.073 406.665 213.718 406.502 210.45 404.127C207.183 401.752 205.683 397.659 205.096 391.378C204.51 385.11 204.829 376.59 205.249 365.298L207.815 296.346C208.236 285.054 208.552 276.535 209.626 269.659C210.704 262.768 212.554 257.449 216.091 252.583C219.628 247.717 224.116 244.316 230.338 241.164C236.547 238.02 244.552 235.09 255.163 231.206L319.957 207.484Z" stroke="#CAEDE5"/>
</g>
<g filter="url(#filter26_d_1247_8622)">
<path d="M196.601 318.174C197.443 295.562 197.864 284.256 204.726 274.815C211.589 265.374 222.213 261.484 243.461 253.705L308.255 229.984C329.504 222.205 340.128 218.315 346.467 222.923C352.807 227.531 352.386 238.837 351.544 261.449L348.978 330.401C348.136 353.013 347.715 364.319 340.853 373.76C333.99 383.201 323.366 387.091 302.118 394.87L237.324 418.591C216.076 426.37 205.451 430.26 199.112 425.652C192.772 421.044 193.193 409.738 194.035 387.126L196.601 318.174Z" fill="#074139"/>
<path d="M308.274 229.484C318.885 225.6 326.89 222.667 333.033 221.29C339.189 219.91 343.545 220.073 346.812 222.448C350.08 224.823 351.58 228.916 352.167 235.197C352.752 241.465 352.434 249.985 352.014 261.277L349.447 330.229C349.027 341.521 348.711 350.04 347.636 356.916C346.559 363.807 344.709 369.126 341.172 373.992C337.635 378.858 333.147 382.259 326.924 385.411C320.716 388.555 312.71 391.485 302.099 395.369L237.305 419.091C226.694 422.975 218.689 425.908 212.546 427.285C206.39 428.665 202.034 428.502 198.767 426.127C195.499 423.752 193.999 419.659 193.412 413.378C192.827 407.11 193.145 398.59 193.565 387.298L196.132 318.346C196.552 307.054 196.868 298.535 197.943 291.659C199.02 284.768 200.87 279.449 204.407 274.583C207.944 269.717 212.433 266.316 218.655 263.164C224.863 260.02 232.869 257.09 243.48 253.206L308.274 229.484Z" stroke="#CAEDE5"/>
</g>
<g filter="url(#filter27_d_1247_8622)">
<path d="M185.601 341.174C186.443 318.562 186.864 307.256 193.726 297.815C200.589 288.374 211.213 284.484 232.461 276.705L297.255 252.984C318.504 245.205 329.128 241.315 335.467 245.923C341.807 250.531 341.386 261.837 340.544 284.449L337.978 353.401C337.136 376.013 336.715 387.319 329.853 396.76C322.99 406.201 312.366 410.091 291.118 417.87L226.324 441.591C205.076 449.37 194.451 453.26 188.112 448.652C181.772 444.044 182.193 432.738 183.035 410.126L185.601 341.174Z" fill="#074139"/>
<path d="M297.274 252.484C307.885 248.6 315.89 245.667 322.033 244.29C328.189 242.91 332.545 243.073 335.812 245.448C339.08 247.823 340.58 251.916 341.167 258.197C341.752 264.465 341.434 272.985 341.014 284.277L338.447 353.229C338.027 364.521 337.711 373.04 336.636 379.916C335.559 386.807 333.709 392.126 330.172 396.992C326.635 401.858 322.147 405.259 315.924 408.411C309.716 411.555 301.71 414.485 291.099 418.369L226.305 442.091C215.694 445.975 207.689 448.908 201.546 450.285C195.39 451.665 191.034 451.502 187.767 449.127C184.499 446.752 182.999 442.659 182.412 436.378C181.827 430.11 182.145 421.59 182.565 410.298L185.132 341.346C185.552 330.054 185.868 321.535 186.943 314.659C188.02 307.768 189.87 302.449 193.407 297.583C196.944 292.717 201.433 289.316 207.655 286.164C213.863 283.02 221.869 280.09 232.48 276.206L297.274 252.484Z" stroke="#CAEDE5"/>
</g>
<g filter="url(#filter28_d_1247_8622)">
<path d="M174.601 364.174C175.443 341.562 175.864 330.256 182.726 320.815C189.589 311.374 200.213 307.484 221.461 299.705L286.255 275.984C307.504 268.205 318.128 264.315 324.467 268.923C330.807 273.531 330.386 284.837 329.544 307.449L326.978 376.401C326.136 399.013 325.715 410.319 318.853 419.76C311.99 429.201 301.366 433.091 280.118 440.87L215.324 464.591C194.076 472.37 183.451 476.26 177.112 471.652C170.772 467.044 171.193 455.738 172.035 433.126L174.601 364.174Z" fill="#074139"/>
<path d="M286.274 275.484C296.885 271.6 304.89 268.667 311.033 267.29C317.189 265.91 321.545 266.073 324.812 268.448C328.08 270.823 329.58 274.916 330.167 281.197C330.752 287.465 330.434 295.985 330.014 307.277L327.447 376.229C327.027 387.521 326.711 396.04 325.636 402.916C324.559 409.807 322.709 415.126 319.172 419.992C315.635 424.858 311.147 428.259 304.924 431.411C298.716 434.555 290.71 437.485 280.099 441.369L215.305 465.091C204.694 468.975 196.689 471.908 190.546 473.285C184.39 474.665 180.034 474.502 176.767 472.127C173.499 469.752 171.999 465.659 171.412 459.378C170.827 453.11 171.145 444.59 171.565 433.298L174.132 364.346C174.552 353.054 174.868 344.535 175.943 337.659C177.02 330.768 178.87 325.449 182.407 320.583C185.944 315.717 190.433 312.316 196.655 309.164C202.863 306.02 210.869 303.09 221.48 299.206L286.274 275.484Z" stroke="#CAEDE5"/>
</g>
<g filter="url(#filter29_d_1247_8622)">
<path d="M165.601 396.914C166.443 374.302 166.864 362.996 173.726 353.555C180.589 344.114 191.213 340.224 212.461 332.445L277.255 308.724C298.504 300.945 309.128 297.056 315.467 301.664C321.807 306.271 321.386 317.577 320.544 340.189L317.978 409.141C317.136 431.753 316.715 443.059 309.853 452.5C302.99 461.941 292.366 465.831 271.118 473.61L206.324 497.331C185.076 505.11 174.451 509 168.112 504.392C161.772 499.784 162.193 488.478 163.035 465.866L165.601 396.914Z" fill="#074139"/>
<path d="M277.274 308.224C287.885 304.34 295.89 301.408 302.033 300.03C308.189 298.65 312.545 298.814 315.812 301.189C319.08 303.564 320.58 307.656 321.167 313.938C321.752 320.206 321.434 328.725 321.014 340.017L318.447 408.969C318.027 420.261 317.711 428.78 316.636 435.656C315.559 442.547 313.709 447.866 310.172 452.732C306.635 457.598 302.147 461 295.924 464.151C289.716 467.295 281.71 470.225 271.099 474.11L206.305 497.831C195.694 501.716 187.689 504.648 181.546 506.025C175.39 507.406 171.034 507.242 167.767 504.867C164.499 502.492 162.999 498.399 162.412 492.118C161.827 485.85 162.145 477.33 162.565 466.038L165.132 397.086C165.552 385.794 165.868 377.275 166.943 370.399C168.02 363.508 169.87 358.19 173.407 353.323C176.944 348.457 181.433 345.056 187.655 341.904C193.863 338.76 201.869 335.83 212.48 331.946L277.274 308.224Z" stroke="#CAEDE5"/>
</g>
<g filter="url(#filter30_d_1247_8622)">
<path d="M156.601 420.914C157.443 398.302 157.864 386.996 164.726 377.555C171.589 368.114 182.213 364.224 203.461 356.445L268.255 332.724C289.504 324.945 300.128 321.056 306.467 325.664C312.807 330.271 312.386 341.577 311.544 364.189L308.978 433.141C308.136 455.753 307.715 467.059 300.853 476.5C293.99 485.941 283.366 489.831 262.118 497.61L197.324 521.331C176.076 529.11 165.451 533 159.112 528.392C152.772 523.784 153.193 512.478 154.035 489.866L156.601 420.914Z" fill="#074139"/>
<path d="M268.274 332.224C278.885 328.34 286.89 325.408 293.033 324.03C299.189 322.65 303.545 322.814 306.812 325.189C310.08 327.564 311.58 331.656 312.167 337.938C312.752 344.206 312.434 352.725 312.014 364.017L309.447 432.969C309.027 444.261 308.711 452.78 307.636 459.656C306.559 466.547 304.709 471.866 301.172 476.732C297.635 481.598 293.147 485 286.924 488.151C280.716 491.295 272.71 494.225 262.099 498.11L197.305 521.831C186.694 525.716 178.689 528.648 172.546 530.025C166.39 531.406 162.034 531.242 158.767 528.867C155.499 526.492 153.999 522.399 153.412 516.118C152.827 509.85 153.145 501.33 153.565 490.038L156.132 421.086C156.552 409.794 156.868 401.275 157.943 394.399C159.02 387.508 160.87 382.19 164.407 377.323C167.944 372.457 172.433 369.056 178.655 365.904C184.863 362.76 192.869 359.83 203.48 355.946L268.274 332.224Z" stroke="#CAEDE5"/>
</g>
<g filter="url(#filter31_d_1247_8622)">
<path d="M146.601 444.914C147.443 422.302 147.864 410.996 154.726 401.555C161.589 392.114 172.213 388.224 193.461 380.445L258.255 356.724C279.504 348.945 290.128 345.056 296.467 349.664C302.807 354.271 302.386 365.577 301.544 388.189L298.978 457.141C298.136 479.753 297.715 491.059 290.853 500.5C283.99 509.941 273.366 513.831 252.118 521.61L187.324 545.331C166.076 553.11 155.451 557 149.112 552.392C142.772 547.784 143.193 536.478 144.035 513.866L146.601 444.914Z" fill="#074139"/>
<path d="M258.274 356.224C268.885 352.34 276.89 349.408 283.033 348.03C289.189 346.65 293.545 346.814 296.812 349.189C300.08 351.564 301.58 355.656 302.167 361.938C302.752 368.206 302.434 376.725 302.014 388.017L299.447 456.969C299.027 468.261 298.711 476.78 297.636 483.656C296.559 490.547 294.709 495.866 291.172 500.732C287.635 505.598 283.147 509 276.924 512.151C270.716 515.295 262.71 518.225 252.099 522.11L187.305 545.831C176.694 549.716 168.689 552.648 162.546 554.025C156.39 555.406 152.034 555.242 148.767 552.867C145.499 550.492 143.999 546.399 143.412 540.118C142.827 533.85 143.145 525.33 143.565 514.038L146.132 445.086C146.552 433.794 146.868 425.275 147.943 418.399C149.02 411.508 150.87 406.19 154.407 401.323C157.944 396.457 162.433 393.056 168.655 389.904C174.863 386.76 182.869 383.83 193.48 379.946L258.274 356.224Z" stroke="#CAEDE5"/>
</g>
<g filter="url(#filter32_d_1247_8622)">
<path d="M137.601 460.174C138.443 437.562 138.864 426.256 145.726 416.815C152.589 407.374 163.213 403.484 184.461 395.705L249.255 371.984C270.504 364.205 281.128 360.315 287.467 364.923C293.807 369.531 293.386 380.837 292.544 403.449L289.978 472.401C289.136 495.013 288.715 506.319 281.853 515.76C274.99 525.201 264.366 529.091 243.118 536.87L178.324 560.591C157.076 568.37 146.451 572.26 140.112 567.652C133.772 563.044 134.193 551.738 135.035 529.126L137.601 460.174Z" fill="#074139"/>
<path d="M249.274 371.484C259.885 367.6 267.89 364.667 274.033 363.29C280.189 361.91 284.545 362.073 287.812 364.448C291.08 366.823 292.58 370.916 293.167 377.197C293.752 383.465 293.434 391.985 293.014 403.277L290.447 472.229C290.027 483.521 289.711 492.04 288.636 498.916C287.559 505.807 285.709 511.126 282.172 515.992C278.635 520.858 274.147 524.259 267.924 527.411C261.716 530.555 253.71 533.485 243.099 537.369L178.305 561.091C167.694 564.975 159.689 567.908 153.546 569.285C147.39 570.665 143.034 570.502 139.767 568.127C136.499 565.752 134.999 561.659 134.412 555.378C133.827 549.11 134.145 540.59 134.565 529.298L137.132 460.346C137.552 449.054 137.868 440.535 138.943 433.659C140.02 426.768 141.87 421.449 145.407 416.583C148.944 411.717 153.433 408.316 159.655 405.164C165.863 402.02 173.869 399.09 184.48 395.206L249.274 371.484Z" stroke="#CAEDE5"/>
</g>
<g filter="url(#filter33_d_1247_8622)">
<path d="M128.601 484.174C129.443 461.562 129.864 450.256 136.726 440.815C143.589 431.374 154.213 427.484 175.461 419.705L240.255 395.984C261.504 388.205 272.128 384.315 278.467 388.923C284.807 393.531 284.386 404.837 283.544 427.449L280.978 496.401C280.136 519.013 279.715 530.319 272.853 539.76C265.99 549.201 255.366 553.091 234.118 560.87L169.324 584.591C148.076 592.37 137.451 596.26 131.112 591.652C124.772 587.044 125.193 575.738 126.035 553.126L128.601 484.174Z" fill="#074139"/>
<path d="M240.274 395.484C250.885 391.6 258.89 388.667 265.033 387.29C271.189 385.91 275.545 386.073 278.812 388.448C282.08 390.823 283.58 394.916 284.167 401.197C284.752 407.465 284.434 415.985 284.014 427.277L281.447 496.229C281.027 507.521 280.711 516.04 279.636 522.916C278.559 529.807 276.709 535.126 273.172 539.992C269.635 544.858 265.147 548.259 258.924 551.411C252.716 554.555 244.71 557.485 234.099 561.369L169.305 585.091C158.694 588.975 150.689 591.908 144.546 593.285C138.39 594.665 134.034 594.502 130.767 592.127C127.499 589.752 125.999 585.659 125.412 579.378C124.827 573.11 125.145 564.59 125.565 553.298L128.132 484.346C128.552 473.054 128.868 464.535 129.943 457.659C131.02 450.768 132.87 445.449 136.407 440.583C139.944 435.717 144.433 432.316 150.655 429.164C156.863 426.02 164.869 423.09 175.48 419.206L240.274 395.484Z" stroke="#CAEDE5"/>
</g>
<g filter="url(#filter34_d_1247_8622)">
<path d="M119.601 508.174C120.443 485.562 120.864 474.256 127.726 464.815C134.589 455.374 145.213 451.484 166.461 443.705L231.255 419.984C252.504 412.205 263.128 408.315 269.467 412.923C275.807 417.531 275.386 428.837 274.544 451.449L271.978 520.401C271.136 543.013 270.715 554.319 263.853 563.76C256.99 573.201 246.366 577.091 225.118 584.87L160.324 608.591C139.076 616.37 128.451 620.26 122.112 615.652C115.772 611.044 116.193 599.738 117.035 577.126L119.601 508.174Z" fill="#074139"/>
<path d="M231.274 419.484C241.885 415.6 249.89 412.667 256.033 411.29C262.189 409.91 266.545 410.073 269.812 412.448C273.08 414.823 274.58 418.916 275.167 425.197C275.752 431.465 275.434 439.985 275.014 451.277L272.447 520.229C272.027 531.521 271.711 540.04 270.636 546.916C269.559 553.807 267.709 559.126 264.172 563.992C260.635 568.858 256.147 572.259 249.924 575.411C243.716 578.555 235.71 581.485 225.099 585.369L160.305 609.091C149.694 612.975 141.689 615.908 135.546 617.285C129.39 618.665 125.034 618.502 121.767 616.127C118.499 613.752 116.999 609.659 116.412 603.378C115.827 597.11 116.145 588.59 116.565 577.298L119.132 508.346C119.552 497.054 119.868 488.535 120.943 481.659C122.02 474.768 123.87 469.449 127.407 464.583C130.944 459.717 135.433 456.316 141.655 453.164C147.863 450.02 155.869 447.09 166.48 443.206L231.274 419.484Z" stroke="#CAEDE5"/>
</g>
<g filter="url(#filter35_d_1247_8622)">
<path d="M110.601 533.174C111.443 510.562 111.864 499.256 118.726 489.815C125.589 480.374 136.213 476.484 157.461 468.705L222.255 444.984C243.504 437.205 254.128 433.315 260.467 437.923C266.807 442.531 266.386 453.837 265.544 476.449L262.978 545.401C262.136 568.013 261.715 579.319 254.853 588.76C247.99 598.201 237.366 602.091 216.118 609.87L151.324 633.591C130.076 641.37 119.451 645.26 113.112 640.652C106.772 636.044 107.193 624.738 108.035 602.126L110.601 533.174Z" fill="#074139"/>
<path d="M222.274 444.484C232.885 440.6 240.89 437.667 247.033 436.29C253.189 434.91 257.545 435.073 260.812 437.448C264.08 439.823 265.58 443.916 266.167 450.197C266.752 456.465 266.434 464.985 266.014 476.277L263.447 545.229C263.027 556.521 262.711 565.04 261.636 571.916C260.559 578.807 258.709 584.126 255.172 588.992C251.635 593.858 247.147 597.259 240.924 600.411C234.716 603.555 226.71 606.485 216.099 610.369L151.305 634.091C140.694 637.975 132.689 640.908 126.546 642.285C120.39 643.665 116.034 643.502 112.767 641.127C109.499 638.752 107.999 634.659 107.412 628.378C106.827 622.11 107.145 613.59 107.565 602.298L110.132 533.346C110.552 522.054 110.868 513.535 111.943 506.659C113.02 499.768 114.87 494.449 118.407 489.583C121.944 484.717 126.433 481.316 132.655 478.164C138.863 475.02 146.869 472.09 157.48 468.206L222.274 444.484Z" stroke="#CAEDE5"/>
</g>
<g filter="url(#filter36_d_1247_8622)">
<path d="M102.601 557.174C103.443 534.562 103.864 523.256 110.726 513.815C117.589 504.374 128.213 500.484 149.461 492.705L214.255 468.984C235.504 461.205 246.128 457.315 252.467 461.923C258.807 466.531 258.386 477.837 257.544 500.449L254.978 569.401C254.136 592.013 253.715 603.319 246.853 612.76C239.99 622.201 229.366 626.091 208.118 633.87L143.324 657.591C122.076 665.37 111.451 669.26 105.112 664.652C98.7724 660.044 99.1932 648.738 100.035 626.126L102.601 557.174Z" fill="#074139"/>
<path d="M214.274 468.484C224.885 464.6 232.89 461.667 239.033 460.29C245.189 458.91 249.545 459.073 252.812 461.448C256.08 463.823 257.58 467.916 258.167 474.197C258.752 480.465 258.434 488.985 258.014 500.277L255.447 569.229C255.027 580.521 254.711 589.04 253.636 595.916C252.559 602.807 250.709 608.126 247.172 612.992C243.635 617.858 239.147 621.259 232.924 624.411C226.716 627.555 218.71 630.485 208.099 634.369L143.305 658.091C132.694 661.975 124.689 664.908 118.546 666.285C112.39 667.665 108.034 667.502 104.767 665.127C101.499 662.752 99.9993 658.659 99.4124 652.378C98.8267 646.11 99.1451 637.59 99.5654 626.298L102.132 557.346C102.552 546.054 102.868 537.535 103.943 530.659C105.02 523.768 106.87 518.449 110.407 513.583C113.944 508.717 118.433 505.316 124.655 502.164C130.863 499.02 138.869 496.09 149.48 492.206L214.274 468.484Z" stroke="#CAEDE5"/>
</g>
<g filter="url(#filter37_d_1247_8622)">
<path d="M93.6013 580.174C94.443 557.562 94.8638 546.256 101.726 536.815C108.589 527.374 119.213 523.484 140.461 515.705L205.255 491.984C226.504 484.205 237.128 480.315 243.467 484.923C249.807 489.531 249.386 500.837 248.544 523.449L245.978 592.401C245.136 615.013 244.715 626.319 237.853 635.76C230.99 645.201 220.366 649.091 199.118 656.87L134.324 680.591C113.076 688.37 102.451 692.26 96.1119 687.652C89.7724 683.044 90.1932 671.738 91.0349 649.126L93.6013 580.174Z" fill="#074139"/>
<path d="M205.274 491.484C215.885 487.6 223.89 484.667 230.033 483.29C236.189 481.91 240.545 482.073 243.812 484.448C247.08 486.823 248.58 490.916 249.167 497.197C249.752 503.465 249.434 511.985 249.014 523.277L246.447 592.229C246.027 603.521 245.711 612.04 244.636 618.916C243.559 625.807 241.709 631.126 238.172 635.992C234.635 640.858 230.147 644.259 223.924 647.411C217.716 650.555 209.71 653.485 199.099 657.369L134.305 681.091C123.694 684.975 115.689 687.908 109.546 689.285C103.39 690.665 99.0342 690.502 95.7667 688.127C92.4992 685.752 90.9993 681.659 90.4124 675.378C89.8267 669.11 90.1451 660.59 90.5654 649.298L93.1318 580.346C93.5521 569.054 93.8679 560.535 94.9428 553.659C96.0201 546.768 97.8703 541.449 101.407 536.583C104.944 531.717 109.433 528.316 115.655 525.164C121.863 522.02 129.869 519.09 140.48 515.206L205.274 491.484Z" stroke="#CAEDE5"/>
</g>
<g filter="url(#filter38_d_1247_8622)">
<path d="M83.6013 612.914C84.443 590.302 84.8638 578.996 91.7262 569.555C98.5887 560.114 109.213 556.224 130.461 548.445L195.255 524.724C216.504 516.945 227.128 513.056 233.467 517.664C239.807 522.271 239.386 533.577 238.544 556.189L235.978 625.141C235.136 647.753 234.715 659.059 227.853 668.5C220.99 677.941 210.366 681.831 189.118 689.61L124.324 713.331C103.076 721.11 92.4515 725 86.1119 720.392C79.7724 715.784 80.1932 704.478 81.0349 681.866L83.6013 612.914Z" fill="#074139"/>
<path d="M195.274 524.224C205.885 520.34 213.89 517.408 220.033 516.03C226.189 514.65 230.545 514.814 233.812 517.189C237.08 519.564 238.58 523.656 239.167 529.938C239.752 536.206 239.434 544.725 239.014 556.017L236.447 624.969C236.027 636.261 235.711 644.78 234.636 651.656C233.559 658.547 231.709 663.866 228.172 668.732C224.635 673.598 220.147 677 213.924 680.151C207.716 683.295 199.71 686.225 189.099 690.11L124.305 713.831C113.694 717.716 105.689 720.648 99.5459 722.025C93.3897 723.406 89.0342 723.242 85.7667 720.867C82.4992 718.492 80.9993 714.399 80.4124 708.118C79.8267 701.85 80.1451 693.33 80.5654 682.038L83.1318 613.086C83.5521 601.794 83.8679 593.275 84.9428 586.399C86.0201 579.508 87.8703 574.19 91.4073 569.323C94.9443 564.457 99.4325 561.056 105.655 557.904C111.863 554.76 119.869 551.83 130.48 547.946L195.274 524.224Z" stroke="#CAEDE5"/>
</g>
<g filter="url(#filter39_d_1247_8622)">
<path d="M73.6013 636.914C74.443 614.302 74.8638 602.996 81.7262 593.555C88.5887 584.114 99.2128 580.224 120.461 572.445L185.255 548.724C206.504 540.945 217.128 537.056 223.467 541.664C229.807 546.271 229.386 557.577 228.544 580.189L225.978 649.141C225.136 671.753 224.715 683.059 217.853 692.5C210.99 701.941 200.366 705.831 179.118 713.61L114.324 737.331C93.0756 745.11 82.4515 749 76.1119 744.392C69.7724 739.784 70.1932 728.478 71.0349 705.866L73.6013 636.914Z" fill="#074139"/>
<path d="M185.274 548.224C195.885 544.34 203.89 541.408 210.033 540.03C216.189 538.65 220.545 538.814 223.812 541.189C227.08 543.564 228.58 547.656 229.167 553.938C229.752 560.206 229.434 568.725 229.014 580.017L226.447 648.969C226.027 660.261 225.711 668.78 224.636 675.656C223.559 682.547 221.709 687.866 218.172 692.732C214.635 697.598 210.147 701 203.924 704.151C197.716 707.295 189.71 710.225 179.099 714.11L114.305 737.831C103.694 741.716 95.6887 744.648 89.5459 746.025C83.3897 747.406 79.0342 747.242 75.7667 744.867C72.4992 742.492 70.9993 738.399 70.4124 732.118C69.8267 725.85 70.1451 717.33 70.5654 706.038L73.1318 637.086C73.5521 625.794 73.8679 617.275 74.9428 610.399C76.0201 603.508 77.8703 598.19 81.4073 593.323C84.9443 588.457 89.4325 585.056 95.6546 581.904C101.863 578.76 109.869 575.83 120.48 571.946L185.274 548.224Z" stroke="#CAEDE5"/>
</g>
<defs>
<filter id="filter0_d_1247_8622" x="491.621" y="499.889" width="168.336" height="216.797" filterUnits="userSpaceOnUse" color-interpolation-filters="sRGB">
<feFlood flood-opacity="0" result="BackgroundImageFix"/>
<feColorMatrix in="SourceAlpha" type="matrix" values="0 0 0 0 0 0 0 0 0 0 0 0 0 0 0 0 0 0 127 0" result="hardAlpha"/>
<feOffset dy="2"/>
<feGaussianBlur stdDeviation="2"/>
<feComposite in2="hardAlpha" operator="out"/>
<feColorMatrix type="matrix" values="0 0 0 0 0 0 0 0 0 0 0 0 0 0 0 0 0 0 0.25 0"/>
<feBlend mode="normal" in2="BackgroundImageFix" result="effect1_dropShadow_1247_8622"/>
<feBlend mode="normal" in="SourceGraphic" in2="effect1_dropShadow_1247_8622" result="shape"/>
</filter>
<filter id="filter1_d_1247_8622" x="485.621" y="471.889" width="168.336" height="216.797" filterUnits="userSpaceOnUse" color-interpolation-filters="sRGB">
<feFlood flood-opacity="0" result="BackgroundImageFix"/>
<feColorMatrix in="SourceAlpha" type="matrix" values="0 0 0 0 0 0 0 0 0 0 0 0 0 0 0 0 0 0 127 0" result="hardAlpha"/>
<feOffset dy="2"/>
<feGaussianBlur stdDeviation="2"/>
<feComposite in2="hardAlpha" operator="out"/>
<feColorMatrix type="matrix" values="0 0 0 0 0 0 0 0 0 0 0 0 0 0 0 0 0 0 0.25 0"/>
<feBlend mode="normal" in2="BackgroundImageFix" result="effect1_dropShadow_1247_8622"/>
<feBlend mode="normal" in="SourceGraphic" in2="effect1_dropShadow_1247_8622" result="shape"/>
</filter>
<filter id="filter2_d_1247_8622" x="471.621" y="442.889" width="168.336" height="216.797" filterUnits="userSpaceOnUse" color-interpolation-filters="sRGB">
<feFlood flood-opacity="0" result="BackgroundImageFix"/>
<feColorMatrix in="SourceAlpha" type="matrix" values="0 0 0 0 0 0 0 0 0 0 0 0 0 0 0 0 0 0 127 0" result="hardAlpha"/>
<feOffset dy="2"/>
<feGaussianBlur stdDeviation="2"/>
<feComposite in2="hardAlpha" operator="out"/>
<feColorMatrix type="matrix" values="0 0 0 0 0 0 0 0 0 0 0 0 0 0 0 0 0 0 0.25 0"/>
<feBlend mode="normal" in2="BackgroundImageFix" result="effect1_dropShadow_1247_8622"/>
<feBlend mode="normal" in="SourceGraphic" in2="effect1_dropShadow_1247_8622" result="shape"/>
</filter>
<filter id="filter3_d_1247_8622" x="460.621" y="409.889" width="168.336" height="216.797" filterUnits="userSpaceOnUse" color-interpolation-filters="sRGB">
<feFlood flood-opacity="0" result="BackgroundImageFix"/>
<feColorMatrix in="SourceAlpha" type="matrix" values="0 0 0 0 0 0 0 0 0 0 0 0 0 0 0 0 0 0 127 0" result="hardAlpha"/>
<feOffset dy="2"/>
<feGaussianBlur stdDeviation="2"/>
<feComposite in2="hardAlpha" operator="out"/>
<feColorMatrix type="matrix" values="0 0 0 0 0 0 0 0 0 0 0 0 0 0 0 0 0 0 0.25 0"/>
<feBlend mode="normal" in2="BackgroundImageFix" result="effect1_dropShadow_1247_8622"/>
<feBlend mode="normal" in="SourceGraphic" in2="effect1_dropShadow_1247_8622" result="shape"/>
</filter>
<filter id="filter4_d_1247_8622" x="451.621" y="374.889" width="168.336" height="216.797" filterUnits="userSpaceOnUse" color-interpolation-filters="sRGB">
<feFlood flood-opacity="0" result="BackgroundImageFix"/>
<feColorMatrix in="SourceAlpha" type="matrix" values="0 0 0 0 0 0 0 0 0 0 0 0 0 0 0 0 0 0 127 0" result="hardAlpha"/>
<feOffset dy="2"/>
<feGaussianBlur stdDeviation="2"/>
<feComposite in2="hardAlpha" operator="out"/>
<feColorMatrix type="matrix" values="0 0 0 0 0 0 0 0 0 0 0 0 0 0 0 0 0 0 0.25 0"/>
<feBlend mode="normal" in2="BackgroundImageFix" result="effect1_dropShadow_1247_8622"/>
<feBlend mode="normal" in="SourceGraphic" in2="effect1_dropShadow_1247_8622" result="shape"/>
</filter>
<filter id="filter5_d_1247_8622" x="444.621" y="345.629" width="168.336" height="216.797" filterUnits="userSpaceOnUse" color-interpolation-filters="sRGB">
<feFlood flood-opacity="0" result="BackgroundImageFix"/>
<feColorMatrix in="SourceAlpha" type="matrix" values="0 0 0 0 0 0 0 0 0 0 0 0 0 0 0 0 0 0 127 0" result="hardAlpha"/>
<feOffset dy="2"/>
<feGaussianBlur stdDeviation="2"/>
<feComposite in2="hardAlpha" operator="out"/>
<feColorMatrix type="matrix" values="0 0 0 0 0 0 0 0 0 0 0 0 0 0 0 0 0 0 0.25 0"/>
<feBlend mode="normal" in2="BackgroundImageFix" result="effect1_dropShadow_1247_8622"/>
<feBlend mode="normal" in="SourceGraphic" in2="effect1_dropShadow_1247_8622" result="shape"/>
</filter>
<filter id="filter6_d_1247_8622" x="438.621" y="296.889" width="168.336" height="216.797" filterUnits="userSpaceOnUse" color-interpolation-filters="sRGB">
<feFlood flood-opacity="0" result="BackgroundImageFix"/>
<feColorMatrix in="SourceAlpha" type="matrix" values="0 0 0 0 0 0 0 0 0 0 0 0 0 0 0 0 0 0 127 0" result="hardAlpha"/>
<feOffset dy="2"/>
<feGaussianBlur stdDeviation="2"/>
<feComposite in2="hardAlpha" operator="out"/>
<feColorMatrix type="matrix" values="0 0 0 0 0 0 0 0 0 0 0 0 0 0 0 0 0 0 0.25 0"/>
<feBlend mode="normal" in2="BackgroundImageFix" result="effect1_dropShadow_1247_8622"/>
<feBlend mode="normal" in="SourceGraphic" in2="effect1_dropShadow_1247_8622" result="shape"/>
</filter>
<filter id="filter7_d_1247_8622" x="433.621" y="257.889" width="168.336" height="216.797" filterUnits="userSpaceOnUse" color-interpolation-filters="sRGB">
<feFlood flood-opacity="0" result="BackgroundImageFix"/>
<feColorMatrix in="SourceAlpha" type="matrix" values="0 0 0 0 0 0 0 0 0 0 0 0 0 0 0 0 0 0 127 0" result="hardAlpha"/>
<feOffset dy="2"/>
<feGaussianBlur stdDeviation="2"/>
<feComposite in2="hardAlpha" operator="out"/>
<feColorMatrix type="matrix" values="0 0 0 0 0 0 0 0 0 0 0 0 0 0 0 0 0 0 0.25 0"/>
<feBlend mode="normal" in2="BackgroundImageFix" result="effect1_dropShadow_1247_8622"/>
<feBlend mode="normal" in="SourceGraphic" in2="effect1_dropShadow_1247_8622" result="shape"/>
</filter>
<filter id="filter8_d_1247_8622" x="428.621" y="226.629" width="168.336" height="216.797" filterUnits="userSpaceOnUse" color-interpolation-filters="sRGB">
<feFlood flood-opacity="0" result="BackgroundImageFix"/>
<feColorMatrix in="SourceAlpha" type="matrix" values="0 0 0 0 0 0 0 0 0 0 0 0 0 0 0 0 0 0 127 0" result="hardAlpha"/>
<feOffset dy="2"/>
<feGaussianBlur stdDeviation="2"/>
<feComposite in2="hardAlpha" operator="out"/>
<feColorMatrix type="matrix" values="0 0 0 0 0 0 0 0 0 0 0 0 0 0 0 0 0 0 0.25 0"/>
<feBlend mode="normal" in2="BackgroundImageFix" result="effect1_dropShadow_1247_8622"/>
<feBlend mode="normal" in="SourceGraphic" in2="effect1_dropShadow_1247_8622" result="shape"/>
</filter>
<filter id="filter9_d_1247_8622" x="424.621" y="178.889" width="168.336" height="216.797" filterUnits="userSpaceOnUse" color-interpolation-filters="sRGB">
<feFlood flood-opacity="0" result="BackgroundImageFix"/>
<feColorMatrix in="SourceAlpha" type="matrix" values="0 0 0 0 0 0 0 0 0 0 0 0 0 0 0 0 0 0 127 0" result="hardAlpha"/>
<feOffset dy="2"/>
<feGaussianBlur stdDeviation="2"/>
<feComposite in2="hardAlpha" operator="out"/>
<feColorMatrix type="matrix" values="0 0 0 0 0 0 0 0 0 0 0 0 0 0 0 0 0 0 0.25 0"/>
<feBlend mode="normal" in2="BackgroundImageFix" result="effect1_dropShadow_1247_8622"/>
<feBlend mode="normal" in="SourceGraphic" in2="effect1_dropShadow_1247_8622" result="shape"/>
</filter>
<filter id="filter10_d_1247_8622" x="420.621" y="142.889" width="168.336" height="216.797" filterUnits="userSpaceOnUse" color-interpolation-filters="sRGB">
<feFlood flood-opacity="0" result="BackgroundImageFix"/>
<feColorMatrix in="SourceAlpha" type="matrix" values="0 0 0 0 0 0 0 0 0 0 0 0 0 0 0 0 0 0 127 0" result="hardAlpha"/>
<feOffset dy="2"/>
<feGaussianBlur stdDeviation="2"/>
<feComposite in2="hardAlpha" operator="out"/>
<feColorMatrix type="matrix" values="0 0 0 0 0 0 0 0 0 0 0 0 0 0 0 0 0 0 0.25 0"/>
<feBlend mode="normal" in2="BackgroundImageFix" result="effect1_dropShadow_1247_8622"/>
<feBlend mode="normal" in="SourceGraphic" in2="effect1_dropShadow_1247_8622" result="shape"/>
</filter>
<filter id="filter11_d_1247_8622" x="415.621" y="109.889" width="168.336" height="216.797" filterUnits="userSpaceOnUse" color-interpolation-filters="sRGB">
<feFlood flood-opacity="0" result="BackgroundImageFix"/>
<feColorMatrix in="SourceAlpha" type="matrix" values="0 0 0 0 0 0 0 0 0 0 0 0 0 0 0 0 0 0 127 0" result="hardAlpha"/>
<feOffset dy="2"/>
<feGaussianBlur stdDeviation="2"/>
<feComposite in2="hardAlpha" operator="out"/>
<feColorMatrix type="matrix" values="0 0 0 0 0 0 0 0 0 0 0 0 0 0 0 0 0 0 0.25 0"/>
<feBlend mode="normal" in2="BackgroundImageFix" result="effect1_dropShadow_1247_8622"/>
<feBlend mode="normal" in="SourceGraphic" in2="effect1_dropShadow_1247_8622" result="shape"/>
</filter>
<filter id="filter12_d_1247_8622" x="408.621" y="80.8887" width="168.336" height="216.797" filterUnits="userSpaceOnUse" color-interpolation-filters="sRGB">
<feFlood flood-opacity="0" result="BackgroundImageFix"/>
<feColorMatrix in="SourceAlpha" type="matrix" values="0 0 0 0 0 0 0 0 0 0 0 0 0 0 0 0 0 0 127 0" result="hardAlpha"/>
<feOffset dy="2"/>
<feGaussianBlur stdDeviation="2"/>
<feComposite in2="hardAlpha" operator="out"/>
<feColorMatrix type="matrix" values="0 0 0 0 0 0 0 0 0 0 0 0 0 0 0 0 0 0 0.25 0"/>
<feBlend mode="normal" in2="BackgroundImageFix" result="effect1_dropShadow_1247_8622"/>
<feBlend mode="normal" in="SourceGraphic" in2="effect1_dropShadow_1247_8622" result="shape"/>
</filter>
<filter id="filter13_d_1247_8622" x="400.621" y="55.8887" width="168.336" height="216.797" filterUnits="userSpaceOnUse" color-interpolation-filters="sRGB">
<feFlood flood-opacity="0" result="BackgroundImageFix"/>
<feColorMatrix in="SourceAlpha" type="matrix" values="0 0 0 0 0 0 0 0 0 0 0 0 0 0 0 0 0 0 127 0" result="hardAlpha"/>
<feOffset dy="2"/>
<feGaussianBlur stdDeviation="2"/>
<feComposite in2="hardAlpha" operator="out"/>
<feColorMatrix type="matrix" values="0 0 0 0 0 0 0 0 0 0 0 0 0 0 0 0 0 0 0.25 0"/>
<feBlend mode="normal" in2="BackgroundImageFix" result="effect1_dropShadow_1247_8622"/>
<feBlend mode="normal" in="SourceGraphic" in2="effect1_dropShadow_1247_8622" result="shape"/>
</filter>
<filter id="filter14_d_1247_8622" x="391.621" y="36.8887" width="168.336" height="216.797" filterUnits="userSpaceOnUse" color-interpolation-filters="sRGB">
<feFlood flood-opacity="0" result="BackgroundImageFix"/>
<feColorMatrix in="SourceAlpha" type="matrix" values="0 0 0 0 0 0 0 0 0 0 0 0 0 0 0 0 0 0 127 0" result="hardAlpha"/>
<feOffset dy="2"/>
<feGaussianBlur stdDeviation="2"/>
<feComposite in2="hardAlpha" operator="out"/>
<feColorMatrix type="matrix" values="0 0 0 0 0 0 0 0 0 0 0 0 0 0 0 0 0 0 0.25 0"/>
<feBlend mode="normal" in2="BackgroundImageFix" result="effect1_dropShadow_1247_8622"/>
<feBlend mode="normal" in="SourceGraphic" in2="effect1_dropShadow_1247_8622" result="shape"/>
</filter>
<filter id="filter15_d_1247_8622" x="379.621" y="32.6289" width="168.336" height="216.797" filterUnits="userSpaceOnUse" color-interpolation-filters="sRGB">
<feFlood flood-opacity="0" result="BackgroundImageFix"/>
<feColorMatrix in="SourceAlpha" type="matrix" values="0 0 0 0 0 0 0 0 0 0 0 0 0 0 0 0 0 0 127 0" result="hardAlpha"/>
<feOffset dy="2"/>
<feGaussianBlur stdDeviation="2"/>
<feComposite in2="hardAlpha" operator="out"/>
<feColorMatrix type="matrix" values="0 0 0 0 0 0 0 0 0 0 0 0 0 0 0 0 0 0 0.25 0"/>
<feBlend mode="normal" in2="BackgroundImageFix" result="effect1_dropShadow_1247_8622"/>
<feBlend mode="normal" in="SourceGraphic" in2="effect1_dropShadow_1247_8622" result="shape"/>
</filter>
<filter id="filter16_d_1247_8622" x="364.621" y="18.4941" width="168.336" height="216.797" filterUnits="userSpaceOnUse" color-interpolation-filters="sRGB">
<feFlood flood-opacity="0" result="BackgroundImageFix"/>
<feColorMatrix in="SourceAlpha" type="matrix" values="0 0 0 0 0 0 0 0 0 0 0 0 0 0 0 0 0 0 127 0" result="hardAlpha"/>
<feOffset dy="2"/>
<feGaussianBlur stdDeviation="2"/>
<feComposite in2="hardAlpha" operator="out"/>
<feColorMatrix type="matrix" values="0 0 0 0 0 0 0 0 0 0 0 0 0 0 0 0 0 0 0.25 0"/>
<feBlend mode="normal" in2="BackgroundImageFix" result="effect1_dropShadow_1247_8622"/>
<feBlend mode="normal" in="SourceGraphic" in2="effect1_dropShadow_1247_8622" result="shape"/>
</filter>
<filter id="filter17_d_1247_8622" x="346.309" y="18.5859" width="168.336" height="216.797" filterUnits="userSpaceOnUse" color-interpolation-filters="sRGB">
<feFlood flood-opacity="0" result="BackgroundImageFix"/>
<feColorMatrix in="SourceAlpha" type="matrix" values="0 0 0 0 0 0 0 0 0 0 0 0 0 0 0 0 0 0 127 0" result="hardAlpha"/>
<feOffset dy="2"/>
<feGaussianBlur stdDeviation="2"/>
<feComposite in2="hardAlpha" operator="out"/>
<feColorMatrix type="matrix" values="0 0 0 0 0 0 0 0 0 0 0 0 0 0 0 0 0 0 0.25 0"/>
<feBlend mode="normal" in2="BackgroundImageFix" result="effect1_dropShadow_1247_8622"/>
<feBlend mode="normal" in="SourceGraphic" in2="effect1_dropShadow_1247_8622" result="shape"/>
</filter>
<filter id="filter18_d_1247_8622" x="326.621" y="31.8887" width="168.336" height="216.797" filterUnits="userSpaceOnUse" color-interpolation-filters="sRGB">
<feFlood flood-opacity="0" result="BackgroundImageFix"/>
<feColorMatrix in="SourceAlpha" type="matrix" values="0 0 0 0 0 0 0 0 0 0 0 0 0 0 0 0 0 0 127 0" result="hardAlpha"/>
<feOffset dy="2"/>
<feGaussianBlur stdDeviation="2"/>
<feComposite in2="hardAlpha" operator="out"/>
<feColorMatrix type="matrix" values="0 0 0 0 0 0 0 0 0 0 0 0 0 0 0 0 0 0 0.25 0"/>
<feBlend mode="normal" in2="BackgroundImageFix" result="effect1_dropShadow_1247_8622"/>
<feBlend mode="normal" in="SourceGraphic" in2="effect1_dropShadow_1247_8622" result="shape"/>
</filter>
<filter id="filter19_d_1247_8622" x="301.621" y="53.8887" width="168.336" height="216.797" filterUnits="userSpaceOnUse" color-interpolation-filters="sRGB">
<feFlood flood-opacity="0" result="BackgroundImageFix"/>
<feColorMatrix in="SourceAlpha" type="matrix" values="0 0 0 0 0 0 0 0 0 0 0 0 0 0 0 0 0 0 127 0" result="hardAlpha"/>
<feOffset dy="2"/>
<feGaussianBlur stdDeviation="2"/>
<feComposite in2="hardAlpha" operator="out"/>
<feColorMatrix type="matrix" values="0 0 0 0 0 0 0 0 0 0 0 0 0 0 0 0 0 0 0.25 0"/>
<feBlend mode="normal" in2="BackgroundImageFix" result="effect1_dropShadow_1247_8622"/>
<feBlend mode="normal" in="SourceGraphic" in2="effect1_dropShadow_1247_8622" result="shape"/>
</filter>
<filter id="filter20_d_1247_8622" x="272.621" y="85.8887" width="168.336" height="216.797" filterUnits="userSpaceOnUse" color-interpolation-filters="sRGB">
<feFlood flood-opacity="0" result="BackgroundImageFix"/>
<feColorMatrix in="SourceAlpha" type="matrix" values="0 0 0 0 0 0 0 0 0 0 0 0 0 0 0 0 0 0 127 0" result="hardAlpha"/>
<feOffset dy="2"/>
<feGaussianBlur stdDeviation="2"/>
<feComposite in2="hardAlpha" operator="out"/>
<feColorMatrix type="matrix" values="0 0 0 0 0 0 0 0 0 0 0 0 0 0 0 0 0 0 0.25 0"/>
<feBlend mode="normal" in2="BackgroundImageFix" result="effect1_dropShadow_1247_8622"/>
<feBlend mode="normal" in="SourceGraphic" in2="effect1_dropShadow_1247_8622" result="shape"/>
</filter>
<filter id="filter21_d_1247_8622" x="254.621" y="108.889" width="168.336" height="216.797" filterUnits="userSpaceOnUse" color-interpolation-filters="sRGB">
<feFlood flood-opacity="0" result="BackgroundImageFix"/>
<feColorMatrix in="SourceAlpha" type="matrix" values="0 0 0 0 0 0 0 0 0 0 0 0 0 0 0 0 0 0 127 0" result="hardAlpha"/>
<feOffset dy="2"/>
<feGaussianBlur stdDeviation="2"/>
<feComposite in2="hardAlpha" operator="out"/>
<feColorMatrix type="matrix" values="0 0 0 0 0 0 0 0 0 0 0 0 0 0 0 0 0 0 0.25 0"/>
<feBlend mode="normal" in2="BackgroundImageFix" result="effect1_dropShadow_1247_8622"/>
<feBlend mode="normal" in="SourceGraphic" in2="effect1_dropShadow_1247_8622" result="shape"/>
</filter>
<filter id="filter22_d_1247_8622" x="239.621" y="129.889" width="168.336" height="216.797" filterUnits="userSpaceOnUse" color-interpolation-filters="sRGB">
<feFlood flood-opacity="0" result="BackgroundImageFix"/>
<feColorMatrix in="SourceAlpha" type="matrix" values="0 0 0 0 0 0 0 0 0 0 0 0 0 0 0 0 0 0 127 0" result="hardAlpha"/>
<feOffset dy="2"/>
<feGaussianBlur stdDeviation="2"/>
<feComposite in2="hardAlpha" operator="out"/>
<feColorMatrix type="matrix" values="0 0 0 0 0 0 0 0 0 0 0 0 0 0 0 0 0 0 0.25 0"/>
<feBlend mode="normal" in2="BackgroundImageFix" result="effect1_dropShadow_1247_8622"/>
<feBlend mode="normal" in="SourceGraphic" in2="effect1_dropShadow_1247_8622" result="shape"/>
</filter>
<filter id="filter23_d_1247_8622" x="225.621" y="150.889" width="168.336" height="216.797" filterUnits="userSpaceOnUse" color-interpolation-filters="sRGB">
<feFlood flood-opacity="0" result="BackgroundImageFix"/>
<feColorMatrix in="SourceAlpha" type="matrix" values="0 0 0 0 0 0 0 0 0 0 0 0 0 0 0 0 0 0 127 0" result="hardAlpha"/>
<feOffset dy="2"/>
<feGaussianBlur stdDeviation="2"/>
<feComposite in2="hardAlpha" operator="out"/>
<feColorMatrix type="matrix" values="0 0 0 0 0 0 0 0 0 0 0 0 0 0 0 0 0 0 0.25 0"/>
<feBlend mode="normal" in2="BackgroundImageFix" result="effect1_dropShadow_1247_8622"/>
<feBlend mode="normal" in="SourceGraphic" in2="effect1_dropShadow_1247_8622" result="shape"/>
</filter>
<filter id="filter24_d_1247_8622" x="211.621" y="171.889" width="168.336" height="216.797" filterUnits="userSpaceOnUse" color-interpolation-filters="sRGB">
<feFlood flood-opacity="0" result="BackgroundImageFix"/>
<feColorMatrix in="SourceAlpha" type="matrix" values="0 0 0 0 0 0 0 0 0 0 0 0 0 0 0 0 0 0 127 0" result="hardAlpha"/>
<feOffset dy="2"/>
<feGaussianBlur stdDeviation="2"/>
<feComposite in2="hardAlpha" operator="out"/>
<feColorMatrix type="matrix" values="0 0 0 0 0 0 0 0 0 0 0 0 0 0 0 0 0 0 0.25 0"/>
<feBlend mode="normal" in2="BackgroundImageFix" result="effect1_dropShadow_1247_8622"/>
<feBlend mode="normal" in="SourceGraphic" in2="effect1_dropShadow_1247_8622" result="shape"/>
</filter>
<filter id="filter25_d_1247_8622" x="200.305" y="195.889" width="168.336" height="216.797" filterUnits="userSpaceOnUse" color-interpolation-filters="sRGB">
<feFlood flood-opacity="0" result="BackgroundImageFix"/>
<feColorMatrix in="SourceAlpha" type="matrix" values="0 0 0 0 0 0 0 0 0 0 0 0 0 0 0 0 0 0 127 0" result="hardAlpha"/>
<feOffset dy="2"/>
<feGaussianBlur stdDeviation="2"/>
<feComposite in2="hardAlpha" operator="out"/>
<feColorMatrix type="matrix" values="0 0 0 0 0 0 0 0 0 0 0 0 0 0 0 0 0 0 0.25 0"/>
<feBlend mode="normal" in2="BackgroundImageFix" result="effect1_dropShadow_1247_8622"/>
<feBlend mode="normal" in="SourceGraphic" in2="effect1_dropShadow_1247_8622" result="shape"/>
</filter>
<filter id="filter26_d_1247_8622" x="188.621" y="217.889" width="168.336" height="216.797" filterUnits="userSpaceOnUse" color-interpolation-filters="sRGB">
<feFlood flood-opacity="0" result="BackgroundImageFix"/>
<feColorMatrix in="SourceAlpha" type="matrix" values="0 0 0 0 0 0 0 0 0 0 0 0 0 0 0 0 0 0 127 0" result="hardAlpha"/>
<feOffset dy="2"/>
<feGaussianBlur stdDeviation="2"/>
<feComposite in2="hardAlpha" operator="out"/>
<feColorMatrix type="matrix" values="0 0 0 0 0 0 0 0 0 0 0 0 0 0 0 0 0 0 0.25 0"/>
<feBlend mode="normal" in2="BackgroundImageFix" result="effect1_dropShadow_1247_8622"/>
<feBlend mode="normal" in="SourceGraphic" in2="effect1_dropShadow_1247_8622" result="shape"/>
</filter>
<filter id="filter27_d_1247_8622" x="177.621" y="240.889" width="168.336" height="216.797" filterUnits="userSpaceOnUse" color-interpolation-filters="sRGB">
<feFlood flood-opacity="0" result="BackgroundImageFix"/>
<feColorMatrix in="SourceAlpha" type="matrix" values="0 0 0 0 0 0 0 0 0 0 0 0 0 0 0 0 0 0 127 0" result="hardAlpha"/>
<feOffset dy="2"/>
<feGaussianBlur stdDeviation="2"/>
<feComposite in2="hardAlpha" operator="out"/>
<feColorMatrix type="matrix" values="0 0 0 0 0 0 0 0 0 0 0 0 0 0 0 0 0 0 0.25 0"/>
<feBlend mode="normal" in2="BackgroundImageFix" result="effect1_dropShadow_1247_8622"/>
<feBlend mode="normal" in="SourceGraphic" in2="effect1_dropShadow_1247_8622" result="shape"/>
</filter>
<filter id="filter28_d_1247_8622" x="166.621" y="263.889" width="168.336" height="216.797" filterUnits="userSpaceOnUse" color-interpolation-filters="sRGB">
<feFlood flood-opacity="0" result="BackgroundImageFix"/>
<feColorMatrix in="SourceAlpha" type="matrix" values="0 0 0 0 0 0 0 0 0 0 0 0 0 0 0 0 0 0 127 0" result="hardAlpha"/>
<feOffset dy="2"/>
<feGaussianBlur stdDeviation="2"/>
<feComposite in2="hardAlpha" operator="out"/>
<feColorMatrix type="matrix" values="0 0 0 0 0 0 0 0 0 0 0 0 0 0 0 0 0 0 0.25 0"/>
<feBlend mode="normal" in2="BackgroundImageFix" result="effect1_dropShadow_1247_8622"/>
<feBlend mode="normal" in="SourceGraphic" in2="effect1_dropShadow_1247_8622" result="shape"/>
</filter>
<filter id="filter29_d_1247_8622" x="157.621" y="296.629" width="168.336" height="216.797" filterUnits="userSpaceOnUse" color-interpolation-filters="sRGB">
<feFlood flood-opacity="0" result="BackgroundImageFix"/>
<feColorMatrix in="SourceAlpha" type="matrix" values="0 0 0 0 0 0 0 0 0 0 0 0 0 0 0 0 0 0 127 0" result="hardAlpha"/>
<feOffset dy="2"/>
<feGaussianBlur stdDeviation="2"/>
<feComposite in2="hardAlpha" operator="out"/>
<feColorMatrix type="matrix" values="0 0 0 0 0 0 0 0 0 0 0 0 0 0 0 0 0 0 0.25 0"/>
<feBlend mode="normal" in2="BackgroundImageFix" result="effect1_dropShadow_1247_8622"/>
<feBlend mode="normal" in="SourceGraphic" in2="effect1_dropShadow_1247_8622" result="shape"/>
</filter>
<filter id="filter30_d_1247_8622" x="148.621" y="320.629" width="168.336" height="216.797" filterUnits="userSpaceOnUse" color-interpolation-filters="sRGB">
<feFlood flood-opacity="0" result="BackgroundImageFix"/>
<feColorMatrix in="SourceAlpha" type="matrix" values="0 0 0 0 0 0 0 0 0 0 0 0 0 0 0 0 0 0 127 0" result="hardAlpha"/>
<feOffset dy="2"/>
<feGaussianBlur stdDeviation="2"/>
<feComposite in2="hardAlpha" operator="out"/>
<feColorMatrix type="matrix" values="0 0 0 0 0 0 0 0 0 0 0 0 0 0 0 0 0 0 0.25 0"/>
<feBlend mode="normal" in2="BackgroundImageFix" result="effect1_dropShadow_1247_8622"/>
<feBlend mode="normal" in="SourceGraphic" in2="effect1_dropShadow_1247_8622" result="shape"/>
</filter>
<filter id="filter31_d_1247_8622" x="138.621" y="344.629" width="168.336" height="216.797" filterUnits="userSpaceOnUse" color-interpolation-filters="sRGB">
<feFlood flood-opacity="0" result="BackgroundImageFix"/>
<feColorMatrix in="SourceAlpha" type="matrix" values="0 0 0 0 0 0 0 0 0 0 0 0 0 0 0 0 0 0 127 0" result="hardAlpha"/>
<feOffset dy="2"/>
<feGaussianBlur stdDeviation="2"/>
<feComposite in2="hardAlpha" operator="out"/>
<feColorMatrix type="matrix" values="0 0 0 0 0 0 0 0 0 0 0 0 0 0 0 0 0 0 0.25 0"/>
<feBlend mode="normal" in2="BackgroundImageFix" result="effect1_dropShadow_1247_8622"/>
<feBlend mode="normal" in="SourceGraphic" in2="effect1_dropShadow_1247_8622" result="shape"/>
</filter>
<filter id="filter32_d_1247_8622" x="129.621" y="359.889" width="168.336" height="216.797" filterUnits="userSpaceOnUse" color-interpolation-filters="sRGB">
<feFlood flood-opacity="0" result="BackgroundImageFix"/>
<feColorMatrix in="SourceAlpha" type="matrix" values="0 0 0 0 0 0 0 0 0 0 0 0 0 0 0 0 0 0 127 0" result="hardAlpha"/>
<feOffset dy="2"/>
<feGaussianBlur stdDeviation="2"/>
<feComposite in2="hardAlpha" operator="out"/>
<feColorMatrix type="matrix" values="0 0 0 0 0 0 0 0 0 0 0 0 0 0 0 0 0 0 0.25 0"/>
<feBlend mode="normal" in2="BackgroundImageFix" result="effect1_dropShadow_1247_8622"/>
<feBlend mode="normal" in="SourceGraphic" in2="effect1_dropShadow_1247_8622" result="shape"/>
</filter>
<filter id="filter33_d_1247_8622" x="120.621" y="383.889" width="168.336" height="216.797" filterUnits="userSpaceOnUse" color-interpolation-filters="sRGB">
<feFlood flood-opacity="0" result="BackgroundImageFix"/>
<feColorMatrix in="SourceAlpha" type="matrix" values="0 0 0 0 0 0 0 0 0 0 0 0 0 0 0 0 0 0 127 0" result="hardAlpha"/>
<feOffset dy="2"/>
<feGaussianBlur stdDeviation="2"/>
<feComposite in2="hardAlpha" operator="out"/>
<feColorMatrix type="matrix" values="0 0 0 0 0 0 0 0 0 0 0 0 0 0 0 0 0 0 0.25 0"/>
<feBlend mode="normal" in2="BackgroundImageFix" result="effect1_dropShadow_1247_8622"/>
<feBlend mode="normal" in="SourceGraphic" in2="effect1_dropShadow_1247_8622" result="shape"/>
</filter>
<filter id="filter34_d_1247_8622" x="111.621" y="407.889" width="168.336" height="216.797" filterUnits="userSpaceOnUse" color-interpolation-filters="sRGB">
<feFlood flood-opacity="0" result="BackgroundImageFix"/>
<feColorMatrix in="SourceAlpha" type="matrix" values="0 0 0 0 0 0 0 0 0 0 0 0 0 0 0 0 0 0 127 0" result="hardAlpha"/>
<feOffset dy="2"/>
<feGaussianBlur stdDeviation="2"/>
<feComposite in2="hardAlpha" operator="out"/>
<feColorMatrix type="matrix" values="0 0 0 0 0 0 0 0 0 0 0 0 0 0 0 0 0 0 0.25 0"/>
<feBlend mode="normal" in2="BackgroundImageFix" result="effect1_dropShadow_1247_8622"/>
<feBlend mode="normal" in="SourceGraphic" in2="effect1_dropShadow_1247_8622" result="shape"/>
</filter>
<filter id="filter35_d_1247_8622" x="102.621" y="432.889" width="168.336" height="216.797" filterUnits="userSpaceOnUse" color-interpolation-filters="sRGB">
<feFlood flood-opacity="0" result="BackgroundImageFix"/>
<feColorMatrix in="SourceAlpha" type="matrix" values="0 0 0 0 0 0 0 0 0 0 0 0 0 0 0 0 0 0 127 0" result="hardAlpha"/>
<feOffset dy="2"/>
<feGaussianBlur stdDeviation="2"/>
<feComposite in2="hardAlpha" operator="out"/>
<feColorMatrix type="matrix" values="0 0 0 0 0 0 0 0 0 0 0 0 0 0 0 0 0 0 0.25 0"/>
<feBlend mode="normal" in2="BackgroundImageFix" result="effect1_dropShadow_1247_8622"/>
<feBlend mode="normal" in="SourceGraphic" in2="effect1_dropShadow_1247_8622" result="shape"/>
</filter>
<filter id="filter36_d_1247_8622" x="94.6211" y="456.889" width="168.336" height="216.797" filterUnits="userSpaceOnUse" color-interpolation-filters="sRGB">
<feFlood flood-opacity="0" result="BackgroundImageFix"/>
<feColorMatrix in="SourceAlpha" type="matrix" values="0 0 0 0 0 0 0 0 0 0 0 0 0 0 0 0 0 0 127 0" result="hardAlpha"/>
<feOffset dy="2"/>
<feGaussianBlur stdDeviation="2"/>
<feComposite in2="hardAlpha" operator="out"/>
<feColorMatrix type="matrix" values="0 0 0 0 0 0 0 0 0 0 0 0 0 0 0 0 0 0 0.25 0"/>
<feBlend mode="normal" in2="BackgroundImageFix" result="effect1_dropShadow_1247_8622"/>
<feBlend mode="normal" in="SourceGraphic" in2="effect1_dropShadow_1247_8622" result="shape"/>
</filter>
<filter id="filter37_d_1247_8622" x="85.6211" y="479.889" width="168.336" height="216.797" filterUnits="userSpaceOnUse" color-interpolation-filters="sRGB">
<feFlood flood-opacity="0" result="BackgroundImageFix"/>
<feColorMatrix in="SourceAlpha" type="matrix" values="0 0 0 0 0 0 0 0 0 0 0 0 0 0 0 0 0 0 127 0" result="hardAlpha"/>
<feOffset dy="2"/>
<feGaussianBlur stdDeviation="2"/>
<feComposite in2="hardAlpha" operator="out"/>
<feColorMatrix type="matrix" values="0 0 0 0 0 0 0 0 0 0 0 0 0 0 0 0 0 0 0.25 0"/>
<feBlend mode="normal" in2="BackgroundImageFix" result="effect1_dropShadow_1247_8622"/>
<feBlend mode="normal" in="SourceGraphic" in2="effect1_dropShadow_1247_8622" result="shape"/>
</filter>
<filter id="filter38_d_1247_8622" x="75.6211" y="512.629" width="168.336" height="216.797" filterUnits="userSpaceOnUse" color-interpolation-filters="sRGB">
<feFlood flood-opacity="0" result="BackgroundImageFix"/>
<feColorMatrix in="SourceAlpha" type="matrix" values="0 0 0 0 0 0 0 0 0 0 0 0 0 0 0 0 0 0 127 0" result="hardAlpha"/>
<feOffset dy="2"/>
<feGaussianBlur stdDeviation="2"/>
<feComposite in2="hardAlpha" operator="out"/>
<feColorMatrix type="matrix" values="0 0 0 0 0 0 0 0 0 0 0 0 0 0 0 0 0 0 0.25 0"/>
<feBlend mode="normal" in2="BackgroundImageFix" result="effect1_dropShadow_1247_8622"/>
<feBlend mode="normal" in="SourceGraphic" in2="effect1_dropShadow_1247_8622" result="shape"/>
</filter>
<filter id="filter39_d_1247_8622" x="65.6211" y="536.629" width="168.336" height="216.797" filterUnits="userSpaceOnUse" color-interpolation-filters="sRGB">
<feFlood flood-opacity="0" result="BackgroundImageFix"/>
<feColorMatrix in="SourceAlpha" type="matrix" values="0 0 0 0 0 0 0 0 0 0 0 0 0 0 0 0 0 0 127 0" result="hardAlpha"/>
<feOffset dy="2"/>
<feGaussianBlur stdDeviation="2"/>
<feComposite in2="hardAlpha" operator="out"/>
<feColorMatrix type="matrix" values="0 0 0 0 0 0 0 0 0 0 0 0 0 0 0 0 0 0 0.25 0"/>
<feBlend mode="normal" in2="BackgroundImageFix" result="effect1_dropShadow_1247_8622"/>
<feBlend mode="normal" in="SourceGraphic" in2="effect1_dropShadow_1247_8622" result="shape"/>
</filter>
</defs>
</svg>
