<svg width="209" height="151" viewBox="0 0 209 151" fill="none" xmlns="http://www.w3.org/2000/svg">
<g filter="url(#filter0_d_5007_21102)">
<path d="M41.7995 44.1225C51.7377 23.7943 56.7068 13.6303 66.8081 7.78273C76.9093 1.93518 88.198 2.68776 110.775 4.19291L164.656 7.78494C187.233 9.29009 198.522 10.0427 202.448 16.8254C206.375 23.6081 201.405 33.7722 191.467 54.1003L167.75 102.613C157.812 122.941 152.843 133.105 142.741 138.953C132.64 144.8 121.351 144.048 98.7742 142.543L44.8938 138.951C22.3165 137.445 11.0278 136.693 7.10134 129.91C3.17488 123.127 8.14397 112.963 18.0822 92.6352L41.7995 44.1225Z" fill="url(#paint0_linear_5007_21102)"/>
<path d="M164.875 7.33575L168.975 7.61085C178.24 8.23958 185.429 8.80722 190.83 9.88505C197.018 11.1196 200.933 13.0353 202.956 16.5312C204.98 20.0271 204.692 24.3762 202.681 30.3563C200.675 36.3234 196.929 43.9822 191.966 54.1336L168.249 102.646C163.286 112.798 159.543 120.457 155.772 126.306C151.993 132.168 148.145 136.28 142.939 139.294C137.733 142.308 132.251 143.597 125.285 143.955C118.335 144.312 109.829 143.743 98.5546 142.992L44.6742 139.4C33.3996 138.648 24.8927 138.082 18.719 136.85C12.5319 135.616 8.61689 133.7 6.59314 130.204C4.56938 126.708 4.85777 122.359 6.86837 116.379C8.87464 110.412 12.6204 102.753 17.5833 92.6019L41.3006 44.0892C46.2635 33.9378 50.0065 26.2788 53.7772 20.4293C57.5562 14.5671 61.4042 10.4554 66.6105 7.44148C71.8169 4.42758 77.2988 3.13831 84.2643 2.78063C91.2146 2.42375 99.7203 2.99208 110.995 3.74372L164.875 7.33575Z" stroke="#020303"/>
</g>
<defs>
<filter id="filter0_d_5007_21102" x="0.665771" y="0.220703" width="208.218" height="150.293" filterUnits="userSpaceOnUse" color-interpolation-filters="sRGB">
<feFlood flood-opacity="0" result="BackgroundImageFix"/>
<feColorMatrix in="SourceAlpha" type="matrix" values="0 0 0 0 0 0 0 0 0 0 0 0 0 0 0 0 0 0 127 0" result="hardAlpha"/>
<feOffset dy="2"/>
<feGaussianBlur stdDeviation="2"/>
<feComposite in2="hardAlpha" operator="out"/>
<feColorMatrix type="matrix" values="0 0 0 0 0 0 0 0 0 0 0 0 0 0 0 0 0 0 0.25 0"/>
<feBlend mode="normal" in2="BackgroundImageFix" result="effect1_dropShadow_5007_21102"/>
<feBlend mode="normal" in="SourceGraphic" in2="effect1_dropShadow_5007_21102" result="shape"/>
</filter>
<linearGradient id="paint0_linear_5007_21102" x1="137.715" y1="5.98893" x2="128.48" y2="144.523" gradientUnits="userSpaceOnUse">
<stop stop-color="#CAEDE5"/>
<stop offset="1" stop-color="#59D0B5"/>
</linearGradient>
</defs>
</svg>
