<svg width="236" height="151" viewBox="0 0 236 151" fill="none" xmlns="http://www.w3.org/2000/svg">
<g filter="url(#filter0_d_4024_19295)">
<path d="M54.7994 44.1225C64.7376 23.7943 69.7067 13.6303 79.808 7.78273C89.9093 1.93518 101.198 2.68776 123.775 4.19291L177.656 7.78494C200.233 9.29009 211.522 10.0427 215.448 16.8254C219.375 23.6081 214.405 33.7722 204.467 54.1003L180.75 102.613C170.812 122.941 165.843 133.105 155.741 138.953C145.64 144.8 134.351 144.048 111.774 142.543L57.8937 138.951C35.3164 137.445 24.0278 136.693 20.1013 129.91C16.1748 123.127 21.1439 112.963 31.0821 92.6352L54.7994 44.1225Z" fill="#CAEDE5"/>
<path d="M177.875 7.33575L181.975 7.61085C191.24 8.23958 198.429 8.80722 203.83 9.88505C210.017 11.1196 213.932 13.0353 215.956 16.5312C217.98 20.0271 217.692 24.3762 215.681 30.3563C213.675 36.3234 209.929 43.9822 204.966 54.1336L181.249 102.646C176.286 112.798 172.543 120.457 168.772 126.306C164.993 132.168 161.145 136.28 155.939 139.294C150.733 142.308 145.251 143.597 138.285 143.955C131.335 144.312 122.829 143.743 111.554 142.992L57.6741 139.4C46.3995 138.648 37.8926 138.082 31.7189 136.85C25.5319 135.616 21.6168 133.7 19.5931 130.204C17.5693 126.708 17.8577 122.359 19.8683 116.379C21.8746 110.412 25.6203 102.753 30.5832 92.6019L54.3006 44.0892C59.2634 33.9378 63.0064 26.2788 66.7772 20.4293C70.5561 14.5671 74.4041 10.4554 79.6105 7.44148C84.8168 4.42758 90.2987 3.13831 97.2642 2.78063C104.215 2.42375 112.72 2.99208 123.995 3.74372L177.875 7.33575Z" stroke="#020303"/>
</g>
<defs>
<filter id="filter0_d_4024_19295" x="13.6656" y="0.220703" width="208.218" height="150.293" filterUnits="userSpaceOnUse" color-interpolation-filters="sRGB">
<feFlood flood-opacity="0" result="BackgroundImageFix"/>
<feColorMatrix in="SourceAlpha" type="matrix" values="0 0 0 0 0 0 0 0 0 0 0 0 0 0 0 0 0 0 127 0" result="hardAlpha"/>
<feOffset dy="2"/>
<feGaussianBlur stdDeviation="2"/>
<feComposite in2="hardAlpha" operator="out"/>
<feColorMatrix type="matrix" values="0 0 0 0 0 0 0 0 0 0 0 0 0 0 0 0 0 0 0.25 0"/>
<feBlend mode="normal" in2="BackgroundImageFix" result="effect1_dropShadow_4024_19295"/>
<feBlend mode="normal" in="SourceGraphic" in2="effect1_dropShadow_4024_19295" result="shape"/>
</filter>
</defs>
</svg>
