<svg width="571" height="625" viewBox="0 0 571 625" fill="none" xmlns="http://www.w3.org/2000/svg">
<g clip-path="url(#clip0_3768_51409)">
<path d="M489.705 714.45C489.705 714.45 506.683 308.191 372.813 236.282C207.275 147.363 80.5801 714.45 80.5801 714.45" stroke="black"/>
<path d="M521.64 633.476C536.584 633.213 549.996 642.603 554.864 656.735L576.586 719.797C581.453 733.929 576.668 749.588 564.732 758.584L511.468 798.73C499.532 807.726 483.161 808.013 470.917 799.441L416.276 761.19C404.032 752.618 398.7 737.137 403.068 722.844L422.563 659.057C426.931 644.763 440.007 634.908 454.951 634.646L521.64 633.476Z" fill="url(#paint0_linear_3768_51409)" stroke="#074139"/>
<path d="M522.05 618.925C536.994 618.663 550.407 628.052 555.274 642.184L576.996 705.247C581.864 719.378 577.078 735.037 565.143 744.033L511.878 784.179C499.943 793.175 483.571 793.462 471.327 784.891L416.687 746.639C404.442 738.067 399.11 722.587 403.479 708.293L422.973 644.506C427.341 630.213 440.417 620.357 455.361 620.095L522.05 618.925Z" fill="url(#paint1_linear_3768_51409)" stroke="#074139"/>
<path d="M522.265 604.405C537.209 604.143 550.621 613.533 555.489 627.664L577.211 690.727C582.078 704.858 577.293 720.517 565.357 729.513L512.093 769.659C500.157 778.655 483.786 778.943 471.542 770.371L416.901 732.12C404.657 723.548 399.325 708.067 403.693 693.773L423.188 629.987C427.556 615.693 440.632 605.838 455.576 605.576L522.265 604.405Z" fill="url(#paint2_linear_3768_51409)" stroke="#074139"/>
<path d="M522.335 589.276C537.279 589.014 550.692 598.404 555.559 612.535L577.281 675.598C582.149 689.729 577.363 705.388 565.428 714.385L512.163 754.53C500.228 763.526 483.857 763.814 471.612 755.242L416.972 716.991C404.728 708.419 399.395 692.938 403.764 678.644L423.258 614.858C427.626 600.564 440.702 590.709 455.646 590.447L522.335 589.276Z" fill="url(#paint3_linear_3768_51409)" stroke="#074139"/>
<path d="M522.257 573.593C537.201 573.331 550.614 582.72 555.481 596.852L577.203 659.914C582.071 674.046 577.285 689.705 565.35 698.701L512.085 738.847C500.15 747.843 483.778 748.13 471.534 739.559L416.894 701.307C404.65 692.735 399.317 677.254 403.686 662.961L423.18 599.174C427.548 584.881 440.624 575.025 455.568 574.763L522.257 573.593Z" fill="url(#paint4_linear_3768_51409)" stroke="#074139"/>
<path d="M522.05 559.066C536.994 558.803 550.407 568.193 555.274 582.325L576.996 645.387C581.864 659.519 577.078 675.177 565.143 684.174L511.878 724.319C499.943 733.316 483.571 733.603 471.327 725.031L416.687 686.78C404.442 678.208 399.11 662.727 403.479 648.433L422.973 584.647C427.341 570.353 440.417 560.498 455.361 560.236L522.05 559.066Z" fill="url(#paint5_linear_3768_51409)" stroke="#074139"/>
<path d="M521.718 544.698C536.662 544.436 550.075 553.826 554.942 567.957L576.664 631.02C581.532 645.151 576.746 660.81 564.811 669.806L511.546 709.952C499.611 718.948 483.239 719.236 470.995 710.664L416.355 672.413C404.11 663.841 398.778 648.36 403.146 634.066L422.641 570.28C427.009 555.986 440.085 546.131 455.029 545.869L521.718 544.698Z" fill="url(#paint6_linear_3768_51409)" stroke="#074139"/>
<path d="M521.206 528.691C536.15 528.428 549.563 537.818 554.43 551.95L576.152 615.012C581.02 629.144 576.234 644.802 564.299 653.799L511.035 693.944C499.099 702.941 482.728 703.228 470.484 694.656L415.843 656.405C403.599 647.833 398.266 632.352 402.635 618.058L422.129 554.272C426.498 539.978 439.573 530.123 454.517 529.861L521.206 528.691Z" fill="url(#paint7_linear_3768_51409)" stroke="#074139"/>
<path d="M520.585 513.761C535.529 513.499 548.942 522.888 553.809 537.02L575.531 600.082C580.399 614.214 575.613 629.873 563.678 638.869L510.413 679.015C498.478 688.011 482.107 688.298 469.862 679.727L415.222 641.475C402.978 632.903 397.645 617.422 402.014 603.129L421.508 539.342C425.876 525.049 438.952 515.193 453.896 514.931L520.585 513.761Z" fill="url(#paint8_linear_3768_51409)" stroke="#074139"/>
<path d="M519.765 497.753C534.709 497.491 548.121 506.881 552.989 521.012L574.711 584.075C579.578 598.206 574.793 613.865 562.857 622.861L509.593 663.007C497.657 672.003 481.286 672.29 469.042 663.719L414.401 625.467C402.157 616.896 396.825 601.415 401.193 587.121L420.688 523.334C425.056 509.041 438.132 499.186 453.076 498.923L519.765 497.753Z" fill="url(#paint9_linear_3768_51409)" stroke="#074139"/>
<path d="M518.897 483.511C533.841 483.249 547.254 492.638 552.122 506.77L573.844 569.832C578.711 583.964 573.926 599.623 561.99 608.619L508.726 648.765C496.79 657.761 480.419 658.048 468.175 649.477L413.534 611.225C401.29 602.653 395.958 587.172 400.326 572.879L419.82 509.092C424.189 494.799 437.265 484.943 452.209 484.681L518.897 483.511Z" fill="url(#paint10_linear_3768_51409)" stroke="#074139"/>
<path d="M517.839 468.601C532.783 468.338 546.196 477.728 551.063 491.86L572.785 554.922C577.653 569.054 572.867 584.713 560.932 593.709L507.667 633.855C495.732 642.851 479.361 643.138 467.116 634.566L412.476 596.315C400.232 587.743 394.899 572.262 399.268 557.969L418.762 494.182C423.13 479.888 436.206 470.033 451.15 469.771L517.839 468.601Z" fill="url(#paint11_linear_3768_51409)" stroke="#074139"/>
<path d="M516.573 453.128C531.517 452.866 544.93 462.256 549.798 476.387L571.52 539.45C576.387 553.581 571.602 569.24 559.666 578.236L506.402 618.382C494.466 627.378 478.095 627.665 465.851 619.094L411.21 580.842C398.966 572.271 393.634 556.79 398.002 542.496L417.496 478.709C421.865 464.416 434.941 454.561 449.885 454.298L516.573 453.128Z" fill="url(#paint12_linear_3768_51409)" stroke="#074139"/>
<path d="M515.081 437.206C530.025 436.944 543.438 446.334 548.305 460.465L570.027 523.528C574.895 537.659 570.109 553.318 558.174 562.314L504.91 602.46C492.974 611.456 476.603 611.743 464.359 603.172L409.718 564.92C397.474 556.349 392.141 540.868 396.51 526.574L416.004 462.787C420.373 448.494 433.448 438.639 448.392 438.376L515.081 437.206Z" fill="url(#paint13_linear_3768_51409)" stroke="#074139"/>
<path d="M513.671 423.808C528.615 423.545 542.028 432.935 546.895 447.067L568.617 510.129C573.485 524.261 568.699 539.92 556.764 548.916L503.499 589.062C491.564 598.058 475.193 598.345 462.948 589.773L408.308 551.522C396.064 542.95 390.731 527.469 395.1 513.176L414.594 449.389C418.962 435.095 432.038 425.24 446.982 424.978L513.671 423.808Z" fill="url(#paint14_linear_3768_51409)" stroke="#074139"/>
<path d="M511.722 407.316C526.666 407.053 540.079 416.443 544.946 430.575L566.668 493.637C571.536 507.769 566.75 523.427 554.814 532.424L501.55 572.569C489.614 581.566 473.243 581.853 460.999 573.281L406.358 535.03C394.114 526.458 388.782 510.977 393.15 496.683L412.645 432.897C417.013 418.603 430.089 408.748 445.033 408.486L511.722 407.316Z" fill="url(#paint15_linear_3768_51409)" stroke="#074139"/>
<path d="M509.913 393.573C524.857 393.311 538.27 402.701 543.137 416.832L564.859 479.895C569.727 494.026 564.941 509.685 553.006 518.681L499.742 558.827C487.806 567.823 471.435 568.111 459.191 559.539L404.55 521.288C392.306 512.716 386.973 497.235 391.342 482.941L410.836 419.155C415.205 404.861 428.28 395.006 443.224 394.744L509.913 393.573Z" fill="url(#paint16_linear_3768_51409)" stroke="#074139"/>
<path d="M507.46 376.89C522.404 376.627 535.817 386.017 540.684 400.149L562.406 463.211C567.274 477.343 562.488 493.002 550.553 501.998L497.288 542.144C485.353 551.14 468.982 551.427 456.737 542.856L402.097 504.604C389.853 496.032 384.52 480.551 388.889 466.258L408.383 402.471C412.751 388.178 425.827 378.322 440.771 378.06L507.46 376.89Z" fill="url(#paint17_linear_3768_51409)" stroke="#074139"/>
<path d="M505.214 363.14C520.158 362.877 533.571 372.267 538.438 386.399L560.16 449.461C565.028 463.593 560.242 479.252 548.307 488.248L495.042 528.394C483.107 537.39 466.736 537.677 454.491 529.106L399.851 490.854C387.607 482.282 382.274 466.801 386.643 452.508L406.137 388.721C410.505 374.428 423.581 364.572 438.525 364.31L505.214 363.14Z" fill="url(#paint18_linear_3768_51409)" stroke="#074139"/>
<path d="M502.772 349.499C517.716 349.237 531.129 358.627 535.997 372.758L557.719 435.821C562.586 449.952 557.801 465.611 545.865 474.607L492.601 514.753C480.665 523.749 464.294 524.036 452.05 515.465L397.409 477.213C385.165 468.642 379.833 453.161 384.201 438.867L403.695 375.08C408.064 360.787 421.14 350.932 436.084 350.669L502.772 349.499Z" fill="url(#paint19_linear_3768_51409)" stroke="#074139"/>
<path d="M499.534 333.214C514.478 332.952 527.891 342.341 532.759 356.473L554.481 419.536C559.348 433.667 554.562 449.326 542.627 458.322L489.363 498.468C477.427 507.464 461.056 507.751 448.812 499.18L394.171 460.928C381.927 452.357 376.594 436.876 380.963 422.582L400.457 358.795C404.826 344.502 417.902 334.647 432.845 334.384L499.534 333.214Z" fill="url(#paint20_linear_3768_51409)" stroke="#074139"/>
<path d="M496.643 320.05C511.587 319.788 525 329.177 529.868 343.309L551.59 406.372C556.457 420.503 551.672 436.162 539.736 445.158L486.472 485.304C474.536 494.3 458.165 494.587 445.921 486.016L391.28 447.764C379.036 439.192 373.704 423.712 378.072 409.418L397.567 345.631C401.935 331.338 415.011 321.482 429.955 321.22L496.643 320.05Z" fill="url(#paint21_linear_3768_51409)" stroke="#074139"/>
<path d="M492.862 304.48C507.806 304.217 521.219 313.607 526.087 327.739L547.809 390.801C552.676 404.933 547.891 420.592 535.955 429.588L482.691 469.734C470.755 478.73 454.384 479.017 442.14 470.445L387.499 432.194C375.255 423.622 369.923 408.141 374.291 393.848L393.785 330.061C398.154 315.767 411.23 305.912 426.174 305.65L492.862 304.48Z" fill="url(#paint22_linear_3768_51409)" stroke="#074139"/>
<path d="M488.784 289.425C503.728 289.163 517.141 298.552 522.009 312.684L543.731 375.747C548.598 389.878 543.812 405.537 531.877 414.533L478.613 454.679C466.677 463.675 450.306 463.962 438.062 455.391L383.421 417.139C371.177 408.567 365.844 393.087 370.213 378.793L389.707 315.006C394.076 300.713 407.152 290.857 422.095 290.595L488.784 289.425Z" fill="url(#paint23_linear_3768_51409)" stroke="#074139"/>
<path d="M484.425 274.98C499.369 274.717 512.782 284.107 517.649 298.239L539.371 361.301C544.239 375.433 539.453 391.092 527.518 400.088L474.253 440.234C462.318 449.23 445.946 449.517 433.702 440.945L379.062 402.694C366.817 394.122 361.485 378.641 365.854 364.348L385.348 300.561C389.716 286.267 402.792 276.412 417.736 276.15L484.425 274.98Z" fill="url(#paint24_linear_3768_51409)" stroke="#074139"/>
<path d="M479.8 261.218C494.744 260.956 508.157 270.345 513.024 284.477L534.746 347.539C539.614 361.671 534.828 377.33 522.893 386.326L469.628 426.472C457.693 435.468 441.321 435.755 429.077 427.184L374.437 388.932C362.192 380.36 356.86 364.879 361.229 350.586L380.723 286.799C385.091 272.506 398.167 262.65 413.111 262.388L479.8 261.218Z" fill="url(#paint25_linear_3768_51409)" stroke="#074139"/>
<path d="M473.964 245.823C488.908 245.561 502.321 254.951 507.188 269.082L528.91 332.145C533.778 346.276 528.992 361.935 517.057 370.931L463.792 411.077C451.857 420.073 435.486 420.361 423.241 411.789L368.601 373.538C356.357 364.966 351.024 349.485 355.393 335.191L374.887 271.405C379.255 257.111 392.331 247.256 407.275 246.994L473.964 245.823Z" fill="url(#paint26_linear_3768_51409)" stroke="#074139"/>
<path d="M467.78 231.491C482.724 231.229 496.137 240.619 501.005 254.75L522.727 317.813C527.594 331.944 522.809 347.603 510.873 356.599L457.609 396.745C445.673 405.741 429.302 406.029 417.058 397.457L362.417 359.206C350.173 350.634 344.841 335.153 349.209 320.859L368.703 257.073C373.072 242.779 386.148 232.924 401.092 232.661L467.78 231.491Z" fill="url(#paint27_linear_3768_51409)" stroke="#074139"/>
<path d="M461.28 218.3C476.224 218.038 489.637 227.427 494.505 241.559L516.227 304.622C521.094 318.753 516.309 334.412 504.373 343.408L451.109 383.554C439.173 392.55 422.802 392.837 410.558 384.266L355.917 346.014C343.673 337.442 338.341 321.962 342.709 307.668L362.203 243.881C366.572 229.588 379.648 219.732 394.592 219.47L461.28 218.3Z" fill="url(#paint28_linear_3768_51409)" stroke="#074139"/>
<path d="M454.526 206.312C469.47 206.049 482.883 215.439 487.751 229.571L509.473 292.633C514.34 306.765 509.555 322.424 497.619 331.42L444.355 371.566C432.419 380.562 416.048 380.849 403.804 372.277L349.163 334.026C336.919 325.454 331.587 309.973 335.955 295.68L355.449 231.893C359.818 217.599 372.894 207.744 387.838 207.482L454.526 206.312Z" fill="url(#paint29_linear_3768_51409)" stroke="#074139"/>
<path d="M446.272 193.726C461.216 193.463 474.629 202.853 479.497 216.985L501.219 280.047C506.086 294.179 501.301 309.838 489.365 318.834L436.101 358.98C424.165 367.976 407.794 368.263 395.55 359.691L340.909 321.44C328.665 312.868 323.333 297.387 327.701 283.094L347.195 219.307C351.564 205.013 364.64 195.158 379.584 194.896L446.272 193.726Z" fill="url(#paint30_linear_3768_51409)" stroke="#074139"/>
<path d="M436.3 181.089C451.244 180.827 464.657 190.216 469.524 204.348L491.246 267.411C496.114 281.542 491.328 297.201 479.393 306.197L426.128 346.343C414.193 355.339 397.821 355.626 385.577 347.055L330.937 308.803C318.692 300.232 313.36 284.751 317.729 270.457L337.223 206.67C341.591 192.377 354.667 182.522 369.611 182.259L436.3 181.089Z" fill="url(#paint31_linear_3768_51409)" stroke="#074139"/>
<path d="M425.87 170.417C440.814 170.155 454.227 179.545 459.094 193.676L480.817 256.739C485.684 270.87 480.898 286.529 468.963 295.525L415.699 335.671C403.763 344.667 387.392 344.954 375.148 336.383L320.507 298.131C308.263 289.56 302.93 274.079 307.299 259.785L326.793 195.998C331.162 181.705 344.237 171.85 359.181 171.587L425.87 170.417Z" fill="url(#paint32_linear_3768_51409)" stroke="#074139"/>
<path d="M413.343 160.515C428.287 160.252 441.7 169.642 446.567 183.774L468.289 246.836C473.157 260.968 468.371 276.627 456.436 285.623L403.171 325.769C391.236 334.765 374.864 335.052 362.62 326.481L307.98 288.229C295.735 279.657 290.403 264.176 294.771 249.883L314.266 186.096C318.634 171.803 331.71 161.947 346.654 161.685L413.343 160.515Z" fill="url(#paint33_linear_3768_51409)" stroke="#074139"/>
<path d="M398.944 152.448C413.888 152.186 427.301 161.576 432.169 175.707L453.891 238.77C458.758 252.901 453.973 268.56 442.037 277.556L388.773 317.702C376.837 326.698 360.466 326.986 348.222 318.414L293.581 280.163C281.337 271.591 276.005 256.11 280.373 241.816L299.867 178.03C304.236 163.736 317.312 153.881 332.256 153.619L398.944 152.448Z" fill="url(#paint34_linear_3768_51409)" stroke="#074139"/>
<path d="M385.198 147.734C400.142 147.471 413.555 156.861 418.423 170.992L440.145 234.055C445.012 248.187 440.227 263.845 428.291 272.842L375.027 312.987C363.091 321.984 346.72 322.271 334.476 313.699L279.835 275.448C267.591 266.876 262.259 251.395 266.627 237.101L286.121 173.315C290.49 159.021 303.566 149.166 318.51 148.904L385.198 147.734Z" fill="url(#paint35_linear_3768_51409)" stroke="#074139"/>
<path d="M370.311 145.851C385.255 145.588 398.668 154.978 403.536 169.11L425.258 232.172C430.125 246.304 425.34 261.963 413.404 270.959L360.14 311.105C348.204 320.101 331.833 320.388 319.589 311.816L264.948 273.565C252.704 264.993 247.372 249.512 251.74 235.219L271.235 171.432C275.603 157.138 288.679 147.283 303.623 147.021L370.311 145.851Z" fill="url(#paint36_linear_3768_51409)" stroke="#074139"/>
<path d="M355.905 147.163C370.849 146.901 384.262 156.291 389.13 170.422L410.852 233.485C415.719 247.616 410.934 263.275 398.998 272.271L345.734 312.417C333.798 321.413 317.427 321.701 305.183 313.129L250.542 274.877C238.298 266.306 232.966 250.825 237.334 236.531L256.828 172.744C261.197 158.451 274.273 148.596 289.217 148.333L355.905 147.163Z" fill="url(#paint37_linear_3768_51409)" stroke="#074139"/>
<path d="M341.468 151.55C356.412 151.288 369.825 160.677 374.692 174.809L396.414 237.872C401.282 252.003 396.496 267.662 384.561 276.658L331.296 316.804C319.361 325.8 302.989 326.087 290.745 317.516L236.105 279.264C223.86 270.692 218.528 255.212 222.896 240.918L242.391 177.131C246.759 162.838 259.835 152.982 274.779 152.72L341.468 151.55Z" fill="url(#paint38_linear_3768_51409)" stroke="#074139"/>
<path d="M326.749 159.144C341.693 158.881 355.106 168.271 359.973 182.403L381.695 245.465C386.563 259.597 381.777 275.256 369.842 284.252L316.577 324.398C304.642 333.394 288.271 333.681 276.027 325.109L221.386 286.858C209.142 278.286 203.809 262.805 208.178 248.512L227.672 184.725C232.041 170.431 245.116 160.576 260.06 160.314L326.749 159.144Z" fill="url(#paint39_linear_3768_51409)" stroke="#074139"/>
<path d="M315.55 166.999C330.494 166.737 343.907 176.127 348.774 190.258L370.496 253.321C375.364 267.452 370.578 283.111 358.643 292.107L305.378 332.253C293.443 341.249 277.071 341.536 264.827 332.965L210.187 294.713C197.942 286.142 192.61 270.661 196.979 256.367L216.473 192.58C220.841 178.287 233.917 168.432 248.861 168.169L315.55 166.999Z" fill="url(#paint40_linear_3768_51409)" stroke="#074139"/>
<path d="M303.972 177.015C318.916 176.752 332.329 186.142 337.196 200.274L358.918 263.336C363.786 277.468 359 293.127 347.064 302.123L293.8 342.269C281.864 351.265 265.493 351.552 253.249 342.981L198.608 304.729C186.364 296.157 181.032 280.676 185.4 266.383L204.895 202.596C209.263 188.303 222.339 178.447 237.283 178.185L303.972 177.015Z" fill="url(#paint41_linear_3768_51409)" stroke="#074139"/>
<path d="M293.972 187.194C308.916 186.932 322.329 196.322 327.196 210.453L348.918 273.516C353.786 287.647 349 303.306 337.064 312.303L283.8 352.448C271.864 361.444 255.493 361.732 243.249 353.16L188.608 314.909C176.364 306.337 171.032 290.856 175.4 276.562L194.895 212.776C199.263 198.482 212.339 188.627 227.283 188.365L293.972 187.194Z" fill="url(#paint42_linear_3768_51409)" stroke="#074139"/>
<path d="M283.753 199.077C298.697 198.815 312.11 208.205 316.977 222.336L338.699 285.399C343.567 299.53 338.781 315.189 326.846 324.185L273.581 364.331C261.646 373.327 245.275 373.615 233.03 365.043L178.39 326.791C166.146 318.22 160.813 302.739 165.182 288.445L184.676 224.659C189.044 210.365 202.12 200.51 217.064 200.247L283.753 199.077Z" fill="url(#paint43_linear_3768_51409)" stroke="#074139"/>
<path d="M275.175 210.183C290.119 209.92 303.532 219.31 308.399 233.442L330.121 296.504C334.989 310.636 330.203 326.295 318.268 335.291L265.003 375.437C253.068 384.433 236.696 384.72 224.452 376.148L169.812 337.897C157.567 329.325 152.235 313.844 156.604 299.551L176.098 235.764C180.466 221.47 193.542 211.615 208.486 211.353L275.175 210.183Z" fill="url(#paint44_linear_3768_51409)" stroke="#074139"/>
<path d="M266.483 222.503C281.427 222.241 294.84 231.631 299.708 245.762L321.43 308.825C326.297 322.956 321.512 338.615 309.576 347.611L256.312 387.757C244.376 396.753 228.005 397.04 215.761 388.469L161.12 350.217C148.876 341.646 143.544 326.165 147.912 311.871L167.406 248.084C171.775 233.791 184.851 223.936 199.795 223.673L266.483 222.503Z" fill="url(#paint45_linear_3768_51409)" stroke="#074139"/>
<path d="M257.741 235.98C272.685 235.717 286.098 245.107 290.966 259.239L312.688 322.301C317.555 336.433 312.77 352.092 300.834 361.088L247.57 401.234C235.634 410.23 219.263 410.517 207.019 401.945L152.378 363.694C140.134 355.122 134.801 339.641 139.17 325.348L158.664 261.561C163.033 247.267 176.109 237.412 191.052 237.15L257.741 235.98Z" fill="url(#paint46_linear_3768_51409)" stroke="#074139"/>
<path d="M249.011 250.526C263.955 250.264 277.368 259.654 282.235 273.785L303.957 336.848C308.825 350.979 304.039 366.638 292.104 375.635L238.839 415.78C226.903 424.776 210.532 425.064 198.288 416.492L143.648 378.241C131.403 369.669 126.071 354.188 130.439 339.894L149.934 276.108C154.302 261.814 167.378 251.959 182.322 251.697L249.011 250.526Z" fill="url(#paint47_linear_3768_51409)" stroke="#074139"/>
<path d="M241.956 263.066C256.9 262.803 270.313 272.193 275.18 286.325L296.902 349.387C301.77 363.519 296.984 379.177 285.049 388.174L231.785 428.319C219.849 437.316 203.478 437.603 191.234 429.031L136.593 390.78C124.349 382.208 119.016 366.727 123.385 352.433L142.879 288.647C147.248 274.353 160.323 264.498 175.267 264.236L241.956 263.066Z" fill="url(#paint48_linear_3768_51409)" stroke="#074139"/>
<path d="M234.925 276.273C249.869 276.01 263.282 285.4 268.149 299.532L289.871 362.594C294.739 376.726 289.953 392.385 278.018 401.381L224.753 441.526C212.818 450.523 196.446 450.81 184.202 442.238L129.562 403.987C117.317 395.415 111.985 379.934 116.354 365.641L135.848 301.854C140.216 287.56 153.292 277.705 168.236 277.443L234.925 276.273Z" fill="url(#paint49_linear_3768_51409)" stroke="#074139"/>
<path d="M227.948 290.081C242.892 289.819 256.305 299.209 261.173 313.34L282.895 376.403C287.762 390.534 282.977 406.193 271.041 415.189L217.777 455.335C205.841 464.331 189.47 464.618 177.226 456.047L122.585 417.795C110.341 409.224 105.009 393.743 109.377 379.449L128.871 315.662C133.24 301.369 146.316 291.514 161.26 291.251L227.948 290.081Z" fill="url(#paint50_linear_3768_51409)" stroke="#074139"/>
<path d="M222.577 301.191C237.521 300.928 250.934 310.318 255.801 324.45L277.524 387.512C282.391 401.644 277.605 417.302 265.67 426.299L212.406 466.444C200.47 475.441 184.099 475.728 171.855 467.156L117.214 428.905C104.97 420.333 99.6374 404.852 104.006 390.558L123.5 326.772C127.869 312.478 140.945 302.623 155.888 302.361L222.577 301.191Z" fill="url(#paint51_linear_3768_51409)" stroke="#074139"/>
<path d="M215.761 315.901C230.705 315.639 244.118 325.029 248.985 339.16L270.707 402.223C275.575 416.354 270.789 432.013 258.854 441.01L205.589 481.155C193.653 490.151 177.282 490.439 165.038 481.867L110.398 443.616C98.1534 435.044 92.821 419.563 97.1895 405.269L116.684 341.483C121.052 327.189 134.128 317.334 149.072 317.072L215.761 315.901Z" fill="url(#paint52_linear_3768_51409)" stroke="#074139"/>
<path d="M209.077 330.987C224.021 330.725 237.434 340.115 242.301 354.246L264.024 417.309C268.891 431.44 264.105 447.099 252.17 456.096L198.906 496.241C186.97 505.237 170.599 505.525 158.355 496.953L103.714 458.702C91.4698 450.13 86.1374 434.649 90.5059 420.355L110 356.569C114.369 342.275 127.445 332.42 142.388 332.158L209.077 330.987Z" fill="url(#paint53_linear_3768_51409)" stroke="#074139"/>
<path d="M203.952 342.999C218.896 342.737 232.309 352.127 237.176 366.258L258.899 429.321C263.766 443.452 258.98 459.111 247.045 468.107L193.781 508.253C181.845 517.249 165.474 517.536 153.23 508.965L98.589 470.713C86.3448 462.142 81.0124 446.661 85.3809 432.367L104.875 368.58C109.244 354.287 122.32 344.432 137.263 344.169L203.952 342.999Z" fill="url(#paint54_linear_3768_51409)" stroke="#074139"/>
<path d="M197.558 358.554C212.501 358.291 225.914 367.681 230.782 381.813L252.504 444.875C257.371 459.007 252.586 474.666 240.65 483.662L187.386 523.808C175.45 532.804 159.079 533.091 146.835 524.52L92.1944 486.268C79.9503 477.696 74.6179 462.215 78.9863 447.922L98.4806 384.135C102.849 369.842 115.925 359.986 130.869 359.724L197.558 358.554Z" fill="url(#paint55_linear_3768_51409)" stroke="#074139"/>
<path d="M192.679 370.831C207.623 370.569 221.036 379.959 225.903 394.09L247.625 457.153C252.493 471.284 247.707 486.943 235.771 495.939L182.507 536.085C170.571 545.081 154.2 545.368 141.956 536.797L87.3155 498.545C75.0714 489.974 69.739 474.493 74.1074 460.199L93.6017 396.412C97.9702 382.119 111.046 372.264 125.99 372.001L192.679 370.831Z" fill="url(#paint56_linear_3768_51409)" stroke="#074139"/>
<path d="M186.632 386.554C201.576 386.291 214.989 395.681 219.856 409.813L241.578 472.875C246.446 487.007 241.66 502.666 229.725 511.662L176.46 551.808C164.525 560.804 148.153 561.091 135.909 552.52L81.2686 514.268C69.0245 505.696 63.6921 490.215 68.0605 475.922L87.5548 412.135C91.9234 397.842 104.999 387.986 119.943 387.724L186.632 386.554Z" fill="url(#paint57_linear_3768_51409)" stroke="#074139"/>
<path d="M180.808 402.249C195.751 401.987 209.164 411.377 214.032 425.508L235.754 488.571C240.621 502.702 235.836 518.361 223.9 527.357L170.636 567.503C158.7 576.499 142.329 576.786 130.085 568.215L75.4444 529.963C63.2003 521.392 57.8679 505.911 62.2363 491.617L81.7306 427.83C86.0991 413.537 99.175 403.682 114.119 403.419L180.808 402.249Z" fill="url(#paint58_linear_3768_51409)" stroke="#074139"/>
<path d="M176.421 414.429C191.365 414.166 204.778 423.556 209.645 437.688L231.367 500.75C236.235 514.882 231.449 530.541 219.514 539.537L166.249 579.683C154.314 588.679 137.943 588.966 125.698 580.395L71.0577 542.143C58.8136 533.571 53.4812 518.09 57.8496 503.797L77.3439 440.01C81.7124 425.717 94.7883 415.861 109.732 415.599L176.421 414.429Z" fill="url(#paint59_linear_3768_51409)" stroke="#074139"/>
<path d="M171.03 429.823C185.974 429.561 199.387 438.951 204.255 453.082L225.977 516.145C230.844 530.276 226.059 545.935 214.123 554.931L160.859 595.077C148.923 604.073 132.552 604.361 120.308 595.789L65.6671 557.538C53.423 548.966 48.0906 533.485 52.459 519.191L71.9533 455.405C76.3218 441.111 89.3977 431.256 104.342 430.994L171.03 429.823Z" fill="url(#paint60_linear_3768_51409)" stroke="#074139"/>
<path d="M165.893 444.929C180.837 444.666 194.25 454.056 199.118 468.188L220.84 531.25C225.707 545.382 220.922 561.041 208.986 570.037L155.722 610.183C143.786 619.179 127.415 619.466 115.171 610.895L60.5304 572.643C48.2862 564.071 42.9538 548.59 47.3223 534.297L66.8166 470.51C71.1851 456.217 84.2609 446.361 99.2048 446.099L165.893 444.929Z" fill="url(#paint61_linear_3768_51409)" stroke="#074139"/>
<path d="M162.104 456.37C177.048 456.108 190.461 465.498 195.329 479.629L217.051 542.692C221.918 556.823 217.133 572.482 205.197 581.478L151.933 621.624C139.997 630.62 123.626 630.908 111.382 622.336L56.7413 584.084C44.4972 575.513 39.1648 560.032 43.5332 545.738L63.0275 481.951C67.396 467.658 80.4719 457.803 95.4158 457.54L162.104 456.37Z" fill="url(#paint62_linear_3768_51409)" stroke="#074139"/>
<path d="M156.44 473.933C171.384 473.67 184.797 483.06 189.665 497.192L211.387 560.254C216.254 574.386 211.469 590.045 199.533 599.041L146.269 639.187C134.333 648.183 117.962 648.47 105.718 639.898L51.0772 601.647C38.8331 593.075 33.5007 577.594 37.8691 563.301L57.3634 499.514C61.732 485.22 74.8078 475.365 89.7517 475.103L156.44 473.933Z" fill="url(#paint63_linear_3768_51409)" stroke="#074139"/>
<path d="M152.143 487.644C167.087 487.381 180.5 496.771 185.368 510.903L207.09 573.965C211.957 588.097 207.172 603.756 195.236 612.752L141.972 652.898C130.036 661.894 113.665 662.181 101.421 653.609L46.7804 615.358C34.5362 606.786 29.2038 591.305 33.5723 577.012L53.0666 513.225C57.4351 498.931 70.5109 489.076 85.4548 488.814L152.143 487.644Z" fill="url(#paint64_linear_3768_51409)" stroke="#074139"/>
<path d="M148.143 500.71C163.087 500.448 176.5 509.838 181.368 523.969L203.09 587.032C207.957 601.163 203.172 616.822 191.236 625.818L137.972 665.964C126.036 674.96 109.665 675.247 97.421 666.676L42.7804 628.424C30.5362 619.853 25.2038 604.372 29.5723 590.078L49.0666 526.291C53.4351 511.998 66.5109 502.143 81.4548 501.88L148.143 500.71Z" fill="url(#paint65_linear_3768_51409)" stroke="#074139"/>
<path d="M143.577 516.011C158.521 515.749 171.934 525.138 176.801 539.27L198.524 602.332C203.391 616.464 198.605 632.123 186.67 641.119L133.406 681.265C121.47 690.261 105.099 690.548 92.8546 681.977L38.214 643.725C25.9698 635.153 20.6374 619.672 25.0059 605.379L44.5002 541.592C48.8687 527.299 61.9445 517.443 76.8884 517.181L143.577 516.011Z" fill="url(#paint66_linear_3768_51409)" stroke="#074139"/>
<path d="M139.433 530.253C154.376 529.991 167.789 539.381 172.657 553.512L194.379 616.575C199.246 630.706 194.461 646.365 182.525 655.361L129.261 695.507C117.325 704.503 100.954 704.79 88.7101 696.219L34.0694 657.967C21.8253 649.396 16.4929 633.915 20.8613 619.621L40.3556 555.834C44.7241 541.541 57.8 531.686 72.7439 531.423L139.433 530.253Z" fill="url(#paint67_linear_3768_51409)" stroke="#074139"/>
<path d="M134.968 546.011C149.912 545.749 163.325 555.138 168.192 569.27L189.914 632.332C194.782 646.464 189.996 662.123 178.061 671.119L124.796 711.265C112.861 720.261 96.4894 720.548 84.2453 711.977L29.6046 673.725C17.3605 665.153 12.0281 649.672 16.3965 635.379L35.8908 571.592C40.2593 557.299 53.3352 547.443 68.279 547.181L134.968 546.011Z" fill="url(#paint68_linear_3768_51409)" stroke="#074139"/>
<path d="M131.069 560.128C146.013 559.866 159.426 569.256 164.294 583.387L186.016 646.45C190.883 660.581 186.098 676.24 174.162 685.236L120.898 725.382C108.962 734.378 92.591 734.665 80.3468 726.094L25.7061 687.842C13.462 679.271 8.12962 663.79 12.498 649.496L31.9923 585.709C36.3609 571.416 49.4367 561.561 64.3806 561.298L131.069 560.128Z" fill="url(#paint69_linear_3768_51409)" stroke="#074139"/>
<path d="M127.136 574.749C142.08 574.487 155.493 583.877 160.36 598.008L182.082 661.071C186.95 675.202 182.164 690.861 170.229 699.857L116.964 740.003C105.028 748.999 88.6574 749.286 76.4132 740.715L21.7726 702.463C9.52842 693.892 4.19603 678.411 8.56445 664.117L28.0587 600.33C32.4273 586.037 45.5031 576.182 60.447 575.919L127.136 574.749Z" fill="url(#paint70_linear_3768_51409)" stroke="#074139"/>
<path d="M123.405 589.003C138.349 588.741 151.762 598.131 156.63 612.262L178.352 675.325C183.219 689.456 178.434 705.115 166.498 714.111L113.234 754.257C101.298 763.253 84.9269 763.54 72.6828 754.969L18.0421 716.717C5.79795 708.146 0.465562 692.665 4.83398 678.371L24.3283 614.584C28.6968 600.291 41.7727 590.436 56.7165 590.173L123.405 589.003Z" fill="url(#paint71_linear_3768_51409)" stroke="#074139"/>
<path d="M119.702 603.566C134.646 603.303 148.059 612.693 152.926 626.825L174.649 689.887C179.516 704.019 174.73 719.677 162.795 728.674L109.531 768.819C97.5949 777.816 81.2238 778.103 68.9796 769.531L14.339 731.28C2.09483 722.708 -3.23756 707.227 1.13086 692.933L20.6252 629.147C24.9937 614.853 38.0695 604.998 53.0134 604.736L119.702 603.566Z" fill="url(#paint72_linear_3768_51409)" stroke="#074139"/>
<path d="M115.725 619.776C130.669 619.514 144.082 628.904 148.95 643.035L170.672 706.098C175.539 720.229 170.754 735.888 158.818 744.885L105.554 785.03C93.6183 794.026 77.2472 794.314 65.0031 785.742L10.3624 747.491C-1.88173 738.919 -7.21413 723.438 -2.84571 709.144L16.6486 645.358C21.0171 631.064 34.093 621.209 49.0369 620.947L115.725 619.776Z" fill="url(#paint73_linear_3768_51409)" stroke="#074139"/>
<path d="M112.518 633.464C127.462 633.202 140.875 642.591 145.743 656.723L167.465 719.786C172.332 733.917 167.547 749.576 155.611 758.572L102.347 798.718C90.4113 807.714 74.0402 808.001 61.796 799.43L7.15537 761.178C-5.08877 752.607 -10.4212 737.126 -6.05274 722.832L13.4416 659.045C17.8101 644.752 30.8859 634.897 45.8298 634.634L112.518 633.464Z" fill="url(#paint74_linear_3768_51409)" stroke="#074139"/>
</g>
<defs>
<linearGradient id="paint0_linear_3768_51409" x1="537.522" y1="636.737" x2="443.412" y2="780.579" gradientUnits="userSpaceOnUse">
<stop stop-color="#CAEDE5"/>
<stop offset="1" stop-color="#59D0B5"/>
</linearGradient>
<linearGradient id="paint1_linear_3768_51409" x1="537.932" y1="622.187" x2="443.822" y2="766.029" gradientUnits="userSpaceOnUse">
<stop stop-color="#CAEDE5"/>
<stop offset="1" stop-color="#59D0B5"/>
</linearGradient>
<linearGradient id="paint2_linear_3768_51409" x1="538.147" y1="607.667" x2="444.037" y2="751.509" gradientUnits="userSpaceOnUse">
<stop stop-color="#CAEDE5"/>
<stop offset="1" stop-color="#59D0B5"/>
</linearGradient>
<linearGradient id="paint3_linear_3768_51409" x1="538.217" y1="592.538" x2="444.108" y2="736.38" gradientUnits="userSpaceOnUse">
<stop stop-color="#CAEDE5"/>
<stop offset="1" stop-color="#59D0B5"/>
</linearGradient>
<linearGradient id="paint4_linear_3768_51409" x1="538.139" y1="576.855" x2="444.029" y2="720.697" gradientUnits="userSpaceOnUse">
<stop stop-color="#CAEDE5"/>
<stop offset="1" stop-color="#59D0B5"/>
</linearGradient>
<linearGradient id="paint5_linear_3768_51409" x1="537.932" y1="562.327" x2="443.822" y2="706.169" gradientUnits="userSpaceOnUse">
<stop stop-color="#CAEDE5"/>
<stop offset="1" stop-color="#59D0B5"/>
</linearGradient>
<linearGradient id="paint6_linear_3768_51409" x1="537.6" y1="547.96" x2="443.49" y2="691.802" gradientUnits="userSpaceOnUse">
<stop stop-color="#CAEDE5"/>
<stop offset="1" stop-color="#59D0B5"/>
</linearGradient>
<linearGradient id="paint7_linear_3768_51409" x1="537.088" y1="531.952" x2="442.979" y2="675.794" gradientUnits="userSpaceOnUse">
<stop stop-color="#CAEDE5"/>
<stop offset="1" stop-color="#59D0B5"/>
</linearGradient>
<linearGradient id="paint8_linear_3768_51409" x1="536.467" y1="517.023" x2="442.358" y2="660.864" gradientUnits="userSpaceOnUse">
<stop stop-color="#CAEDE5"/>
<stop offset="1" stop-color="#59D0B5"/>
</linearGradient>
<linearGradient id="paint9_linear_3768_51409" x1="535.647" y1="501.015" x2="441.537" y2="644.857" gradientUnits="userSpaceOnUse">
<stop stop-color="#CAEDE5"/>
<stop offset="1" stop-color="#59D0B5"/>
</linearGradient>
<linearGradient id="paint10_linear_3768_51409" x1="534.78" y1="486.773" x2="440.67" y2="630.614" gradientUnits="userSpaceOnUse">
<stop stop-color="#CAEDE5"/>
<stop offset="1" stop-color="#59D0B5"/>
</linearGradient>
<linearGradient id="paint11_linear_3768_51409" x1="533.721" y1="471.862" x2="439.611" y2="615.704" gradientUnits="userSpaceOnUse">
<stop stop-color="#CAEDE5"/>
<stop offset="1" stop-color="#59D0B5"/>
</linearGradient>
<linearGradient id="paint12_linear_3768_51409" x1="532.455" y1="456.39" x2="438.346" y2="600.232" gradientUnits="userSpaceOnUse">
<stop stop-color="#CAEDE5"/>
<stop offset="1" stop-color="#59D0B5"/>
</linearGradient>
<linearGradient id="paint13_linear_3768_51409" x1="530.963" y1="440.468" x2="436.854" y2="584.31" gradientUnits="userSpaceOnUse">
<stop stop-color="#CAEDE5"/>
<stop offset="1" stop-color="#59D0B5"/>
</linearGradient>
<linearGradient id="paint14_linear_3768_51409" x1="529.553" y1="427.069" x2="435.443" y2="570.911" gradientUnits="userSpaceOnUse">
<stop stop-color="#CAEDE5"/>
<stop offset="1" stop-color="#59D0B5"/>
</linearGradient>
<linearGradient id="paint15_linear_3768_51409" x1="527.604" y1="410.577" x2="433.494" y2="554.419" gradientUnits="userSpaceOnUse">
<stop stop-color="#CAEDE5"/>
<stop offset="1" stop-color="#59D0B5"/>
</linearGradient>
<linearGradient id="paint16_linear_3768_51409" x1="525.795" y1="396.835" x2="431.686" y2="540.677" gradientUnits="userSpaceOnUse">
<stop stop-color="#CAEDE5"/>
<stop offset="1" stop-color="#59D0B5"/>
</linearGradient>
<linearGradient id="paint17_linear_3768_51409" x1="523.342" y1="380.151" x2="429.233" y2="523.993" gradientUnits="userSpaceOnUse">
<stop stop-color="#CAEDE5"/>
<stop offset="1" stop-color="#59D0B5"/>
</linearGradient>
<linearGradient id="paint18_linear_3768_51409" x1="521.096" y1="366.401" x2="426.986" y2="510.243" gradientUnits="userSpaceOnUse">
<stop stop-color="#CAEDE5"/>
<stop offset="1" stop-color="#59D0B5"/>
</linearGradient>
<linearGradient id="paint19_linear_3768_51409" x1="518.655" y1="352.761" x2="424.545" y2="496.603" gradientUnits="userSpaceOnUse">
<stop stop-color="#CAEDE5"/>
<stop offset="1" stop-color="#59D0B5"/>
</linearGradient>
<linearGradient id="paint20_linear_3768_51409" x1="515.416" y1="336.476" x2="421.307" y2="480.318" gradientUnits="userSpaceOnUse">
<stop stop-color="#CAEDE5"/>
<stop offset="1" stop-color="#59D0B5"/>
</linearGradient>
<linearGradient id="paint21_linear_3768_51409" x1="512.526" y1="323.312" x2="418.416" y2="467.154" gradientUnits="userSpaceOnUse">
<stop stop-color="#CAEDE5"/>
<stop offset="1" stop-color="#59D0B5"/>
</linearGradient>
<linearGradient id="paint22_linear_3768_51409" x1="508.744" y1="307.741" x2="414.635" y2="451.583" gradientUnits="userSpaceOnUse">
<stop stop-color="#CAEDE5"/>
<stop offset="1" stop-color="#59D0B5"/>
</linearGradient>
<linearGradient id="paint23_linear_3768_51409" x1="504.666" y1="292.687" x2="410.557" y2="436.529" gradientUnits="userSpaceOnUse">
<stop stop-color="#CAEDE5"/>
<stop offset="1" stop-color="#59D0B5"/>
</linearGradient>
<linearGradient id="paint24_linear_3768_51409" x1="500.307" y1="278.241" x2="406.197" y2="422.083" gradientUnits="userSpaceOnUse">
<stop stop-color="#CAEDE5"/>
<stop offset="1" stop-color="#59D0B5"/>
</linearGradient>
<linearGradient id="paint25_linear_3768_51409" x1="495.682" y1="264.48" x2="401.572" y2="408.322" gradientUnits="userSpaceOnUse">
<stop stop-color="#CAEDE5"/>
<stop offset="1" stop-color="#59D0B5"/>
</linearGradient>
<linearGradient id="paint26_linear_3768_51409" x1="489.846" y1="249.085" x2="395.736" y2="392.927" gradientUnits="userSpaceOnUse">
<stop stop-color="#CAEDE5"/>
<stop offset="1" stop-color="#59D0B5"/>
</linearGradient>
<linearGradient id="paint27_linear_3768_51409" x1="483.662" y1="234.753" x2="389.553" y2="378.595" gradientUnits="userSpaceOnUse">
<stop stop-color="#CAEDE5"/>
<stop offset="1" stop-color="#59D0B5"/>
</linearGradient>
<linearGradient id="paint28_linear_3768_51409" x1="477.162" y1="221.562" x2="383.053" y2="365.404" gradientUnits="userSpaceOnUse">
<stop stop-color="#CAEDE5"/>
<stop offset="1" stop-color="#59D0B5"/>
</linearGradient>
<linearGradient id="paint29_linear_3768_51409" x1="470.408" y1="209.573" x2="376.299" y2="353.415" gradientUnits="userSpaceOnUse">
<stop stop-color="#CAEDE5"/>
<stop offset="1" stop-color="#59D0B5"/>
</linearGradient>
<linearGradient id="paint30_linear_3768_51409" x1="462.155" y1="196.987" x2="368.045" y2="340.829" gradientUnits="userSpaceOnUse">
<stop stop-color="#CAEDE5"/>
<stop offset="1" stop-color="#59D0B5"/>
</linearGradient>
<linearGradient id="paint31_linear_3768_51409" x1="452.182" y1="184.351" x2="358.072" y2="328.193" gradientUnits="userSpaceOnUse">
<stop stop-color="#CAEDE5"/>
<stop offset="1" stop-color="#59D0B5"/>
</linearGradient>
<linearGradient id="paint32_linear_3768_51409" x1="441.752" y1="173.679" x2="347.643" y2="317.521" gradientUnits="userSpaceOnUse">
<stop stop-color="#CAEDE5"/>
<stop offset="1" stop-color="#59D0B5"/>
</linearGradient>
<linearGradient id="paint33_linear_3768_51409" x1="429.225" y1="163.776" x2="335.115" y2="307.618" gradientUnits="userSpaceOnUse">
<stop stop-color="#CAEDE5"/>
<stop offset="1" stop-color="#59D0B5"/>
</linearGradient>
<linearGradient id="paint34_linear_3768_51409" x1="414.826" y1="155.71" x2="320.717" y2="299.552" gradientUnits="userSpaceOnUse">
<stop stop-color="#CAEDE5"/>
<stop offset="1" stop-color="#59D0B5"/>
</linearGradient>
<linearGradient id="paint35_linear_3768_51409" x1="401.08" y1="150.995" x2="306.971" y2="294.837" gradientUnits="userSpaceOnUse">
<stop stop-color="#CAEDE5"/>
<stop offset="1" stop-color="#59D0B5"/>
</linearGradient>
<linearGradient id="paint36_linear_3768_51409" x1="386.194" y1="149.112" x2="292.084" y2="292.954" gradientUnits="userSpaceOnUse">
<stop stop-color="#CAEDE5"/>
<stop offset="1" stop-color="#59D0B5"/>
</linearGradient>
<linearGradient id="paint37_linear_3768_51409" x1="371.787" y1="150.425" x2="277.678" y2="294.267" gradientUnits="userSpaceOnUse">
<stop stop-color="#CAEDE5"/>
<stop offset="1" stop-color="#59D0B5"/>
</linearGradient>
<linearGradient id="paint38_linear_3768_51409" x1="357.35" y1="154.812" x2="263.24" y2="298.654" gradientUnits="userSpaceOnUse">
<stop stop-color="#CAEDE5"/>
<stop offset="1" stop-color="#59D0B5"/>
</linearGradient>
<linearGradient id="paint39_linear_3768_51409" x1="342.631" y1="162.405" x2="248.522" y2="306.247" gradientUnits="userSpaceOnUse">
<stop stop-color="#CAEDE5"/>
<stop offset="1" stop-color="#59D0B5"/>
</linearGradient>
<linearGradient id="paint40_linear_3768_51409" x1="331.432" y1="170.261" x2="237.322" y2="314.103" gradientUnits="userSpaceOnUse">
<stop stop-color="#CAEDE5"/>
<stop offset="1" stop-color="#59D0B5"/>
</linearGradient>
<linearGradient id="paint41_linear_3768_51409" x1="319.854" y1="180.276" x2="225.744" y2="324.118" gradientUnits="userSpaceOnUse">
<stop stop-color="#CAEDE5"/>
<stop offset="1" stop-color="#59D0B5"/>
</linearGradient>
<linearGradient id="paint42_linear_3768_51409" x1="309.854" y1="190.456" x2="215.744" y2="334.298" gradientUnits="userSpaceOnUse">
<stop stop-color="#CAEDE5"/>
<stop offset="1" stop-color="#59D0B5"/>
</linearGradient>
<linearGradient id="paint43_linear_3768_51409" x1="299.635" y1="202.339" x2="205.525" y2="346.181" gradientUnits="userSpaceOnUse">
<stop stop-color="#CAEDE5"/>
<stop offset="1" stop-color="#59D0B5"/>
</linearGradient>
<linearGradient id="paint44_linear_3768_51409" x1="291.057" y1="213.444" x2="196.947" y2="357.286" gradientUnits="userSpaceOnUse">
<stop stop-color="#CAEDE5"/>
<stop offset="1" stop-color="#59D0B5"/>
</linearGradient>
<linearGradient id="paint45_linear_3768_51409" x1="282.365" y1="225.765" x2="188.256" y2="369.607" gradientUnits="userSpaceOnUse">
<stop stop-color="#CAEDE5"/>
<stop offset="1" stop-color="#59D0B5"/>
</linearGradient>
<linearGradient id="paint46_linear_3768_51409" x1="273.623" y1="239.241" x2="179.514" y2="383.083" gradientUnits="userSpaceOnUse">
<stop stop-color="#CAEDE5"/>
<stop offset="1" stop-color="#59D0B5"/>
</linearGradient>
<linearGradient id="paint47_linear_3768_51409" x1="264.893" y1="253.788" x2="170.783" y2="397.63" gradientUnits="userSpaceOnUse">
<stop stop-color="#CAEDE5"/>
<stop offset="1" stop-color="#59D0B5"/>
</linearGradient>
<linearGradient id="paint48_linear_3768_51409" x1="257.838" y1="266.327" x2="163.729" y2="410.169" gradientUnits="userSpaceOnUse">
<stop stop-color="#CAEDE5"/>
<stop offset="1" stop-color="#59D0B5"/>
</linearGradient>
<linearGradient id="paint49_linear_3768_51409" x1="250.807" y1="279.534" x2="156.697" y2="423.376" gradientUnits="userSpaceOnUse">
<stop stop-color="#CAEDE5"/>
<stop offset="1" stop-color="#59D0B5"/>
</linearGradient>
<linearGradient id="paint50_linear_3768_51409" x1="243.83" y1="293.343" x2="149.721" y2="437.185" gradientUnits="userSpaceOnUse">
<stop stop-color="#CAEDE5"/>
<stop offset="1" stop-color="#59D0B5"/>
</linearGradient>
<linearGradient id="paint51_linear_3768_51409" x1="238.459" y1="304.452" x2="144.35" y2="448.294" gradientUnits="userSpaceOnUse">
<stop stop-color="#CAEDE5"/>
<stop offset="1" stop-color="#59D0B5"/>
</linearGradient>
<linearGradient id="paint52_linear_3768_51409" x1="231.643" y1="319.163" x2="137.533" y2="463.005" gradientUnits="userSpaceOnUse">
<stop stop-color="#CAEDE5"/>
<stop offset="1" stop-color="#59D0B5"/>
</linearGradient>
<linearGradient id="paint53_linear_3768_51409" x1="224.959" y1="334.249" x2="130.85" y2="478.091" gradientUnits="userSpaceOnUse">
<stop stop-color="#CAEDE5"/>
<stop offset="1" stop-color="#59D0B5"/>
</linearGradient>
<linearGradient id="paint54_linear_3768_51409" x1="219.834" y1="346.261" x2="125.725" y2="490.103" gradientUnits="userSpaceOnUse">
<stop stop-color="#CAEDE5"/>
<stop offset="1" stop-color="#59D0B5"/>
</linearGradient>
<linearGradient id="paint55_linear_3768_51409" x1="213.44" y1="361.816" x2="119.33" y2="505.657" gradientUnits="userSpaceOnUse">
<stop stop-color="#CAEDE5"/>
<stop offset="1" stop-color="#59D0B5"/>
</linearGradient>
<linearGradient id="paint56_linear_3768_51409" x1="208.561" y1="374.093" x2="114.451" y2="517.935" gradientUnits="userSpaceOnUse">
<stop stop-color="#CAEDE5"/>
<stop offset="1" stop-color="#59D0B5"/>
</linearGradient>
<linearGradient id="paint57_linear_3768_51409" x1="202.514" y1="389.816" x2="108.404" y2="533.657" gradientUnits="userSpaceOnUse">
<stop stop-color="#CAEDE5"/>
<stop offset="1" stop-color="#59D0B5"/>
</linearGradient>
<linearGradient id="paint58_linear_3768_51409" x1="196.69" y1="405.511" x2="102.58" y2="549.353" gradientUnits="userSpaceOnUse">
<stop stop-color="#CAEDE5"/>
<stop offset="1" stop-color="#59D0B5"/>
</linearGradient>
<linearGradient id="paint59_linear_3768_51409" x1="192.303" y1="417.691" x2="98.1935" y2="561.532" gradientUnits="userSpaceOnUse">
<stop stop-color="#CAEDE5"/>
<stop offset="1" stop-color="#59D0B5"/>
</linearGradient>
<linearGradient id="paint60_linear_3768_51409" x1="186.912" y1="433.085" x2="92.8028" y2="576.927" gradientUnits="userSpaceOnUse">
<stop stop-color="#CAEDE5"/>
<stop offset="1" stop-color="#59D0B5"/>
</linearGradient>
<linearGradient id="paint61_linear_3768_51409" x1="181.776" y1="448.191" x2="87.6661" y2="592.032" gradientUnits="userSpaceOnUse">
<stop stop-color="#CAEDE5"/>
<stop offset="1" stop-color="#59D0B5"/>
</linearGradient>
<linearGradient id="paint62_linear_3768_51409" x1="177.987" y1="459.632" x2="83.8771" y2="603.474" gradientUnits="userSpaceOnUse">
<stop stop-color="#CAEDE5"/>
<stop offset="1" stop-color="#59D0B5"/>
</linearGradient>
<linearGradient id="paint63_linear_3768_51409" x1="172.322" y1="477.194" x2="78.213" y2="621.036" gradientUnits="userSpaceOnUse">
<stop stop-color="#CAEDE5"/>
<stop offset="1" stop-color="#59D0B5"/>
</linearGradient>
<linearGradient id="paint64_linear_3768_51409" x1="168.026" y1="490.905" x2="73.9161" y2="634.747" gradientUnits="userSpaceOnUse">
<stop stop-color="#CAEDE5"/>
<stop offset="1" stop-color="#59D0B5"/>
</linearGradient>
<linearGradient id="paint65_linear_3768_51409" x1="164.026" y1="503.972" x2="69.9161" y2="647.814" gradientUnits="userSpaceOnUse">
<stop stop-color="#CAEDE5"/>
<stop offset="1" stop-color="#59D0B5"/>
</linearGradient>
<linearGradient id="paint66_linear_3768_51409" x1="159.459" y1="519.273" x2="65.3497" y2="663.114" gradientUnits="userSpaceOnUse">
<stop stop-color="#CAEDE5"/>
<stop offset="1" stop-color="#59D0B5"/>
</linearGradient>
<linearGradient id="paint67_linear_3768_51409" x1="155.315" y1="533.515" x2="61.2052" y2="677.357" gradientUnits="userSpaceOnUse">
<stop stop-color="#CAEDE5"/>
<stop offset="1" stop-color="#59D0B5"/>
</linearGradient>
<linearGradient id="paint68_linear_3768_51409" x1="150.85" y1="549.273" x2="56.7403" y2="693.114" gradientUnits="userSpaceOnUse">
<stop stop-color="#CAEDE5"/>
<stop offset="1" stop-color="#59D0B5"/>
</linearGradient>
<linearGradient id="paint69_linear_3768_51409" x1="146.951" y1="563.39" x2="52.8419" y2="707.232" gradientUnits="userSpaceOnUse">
<stop stop-color="#CAEDE5"/>
<stop offset="1" stop-color="#59D0B5"/>
</linearGradient>
<linearGradient id="paint70_linear_3768_51409" x1="143.018" y1="578.011" x2="48.9083" y2="721.853" gradientUnits="userSpaceOnUse">
<stop stop-color="#CAEDE5"/>
<stop offset="1" stop-color="#59D0B5"/>
</linearGradient>
<linearGradient id="paint71_linear_3768_51409" x1="139.287" y1="592.265" x2="45.1778" y2="736.107" gradientUnits="userSpaceOnUse">
<stop stop-color="#CAEDE5"/>
<stop offset="1" stop-color="#59D0B5"/>
</linearGradient>
<linearGradient id="paint72_linear_3768_51409" x1="135.584" y1="606.827" x2="41.4747" y2="750.669" gradientUnits="userSpaceOnUse">
<stop stop-color="#CAEDE5"/>
<stop offset="1" stop-color="#59D0B5"/>
</linearGradient>
<linearGradient id="paint73_linear_3768_51409" x1="131.608" y1="623.038" x2="37.4982" y2="766.88" gradientUnits="userSpaceOnUse">
<stop stop-color="#CAEDE5"/>
<stop offset="1" stop-color="#59D0B5"/>
</linearGradient>
<linearGradient id="paint74_linear_3768_51409" x1="128.401" y1="636.726" x2="34.2911" y2="780.568" gradientUnits="userSpaceOnUse">
<stop stop-color="#CAEDE5"/>
<stop offset="1" stop-color="#59D0B5"/>
</linearGradient>
<clipPath id="clip0_3768_51409">
<rect width="571" height="624" fill="white" transform="translate(0 0.554688)"/>
</clipPath>
</defs>
</svg>
