<svg xmlns="http://www.w3.org/2000/svg" width="21" height="22" viewBox="0 0 21 22" fill="none">
  <path d="M20.2748 11.9173V10.084H19.3581V9.16732H18.4414V8.25065H17.5248V7.33399H16.6081V6.41732H15.6914V5.50065H14.7748V4.58398H13.8581V3.66732H12.9414V2.75065H12.0248V1.83398H11.1081V0.917318H10.1914V1.83398H9.27478V2.75065H8.35811V3.66732H9.27478V4.58398H10.1914V5.50065H11.1081V6.41732H12.0248L12.0248 7.33399H12.9414V8.25065H13.8581V9.16732H0.108114V12.834H13.8581V13.7507H12.9414V14.6673H12.0248V15.584H11.1081V16.5007H10.1914V17.4173H9.27478V18.334H8.35811V19.2507H9.27478V20.1673H10.1914V21.084H11.1081V20.1673H12.0248V19.2507H12.9414V18.334H13.8581V17.4173H14.7748V16.5007H15.6914V15.584H16.6081V14.6673H17.5248V13.7507H18.4414V12.834H19.3581V11.9173H20.2748Z" fill="#CAEDE5"/>
</svg>