<svg width="1119" height="1460" viewBox="0 0 1119 1460" fill="none" xmlns="http://www.w3.org/2000/svg">
<g opacity="0.3">
<path d="M345.584 1496.09C360.448 1494.53 374.628 1502.71 380.707 1516.37L419.79 1604.15C425.869 1617.8 422.465 1633.82 411.358 1643.82L339.95 1708.11C328.843 1718.11 312.559 1719.83 299.615 1712.35L216.4 1664.31C203.456 1656.84 196.797 1641.88 199.904 1627.26L219.882 1533.27C222.989 1518.65 235.157 1507.69 250.021 1506.13L345.584 1496.09Z" fill="url(#paint0_linear_4314_20633)" stroke="#074139"/>
<path d="M365.207 1475.03C380.072 1473.47 394.251 1481.66 400.33 1495.31L439.413 1583.09C445.492 1596.75 442.088 1612.76 430.981 1622.76L359.573 1687.06C348.466 1697.06 332.182 1698.77 319.238 1691.3L236.024 1643.26C223.08 1635.78 216.42 1620.82 219.528 1606.2L239.505 1512.22C242.613 1497.6 254.781 1486.64 269.645 1485.08L365.207 1475.03Z" fill="url(#paint1_linear_4314_20633)" stroke="#074139"/>
<path d="M385.647 1453.75C400.511 1452.19 414.691 1460.37 420.77 1474.03L459.853 1561.81C465.932 1575.46 462.528 1591.48 451.421 1601.48L380.013 1665.78C368.906 1675.78 352.622 1677.49 339.678 1670.01L256.463 1621.97C243.519 1614.5 236.86 1599.54 239.967 1584.92L259.945 1490.93C263.052 1476.31 275.22 1465.36 290.084 1463.79L385.647 1453.75Z" fill="url(#paint2_linear_4314_20633)" stroke="#074139"/>
<path d="M406.206 1432.62C421.071 1431.06 435.25 1439.25 441.329 1452.9L480.412 1540.68C486.491 1554.34 483.087 1570.35 471.981 1580.35L400.572 1644.65C389.465 1654.65 373.181 1656.36 360.237 1648.89L277.023 1600.84C264.079 1593.37 257.419 1578.41 260.527 1563.79L280.504 1469.8C283.612 1455.18 295.78 1444.23 310.644 1442.67L406.206 1432.62Z" fill="url(#paint3_linear_4314_20633)" stroke="#074139"/>
<path d="M426.764 1411.9C441.628 1410.34 455.808 1418.53 461.887 1432.18L500.97 1519.96C507.049 1533.62 503.645 1549.63 492.538 1559.63L421.13 1623.93C410.023 1633.93 393.739 1635.64 380.795 1628.17L297.58 1580.12C284.637 1572.65 277.977 1557.69 281.084 1543.07L301.062 1449.08C304.17 1434.46 316.338 1423.51 331.202 1421.95L426.764 1411.9Z" fill="url(#paint4_linear_4314_20633)" stroke="#074139"/>
<path d="M447.754 1391.66C462.619 1390.1 476.798 1398.29 482.877 1411.94L521.96 1499.72C528.039 1513.38 524.635 1529.39 513.528 1539.39L442.12 1603.69C431.013 1613.69 414.729 1615.4 401.785 1607.93L318.571 1559.88C305.627 1552.41 298.967 1537.45 302.075 1522.83L322.052 1428.84C325.16 1414.23 337.328 1403.27 352.192 1401.71L447.754 1391.66Z" fill="url(#paint5_linear_4314_20633)" stroke="#074139"/>
<path d="M469.221 1372.38C484.085 1370.82 498.265 1379.01 504.344 1392.66L543.427 1480.44C549.506 1494.1 546.102 1510.11 534.995 1520.11L463.587 1584.41C452.48 1594.41 436.196 1596.12 423.252 1588.65L340.037 1540.6C327.094 1533.13 320.434 1518.17 323.541 1503.55L343.519 1409.56C346.627 1394.94 358.795 1383.99 373.659 1382.43L469.221 1372.38Z" fill="url(#paint6_linear_4314_20633)" stroke="#074139"/>
<path d="M491.442 1354.08C506.306 1352.52 520.485 1360.71 526.565 1374.36L565.647 1462.14C571.726 1475.8 568.323 1491.81 557.216 1501.81L485.808 1566.11C474.701 1576.11 458.417 1577.82 445.473 1570.35L362.258 1522.3C349.314 1514.83 342.655 1499.87 345.762 1485.25L365.74 1391.26C368.847 1376.65 381.015 1365.69 395.879 1364.13L491.442 1354.08Z" fill="url(#paint7_linear_4314_20633)" stroke="#074139"/>
<path d="M514.719 1336.51C529.584 1334.95 543.763 1343.14 549.843 1356.79L588.925 1444.57C595.004 1458.22 591.601 1474.24 580.494 1484.24L509.086 1548.54C497.978 1558.54 481.694 1560.25 468.751 1552.78L385.536 1504.73C372.592 1497.26 365.932 1482.3 369.04 1467.68L389.018 1373.69C392.125 1359.07 404.293 1348.12 419.157 1346.56L514.719 1336.51Z" fill="url(#paint8_linear_4314_20633)" stroke="#074139"/>
<path d="M538.531 1319.84C553.396 1318.28 567.575 1326.47 573.655 1340.12L612.737 1427.9C618.816 1441.55 615.413 1457.57 604.306 1467.57L532.898 1531.87C521.79 1541.87 505.506 1543.58 492.563 1536.11L409.348 1488.06C396.404 1480.59 389.744 1465.63 392.852 1451.01L412.83 1357.02C415.937 1342.4 428.105 1331.45 442.969 1329.89L538.531 1319.84Z" fill="url(#paint9_linear_4314_20633)" stroke="#074139"/>
<path d="M563.403 1304.1C578.267 1302.54 592.446 1310.73 598.526 1324.38L637.608 1412.16C643.687 1425.81 640.284 1441.83 629.177 1451.83L557.769 1516.13C546.661 1526.13 530.378 1527.84 517.434 1520.37L434.219 1472.32C421.275 1464.85 414.615 1449.89 417.723 1435.27L437.701 1341.28C440.808 1326.66 452.976 1315.71 467.84 1314.15L563.403 1304.1Z" fill="url(#paint10_linear_4314_20633)" stroke="#074139"/>
<path d="M587.667 1290.41C602.532 1288.85 616.711 1297.03 622.79 1310.69L661.873 1398.47C667.952 1412.12 664.548 1428.14 653.441 1438.14L582.033 1502.44C570.926 1512.44 554.642 1514.15 541.698 1506.67L458.484 1458.63C445.54 1451.16 438.88 1436.2 441.988 1421.58L461.965 1327.59C465.073 1312.97 477.241 1302.02 492.105 1300.45L587.667 1290.41Z" fill="url(#paint11_linear_4314_20633)" stroke="#074139"/>
<path d="M614.675 1276.72C629.539 1275.16 643.718 1283.34 649.798 1297L688.88 1384.78C694.959 1398.43 691.556 1414.45 680.449 1424.45L609.041 1488.75C597.933 1498.75 581.65 1500.46 568.706 1492.99L485.491 1444.94C472.547 1437.47 465.887 1422.51 468.995 1407.89L488.973 1313.9C492.08 1299.28 504.248 1288.33 519.112 1286.76L614.675 1276.72Z" fill="url(#paint12_linear_4314_20633)" stroke="#074139"/>
<path d="M640.271 1264.99C655.135 1263.43 669.315 1271.61 675.394 1285.27L714.477 1373.05C720.556 1386.7 717.152 1402.72 706.045 1412.72L634.637 1477.01C623.53 1487.01 607.246 1488.73 594.302 1481.25L511.087 1433.21C498.143 1425.74 491.484 1410.78 494.591 1396.16L514.569 1302.17C517.676 1287.55 529.844 1276.59 544.709 1275.03L640.271 1264.99Z" fill="url(#paint13_linear_4314_20633)" stroke="#074139"/>
<path d="M667.936 1253.45C682.8 1251.88 696.98 1260.07 703.059 1273.73L742.142 1361.51C748.221 1375.16 744.817 1391.18 733.71 1401.18L662.302 1465.47C651.195 1475.47 634.911 1477.18 621.967 1469.71L538.752 1421.67C525.808 1414.19 519.149 1399.24 522.256 1384.62L542.234 1290.63C545.341 1276.01 557.509 1265.05 572.374 1263.49L667.936 1253.45Z" fill="url(#paint14_linear_4314_20633)" stroke="#074139"/>
<path d="M695.317 1243.02C710.181 1241.45 724.36 1249.64 730.44 1263.3L769.522 1351.08C775.601 1364.73 772.198 1380.75 761.091 1390.75L689.683 1455.04C678.576 1465.04 662.292 1466.76 649.348 1459.28L566.133 1411.24C553.189 1403.76 546.53 1388.81 549.637 1374.19L569.615 1280.2C572.722 1265.58 584.89 1254.62 599.754 1253.06L695.317 1243.02Z" fill="url(#paint15_linear_4314_20633)" stroke="#074139"/>
<path d="M721.97 1233.68C736.834 1232.12 751.014 1240.31 757.093 1253.96L796.176 1341.74C802.255 1355.4 798.851 1371.41 787.744 1381.41L716.336 1445.71C705.229 1455.71 688.945 1457.42 676.001 1449.95L592.787 1401.91C579.843 1394.43 573.183 1379.47 576.29 1364.86L596.268 1270.87C599.376 1256.25 611.544 1245.29 626.408 1243.73L721.97 1233.68Z" fill="url(#paint16_linear_4314_20633)" stroke="#074139"/>
<path d="M749.32 1224.85C764.184 1223.28 778.363 1231.47 784.443 1245.13L823.525 1332.91C829.604 1346.56 826.201 1362.58 815.094 1372.58L743.686 1436.87C732.578 1446.87 716.295 1448.59 703.351 1441.11L620.136 1393.07C607.192 1385.59 600.532 1370.64 603.64 1356.02L623.618 1262.03C626.725 1247.41 638.893 1236.45 653.757 1234.89L749.32 1224.85Z" fill="url(#paint17_linear_4314_20633)" stroke="#074139"/>
<path d="M778.496 1216.14C793.361 1214.58 807.54 1222.77 813.619 1236.42L852.702 1324.2C858.781 1337.86 855.377 1353.87 844.271 1363.87L772.862 1428.17C761.755 1438.17 745.471 1439.88 732.527 1432.41L649.313 1384.36C636.369 1376.89 629.709 1361.93 632.817 1347.31L652.794 1253.32C655.902 1238.7 668.07 1227.75 682.934 1226.19L778.496 1216.14Z" fill="url(#paint18_linear_4314_20633)" stroke="#074139"/>
<path d="M804.997 1208.8C819.862 1207.24 834.041 1215.43 840.12 1229.08L879.203 1316.86C885.282 1330.52 881.878 1346.53 870.772 1356.53L799.363 1420.83C788.256 1430.83 771.972 1432.54 759.028 1425.07L675.814 1377.03C662.87 1369.55 656.21 1354.59 659.318 1339.97L679.295 1245.99C682.403 1231.37 694.571 1220.41 709.435 1218.85L804.997 1208.8Z" fill="url(#paint19_linear_4314_20633)" stroke="#074139"/>
<path d="M834.431 1201.21C849.295 1199.65 863.475 1207.83 869.554 1221.49L908.637 1309.27C914.716 1322.92 911.312 1338.94 900.205 1348.94L828.797 1413.23C817.69 1423.24 801.406 1424.95 788.462 1417.47L705.247 1369.43C692.304 1361.96 685.644 1347 688.751 1332.38L708.729 1238.39C711.837 1223.77 724.004 1212.81 738.869 1211.25L834.431 1201.21Z" fill="url(#paint20_linear_4314_20633)" stroke="#074139"/>
<path d="M862.731 1194.36C877.596 1192.8 891.775 1200.98 897.854 1214.64L936.937 1302.42C943.016 1316.07 939.612 1332.09 928.505 1342.09L857.097 1406.38C845.99 1416.39 829.706 1418.1 816.762 1410.62L733.548 1362.58C720.604 1355.11 713.944 1340.15 717.052 1325.53L737.029 1231.54C740.137 1216.92 752.305 1205.97 767.169 1204.4L862.731 1194.36Z" fill="url(#paint21_linear_4314_20633)" stroke="#074139"/>
<path d="M890.248 1187.98C905.112 1186.42 919.292 1194.6 925.371 1208.26L964.454 1296.04C970.533 1309.69 967.129 1325.71 956.022 1335.71L884.614 1400C873.507 1410 857.223 1411.72 844.279 1404.24L761.065 1356.2C748.121 1348.73 741.461 1333.77 744.568 1319.15L764.546 1225.16C767.654 1210.54 779.822 1199.58 794.686 1198.02L890.248 1187.98Z" fill="url(#paint22_linear_4314_20633)" stroke="#074139"/>
<path d="M919.657 1181.02C934.522 1179.46 948.701 1187.64 954.78 1201.3L993.863 1289.08C999.942 1302.73 996.538 1318.75 985.431 1328.75L914.023 1393.04C902.916 1403.05 886.632 1404.76 873.688 1397.28L790.474 1349.24C777.53 1341.77 770.87 1326.81 773.978 1312.19L793.955 1218.2C797.063 1203.58 809.231 1192.63 824.095 1191.06L919.657 1181.02Z" fill="url(#paint23_linear_4314_20633)" stroke="#074139"/>
<path d="M947.348 1174.26C962.212 1172.7 976.392 1180.89 982.471 1194.54L1021.55 1282.32C1027.63 1295.98 1024.23 1311.99 1013.12 1321.99L941.714 1386.29C930.607 1396.29 914.323 1398 901.379 1390.53L818.164 1342.48C805.221 1335.01 798.561 1320.05 801.668 1305.43L821.646 1211.44C824.754 1196.82 836.921 1185.87 851.786 1184.31L947.348 1174.26Z" fill="url(#paint24_linear_4314_20633)" stroke="#074139"/>
<path d="M976.199 1166.51C991.063 1164.95 1005.24 1173.14 1011.32 1186.79L1050.4 1274.57C1056.48 1288.22 1053.08 1304.24 1041.97 1314.24L970.565 1378.54C959.458 1388.54 943.174 1390.25 930.23 1382.78L847.015 1334.73C834.071 1327.26 827.412 1312.3 830.519 1297.68L850.497 1203.69C853.604 1189.07 865.772 1178.12 880.636 1176.56L976.199 1166.51Z" fill="url(#paint25_linear_4314_20633)" stroke="#074139"/>
<path d="M1003.38 1157.57C1018.24 1156.01 1032.42 1164.2 1038.5 1177.85L1077.58 1265.63C1083.66 1279.29 1080.26 1295.3 1069.15 1305.3L997.744 1369.6C986.636 1379.6 970.352 1381.31 957.409 1373.84L874.194 1325.79C861.25 1318.32 854.59 1303.36 857.698 1288.74L877.675 1194.75C880.783 1180.14 892.951 1169.18 907.815 1167.62L1003.38 1157.57Z" fill="url(#paint26_linear_4314_20633)" stroke="#074139"/>
<path d="M1029.84 1145.58C1044.7 1144.01 1058.88 1152.2 1064.96 1165.85L1104.05 1253.64C1110.12 1267.29 1106.72 1283.3 1095.61 1293.31L1024.21 1357.6C1013.1 1367.6 996.815 1369.31 983.871 1361.84L900.657 1313.8C887.713 1306.32 881.053 1291.37 884.16 1276.75L904.138 1182.76C907.246 1168.14 919.414 1157.18 934.278 1155.62L1029.84 1145.58Z" fill="url(#paint27_linear_4314_20633)" stroke="#074139"/>
<path d="M1052.86 1127.72C1067.72 1126.16 1081.9 1134.35 1087.98 1148L1127.07 1235.78C1133.14 1249.44 1129.74 1265.45 1118.63 1275.45L1047.23 1339.75C1036.12 1349.75 1019.83 1351.46 1006.89 1343.99L923.676 1295.95C910.732 1288.47 904.072 1273.51 907.18 1258.89L927.158 1164.91C930.265 1150.29 942.433 1139.33 957.297 1137.77L1052.86 1127.72Z" fill="url(#paint28_linear_4314_20633)" stroke="#074139"/>
<path d="M1060.54 1100.88C1075.41 1099.32 1089.59 1107.51 1095.67 1121.16L1134.75 1208.94C1140.83 1222.6 1137.43 1238.61 1126.32 1248.61L1054.91 1312.91C1043.8 1322.91 1027.52 1324.62 1014.58 1317.15L931.361 1269.11C918.417 1261.63 911.757 1246.67 914.865 1232.05L934.842 1138.07C937.95 1123.45 950.118 1112.49 964.982 1110.93L1060.54 1100.88Z" fill="url(#paint29_linear_4314_20633)" stroke="#074139"/>
<path d="M1048.06 1074.87C1062.93 1073.31 1077.1 1081.49 1083.18 1095.15L1122.27 1182.93C1128.35 1196.58 1124.94 1212.6 1113.84 1222.6L1042.43 1286.89C1031.32 1296.9 1015.04 1298.61 1002.09 1291.13L918.877 1243.09C905.933 1235.62 899.274 1220.66 902.381 1206.04L922.359 1112.05C925.466 1097.43 937.634 1086.47 952.499 1084.91L1048.06 1074.87Z" fill="url(#paint30_linear_4314_20633)" stroke="#074139"/>
<path d="M1032.36 1051.96C1047.22 1050.39 1061.4 1058.58 1067.48 1072.23L1106.56 1160.02C1112.64 1173.67 1109.24 1189.69 1098.13 1199.69L1026.73 1263.98C1015.62 1273.98 999.334 1275.69 986.39 1268.22L903.175 1220.18C890.232 1212.7 883.572 1197.75 886.679 1183.13L906.657 1089.14C909.765 1074.52 921.932 1063.56 936.797 1062L1032.36 1051.96Z" fill="url(#paint31_linear_4314_20633)" stroke="#074139"/>
<path d="M1013.78 1028.33C1028.64 1026.77 1042.82 1034.95 1048.9 1048.61L1087.98 1136.39C1094.06 1150.04 1090.66 1166.06 1079.55 1176.06L1008.14 1240.36C997.034 1250.36 980.75 1252.07 967.806 1244.59L884.592 1196.55C871.648 1189.08 864.988 1174.12 868.096 1159.5L888.073 1065.51C891.181 1050.89 903.349 1039.94 918.213 1038.37L1013.78 1028.33Z" fill="url(#paint32_linear_4314_20633)" stroke="#074139"/>
<path d="M995.48 1006.88C1010.34 1005.31 1024.52 1013.5 1030.6 1027.15L1069.69 1114.94C1075.76 1128.59 1072.36 1144.61 1061.25 1154.61L989.846 1218.9C978.739 1228.9 962.455 1230.61 949.511 1223.14L866.296 1175.1C853.352 1167.62 846.693 1152.67 849.8 1138.05L869.778 1044.06C872.885 1029.44 885.053 1018.48 899.917 1016.92L995.48 1006.88Z" fill="url(#paint33_linear_4314_20633)" stroke="#074139"/>
<path d="M975.608 984.833C990.473 983.271 1004.65 991.458 1010.73 1005.11L1049.81 1092.89C1055.89 1106.55 1052.49 1122.56 1041.38 1132.56L969.974 1196.86C958.867 1206.86 942.583 1208.57 929.639 1201.1L846.425 1153.05C833.481 1145.58 826.821 1130.62 829.929 1116L849.906 1022.01C853.014 1007.4 865.182 996.44 880.046 994.877L975.608 984.833Z" fill="url(#paint34_linear_4314_20633)" stroke="#074139"/>
<path d="M956.626 964.648C971.49 963.086 985.67 971.272 991.749 984.926L1030.83 1072.71C1036.91 1086.36 1033.51 1102.38 1022.4 1112.38L950.992 1176.67C939.885 1186.67 923.601 1188.39 910.657 1180.91L827.443 1132.87C814.499 1125.4 807.839 1110.44 810.946 1095.82L830.924 1001.83C834.032 987.21 846.2 976.254 861.064 974.692L956.626 964.648Z" fill="url(#paint35_linear_4314_20633)" stroke="#074139"/>
<path d="M936.466 943.943C951.33 942.381 965.51 950.567 971.589 964.221L1010.67 1052C1016.75 1065.66 1013.35 1081.67 1002.24 1091.67L930.832 1155.97C919.725 1165.97 903.441 1167.68 890.497 1160.21L807.282 1112.16C794.338 1104.69 787.679 1089.73 790.786 1075.11L810.764 981.124C813.872 966.505 826.039 955.549 840.904 953.987L936.466 943.943Z" fill="url(#paint36_linear_4314_20633)" stroke="#074139"/>
<path d="M915.709 923.281C930.574 921.718 944.753 929.905 950.833 943.559L989.915 1031.34C995.994 1044.99 992.591 1061.01 981.484 1071.01L910.076 1135.31C898.968 1145.31 882.684 1147.02 869.741 1139.55L786.526 1091.5C773.582 1084.03 766.922 1069.07 770.03 1054.45L790.008 960.462C793.115 945.842 805.283 934.887 820.147 933.325L915.709 923.281Z" fill="url(#paint37_linear_4314_20633)" stroke="#074139"/>
<path d="M894.958 903.214C909.822 901.652 924.001 909.839 930.081 923.493L969.163 1011.27C975.242 1024.93 971.839 1040.94 960.732 1050.94L889.324 1115.24C878.216 1125.24 861.933 1126.95 848.989 1119.48L765.774 1071.44C752.83 1063.96 746.17 1049 749.278 1034.38L769.256 940.395C772.363 925.776 784.531 914.821 799.395 913.258L894.958 903.214Z" fill="url(#paint38_linear_4314_20633)" stroke="#074139"/>
<path d="M873.303 882.869C888.168 881.306 902.347 889.493 908.427 903.147L947.509 990.928C953.588 1004.58 950.185 1020.6 939.078 1030.6L867.67 1094.89C856.562 1104.9 840.278 1106.61 827.335 1099.13L744.12 1051.09C731.176 1043.62 724.516 1028.66 727.624 1014.04L747.602 920.05C750.709 905.43 762.877 894.475 777.741 892.913L873.303 882.869Z" fill="url(#paint39_linear_4314_20633)" stroke="#074139"/>
<path d="M851.546 863.038C866.411 861.476 880.59 869.663 886.669 883.317L925.752 971.098C931.831 984.752 928.427 1000.77 917.32 1010.77L845.912 1075.06C834.805 1085.07 818.521 1086.78 805.577 1079.3L722.363 1031.26C709.419 1023.79 702.759 1008.83 705.867 994.209L725.844 900.22C728.952 885.6 741.12 874.645 755.984 873.083L851.546 863.038Z" fill="url(#paint40_linear_4314_20633)" stroke="#074139"/>
<path d="M829.31 843.46C844.175 841.898 858.354 850.085 864.433 863.739L903.516 951.52C909.595 965.174 906.191 981.189 895.085 991.19L823.676 1055.49C812.569 1065.49 796.285 1067.2 783.341 1059.73L700.127 1011.68C687.183 1004.21 680.523 989.25 683.631 974.631L703.608 880.642C706.716 866.022 718.884 855.067 733.748 853.504L829.31 843.46Z" fill="url(#paint41_linear_4314_20633)" stroke="#074139"/>
<path d="M806.162 823.949C821.027 822.386 835.206 830.573 841.285 844.227L880.368 932.008C886.447 945.662 883.044 961.678 871.937 971.679L800.529 1035.97C789.421 1045.98 773.137 1047.69 760.193 1040.21L676.979 992.17C664.035 984.697 657.375 969.739 660.483 955.119L680.46 861.13C683.568 846.51 695.736 835.555 710.6 833.993L806.162 823.949Z" fill="url(#paint42_linear_4314_20633)" stroke="#074139"/>
<path d="M784.939 805.853C799.804 804.291 813.983 812.477 820.062 826.131L859.145 913.913C865.224 927.567 861.82 943.582 850.713 953.583L779.305 1017.88C768.198 1027.88 751.914 1029.59 738.97 1022.12L655.756 974.074C642.812 966.601 636.152 951.643 639.26 937.023L659.237 843.034C662.345 828.415 674.513 817.459 689.377 815.897L784.939 805.853Z" fill="url(#paint43_linear_4314_20633)" stroke="#074139"/>
<path d="M763.03 786.462C777.894 784.9 792.074 793.087 798.153 806.741L837.236 894.522C843.315 908.176 839.911 924.191 828.804 934.192L757.396 998.488C746.289 1008.49 730.005 1010.2 717.061 1002.73L633.847 954.683C620.903 947.21 614.243 932.252 617.35 917.633L637.328 823.643C640.436 809.024 652.604 798.069 667.468 796.506L763.03 786.462Z" fill="url(#paint44_linear_4314_20633)" stroke="#074139"/>
<path d="M741.825 767.099C756.69 765.537 770.869 773.723 776.949 787.377L816.031 875.159C822.11 888.813 818.707 904.828 807.6 914.829L736.192 979.125C725.084 989.126 708.8 990.837 695.857 983.364L612.642 935.32C599.698 927.847 593.038 912.889 596.146 898.269L616.123 804.28C619.231 789.661 631.399 778.705 646.263 777.143L741.825 767.099Z" fill="url(#paint45_linear_4314_20633)" stroke="#074139"/>
<path d="M720.749 747.3C735.614 745.738 749.793 753.924 755.872 767.579L794.955 855.36C801.034 869.014 797.63 885.029 786.523 895.03L715.115 959.326C704.008 969.327 687.724 971.038 674.78 963.565L591.566 915.521C578.622 908.048 571.962 893.09 575.07 878.47L595.047 784.481C598.155 769.862 610.323 758.907 625.187 757.344L720.749 747.3Z" fill="url(#paint46_linear_4314_20633)" stroke="#074139"/>
<path d="M698.867 726.158C713.732 724.595 727.911 732.782 733.99 746.436L773.073 834.217C779.152 847.871 775.749 863.887 764.642 873.888L693.234 938.183C682.126 948.184 665.842 949.896 652.899 942.423L569.684 894.379C556.74 886.905 550.08 871.948 553.188 857.328L573.165 763.339C576.273 748.719 588.441 737.764 603.305 736.202L698.867 726.158Z" fill="url(#paint47_linear_4314_20633)" stroke="#074139"/>
<path d="M678.328 705.732C693.193 704.17 707.372 712.356 713.451 726.01L752.534 813.792C758.613 827.445 755.21 843.461 744.103 853.462L672.695 917.758C661.587 927.759 645.303 929.47 632.359 921.997L549.145 873.953C536.201 866.48 529.541 851.522 532.649 836.902L552.626 742.913C555.734 728.294 567.902 717.338 582.766 715.776L678.328 705.732Z" fill="url(#paint48_linear_4314_20633)" stroke="#074139"/>
<path d="M658.017 684.919C672.881 683.357 687.061 691.544 693.14 705.198L732.223 792.979C738.302 806.633 734.898 822.648 723.791 832.649L652.383 896.945C641.276 906.946 624.992 908.657 612.048 901.184L528.833 853.14C515.89 845.667 509.23 830.709 512.337 816.09L532.315 722.1C535.423 707.481 547.59 696.526 562.455 694.963L658.017 684.919Z" fill="url(#paint49_linear_4314_20633)" stroke="#074139"/>
<path d="M638.4 664.14C653.264 662.578 667.444 670.764 673.523 684.418L712.605 772.2C718.684 785.854 715.281 801.869 704.174 811.87L632.766 876.166C621.659 886.167 605.375 887.878 592.431 880.405L509.216 832.361C496.272 824.888 489.613 809.93 492.72 795.31L512.698 701.321C515.805 686.702 527.973 675.746 542.837 674.184L638.4 664.14Z" fill="url(#paint50_linear_4314_20633)" stroke="#074139"/>
<path d="M618.489 642.222C633.353 640.66 647.532 648.846 653.612 662.5L692.694 750.282C698.773 763.936 695.37 779.951 684.263 789.952L612.855 854.248C601.747 864.249 585.464 865.96 572.52 858.487L489.305 810.443C476.361 802.97 469.701 788.012 472.809 773.392L492.787 679.403C495.894 664.784 508.062 653.828 522.926 652.266L618.489 642.222Z" fill="url(#paint51_linear_4314_20633)" stroke="#074139"/>
<path d="M600.328 621.298C615.193 619.736 629.372 627.922 635.451 641.577L674.534 729.358C680.613 743.012 677.21 759.027 666.103 769.028L594.695 833.324C583.587 843.325 567.303 845.036 554.359 837.563L471.145 789.519C458.201 782.046 451.541 767.088 454.649 752.468L474.626 658.479C477.734 643.86 489.902 632.905 504.766 631.342L600.328 621.298Z" fill="url(#paint52_linear_4314_20633)" stroke="#074139"/>
<path d="M581.94 598.859C596.804 597.297 610.984 605.483 617.063 619.137L656.145 706.918C662.225 720.572 658.821 736.588 647.714 746.589L576.306 810.884C565.199 820.885 548.915 822.597 535.971 815.124L452.756 767.08C439.812 759.607 433.153 744.649 436.26 730.029L456.238 636.04C459.345 621.421 471.513 610.465 486.377 608.903L581.94 598.859Z" fill="url(#paint53_linear_4314_20633)" stroke="#074139"/>
<path d="M564.608 575.955C579.472 574.392 593.652 582.579 599.731 596.233L638.813 684.014C644.892 697.668 641.489 713.683 630.382 723.684L558.974 787.98C547.867 797.981 531.583 799.693 518.639 792.219L435.424 744.176C422.48 736.702 415.821 721.744 418.928 707.125L438.906 613.136C442.013 598.516 454.181 587.561 469.045 585.999L564.608 575.955Z" fill="url(#paint54_linear_4314_20633)" stroke="#074139"/>
<path d="M548.193 551.413C563.057 549.851 577.236 558.038 583.316 571.692L622.398 659.473C628.477 673.127 625.074 689.142 613.967 699.143L542.559 763.439C531.452 773.44 515.168 775.152 502.224 767.678L419.009 719.635C406.065 712.161 399.405 697.203 402.513 682.584L422.491 588.595C425.598 573.975 437.766 563.02 452.63 561.458L548.193 551.413Z" fill="url(#paint55_linear_4314_20633)" stroke="#074139"/>
<path d="M534.276 524.892C549.14 523.33 563.319 531.516 569.399 545.17L608.481 632.952C614.56 646.606 611.157 662.621 600.05 672.622L528.642 736.918C517.535 746.919 501.251 748.63 488.307 741.157L405.092 693.113C392.148 685.64 385.488 670.682 388.596 656.062L408.574 562.073C411.681 547.454 423.849 536.498 438.713 534.936L534.276 524.892Z" fill="url(#paint56_linear_4314_20633)" stroke="#074139"/>
<path d="M526.79 497.031C541.655 495.468 555.834 503.655 561.913 517.309L600.996 605.09C607.075 618.744 603.671 634.76 592.565 644.761L521.156 709.056C510.049 719.057 493.765 720.769 480.821 713.296L397.607 665.252C384.663 657.779 378.003 642.821 381.111 628.201L401.088 534.212C404.196 519.592 416.364 508.637 431.228 507.075L526.79 497.031Z" fill="url(#paint57_linear_4314_20633)" stroke="#074139"/>
<path d="M522.645 467.923C537.51 466.361 551.689 474.547 557.768 488.202L596.851 575.983C602.93 589.637 599.526 605.652 588.419 615.653L517.011 679.949C505.904 689.95 489.62 691.661 476.676 684.188L393.462 636.144C380.518 628.671 373.858 613.713 376.966 599.093L396.943 505.104C400.051 490.485 412.219 479.53 427.083 477.967L522.645 467.923Z" fill="url(#paint58_linear_4314_20633)" stroke="#074139"/>
<path d="M524.295 439.275C539.16 437.713 553.339 445.899 559.418 459.553L598.501 547.334C604.58 560.988 601.176 577.004 590.069 587.005L518.661 651.3C507.554 661.302 491.27 663.013 478.326 655.54L395.112 607.496C382.168 600.023 375.508 585.065 378.616 570.445L398.593 476.456C401.701 461.837 413.869 450.881 428.733 449.319L524.295 439.275Z" fill="url(#paint59_linear_4314_20633)" stroke="#074139"/>
<path d="M533.496 411.632C548.361 410.07 562.54 418.256 568.619 431.911L607.702 519.692C613.781 533.346 610.377 549.361 599.271 559.362L527.862 623.658C516.755 633.659 500.471 635.37 487.527 627.897L404.313 579.853C391.369 572.38 384.709 557.422 387.817 542.802L407.794 448.813C410.902 434.194 423.07 423.239 437.934 421.676L533.496 411.632Z" fill="url(#paint60_linear_4314_20633)" stroke="#074139"/>
<path d="M548.54 386.16C563.405 384.597 577.584 392.784 583.663 406.438L622.746 494.219C628.825 507.873 625.421 523.889 614.315 533.89L542.906 598.185C531.799 608.186 515.515 609.898 502.571 602.425L419.357 554.381C406.413 546.907 399.753 531.949 402.861 517.33L422.838 423.341C425.946 408.721 438.114 397.766 452.978 396.204L548.54 386.16Z" fill="url(#paint61_linear_4314_20633)" stroke="#074139"/>
<path d="M566.316 363.691C581.181 362.129 595.36 370.315 601.439 383.969L640.522 471.75C646.601 485.404 643.197 501.42 632.09 511.421L560.682 575.716C549.575 585.718 533.291 587.429 520.347 579.956L437.133 531.912C424.189 524.439 417.529 509.481 420.637 494.861L440.614 400.872C443.722 386.253 455.89 375.297 470.754 373.735L566.316 363.691Z" fill="url(#paint62_linear_4314_20633)" stroke="#074139"/>
<path d="M586.198 342.591C601.063 341.029 615.242 349.215 621.322 362.87L660.404 450.651C666.483 464.305 663.08 480.32 651.973 490.321L580.565 554.617C569.457 564.618 553.173 566.329 540.23 558.856L457.015 510.812C444.071 503.339 437.411 488.381 440.519 473.761L460.497 379.772C463.604 365.153 475.772 354.198 490.636 352.635L586.198 342.591Z" fill="url(#paint63_linear_4314_20633)" stroke="#074139"/>
<path d="M606.87 323.076C621.735 321.513 635.914 329.7 641.993 343.354L681.076 431.135C687.155 444.789 683.752 460.805 672.645 470.806L601.237 535.101C590.129 545.102 573.845 546.814 560.901 539.341L477.687 491.297C464.743 483.823 458.083 468.865 461.191 454.246L481.168 360.257C484.276 345.637 496.444 334.682 511.308 333.12L606.87 323.076Z" fill="url(#paint64_linear_4314_20633)" stroke="#074139"/>
<path d="M627.824 304.861C642.688 303.298 656.868 311.485 662.947 325.139L702.03 412.92C708.109 426.574 704.705 442.59 693.598 452.591L622.19 516.886C611.083 526.887 594.799 528.599 581.855 521.126L498.641 473.082C485.697 465.609 479.037 450.651 482.144 436.031L502.122 342.042C505.23 327.423 517.398 316.467 532.262 314.905L627.824 304.861Z" fill="url(#paint65_linear_4314_20633)" stroke="#074139"/>
<path d="M651.806 285.33C666.67 283.767 680.85 291.954 686.929 305.608L726.012 393.389C732.091 407.043 728.687 423.058 717.58 433.059L646.172 497.355C635.065 507.356 618.781 509.068 605.837 501.594L522.622 453.551C509.679 446.077 503.019 431.119 506.126 416.5L526.104 322.511C529.212 307.891 541.379 296.936 556.244 295.374L651.806 285.33Z" fill="url(#paint66_linear_4314_20633)" stroke="#074139"/>
<path d="M673.295 268.689C688.159 267.127 702.339 275.313 708.418 288.967L747.5 376.749C753.58 390.402 750.176 406.418 739.069 416.419L667.661 480.715C656.554 490.716 640.27 492.427 627.326 484.954L544.111 436.91C531.167 429.437 524.508 414.479 527.615 399.859L547.593 305.87C550.7 291.251 562.868 280.295 577.732 278.733L673.295 268.689Z" fill="url(#paint67_linear_4314_20633)" stroke="#074139"/>
<path d="M695.943 251.816C710.807 250.254 724.986 258.44 731.066 272.094L770.148 359.875C776.227 373.529 772.824 389.545 761.717 399.546L690.309 463.841C679.202 473.843 662.918 475.554 649.974 468.081L566.759 420.037C553.815 412.564 547.155 397.606 550.263 382.986L570.241 288.997C573.348 274.378 585.516 263.422 600.38 261.86L695.943 251.816Z" fill="url(#paint68_linear_4314_20633)" stroke="#074139"/>
<path d="M719.25 235.017C734.115 233.455 748.294 241.641 754.373 255.295L793.456 343.077C799.535 356.731 796.131 372.746 785.024 382.747L713.616 447.043C702.509 457.044 686.225 458.755 673.281 451.282L590.067 403.238C577.123 395.765 570.463 380.807 573.571 366.187L593.548 272.198C596.656 257.579 608.824 246.623 623.688 245.061L719.25 235.017Z" fill="url(#paint69_linear_4314_20633)" stroke="#074139"/>
<path d="M744.441 217.376C759.305 215.814 773.485 224.001 779.564 237.655L818.646 325.436C824.725 339.09 821.322 355.105 810.215 365.106L738.807 429.402C727.7 439.403 711.416 441.114 698.472 433.641L615.257 385.597C602.313 378.124 595.654 363.166 598.761 348.547L618.739 254.558C621.846 239.938 634.014 228.983 648.878 227.42L744.441 217.376Z" fill="url(#paint70_linear_4314_20633)" stroke="#074139"/>
<path d="M769.784 200.636C784.649 199.074 798.828 207.26 804.907 220.914L843.99 308.696C850.069 322.35 846.666 338.365 835.559 348.366L764.151 412.662C753.043 422.663 736.759 424.374 723.816 416.901L640.601 368.857C627.657 361.384 620.997 346.426 624.105 331.806L644.082 237.817C647.19 223.198 659.358 212.243 674.222 210.68L769.784 200.636Z" fill="url(#paint71_linear_4314_20633)" stroke="#074139"/>
<path d="M795.46 185.261C810.325 183.699 824.504 191.885 830.583 205.539L869.666 293.321C875.745 306.975 872.341 322.99 861.234 332.991L789.826 397.287C778.719 407.288 762.435 408.999 749.491 401.526L666.277 353.482C653.333 346.009 646.673 331.051 649.781 316.431L669.758 222.442C672.866 207.823 685.034 196.868 699.898 195.305L795.46 185.261Z" fill="url(#paint72_linear_4314_20633)" stroke="#074139"/>
<path d="M821.356 171.181C836.22 169.619 850.4 177.805 856.479 191.459L895.562 279.241C901.641 292.895 898.237 308.91 887.13 318.911L815.722 383.207C804.615 393.208 788.331 394.919 775.387 387.446L692.172 339.402C679.228 331.929 672.569 316.971 675.676 302.351L695.654 208.362C698.761 193.743 710.929 182.787 725.793 181.225L821.356 171.181Z" fill="url(#paint73_linear_4314_20633)" stroke="#074139"/>
<path d="M847.355 158.333C862.219 156.771 876.399 164.958 882.478 178.612L921.561 266.393C927.64 280.047 924.236 296.062 913.129 306.063L841.721 370.359C830.614 380.36 814.33 382.072 801.386 374.598L718.171 326.554C705.227 319.081 698.568 304.123 701.675 289.504L721.653 195.515C724.76 180.895 736.928 169.94 751.792 168.377L847.355 158.333Z" fill="url(#paint74_linear_4314_20633)" stroke="#074139"/>
<path d="M873.335 146.654C888.2 145.091 902.379 153.278 908.458 166.932L947.541 254.713C953.62 268.367 950.216 284.383 939.109 294.384L867.701 358.679C856.594 368.68 840.31 370.392 827.366 362.919L744.152 314.875C731.208 307.402 724.548 292.444 727.656 277.824L747.633 183.835C750.741 169.215 762.909 158.26 777.773 156.698L873.335 146.654Z" fill="url(#paint75_linear_4314_20633)" stroke="#074139"/>
<path d="M899.173 136.085C914.037 134.523 928.217 142.71 934.296 156.364L973.379 244.145C979.458 257.799 976.054 273.814 964.947 283.815L893.539 348.111C882.432 358.112 866.148 359.823 853.204 352.35L769.989 304.306C757.046 296.833 750.386 281.875 753.493 267.256L773.471 173.267C776.579 158.647 788.746 147.692 803.611 146.129L899.173 136.085Z" fill="url(#paint76_linear_4314_20633)" stroke="#074139"/>
<path d="M928.246 125.335C943.11 123.773 957.29 131.96 963.369 145.614L1002.45 233.395C1008.53 247.049 1005.13 263.064 994.02 273.065L922.612 337.361C911.505 347.362 895.221 349.073 882.277 341.6L799.062 293.556C786.119 286.083 779.459 271.125 782.566 256.506L802.544 162.517C805.652 147.897 817.819 136.942 832.684 135.379L928.246 125.335Z" fill="url(#paint77_linear_4314_20633)" stroke="#074139"/>
<path d="M953.385 116.933C968.25 115.371 982.429 123.557 988.508 137.211L1027.59 224.993C1033.67 238.647 1030.27 254.662 1019.16 264.663L947.751 328.959C936.644 338.96 920.36 340.671 907.416 333.198L824.202 285.154C811.258 277.681 804.598 262.723 807.706 248.103L827.683 154.114C830.791 139.495 842.959 128.539 857.823 126.977L953.385 116.933Z" fill="url(#paint78_linear_4314_20633)" stroke="#074139"/>
<path d="M981.426 108.468C996.29 106.906 1010.47 115.092 1016.55 128.747L1055.63 216.528C1061.71 230.182 1058.31 246.197 1047.2 256.198L975.792 320.494C964.685 330.495 948.401 332.206 935.457 324.733L852.243 276.689C839.299 269.216 832.639 254.258 835.746 239.638L855.724 145.649C858.832 131.03 871 120.075 885.864 118.512L981.426 108.468Z" fill="url(#paint79_linear_4314_20633)" stroke="#074139"/>
<path d="M1012.09 100.232C1026.95 98.6696 1041.13 106.856 1047.21 120.51L1086.29 208.292C1092.37 221.945 1088.97 237.961 1077.86 247.962L1006.45 312.258C995.346 322.259 979.062 323.97 966.119 316.497L882.904 268.453C869.96 260.98 863.3 246.022 866.408 231.402L886.385 137.413C889.493 122.794 901.661 111.838 916.525 110.276L1012.09 100.232Z" fill="url(#paint80_linear_4314_20633)" stroke="#074139"/>
<path d="M1038.3 93.974C1053.17 92.4118 1067.35 100.598 1073.43 114.252L1112.51 202.034C1118.59 215.688 1115.18 231.703 1104.08 241.704L1032.67 306C1021.56 316.001 1005.28 317.712 992.333 310.239L909.119 262.195C896.175 254.722 889.515 239.764 892.622 225.144L912.6 131.155C915.708 116.536 927.876 105.58 942.74 104.018L1038.3 93.974Z" fill="url(#paint81_linear_4314_20633)" stroke="#074139"/>
<path d="M1066.61 87.9877C1081.47 86.4254 1095.65 94.612 1101.73 108.266L1140.81 196.047C1146.89 209.701 1143.49 225.717 1132.38 235.718L1060.97 300.013C1049.87 310.014 1033.58 311.726 1020.64 304.253L937.423 256.209C924.48 248.736 917.82 233.778 920.927 219.158L940.905 125.169C944.013 110.549 956.181 99.5941 971.045 98.0317L1066.61 87.9877Z" fill="url(#paint82_linear_4314_20633)" stroke="#074139"/>
<path d="M1096.52 82.4838C1111.38 80.9215 1125.56 89.108 1131.64 102.762L1170.73 190.543C1176.8 204.197 1173.4 220.213 1162.29 230.214L1090.89 294.509C1079.78 304.51 1063.49 306.222 1050.55 298.749L967.336 250.705C954.392 243.232 947.733 228.274 950.84 213.654L970.818 119.665C973.925 105.046 986.093 94.0902 1000.96 92.5278L1096.52 82.4838Z" fill="url(#paint83_linear_4314_20633)" stroke="#074139"/>
<path d="M1124.4 78.0815C1139.26 76.5192 1153.44 84.7057 1159.52 98.3598L1198.61 186.141C1204.69 199.795 1201.28 215.81 1190.17 225.811L1118.77 290.107C1107.66 300.108 1091.38 301.82 1078.43 294.346L995.217 246.302C982.273 238.829 975.613 223.871 978.721 209.252L998.698 115.263C1001.81 100.643 1013.97 89.6879 1028.84 88.1255L1124.4 78.0815Z" fill="url(#paint84_linear_4314_20633)" stroke="#074139"/>
<path d="M1152.85 74.2865C1167.71 72.7243 1181.89 80.9108 1187.97 94.5649L1227.06 182.346C1233.14 196 1229.73 212.015 1218.62 222.017L1147.22 286.312C1136.11 296.313 1119.83 298.025 1106.88 290.552L1023.67 242.508C1010.72 235.034 1004.06 220.076 1007.17 205.457L1027.15 111.468C1030.26 96.8483 1042.42 85.8929 1057.29 84.3306L1152.85 74.2865Z" fill="url(#paint85_linear_4314_20633)" stroke="#074139"/>
<path d="M1183.77 70.9389C1198.64 69.3766 1212.81 77.5631 1218.89 91.2172L1257.98 178.999C1264.06 192.652 1260.65 208.668 1249.55 218.669L1178.14 282.965C1167.03 292.966 1150.75 294.677 1137.8 287.204L1054.59 239.16C1041.64 231.687 1034.98 216.729 1038.09 202.109L1058.07 108.12C1061.18 93.5006 1073.34 82.5453 1088.21 80.9829L1183.77 70.9389Z" fill="url(#paint86_linear_4314_20633)" stroke="#074139"/>
<path d="M1213.06 68.5033C1227.92 66.9411 1242.1 75.1276 1248.18 88.7817L1287.26 176.563C1293.34 190.217 1289.94 206.232 1278.83 216.233L1207.42 280.529C1196.32 290.53 1180.03 292.241 1167.09 284.768L1083.87 236.724C1070.93 229.251 1064.27 214.293 1067.38 199.674L1087.35 105.684C1090.46 91.0651 1102.63 80.1097 1117.49 78.5474L1213.06 68.5033Z" fill="url(#paint87_linear_4314_20633)" stroke="#074139"/>
<path d="M1241.65 66.8178C1256.52 65.2555 1270.7 73.442 1276.78 87.0961L1315.86 174.877C1321.94 188.531 1318.53 204.547 1307.43 214.548L1236.02 278.843C1224.91 288.844 1208.63 290.556 1195.68 283.083L1112.47 235.039C1099.53 227.566 1092.87 212.608 1095.97 197.988L1115.95 103.999C1119.06 89.3795 1131.23 78.4242 1146.09 76.8618L1241.65 66.8178Z" fill="url(#paint88_linear_4314_20633)" stroke="#074139"/>
<path d="M1270.78 65.8315C1285.65 64.2692 1299.83 72.4557 1305.9 86.1098L1344.99 173.891C1351.07 187.545 1347.66 203.56 1336.56 213.561L1265.15 277.857C1254.04 287.858 1237.76 289.57 1224.81 282.096L1141.6 234.052C1128.65 226.579 1121.99 211.621 1125.1 197.002L1145.08 103.013C1148.19 88.3932 1160.36 77.4379 1175.22 75.8755L1270.78 65.8315Z" fill="url(#paint89_linear_4314_20633)" stroke="#074139"/>
<path d="M1299.93 65.6557C1314.79 64.0934 1328.97 72.2799 1335.05 85.934L1374.13 173.715C1380.21 187.369 1376.81 203.385 1365.7 213.386L1294.29 277.681C1283.19 287.682 1266.9 289.394 1253.96 281.921L1170.74 233.877C1157.8 226.404 1151.14 211.446 1154.25 196.826L1174.23 102.837C1177.33 88.2174 1189.5 77.2621 1204.36 75.6997L1299.93 65.6557Z" fill="url(#paint90_linear_4314_20633)" stroke="#074139"/>
</g>
<defs>
<linearGradient id="paint0_linear_4314_20633" x1="359.407" y1="1499.21" x2="257.869" y2="1688.57" gradientUnits="userSpaceOnUse">
<stop stop-color="#CAEDE5"/>
<stop offset="1" stop-color="#59D0B5"/>
</linearGradient>
<linearGradient id="paint1_linear_4314_20633" x1="379.03" y1="1478.16" x2="277.493" y2="1667.52" gradientUnits="userSpaceOnUse">
<stop stop-color="#CAEDE5"/>
<stop offset="1" stop-color="#59D0B5"/>
</linearGradient>
<linearGradient id="paint2_linear_4314_20633" x1="399.47" y1="1456.87" x2="297.932" y2="1646.23" gradientUnits="userSpaceOnUse">
<stop stop-color="#CAEDE5"/>
<stop offset="1" stop-color="#59D0B5"/>
</linearGradient>
<linearGradient id="paint3_linear_4314_20633" x1="420.029" y1="1435.74" x2="318.492" y2="1625.11" gradientUnits="userSpaceOnUse">
<stop stop-color="#CAEDE5"/>
<stop offset="1" stop-color="#59D0B5"/>
</linearGradient>
<linearGradient id="paint4_linear_4314_20633" x1="440.587" y1="1415.02" x2="339.049" y2="1604.38" gradientUnits="userSpaceOnUse">
<stop stop-color="#CAEDE5"/>
<stop offset="1" stop-color="#59D0B5"/>
</linearGradient>
<linearGradient id="paint5_linear_4314_20633" x1="461.577" y1="1394.79" x2="360.039" y2="1584.15" gradientUnits="userSpaceOnUse">
<stop stop-color="#CAEDE5"/>
<stop offset="1" stop-color="#59D0B5"/>
</linearGradient>
<linearGradient id="paint6_linear_4314_20633" x1="483.044" y1="1375.5" x2="381.506" y2="1564.87" gradientUnits="userSpaceOnUse">
<stop stop-color="#CAEDE5"/>
<stop offset="1" stop-color="#59D0B5"/>
</linearGradient>
<linearGradient id="paint7_linear_4314_20633" x1="505.265" y1="1357.21" x2="403.727" y2="1546.57" gradientUnits="userSpaceOnUse">
<stop stop-color="#CAEDE5"/>
<stop offset="1" stop-color="#59D0B5"/>
</linearGradient>
<linearGradient id="paint8_linear_4314_20633" x1="528.542" y1="1339.63" x2="427.005" y2="1528.99" gradientUnits="userSpaceOnUse">
<stop stop-color="#CAEDE5"/>
<stop offset="1" stop-color="#59D0B5"/>
</linearGradient>
<linearGradient id="paint9_linear_4314_20633" x1="552.354" y1="1322.96" x2="450.817" y2="1512.32" gradientUnits="userSpaceOnUse">
<stop stop-color="#CAEDE5"/>
<stop offset="1" stop-color="#59D0B5"/>
</linearGradient>
<linearGradient id="paint10_linear_4314_20633" x1="577.225" y1="1307.22" x2="475.688" y2="1496.58" gradientUnits="userSpaceOnUse">
<stop stop-color="#CAEDE5"/>
<stop offset="1" stop-color="#59D0B5"/>
</linearGradient>
<linearGradient id="paint11_linear_4314_20633" x1="601.49" y1="1293.53" x2="499.953" y2="1482.89" gradientUnits="userSpaceOnUse">
<stop stop-color="#CAEDE5"/>
<stop offset="1" stop-color="#59D0B5"/>
</linearGradient>
<linearGradient id="paint12_linear_4314_20633" x1="628.497" y1="1279.84" x2="526.96" y2="1469.2" gradientUnits="userSpaceOnUse">
<stop stop-color="#CAEDE5"/>
<stop offset="1" stop-color="#59D0B5"/>
</linearGradient>
<linearGradient id="paint13_linear_4314_20633" x1="654.094" y1="1268.11" x2="552.556" y2="1457.47" gradientUnits="userSpaceOnUse">
<stop stop-color="#CAEDE5"/>
<stop offset="1" stop-color="#59D0B5"/>
</linearGradient>
<linearGradient id="paint14_linear_4314_20633" x1="681.759" y1="1256.57" x2="580.221" y2="1445.93" gradientUnits="userSpaceOnUse">
<stop stop-color="#CAEDE5"/>
<stop offset="1" stop-color="#59D0B5"/>
</linearGradient>
<linearGradient id="paint15_linear_4314_20633" x1="709.14" y1="1246.14" x2="607.602" y2="1435.5" gradientUnits="userSpaceOnUse">
<stop stop-color="#CAEDE5"/>
<stop offset="1" stop-color="#59D0B5"/>
</linearGradient>
<linearGradient id="paint16_linear_4314_20633" x1="735.793" y1="1236.81" x2="634.255" y2="1426.17" gradientUnits="userSpaceOnUse">
<stop stop-color="#CAEDE5"/>
<stop offset="1" stop-color="#59D0B5"/>
</linearGradient>
<linearGradient id="paint17_linear_4314_20633" x1="763.142" y1="1227.97" x2="661.605" y2="1417.33" gradientUnits="userSpaceOnUse">
<stop stop-color="#CAEDE5"/>
<stop offset="1" stop-color="#59D0B5"/>
</linearGradient>
<linearGradient id="paint18_linear_4314_20633" x1="792.319" y1="1219.26" x2="690.782" y2="1408.62" gradientUnits="userSpaceOnUse">
<stop stop-color="#CAEDE5"/>
<stop offset="1" stop-color="#59D0B5"/>
</linearGradient>
<linearGradient id="paint19_linear_4314_20633" x1="818.82" y1="1211.93" x2="717.283" y2="1401.29" gradientUnits="userSpaceOnUse">
<stop stop-color="#CAEDE5"/>
<stop offset="1" stop-color="#59D0B5"/>
</linearGradient>
<linearGradient id="paint20_linear_4314_20633" x1="848.254" y1="1204.33" x2="746.716" y2="1393.69" gradientUnits="userSpaceOnUse">
<stop stop-color="#CAEDE5"/>
<stop offset="1" stop-color="#59D0B5"/>
</linearGradient>
<linearGradient id="paint21_linear_4314_20633" x1="876.554" y1="1197.48" x2="775.016" y2="1386.84" gradientUnits="userSpaceOnUse">
<stop stop-color="#CAEDE5"/>
<stop offset="1" stop-color="#59D0B5"/>
</linearGradient>
<linearGradient id="paint22_linear_4314_20633" x1="904.071" y1="1191.1" x2="802.533" y2="1380.46" gradientUnits="userSpaceOnUse">
<stop stop-color="#CAEDE5"/>
<stop offset="1" stop-color="#59D0B5"/>
</linearGradient>
<linearGradient id="paint23_linear_4314_20633" x1="933.48" y1="1184.14" x2="831.943" y2="1373.5" gradientUnits="userSpaceOnUse">
<stop stop-color="#CAEDE5"/>
<stop offset="1" stop-color="#59D0B5"/>
</linearGradient>
<linearGradient id="paint24_linear_4314_20633" x1="961.171" y1="1177.39" x2="859.633" y2="1366.75" gradientUnits="userSpaceOnUse">
<stop stop-color="#CAEDE5"/>
<stop offset="1" stop-color="#59D0B5"/>
</linearGradient>
<linearGradient id="paint25_linear_4314_20633" x1="990.022" y1="1169.63" x2="888.484" y2="1358.99" gradientUnits="userSpaceOnUse">
<stop stop-color="#CAEDE5"/>
<stop offset="1" stop-color="#59D0B5"/>
</linearGradient>
<linearGradient id="paint26_linear_4314_20633" x1="1017.2" y1="1160.7" x2="915.663" y2="1350.06" gradientUnits="userSpaceOnUse">
<stop stop-color="#CAEDE5"/>
<stop offset="1" stop-color="#59D0B5"/>
</linearGradient>
<linearGradient id="paint27_linear_4314_20633" x1="1043.66" y1="1148.7" x2="942.125" y2="1338.06" gradientUnits="userSpaceOnUse">
<stop stop-color="#CAEDE5"/>
<stop offset="1" stop-color="#59D0B5"/>
</linearGradient>
<linearGradient id="paint28_linear_4314_20633" x1="1066.68" y1="1130.85" x2="965.145" y2="1320.21" gradientUnits="userSpaceOnUse">
<stop stop-color="#CAEDE5"/>
<stop offset="1" stop-color="#59D0B5"/>
</linearGradient>
<linearGradient id="paint29_linear_4314_20633" x1="1074.37" y1="1104.01" x2="972.829" y2="1293.37" gradientUnits="userSpaceOnUse">
<stop stop-color="#CAEDE5"/>
<stop offset="1" stop-color="#59D0B5"/>
</linearGradient>
<linearGradient id="paint30_linear_4314_20633" x1="1061.88" y1="1077.99" x2="960.346" y2="1267.35" gradientUnits="userSpaceOnUse">
<stop stop-color="#CAEDE5"/>
<stop offset="1" stop-color="#59D0B5"/>
</linearGradient>
<linearGradient id="paint31_linear_4314_20633" x1="1046.18" y1="1055.08" x2="944.644" y2="1244.44" gradientUnits="userSpaceOnUse">
<stop stop-color="#CAEDE5"/>
<stop offset="1" stop-color="#59D0B5"/>
</linearGradient>
<linearGradient id="paint32_linear_4314_20633" x1="1027.6" y1="1031.45" x2="926.06" y2="1220.81" gradientUnits="userSpaceOnUse">
<stop stop-color="#CAEDE5"/>
<stop offset="1" stop-color="#59D0B5"/>
</linearGradient>
<linearGradient id="paint33_linear_4314_20633" x1="1009.3" y1="1010" x2="907.765" y2="1199.36" gradientUnits="userSpaceOnUse">
<stop stop-color="#CAEDE5"/>
<stop offset="1" stop-color="#59D0B5"/>
</linearGradient>
<linearGradient id="paint34_linear_4314_20633" x1="989.431" y1="987.956" x2="887.893" y2="1177.32" gradientUnits="userSpaceOnUse">
<stop stop-color="#CAEDE5"/>
<stop offset="1" stop-color="#59D0B5"/>
</linearGradient>
<linearGradient id="paint35_linear_4314_20633" x1="970.449" y1="967.77" x2="868.911" y2="1157.13" gradientUnits="userSpaceOnUse">
<stop stop-color="#CAEDE5"/>
<stop offset="1" stop-color="#59D0B5"/>
</linearGradient>
<linearGradient id="paint36_linear_4314_20633" x1="950.289" y1="947.065" x2="848.751" y2="1136.43" gradientUnits="userSpaceOnUse">
<stop stop-color="#CAEDE5"/>
<stop offset="1" stop-color="#59D0B5"/>
</linearGradient>
<linearGradient id="paint37_linear_4314_20633" x1="929.532" y1="926.403" x2="827.995" y2="1115.76" gradientUnits="userSpaceOnUse">
<stop stop-color="#CAEDE5"/>
<stop offset="1" stop-color="#59D0B5"/>
</linearGradient>
<linearGradient id="paint38_linear_4314_20633" x1="908.78" y1="906.337" x2="807.243" y2="1095.7" gradientUnits="userSpaceOnUse">
<stop stop-color="#CAEDE5"/>
<stop offset="1" stop-color="#59D0B5"/>
</linearGradient>
<linearGradient id="paint39_linear_4314_20633" x1="887.126" y1="885.991" x2="785.589" y2="1075.35" gradientUnits="userSpaceOnUse">
<stop stop-color="#CAEDE5"/>
<stop offset="1" stop-color="#59D0B5"/>
</linearGradient>
<linearGradient id="paint40_linear_4314_20633" x1="865.369" y1="866.161" x2="763.831" y2="1055.52" gradientUnits="userSpaceOnUse">
<stop stop-color="#CAEDE5"/>
<stop offset="1" stop-color="#59D0B5"/>
</linearGradient>
<linearGradient id="paint41_linear_4314_20633" x1="843.133" y1="846.583" x2="741.596" y2="1035.94" gradientUnits="userSpaceOnUse">
<stop stop-color="#CAEDE5"/>
<stop offset="1" stop-color="#59D0B5"/>
</linearGradient>
<linearGradient id="paint42_linear_4314_20633" x1="819.985" y1="827.071" x2="718.448" y2="1016.43" gradientUnits="userSpaceOnUse">
<stop stop-color="#CAEDE5"/>
<stop offset="1" stop-color="#59D0B5"/>
</linearGradient>
<linearGradient id="paint43_linear_4314_20633" x1="798.762" y1="808.975" x2="697.224" y2="998.336" gradientUnits="userSpaceOnUse">
<stop stop-color="#CAEDE5"/>
<stop offset="1" stop-color="#59D0B5"/>
</linearGradient>
<linearGradient id="paint44_linear_4314_20633" x1="776.853" y1="789.585" x2="675.315" y2="978.945" gradientUnits="userSpaceOnUse">
<stop stop-color="#CAEDE5"/>
<stop offset="1" stop-color="#59D0B5"/>
</linearGradient>
<linearGradient id="paint45_linear_4314_20633" x1="755.648" y1="770.221" x2="654.111" y2="959.582" gradientUnits="userSpaceOnUse">
<stop stop-color="#CAEDE5"/>
<stop offset="1" stop-color="#59D0B5"/>
</linearGradient>
<linearGradient id="paint46_linear_4314_20633" x1="734.572" y1="750.423" x2="633.035" y2="939.783" gradientUnits="userSpaceOnUse">
<stop stop-color="#CAEDE5"/>
<stop offset="1" stop-color="#59D0B5"/>
</linearGradient>
<linearGradient id="paint47_linear_4314_20633" x1="712.69" y1="729.28" x2="611.153" y2="918.641" gradientUnits="userSpaceOnUse">
<stop stop-color="#CAEDE5"/>
<stop offset="1" stop-color="#59D0B5"/>
</linearGradient>
<linearGradient id="paint48_linear_4314_20633" x1="692.151" y1="708.854" x2="590.614" y2="898.215" gradientUnits="userSpaceOnUse">
<stop stop-color="#CAEDE5"/>
<stop offset="1" stop-color="#59D0B5"/>
</linearGradient>
<linearGradient id="paint49_linear_4314_20633" x1="671.84" y1="688.042" x2="570.302" y2="877.402" gradientUnits="userSpaceOnUse">
<stop stop-color="#CAEDE5"/>
<stop offset="1" stop-color="#59D0B5"/>
</linearGradient>
<linearGradient id="paint50_linear_4314_20633" x1="652.223" y1="667.262" x2="550.685" y2="856.623" gradientUnits="userSpaceOnUse">
<stop stop-color="#CAEDE5"/>
<stop offset="1" stop-color="#59D0B5"/>
</linearGradient>
<linearGradient id="paint51_linear_4314_20633" x1="632.311" y1="645.344" x2="530.774" y2="834.705" gradientUnits="userSpaceOnUse">
<stop stop-color="#CAEDE5"/>
<stop offset="1" stop-color="#59D0B5"/>
</linearGradient>
<linearGradient id="paint52_linear_4314_20633" x1="614.151" y1="624.421" x2="512.614" y2="813.781" gradientUnits="userSpaceOnUse">
<stop stop-color="#CAEDE5"/>
<stop offset="1" stop-color="#59D0B5"/>
</linearGradient>
<linearGradient id="paint53_linear_4314_20633" x1="595.763" y1="601.981" x2="494.225" y2="791.342" gradientUnits="userSpaceOnUse">
<stop stop-color="#CAEDE5"/>
<stop offset="1" stop-color="#59D0B5"/>
</linearGradient>
<linearGradient id="paint54_linear_4314_20633" x1="578.431" y1="579.077" x2="476.893" y2="768.437" gradientUnits="userSpaceOnUse">
<stop stop-color="#CAEDE5"/>
<stop offset="1" stop-color="#59D0B5"/>
</linearGradient>
<linearGradient id="paint55_linear_4314_20633" x1="562.016" y1="554.536" x2="460.478" y2="743.896" gradientUnits="userSpaceOnUse">
<stop stop-color="#CAEDE5"/>
<stop offset="1" stop-color="#59D0B5"/>
</linearGradient>
<linearGradient id="paint56_linear_4314_20633" x1="548.099" y1="528.014" x2="446.561" y2="717.375" gradientUnits="userSpaceOnUse">
<stop stop-color="#CAEDE5"/>
<stop offset="1" stop-color="#59D0B5"/>
</linearGradient>
<linearGradient id="paint57_linear_4314_20633" x1="540.613" y1="500.153" x2="439.076" y2="689.514" gradientUnits="userSpaceOnUse">
<stop stop-color="#CAEDE5"/>
<stop offset="1" stop-color="#59D0B5"/>
</linearGradient>
<linearGradient id="paint58_linear_4314_20633" x1="536.468" y1="471.046" x2="434.931" y2="660.406" gradientUnits="userSpaceOnUse">
<stop stop-color="#CAEDE5"/>
<stop offset="1" stop-color="#59D0B5"/>
</linearGradient>
<linearGradient id="paint59_linear_4314_20633" x1="538.118" y1="442.397" x2="436.58" y2="631.758" gradientUnits="userSpaceOnUse">
<stop stop-color="#CAEDE5"/>
<stop offset="1" stop-color="#59D0B5"/>
</linearGradient>
<linearGradient id="paint60_linear_4314_20633" x1="547.319" y1="414.755" x2="445.782" y2="604.115" gradientUnits="userSpaceOnUse">
<stop stop-color="#CAEDE5"/>
<stop offset="1" stop-color="#59D0B5"/>
</linearGradient>
<linearGradient id="paint61_linear_4314_20633" x1="562.363" y1="389.282" x2="460.826" y2="578.643" gradientUnits="userSpaceOnUse">
<stop stop-color="#CAEDE5"/>
<stop offset="1" stop-color="#59D0B5"/>
</linearGradient>
<linearGradient id="paint62_linear_4314_20633" x1="580.139" y1="366.813" x2="478.601" y2="556.174" gradientUnits="userSpaceOnUse">
<stop stop-color="#CAEDE5"/>
<stop offset="1" stop-color="#59D0B5"/>
</linearGradient>
<linearGradient id="paint63_linear_4314_20633" x1="600.021" y1="345.714" x2="498.484" y2="535.074" gradientUnits="userSpaceOnUse">
<stop stop-color="#CAEDE5"/>
<stop offset="1" stop-color="#59D0B5"/>
</linearGradient>
<linearGradient id="paint64_linear_4314_20633" x1="620.693" y1="326.198" x2="519.156" y2="515.559" gradientUnits="userSpaceOnUse">
<stop stop-color="#CAEDE5"/>
<stop offset="1" stop-color="#59D0B5"/>
</linearGradient>
<linearGradient id="paint65_linear_4314_20633" x1="641.647" y1="307.983" x2="540.109" y2="497.344" gradientUnits="userSpaceOnUse">
<stop stop-color="#CAEDE5"/>
<stop offset="1" stop-color="#59D0B5"/>
</linearGradient>
<linearGradient id="paint66_linear_4314_20633" x1="665.629" y1="288.452" x2="564.091" y2="477.812" gradientUnits="userSpaceOnUse">
<stop stop-color="#CAEDE5"/>
<stop offset="1" stop-color="#59D0B5"/>
</linearGradient>
<linearGradient id="paint67_linear_4314_20633" x1="687.118" y1="271.811" x2="585.58" y2="461.172" gradientUnits="userSpaceOnUse">
<stop stop-color="#CAEDE5"/>
<stop offset="1" stop-color="#59D0B5"/>
</linearGradient>
<linearGradient id="paint68_linear_4314_20633" x1="709.766" y1="254.938" x2="608.228" y2="444.299" gradientUnits="userSpaceOnUse">
<stop stop-color="#CAEDE5"/>
<stop offset="1" stop-color="#59D0B5"/>
</linearGradient>
<linearGradient id="paint69_linear_4314_20633" x1="733.073" y1="238.139" x2="631.536" y2="427.5" gradientUnits="userSpaceOnUse">
<stop stop-color="#CAEDE5"/>
<stop offset="1" stop-color="#59D0B5"/>
</linearGradient>
<linearGradient id="paint70_linear_4314_20633" x1="758.264" y1="220.499" x2="656.726" y2="409.859" gradientUnits="userSpaceOnUse">
<stop stop-color="#CAEDE5"/>
<stop offset="1" stop-color="#59D0B5"/>
</linearGradient>
<linearGradient id="paint71_linear_4314_20633" x1="783.607" y1="203.758" x2="682.07" y2="393.119" gradientUnits="userSpaceOnUse">
<stop stop-color="#CAEDE5"/>
<stop offset="1" stop-color="#59D0B5"/>
</linearGradient>
<linearGradient id="paint72_linear_4314_20633" x1="809.283" y1="188.383" x2="707.745" y2="377.744" gradientUnits="userSpaceOnUse">
<stop stop-color="#CAEDE5"/>
<stop offset="1" stop-color="#59D0B5"/>
</linearGradient>
<linearGradient id="paint73_linear_4314_20633" x1="835.179" y1="174.303" x2="733.641" y2="363.664" gradientUnits="userSpaceOnUse">
<stop stop-color="#CAEDE5"/>
<stop offset="1" stop-color="#59D0B5"/>
</linearGradient>
<linearGradient id="paint74_linear_4314_20633" x1="861.178" y1="161.456" x2="759.64" y2="350.816" gradientUnits="userSpaceOnUse">
<stop stop-color="#CAEDE5"/>
<stop offset="1" stop-color="#59D0B5"/>
</linearGradient>
<linearGradient id="paint75_linear_4314_20633" x1="887.158" y1="149.776" x2="785.62" y2="339.137" gradientUnits="userSpaceOnUse">
<stop stop-color="#CAEDE5"/>
<stop offset="1" stop-color="#59D0B5"/>
</linearGradient>
<linearGradient id="paint76_linear_4314_20633" x1="912.996" y1="139.208" x2="811.458" y2="328.568" gradientUnits="userSpaceOnUse">
<stop stop-color="#CAEDE5"/>
<stop offset="1" stop-color="#59D0B5"/>
</linearGradient>
<linearGradient id="paint77_linear_4314_20633" x1="942.069" y1="128.458" x2="840.531" y2="317.818" gradientUnits="userSpaceOnUse">
<stop stop-color="#CAEDE5"/>
<stop offset="1" stop-color="#59D0B5"/>
</linearGradient>
<linearGradient id="paint78_linear_4314_20633" x1="967.208" y1="120.055" x2="865.671" y2="309.416" gradientUnits="userSpaceOnUse">
<stop stop-color="#CAEDE5"/>
<stop offset="1" stop-color="#59D0B5"/>
</linearGradient>
<linearGradient id="paint79_linear_4314_20633" x1="995.249" y1="111.59" x2="893.711" y2="300.951" gradientUnits="userSpaceOnUse">
<stop stop-color="#CAEDE5"/>
<stop offset="1" stop-color="#59D0B5"/>
</linearGradient>
<linearGradient id="paint80_linear_4314_20633" x1="1025.91" y1="103.354" x2="924.373" y2="292.715" gradientUnits="userSpaceOnUse">
<stop stop-color="#CAEDE5"/>
<stop offset="1" stop-color="#59D0B5"/>
</linearGradient>
<linearGradient id="paint81_linear_4314_20633" x1="1052.12" y1="97.0963" x2="950.587" y2="286.457" gradientUnits="userSpaceOnUse">
<stop stop-color="#CAEDE5"/>
<stop offset="1" stop-color="#59D0B5"/>
</linearGradient>
<linearGradient id="paint82_linear_4314_20633" x1="1080.43" y1="91.11" x2="978.892" y2="280.471" gradientUnits="userSpaceOnUse">
<stop stop-color="#CAEDE5"/>
<stop offset="1" stop-color="#59D0B5"/>
</linearGradient>
<linearGradient id="paint83_linear_4314_20633" x1="1110.34" y1="85.6061" x2="1008.81" y2="274.967" gradientUnits="userSpaceOnUse">
<stop stop-color="#CAEDE5"/>
<stop offset="1" stop-color="#59D0B5"/>
</linearGradient>
<linearGradient id="paint84_linear_4314_20633" x1="1138.22" y1="81.2038" x2="1036.69" y2="270.564" gradientUnits="userSpaceOnUse">
<stop stop-color="#CAEDE5"/>
<stop offset="1" stop-color="#59D0B5"/>
</linearGradient>
<linearGradient id="paint85_linear_4314_20633" x1="1166.67" y1="77.4088" x2="1065.14" y2="266.769" gradientUnits="userSpaceOnUse">
<stop stop-color="#CAEDE5"/>
<stop offset="1" stop-color="#59D0B5"/>
</linearGradient>
<linearGradient id="paint86_linear_4314_20633" x1="1197.59" y1="74.0612" x2="1096.06" y2="263.422" gradientUnits="userSpaceOnUse">
<stop stop-color="#CAEDE5"/>
<stop offset="1" stop-color="#59D0B5"/>
</linearGradient>
<linearGradient id="paint87_linear_4314_20633" x1="1226.88" y1="71.6256" x2="1125.34" y2="260.986" gradientUnits="userSpaceOnUse">
<stop stop-color="#CAEDE5"/>
<stop offset="1" stop-color="#59D0B5"/>
</linearGradient>
<linearGradient id="paint88_linear_4314_20633" x1="1255.48" y1="69.9401" x2="1153.94" y2="259.301" gradientUnits="userSpaceOnUse">
<stop stop-color="#CAEDE5"/>
<stop offset="1" stop-color="#59D0B5"/>
</linearGradient>
<linearGradient id="paint89_linear_4314_20633" x1="1284.6" y1="68.9538" x2="1183.07" y2="258.314" gradientUnits="userSpaceOnUse">
<stop stop-color="#CAEDE5"/>
<stop offset="1" stop-color="#59D0B5"/>
</linearGradient>
<linearGradient id="paint90_linear_4314_20633" x1="1313.75" y1="68.778" x2="1212.21" y2="258.139" gradientUnits="userSpaceOnUse">
<stop stop-color="#CAEDE5"/>
<stop offset="1" stop-color="#59D0B5"/>
</linearGradient>
</defs>
</svg>
