<svg width="673" height="2662" viewBox="0 0 673 2662" fill="none" xmlns="http://www.w3.org/2000/svg">
<path d="M502.292 2376.52C514.384 2367.73 530.757 2367.73 542.849 2376.52L644.362 2450.27C656.454 2459.06 661.514 2474.63 656.896 2488.85L618.12 2608.18C613.501 2622.4 600.256 2632.02 585.31 2632.02H459.831C444.885 2632.02 431.639 2622.4 427.021 2608.18L388.245 2488.85C383.626 2474.63 388.687 2459.06 400.778 2450.27L502.292 2376.52Z" fill="url(#paint0_linear_4314_20008)" stroke="#074139"/>
<path d="M497.026 2345.75C509.057 2336.89 525.429 2336.77 537.581 2345.47L639.601 2418.53C651.753 2427.23 656.92 2442.77 652.399 2457.01L614.447 2576.61C609.926 2590.86 596.747 2600.57 581.801 2600.68L456.326 2601.54C441.38 2601.64 428.068 2592.11 423.352 2577.93L383.755 2458.86C379.039 2444.68 383.991 2429.07 396.022 2420.21L497.026 2345.75Z" fill="url(#paint1_linear_4314_20008)" stroke="#074139"/>
<path d="M491.499 2315.03C503.469 2306.08 519.84 2305.85 532.052 2314.47L634.572 2386.82C646.784 2395.43 652.058 2410.94 647.636 2425.21L610.508 2545.07C606.086 2559.35 592.974 2569.15 578.029 2569.36L452.563 2571.09C437.618 2571.3 424.241 2561.85 419.427 2547.7L379.011 2428.91C374.197 2414.76 379.042 2399.12 391.011 2390.17L491.499 2315.03Z" fill="url(#paint2_linear_4314_20008)" stroke="#074139"/>
<path d="M485.707 2284.35C497.614 2275.32 513.984 2274.98 526.255 2283.51L629.271 2355.15C641.542 2363.69 646.922 2379.15 642.598 2393.46L606.298 2513.57C601.974 2527.88 588.93 2537.77 573.987 2538.08L448.535 2540.67C433.592 2540.98 420.15 2531.64 415.239 2517.52L374.005 2399.01C369.094 2384.89 373.831 2369.22 385.739 2360.19L485.707 2284.35Z" fill="url(#paint3_linear_4314_20008)" stroke="#074139"/>
<path d="M479.679 2253.72C491.525 2244.6 507.891 2244.15 520.221 2252.6L623.728 2323.53C636.057 2331.98 641.545 2347.4 637.319 2361.74L601.847 2482.1C597.622 2496.44 584.646 2506.42 569.706 2506.83L444.275 2510.29C429.334 2510.7 415.828 2501.45 410.82 2487.36L368.771 2369.14C363.762 2355.06 368.391 2339.35 380.237 2330.24L479.679 2253.72Z" fill="url(#paint4_linear_4314_20008)" stroke="#074139"/>
<path d="M473.439 2223.12C485.221 2213.93 501.584 2213.36 513.972 2221.73L617.965 2291.94C630.352 2300.31 635.946 2315.69 631.819 2330.06L597.177 2450.66C593.051 2465.03 580.144 2475.1 565.207 2475.62L439.803 2479.94C424.866 2480.45 411.296 2471.29 406.191 2457.24L363.328 2339.31C358.223 2325.26 362.744 2309.53 374.526 2300.33L473.439 2223.12Z" fill="url(#paint5_linear_4314_20008)" stroke="#074139"/>
<path d="M466.228 2192.72C477.946 2183.44 494.305 2182.76 506.75 2191.04L611.225 2260.54C623.669 2268.81 629.368 2284.16 625.341 2298.56L591.53 2419.39C587.503 2433.79 574.665 2443.95 559.732 2444.57L434.362 2449.75C419.428 2450.37 405.796 2441.3 400.594 2427.29L356.92 2309.66C351.718 2295.65 356.13 2279.88 367.849 2270.6L466.228 2192.72Z" fill="url(#paint6_linear_4314_20008)" stroke="#074139"/>
<path d="M459.016 2162.32C470.67 2152.96 487.024 2152.17 499.525 2160.36L604.477 2229.14C616.978 2237.33 622.783 2252.64 618.855 2267.06L585.877 2388.13C581.949 2402.55 569.183 2412.8 554.254 2413.52L428.921 2419.57C413.993 2420.29 400.298 2411.32 395 2397.34L350.517 2280.01C345.218 2266.04 349.522 2250.24 361.176 2240.88L459.016 2162.32Z" fill="url(#paint7_linear_4314_20008)" stroke="#074139"/>
<path d="M452.009 2131.89C463.599 2122.45 479.947 2121.55 492.504 2129.65L597.927 2197.7C610.484 2205.81 616.394 2221.08 612.566 2235.52L580.423 2356.81C576.594 2371.26 563.899 2381.6 548.976 2382.43L423.688 2389.34C408.764 2390.16 395.008 2381.28 389.614 2367.34L344.323 2250.32C338.928 2236.38 343.123 2220.56 354.712 2211.12L452.009 2131.89Z" fill="url(#paint8_linear_4314_20008)" stroke="#074139"/>
<path d="M445.056 2101.45C456.581 2091.93 472.922 2090.92 485.535 2098.94L591.424 2166.26C604.037 2174.28 610.052 2189.51 606.323 2203.98L575.017 2325.49C571.288 2339.96 558.664 2350.39 543.747 2351.32L418.509 2359.09C403.592 2360.02 389.775 2351.23 384.285 2337.33L338.189 2220.63C332.698 2206.73 336.784 2190.87 348.308 2181.35L445.056 2101.45Z" fill="url(#paint9_linear_4314_20008)" stroke="#074139"/>
<path d="M437.814 2071.08C449.273 2061.48 465.607 2060.36 478.275 2068.29L584.625 2134.88C597.293 2142.81 603.413 2158 599.784 2172.5L569.315 2294.22C565.686 2308.72 553.134 2319.23 538.224 2320.26L413.043 2328.9C398.132 2329.93 384.255 2321.24 378.669 2307.37L331.771 2190.99C326.184 2177.13 330.161 2161.24 341.619 2151.65L437.814 2071.08Z" fill="url(#paint10_linear_4314_20008)" stroke="#074139"/>
<path d="M430.256 2040.78C441.648 2031.11 457.974 2029.87 470.696 2037.71L577.502 2103.57C590.225 2111.41 596.449 2126.56 592.92 2141.08L563.291 2263.01C559.762 2277.53 547.283 2288.13 532.379 2289.27L407.261 2298.77C392.358 2299.9 378.421 2291.3 372.74 2277.48L325.041 2161.42C319.359 2147.6 323.226 2131.69 334.617 2122.01L430.256 2040.78Z" fill="url(#paint11_linear_4314_20008)" stroke="#074139"/>
<path d="M422.669 2010.54C433.994 2000.79 450.312 1999.43 463.087 2007.19L570.345 2072.31C583.121 2080.07 589.45 2095.17 586.021 2109.71L557.232 2231.84C553.803 2246.39 541.397 2257.08 526.503 2258.31L401.453 2268.67C386.558 2269.91 372.562 2261.41 366.785 2247.63L318.288 2131.9C312.511 2118.11 316.268 2102.18 327.593 2092.42L422.669 2010.54Z" fill="url(#paint12_linear_4314_20008)" stroke="#074139"/>
<path d="M414.657 1980.36C425.914 1970.53 442.222 1969.06 455.051 1976.73L562.755 2041.11C575.584 2048.78 582.016 2063.84 578.688 2078.41L550.741 2200.73C547.413 2215.3 535.081 2226.07 520.195 2227.41L395.219 2238.63C380.333 2239.97 366.279 2231.57 360.408 2217.82L311.114 2102.43C305.242 2088.69 308.889 2072.73 320.147 2062.9L414.657 1980.36Z" fill="url(#paint13_linear_4314_20008)" stroke="#074139"/>
<path d="M406.646 1950.19C417.836 1940.28 434.132 1938.7 447.014 1946.28L555.159 2009.91C568.04 2017.49 574.577 2032.51 571.348 2047.1L544.245 2169.62C541.017 2184.21 528.76 2195.06 513.883 2196.5L388.988 2208.59C374.111 2210.03 360 2201.72 354.034 2188.02L303.947 2072.97C297.98 2059.27 301.517 2043.28 312.707 2033.37L406.646 1950.19Z" fill="url(#paint14_linear_4314_20008)" stroke="#074139"/>
<path d="M398.436 1920.07C409.557 1910.08 425.842 1908.39 438.776 1915.88L547.356 1978.77C560.29 1986.26 566.929 2001.23 563.802 2015.84L537.543 2138.54C534.416 2153.16 522.233 2164.1 507.367 2165.64L382.558 2178.58C367.692 2180.13 353.524 2171.92 347.463 2158.26L296.584 2043.56C290.524 2029.9 293.951 2013.88 305.072 2003.9L398.436 1920.07Z" fill="url(#paint15_linear_4314_20008)" stroke="#074139"/>
<path d="M390.094 1889.99C401.146 1879.92 417.42 1878.12 430.404 1885.53L539.415 1947.66C552.4 1955.07 559.143 1969.99 556.116 1984.62L530.704 2107.5C527.677 2122.14 515.57 2133.16 500.715 2134.8L375.998 2148.61C361.142 2150.25 346.918 2142.14 340.764 2128.52L289.096 2014.18C282.942 2000.56 286.258 1984.52 297.31 1974.46L390.094 1889.99Z" fill="url(#paint16_linear_4314_20008)" stroke="#074139"/>
<path d="M381.758 1859.92C392.74 1849.78 409.001 1847.86 422.037 1855.18L531.473 1916.56C544.509 1923.87 551.354 1938.75 548.428 1953.41L523.863 2076.46C520.937 2091.11 508.906 2102.22 494.063 2103.96L369.444 2118.63C354.6 2120.37 340.32 2112.36 334.072 2098.79L281.618 1984.8C275.37 1971.22 278.576 1955.16 289.558 1945.03L381.758 1859.92Z" fill="url(#paint17_linear_4314_20008)" stroke="#074139"/>
<path d="M373.445 1829.85C384.357 1819.63 400.604 1817.61 413.69 1824.83L523.547 1885.46C536.632 1892.68 543.58 1907.51 540.755 1922.19L517.038 2045.4C514.213 2060.08 502.26 2071.27 487.428 2073.12L362.913 2088.64C348.082 2090.49 333.748 2082.57 327.406 2069.04L274.168 1955.42C267.826 1941.88 270.921 1925.8 281.833 1915.59L373.445 1829.85Z" fill="url(#paint18_linear_4314_20008)" stroke="#074139"/>
<path d="M365.137 1799.78C375.979 1789.49 392.212 1787.36 405.347 1794.49L515.619 1854.36C528.754 1861.49 535.803 1876.27 533.08 1890.97L510.212 2014.34C507.489 2029.04 495.612 2040.31 480.794 2042.26L356.389 2058.64C341.571 2060.59 327.182 2052.78 320.748 2039.29L266.727 1926.03C260.293 1912.54 263.277 1896.44 274.119 1886.16L365.137 1799.78Z" fill="url(#paint19_linear_4314_20008)" stroke="#074139"/>
<path d="M356.831 1769.73C367.602 1759.36 383.82 1757.12 397.003 1764.16L507.685 1823.27C520.869 1830.31 528.02 1845.04 525.398 1859.75L503.381 1983.28C500.759 1998 488.96 2009.35 474.156 2011.4L349.867 2028.64C335.062 2030.69 320.62 2022.98 314.093 2009.53L259.294 1896.65C252.766 1883.21 255.64 1867.09 266.41 1856.73L356.831 1769.73Z" fill="url(#paint20_linear_4314_20008)" stroke="#074139"/>
<path d="M348.556 1739.67C359.255 1729.24 375.457 1726.88 388.689 1733.83L499.776 1792.17C513.008 1799.12 520.26 1813.8 517.739 1828.54L496.574 1952.22C494.053 1966.95 482.333 1978.38 467.543 1980.54L343.376 1998.63C328.586 2000.78 314.091 1993.17 307.471 1979.77L251.895 1867.27C245.276 1853.87 248.038 1837.73 258.737 1827.29L348.556 1739.67Z" fill="url(#paint21_linear_4314_20008)" stroke="#074139"/>
<path d="M340.341 1709.62C350.968 1699.11 367.154 1696.63 380.433 1703.49L491.919 1761.07C505.199 1767.93 512.552 1782.56 510.132 1797.31L489.82 1921.13C487.4 1935.88 475.76 1947.4 460.985 1949.65L336.945 1968.6C322.17 1970.85 307.623 1963.34 300.911 1949.99L244.562 1837.87C237.85 1824.52 240.501 1808.36 251.128 1797.85L340.341 1709.62Z" fill="url(#paint22_linear_4314_20008)" stroke="#074139"/>
<path d="M332.132 1679.56C342.686 1668.98 358.854 1666.4 372.181 1673.16L484.061 1729.98C497.387 1736.74 504.841 1751.32 502.523 1766.09L483.064 1890.05C480.747 1904.81 469.185 1916.41 454.427 1918.76L330.52 1938.56C315.761 1940.92 301.163 1933.51 294.359 1920.2L237.239 1808.48C230.435 1795.17 232.974 1779 243.528 1768.41L332.132 1679.56Z" fill="url(#paint23_linear_4314_20008)" stroke="#074139"/>
<path d="M324.321 1649.43C334.802 1638.77 350.952 1636.08 364.325 1642.75L476.593 1698.79C489.966 1705.47 497.52 1720 495.304 1734.78L476.7 1858.87C474.484 1873.65 463.003 1885.32 448.26 1887.78L324.493 1908.44C309.751 1910.9 295.102 1903.58 288.206 1890.32L230.318 1779C223.423 1765.74 225.851 1749.54 236.331 1738.89L324.321 1649.43Z" fill="url(#paint24_linear_4314_20008)" stroke="#074139"/>
<path d="M316.732 1619.26C327.139 1608.53 343.27 1605.72 356.689 1612.31L469.341 1667.57C482.759 1674.15 490.413 1688.63 488.299 1703.43L470.55 1827.64C468.436 1842.44 457.036 1854.19 442.311 1856.75L318.689 1878.26C303.964 1880.82 289.265 1873.61 282.278 1860.39L223.624 1749.47C216.637 1736.26 218.954 1720.05 229.361 1709.32L316.732 1619.26Z" fill="url(#paint25_linear_4314_20008)" stroke="#074139"/>
<path d="M309.147 1589.09C319.48 1578.29 335.591 1575.37 349.055 1581.86L462.085 1636.35C475.548 1642.84 483.302 1657.26 481.29 1672.07L464.397 1796.41C462.385 1811.22 451.066 1823.05 436.359 1825.71L312.888 1848.07C298.181 1850.73 283.432 1843.62 276.355 1830.46L216.938 1719.94C209.861 1706.77 212.065 1690.55 222.398 1679.75L309.147 1589.09Z" fill="url(#paint26_linear_4314_20008)" stroke="#074139"/>
<path d="M300.841 1559.09C311.099 1548.22 327.19 1545.2 340.698 1551.59L454.1 1605.3C467.608 1611.7 475.461 1626.07 473.551 1640.89L457.515 1765.34C455.605 1780.16 444.368 1792.07 429.68 1794.83L306.366 1818.04C291.677 1820.8 276.88 1813.8 269.712 1800.68L209.535 1690.57C202.367 1677.46 204.46 1661.22 214.719 1650.35L300.841 1559.09Z" fill="url(#paint27_linear_4314_20008)" stroke="#074139"/>
<path d="M292.507 1529.11C302.69 1518.17 318.759 1515.03 332.311 1521.33L446.081 1574.26C459.633 1580.56 467.584 1594.88 465.777 1609.71L450.598 1734.27C448.79 1749.11 437.635 1761.09 422.967 1763.96L299.816 1788.01C285.147 1790.88 270.301 1783.97 263.043 1770.91L202.109 1661.22C194.851 1648.15 196.832 1631.9 207.015 1620.96L292.507 1529.11Z" fill="url(#paint28_linear_4314_20008)" stroke="#074139"/>
<path d="M284.438 1499.08C294.546 1488.07 310.593 1484.82 324.188 1491.03L438.32 1543.17C451.915 1549.38 459.965 1563.64 458.259 1578.49L443.939 1703.15C442.234 1717.99 431.161 1730.06 416.513 1733.02L293.53 1757.93C278.882 1760.89 263.989 1754.09 256.641 1741.07L194.953 1631.81C187.605 1618.79 189.474 1602.52 199.581 1591.51L284.438 1499.08Z" fill="url(#paint29_linear_4314_20008)" stroke="#074139"/>
<path d="M277.367 1468.84C287.399 1457.76 303.423 1454.4 317.06 1460.52L431.549 1511.87C445.186 1517.99 453.334 1532.19 451.731 1547.05L438.271 1671.81C436.667 1686.67 425.678 1698.8 411.05 1701.87L288.243 1727.62C273.615 1730.69 258.676 1723.99 251.238 1711.02L188.798 1602.18C181.361 1589.22 183.118 1572.94 193.149 1561.86L277.367 1468.84Z" fill="url(#paint30_linear_4314_20008)" stroke="#074139"/>
<path d="M270.3 1438.61C280.255 1427.46 296.256 1423.99 309.935 1430.02L424.774 1480.58C438.454 1486.6 446.699 1500.75 445.198 1515.62L432.598 1640.46C431.097 1655.33 420.192 1667.54 405.585 1670.71L282.958 1697.31C268.351 1700.47 253.366 1693.88 245.84 1680.96L182.652 1572.56C175.125 1559.65 176.77 1543.35 186.725 1532.21L270.3 1438.61Z" fill="url(#paint31_linear_4314_20008)" stroke="#074139"/>
<path d="M263.109 1408.41C272.987 1397.19 288.964 1393.61 302.684 1399.54L417.869 1449.31C431.59 1455.24 439.932 1469.33 438.534 1484.21L426.794 1609.14C425.395 1624.02 414.575 1636.31 399.99 1639.57L277.549 1667.01C262.965 1670.28 247.935 1663.79 240.319 1650.93L176.386 1542.96C168.771 1530.1 170.303 1513.8 180.181 1502.58L263.109 1408.41Z" fill="url(#paint32_linear_4314_20008)" stroke="#074139"/>
<path d="M255.779 1378.25C265.58 1366.96 281.531 1363.27 295.292 1369.11L410.818 1418.08C424.578 1423.91 433.018 1437.94 431.722 1452.83L420.843 1577.84C419.547 1592.73 408.811 1605.09 394.25 1608.46L272.001 1636.74C257.439 1640.11 242.365 1633.72 234.661 1620.91L169.985 1513.39C162.282 1500.58 163.701 1484.27 173.502 1472.98L255.779 1378.25Z" fill="url(#paint33_linear_4314_20008)" stroke="#074139"/>
<path d="M248.453 1348.09C258.176 1336.74 274.102 1332.94 287.902 1338.68L403.762 1386.86C417.563 1392.59 426.099 1406.57 424.906 1421.47L414.888 1546.54C413.695 1561.44 403.045 1573.88 388.507 1577.35L266.455 1606.47C251.917 1609.94 236.799 1603.65 229.007 1590.9L163.592 1483.82C155.801 1471.07 157.108 1454.74 166.83 1443.39L248.453 1348.09Z" fill="url(#paint34_linear_4314_20008)" stroke="#074139"/>
<path d="M241.668 1317.84C251.312 1306.42 267.211 1302.51 281.051 1308.16L397.24 1355.54C411.08 1361.18 419.713 1375.09 418.622 1390L409.466 1515.14C408.375 1530.05 397.811 1542.56 383.297 1546.13L261.449 1576.09C246.936 1579.66 231.775 1573.48 223.895 1560.78L157.744 1454.15C149.865 1441.45 151.06 1425.12 160.704 1413.7L241.668 1317.84Z" fill="url(#paint35_linear_4314_20008)" stroke="#074139"/>
<path d="M235.368 1287.51C244.934 1276.03 260.806 1272.01 274.684 1277.56L391.197 1324.13C405.075 1329.68 413.803 1343.53 412.816 1358.45L404.522 1483.65C403.534 1498.56 393.056 1511.15 378.568 1514.81L256.929 1545.62C242.44 1549.29 227.237 1543.21 219.27 1530.56L152.386 1424.4C144.419 1411.75 145.501 1395.41 155.067 1383.93L235.368 1287.51Z" fill="url(#paint36_linear_4314_20008)" stroke="#074139"/>
<path d="M229.075 1257.19C238.561 1245.64 254.404 1241.51 268.321 1246.96L385.152 1292.73C399.068 1298.18 407.891 1311.98 407.006 1326.9L399.575 1452.16C398.69 1467.08 388.299 1479.73 373.836 1483.5L252.413 1515.14C237.949 1518.91 222.705 1512.93 214.651 1500.34L147.037 1394.64C138.983 1382.05 139.953 1365.7 149.439 1354.15L229.075 1257.19Z" fill="url(#paint37_linear_4314_20008)" stroke="#074139"/>
<path d="M222.783 1226.87C232.189 1215.25 248.004 1211.01 261.957 1216.37L379.101 1261.34C393.054 1266.69 401.973 1280.42 401.19 1295.35L394.623 1420.66C393.84 1435.58 383.537 1448.31 369.1 1452.17L247.897 1484.65C233.46 1488.52 218.175 1482.65 210.035 1470.12L141.694 1364.88C133.554 1352.35 134.411 1336 143.817 1324.38L222.783 1226.87Z" fill="url(#paint38_linear_4314_20008)" stroke="#074139"/>
<path d="M216.564 1196.55C225.89 1184.87 241.676 1180.52 255.666 1185.78L373.117 1229.94C387.107 1235.2 396.119 1248.87 395.44 1263.8L389.735 1389.15C389.056 1404.08 378.84 1416.87 364.431 1420.84L243.454 1454.15C229.044 1458.12 213.719 1452.36 205.493 1439.88L136.429 1335.12C128.202 1322.64 128.947 1306.28 138.272 1294.6L216.564 1196.55Z" fill="url(#paint39_linear_4314_20008)" stroke="#074139"/>
<path d="M211.246 1166.09C220.491 1154.35 236.247 1149.89 250.273 1155.06L368.025 1198.41C382.051 1203.57 391.157 1217.18 390.581 1232.11L385.74 1357.5C385.164 1372.43 375.036 1385.3 360.654 1389.36L239.91 1423.51C225.528 1427.57 210.163 1421.92 201.851 1409.5L132.067 1305.21C123.755 1292.79 124.387 1276.43 133.632 1264.69L211.246 1166.09Z" fill="url(#paint40_linear_4314_20008)" stroke="#074139"/>
<path d="M205.932 1135.65C215.096 1123.84 230.82 1119.28 244.881 1124.34L362.929 1166.88C376.991 1171.95 386.191 1185.49 385.717 1200.43L381.74 1325.84C381.267 1340.78 371.228 1353.72 356.875 1357.88L236.369 1392.86C222.015 1397.02 206.611 1391.47 198.214 1379.11L127.713 1275.31C119.315 1262.95 119.835 1246.58 128.998 1234.77L205.932 1135.65Z" fill="url(#paint41_linear_4314_20008)" stroke="#074139"/>
<path d="M200.623 1105.21C209.706 1093.34 225.398 1088.66 239.494 1093.63L357.832 1135.36C371.928 1140.33 381.221 1153.81 380.85 1168.75L377.738 1294.19C377.367 1309.13 367.418 1322.13 353.093 1326.4L232.831 1362.2C218.506 1366.47 203.065 1361.02 194.583 1348.71L123.368 1245.4C114.886 1233.1 115.292 1216.73 124.374 1204.86L200.623 1105.21Z" fill="url(#paint42_linear_4314_20008)" stroke="#074139"/>
<path d="M195.32 1074.78C204.32 1062.84 219.98 1058.06 234.11 1062.94L352.733 1103.84C366.863 1108.71 376.248 1122.13 375.981 1137.08L373.732 1262.53C373.464 1277.48 363.605 1290.55 349.31 1294.91L229.298 1331.54C215.003 1335.91 199.524 1330.57 190.957 1318.32L119.033 1215.5C110.466 1203.26 110.759 1186.88 119.76 1174.95L195.32 1074.78Z" fill="url(#paint43_linear_4314_20008)" stroke="#074139"/>
<path d="M190.021 1044.35C198.939 1032.35 214.565 1027.47 228.728 1032.24L347.63 1072.33C361.793 1077.1 371.271 1090.46 371.106 1105.4L369.722 1230.87C369.557 1245.82 359.788 1258.96 345.524 1263.42L225.766 1300.88C211.502 1305.34 195.987 1300.11 187.336 1287.92L114.705 1185.6C106.053 1173.41 106.234 1157.04 115.152 1145.04L190.021 1044.35Z" fill="url(#paint44_linear_4314_20008)" stroke="#074139"/>
<path d="M184.725 1013.93C193.56 1001.88 209.152 996.883 223.348 1001.56L342.523 1040.83C356.719 1045.51 366.288 1058.79 366.226 1073.74L365.707 1199.21C365.645 1214.16 355.967 1227.37 341.733 1231.93L222.237 1270.21C208.003 1274.77 192.453 1269.64 183.718 1257.52L110.384 1155.7C101.649 1143.57 101.717 1127.2 110.552 1115.14L184.725 1013.93Z" fill="url(#paint45_linear_4314_20008)" stroke="#074139"/>
<path d="M179.434 983.524C188.186 971.408 203.744 966.306 217.971 970.885L337.414 1009.33C351.642 1013.91 361.303 1027.13 361.344 1042.08L361.689 1167.55C361.73 1182.5 352.143 1195.77 337.941 1200.43L218.712 1239.53C204.51 1244.19 188.924 1239.17 180.106 1227.11L106.072 1125.8C97.2535 1113.73 97.2087 1097.36 105.96 1085.24L179.434 983.524Z" fill="url(#paint46_linear_4314_20008)" stroke="#074139"/>
<path d="M174.337 953.096C183.006 940.92 198.528 935.71 212.786 940.192L332.491 977.814C346.75 982.295 356.502 995.448 356.646 1010.39L357.855 1135.87C357.999 1150.81 348.504 1164.15 334.335 1168.9L215.377 1208.83C201.208 1213.58 185.588 1208.67 176.687 1196.67L101.957 1095.87C93.0554 1083.87 92.8978 1067.49 101.566 1055.32L174.337 953.096Z" fill="url(#paint47_linear_4314_20008)" stroke="#074139"/>
<path d="M170.109 922.57C178.693 910.335 194.179 905.018 208.468 909.401L328.43 946.198C342.719 950.581 352.561 963.666 352.808 978.61L354.882 1104.07C355.129 1119.01 345.726 1132.42 331.59 1137.27L212.91 1178.01C198.774 1182.87 183.121 1178.07 174.137 1166.12L98.714 1065.84C89.7301 1053.9 89.4597 1037.52 98.0438 1025.29L170.109 922.57Z" fill="url(#paint48_linear_4314_20008)" stroke="#074139"/>
<path d="M165.885 892.051C174.384 879.757 189.833 874.334 204.152 878.619L324.364 914.588C338.683 918.872 348.615 931.89 348.966 946.832L351.904 1072.27C352.254 1087.22 342.943 1100.68 328.841 1105.64L210.444 1147.19C196.342 1152.14 180.656 1147.45 171.59 1135.57L95.4783 1035.81C86.4123 1023.93 86.0292 1007.56 94.5287 995.265L165.885 892.051Z" fill="url(#paint49_linear_4314_20008)" stroke="#074139"/>
<path d="M161.666 861.536C170.081 849.184 185.492 843.655 199.84 847.84L320.297 882.98C334.645 887.166 344.667 900.115 345.12 915.054L348.922 1040.47C349.375 1055.41 340.157 1068.94 326.09 1073.99L207.982 1116.37C193.914 1121.41 178.197 1116.83 169.049 1105.01L92.2517 1005.78C83.104 993.957 82.6081 977.591 91.0227 965.239L161.666 861.536Z" fill="url(#paint50_linear_4314_20008)" stroke="#074139"/>
<path d="M157.752 831.001C166.081 818.591 181.454 812.955 195.831 817.042L316.527 851.351C330.903 855.438 341.014 868.317 341.57 883.253L346.236 1008.64C346.792 1023.58 337.668 1037.17 323.635 1042.32L205.823 1085.51C191.79 1090.65 176.041 1086.17 166.812 1074.42L89.3328 975.717C80.1039 963.96 79.4952 947.598 87.8246 935.187L157.752 831.001Z" fill="url(#paint51_linear_4314_20008)" stroke="#074139"/>
<path d="M153.917 800.465C162.161 787.998 177.495 782.257 191.899 786.244L312.829 819.721C327.233 823.709 337.432 836.518 338.091 851.45L343.621 976.805C344.28 991.737 335.25 1005.39 321.253 1010.64L203.741 1054.63C189.743 1059.87 173.964 1055.5 164.654 1043.81L86.4971 945.649C77.1874 933.956 76.466 917.598 84.7097 905.131L153.917 800.465Z" fill="url(#paint52_linear_4314_20008)" stroke="#074139"/>
<path d="M150.089 769.935C158.246 757.412 173.54 751.565 187.972 755.453L309.129 788.096C323.561 791.985 333.848 804.723 334.609 819.65L341.003 944.965C341.765 959.891 332.829 973.611 318.868 978.948L201.662 1023.75C187.701 1029.09 171.892 1024.83 162.502 1013.2L83.6702 915.58C74.2803 903.952 73.4462 887.599 81.6037 875.075L150.089 769.935Z" fill="url(#paint53_linear_4314_20008)" stroke="#074139"/>
<path d="M146.711 739.38C154.782 726.8 170.035 720.849 184.493 724.637L305.873 756.445C320.331 760.233 330.705 772.901 331.57 787.822L338.827 913.09C339.691 928.011 330.85 941.792 316.926 947.225L200.032 992.837C186.108 998.27 170.27 994.119 160.8 982.556L81.2976 885.479C71.8277 873.916 70.881 857.569 78.9521 844.989L146.711 739.38Z" fill="url(#paint54_linear_4314_20008)" stroke="#074139"/>
<path d="M144.242 708.768C152.226 696.134 167.438 690.077 181.921 693.766L303.517 724.736C318.001 728.425 328.462 741.021 329.43 755.936L337.549 881.151C338.516 896.065 329.77 909.907 315.885 915.436L199.307 961.852C185.421 967.381 169.555 963.339 160.005 951.842L79.8361 855.315C70.2868 843.817 69.2275 827.477 77.2117 814.842L144.242 708.768Z" fill="url(#paint55_linear_4314_20008)" stroke="#074139"/>
<path d="M141.776 678.165C149.673 665.476 164.842 659.314 179.351 662.904L301.157 693.036C315.666 696.625 326.214 709.148 327.284 724.056L336.266 849.212C337.336 864.12 328.686 878.021 314.839 883.645L198.583 930.864C184.736 936.488 168.842 932.556 159.214 921.124L78.3814 825.152C68.7531 813.72 67.5813 797.388 75.4783 784.699L141.776 678.165Z" fill="url(#paint56_linear_4314_20008)" stroke="#074139"/>
<path d="M139.318 647.564C147.127 634.82 162.254 628.555 176.787 632.044L298.798 661.336C313.331 664.825 323.965 677.276 325.138 692.176L334.982 817.266C336.155 832.166 327.6 846.127 313.792 851.847L197.865 899.865C184.056 905.585 168.136 901.762 158.429 890.397L76.9375 794.984C67.2307 783.619 65.9463 767.295 73.7557 754.551L139.318 647.564Z" fill="url(#paint57_linear_4314_20008)" stroke="#074139"/>
<path d="M136.897 616.972C144.618 604.175 159.701 597.805 174.258 601.194L296.468 629.645C311.025 633.034 321.745 645.411 323.02 660.303L333.726 785.323C335.001 800.214 326.542 814.234 312.773 820.048L197.181 868.864C183.412 874.679 167.465 870.966 157.681 859.668L75.5335 764.818C65.7486 753.52 64.3518 737.206 72.0732 724.409L136.897 616.972Z" fill="url(#paint58_linear_4314_20008)" stroke="#074139"/>
<path d="M134.495 586.382C142.128 573.532 157.167 567.058 171.747 570.347L294.15 597.955C308.73 601.244 319.535 613.547 320.912 628.429L332.479 753.372C333.857 768.255 325.495 782.332 311.767 788.241L196.513 837.853C182.785 843.762 166.813 840.159 156.95 828.929L74.1519 734.647C64.2894 723.417 62.7802 707.113 70.4133 694.263L134.495 586.382Z" fill="url(#paint59_linear_4314_20008)" stroke="#074139"/>
<path d="M132.097 555.801C139.641 542.898 154.635 536.321 169.238 539.509L291.828 566.273C306.43 569.461 317.319 581.69 318.8 596.562L331.227 721.423C332.707 736.295 324.443 750.43 310.756 756.434L195.846 806.838C182.159 812.841 166.163 809.349 156.223 798.187L72.7769 704.478C62.8373 693.316 61.2158 677.022 68.7602 664.12L132.097 555.801Z" fill="url(#paint60_linear_4314_20008)" stroke="#074139"/>
<path d="M129.752 525.223C137.207 512.269 152.156 505.589 166.779 508.676L289.551 534.595C304.175 537.682 315.148 549.835 316.731 564.697L330.018 689.469C331.601 704.331 323.434 718.523 309.788 724.621L195.229 775.815C181.583 781.913 165.563 778.53 155.547 767.437L71.4574 674.305C61.4411 663.212 59.7075 646.93 67.1627 633.976L129.752 525.223Z" fill="url(#paint61_linear_4314_20008)" stroke="#074139"/>
<path d="M128.336 494.621C135.702 481.616 150.604 474.833 165.249 477.82L288.196 502.892C302.841 505.879 313.898 517.956 315.583 532.807L329.729 657.484C331.414 672.335 323.346 686.582 309.743 692.774L195.538 744.757C181.935 750.948 165.892 747.676 155.8 736.652L71.0703 644.102C60.9778 633.078 59.1321 616.808 66.4979 603.803L128.336 494.621Z" fill="url(#paint62_linear_4314_20008)" stroke="#074139"/>
<path d="M126.925 464.027C134.201 450.971 149.056 444.086 163.721 446.971L286.838 471.196C301.503 474.082 312.642 486.082 314.43 500.921L329.435 625.498C331.222 640.337 323.252 654.639 309.692 660.925L195.848 713.693C182.288 719.978 166.223 716.817 156.055 705.863L70.6898 613.898C60.5216 602.944 58.5638 586.688 65.8399 573.632L126.925 464.027Z" fill="url(#paint63_linear_4314_20008)" stroke="#074139"/>
<path d="M125.521 433.438C132.707 420.333 147.514 413.345 162.198 416.13L285.479 439.506C300.164 442.29 311.386 454.214 313.276 469.04L329.139 593.511C331.028 608.337 323.157 622.694 309.64 629.072L196.163 682.624C182.646 689.002 166.56 685.951 156.316 675.068L70.3198 583.694C60.0763 572.81 58.0066 556.567 65.1925 543.462L125.521 433.438Z" fill="url(#paint64_linear_4314_20008)" stroke="#074139"/>
<path d="M124.289 402.855C131.384 389.701 146.143 382.611 160.846 385.294L284.285 407.821C298.989 410.504 310.293 422.35 312.284 437.163L329.005 561.521C330.996 576.334 323.224 590.745 309.751 597.216L196.646 651.548C183.173 658.02 167.066 655.08 156.748 644.267L70.1242 553.488C59.806 542.674 57.6244 526.446 64.7199 513.292L124.289 402.855Z" fill="url(#paint65_linear_4314_20008)" stroke="#074139"/>
<path d="M123.828 372.278C130.833 359.075 145.542 351.884 160.264 354.466L283.855 376.141C298.577 378.723 309.962 390.491 312.056 405.29L329.632 529.53C331.726 544.329 324.053 558.793 310.625 565.357L197.897 620.467C184.469 627.031 168.342 624.202 157.95 613.46L70.7026 523.28C60.3102 512.538 58.0169 496.326 65.0216 483.123L123.828 372.278Z" fill="url(#paint66_linear_4314_20008)" stroke="#074139"/>
<path d="M123.373 341.703C130.287 328.452 144.946 321.16 159.685 323.641L283.423 344.464C298.162 346.944 309.628 358.633 311.824 373.417L330.256 497.534C332.452 512.318 324.878 526.834 311.497 533.491L199.15 589.376C185.768 596.032 169.622 593.315 159.156 582.645L71.2895 493.068C60.8233 482.398 58.4183 466.201 65.3319 452.95L123.373 341.703Z" fill="url(#paint67_linear_4314_20008)" stroke="#074139"/>
<path d="M122.925 311.138C129.747 297.84 144.356 290.447 159.111 292.826L282.99 312.796C297.745 315.175 309.292 326.785 311.589 341.553L330.876 465.54C333.173 480.308 325.7 494.876 312.365 501.625L200.406 558.283C187.07 565.031 170.906 562.425 160.366 551.828L71.8847 462.858C61.3453 452.26 58.8287 436.081 65.6509 422.783L122.925 311.138Z" fill="url(#paint68_linear_4314_20008)" stroke="#074139"/>
<path d="M122.484 280.58C129.214 267.234 143.772 259.741 158.543 262.018L282.556 281.134C297.328 283.412 308.954 294.941 311.353 309.694L331.494 433.544C333.893 448.297 326.52 462.916 313.231 469.757L201.666 527.184C188.377 534.024 172.195 531.53 161.583 521.005L72.4902 432.647C61.878 422.122 59.2501 405.961 65.9804 392.616L122.484 280.58Z" fill="url(#paint69_linear_4314_20008)" stroke="#074139"/>
<path d="M122.046 250.026C128.685 236.635 143.19 229.041 157.978 231.216L282.119 249.478C296.906 251.653 308.612 263.103 311.112 277.838L332.105 401.547C334.606 416.282 327.334 430.952 314.093 437.884L202.926 496.079C189.684 503.011 173.486 500.627 162.801 490.176L73.102 402.434C62.4175 391.983 59.6783 375.84 66.3166 362.448L122.046 250.026Z" fill="url(#paint70_linear_4314_20008)" stroke="#074139"/>
<path d="M121.793 219.485C128.339 206.048 142.792 198.355 157.594 200.428L281.858 217.834C296.66 219.907 308.444 231.276 311.046 245.994L332.891 369.555C335.493 384.273 328.323 398.993 315.129 406.016L204.366 464.975C191.172 471.998 174.957 469.726 164.201 459.349L73.8998 372.227C63.1436 361.849 60.2932 345.725 66.839 332.289L121.793 219.485Z" fill="url(#paint71_linear_4314_20008)" stroke="#074139"/>
<path d="M122.389 188.971C128.843 175.489 143.242 167.696 158.058 169.668L282.44 186.217C297.255 188.189 309.117 199.476 311.821 214.175L334.516 337.583C337.22 352.283 330.151 367.051 317.006 374.165L206.651 433.886C193.506 440.999 177.276 438.84 166.449 428.537L75.5496 342.039C64.7221 331.736 61.7607 315.632 68.2138 302.15L122.389 188.971Z" fill="url(#paint72_linear_4314_20008)" stroke="#074139"/>
<path d="M122.99 158.464C129.35 144.939 143.696 137.047 158.524 138.916L283.017 154.609C297.846 156.478 309.785 167.683 312.59 182.364L336.135 305.612C338.94 320.293 331.973 335.11 318.878 342.314L208.937 402.794C195.841 409.997 179.597 407.949 168.699 397.721L77.2055 311.852C66.3074 301.623 63.2351 285.54 69.5952 272.015L122.99 158.464Z" fill="url(#paint73_linear_4314_20008)" stroke="#074139"/>
<path d="M123.598 127.963C129.865 114.394 144.156 106.403 158.997 108.17L283.595 123.004C298.436 124.771 310.453 135.894 313.358 150.555L337.752 273.638C340.658 288.299 333.793 303.164 320.748 310.458L211.226 371.694C198.181 378.988 181.923 377.052 170.954 366.899L78.8716 281.662C67.9032 271.509 64.7203 255.447 70.987 241.878L123.598 127.963Z" fill="url(#paint74_linear_4314_20008)" stroke="#074139"/>
<path d="M124.212 97.4691C130.385 83.8573 144.621 75.7686 159.474 77.4333L284.171 91.4086C299.025 93.0733 311.117 104.113 314.124 118.754L339.365 241.666C342.372 256.307 335.61 271.218 322.615 278.602L213.518 340.591C200.523 347.974 184.252 346.15 173.214 336.073L80.5458 251.473C69.5077 241.395 66.2142 225.356 72.3873 211.744L124.212 97.4691Z" fill="url(#paint75_linear_4314_20008)" stroke="#074139"/>
<defs>
<linearGradient id="paint0_linear_4314_20008" x1="514.475" y1="2374.54" x2="522.57" y2="2632.25" gradientUnits="userSpaceOnUse">
<stop stop-color="#CAEDE5"/>
<stop offset="1" stop-color="#59D0B5"/>
</linearGradient>
<linearGradient id="paint1_linear_4314_20008" x1="509.195" y1="2343.69" x2="519.065" y2="2601.34" gradientUnits="userSpaceOnUse">
<stop stop-color="#CAEDE5"/>
<stop offset="1" stop-color="#59D0B5"/>
</linearGradient>
<linearGradient id="paint2_linear_4314_20008" x1="503.653" y1="2312.88" x2="515.299" y2="2570.46" gradientUnits="userSpaceOnUse">
<stop stop-color="#CAEDE5"/>
<stop offset="1" stop-color="#59D0B5"/>
</linearGradient>
<linearGradient id="paint3_linear_4314_20008" x1="497.846" y1="2282.12" x2="511.266" y2="2539.61" gradientUnits="userSpaceOnUse">
<stop stop-color="#CAEDE5"/>
<stop offset="1" stop-color="#59D0B5"/>
</linearGradient>
<linearGradient id="paint4_linear_4314_20008" x1="491.803" y1="2251.4" x2="506.997" y2="2508.79" gradientUnits="userSpaceOnUse">
<stop stop-color="#CAEDE5"/>
<stop offset="1" stop-color="#59D0B5"/>
</linearGradient>
<linearGradient id="paint5_linear_4314_20008" x1="485.547" y1="2220.73" x2="502.513" y2="2478.01" gradientUnits="userSpaceOnUse">
<stop stop-color="#CAEDE5"/>
<stop offset="1" stop-color="#59D0B5"/>
</linearGradient>
<linearGradient id="paint6_linear_4314_20008" x1="478.318" y1="2190.24" x2="497.057" y2="2447.39" gradientUnits="userSpaceOnUse">
<stop stop-color="#CAEDE5"/>
<stop offset="1" stop-color="#59D0B5"/>
</linearGradient>
<linearGradient id="paint7_linear_4314_20008" x1="471.089" y1="2159.75" x2="491.599" y2="2416.78" gradientUnits="userSpaceOnUse">
<stop stop-color="#CAEDE5"/>
<stop offset="1" stop-color="#59D0B5"/>
</linearGradient>
<linearGradient id="paint8_linear_4314_20008" x1="464.064" y1="2129.24" x2="486.344" y2="2386.11" gradientUnits="userSpaceOnUse">
<stop stop-color="#CAEDE5"/>
<stop offset="1" stop-color="#59D0B5"/>
</linearGradient>
<linearGradient id="paint9_linear_4314_20008" x1="457.093" y1="2098.72" x2="481.142" y2="2355.44" gradientUnits="userSpaceOnUse">
<stop stop-color="#CAEDE5"/>
<stop offset="1" stop-color="#59D0B5"/>
</linearGradient>
<linearGradient id="paint10_linear_4314_20008" x1="449.832" y1="2068.27" x2="475.649" y2="2324.81" gradientUnits="userSpaceOnUse">
<stop stop-color="#CAEDE5"/>
<stop offset="1" stop-color="#59D0B5"/>
</linearGradient>
<linearGradient id="paint11_linear_4314_20008" x1="442.254" y1="2037.89" x2="469.838" y2="2294.25" gradientUnits="userSpaceOnUse">
<stop stop-color="#CAEDE5"/>
<stop offset="1" stop-color="#59D0B5"/>
</linearGradient>
<linearGradient id="paint12_linear_4314_20008" x1="434.647" y1="2007.56" x2="463.997" y2="2263.72" gradientUnits="userSpaceOnUse">
<stop stop-color="#CAEDE5"/>
<stop offset="1" stop-color="#59D0B5"/>
</linearGradient>
<linearGradient id="paint13_linear_4314_20008" x1="426.614" y1="1977.3" x2="457.728" y2="2233.25" gradientUnits="userSpaceOnUse">
<stop stop-color="#CAEDE5"/>
<stop offset="1" stop-color="#59D0B5"/>
</linearGradient>
<linearGradient id="paint14_linear_4314_20008" x1="418.582" y1="1947.04" x2="451.458" y2="2202.78" gradientUnits="userSpaceOnUse">
<stop stop-color="#CAEDE5"/>
<stop offset="1" stop-color="#59D0B5"/>
</linearGradient>
<linearGradient id="paint15_linear_4314_20008" x1="410.349" y1="1916.84" x2="444.987" y2="2172.34" gradientUnits="userSpaceOnUse">
<stop stop-color="#CAEDE5"/>
<stop offset="1" stop-color="#59D0B5"/>
</linearGradient>
<linearGradient id="paint16_linear_4314_20008" x1="401.985" y1="1886.68" x2="438.382" y2="2141.94" gradientUnits="userSpaceOnUse">
<stop stop-color="#CAEDE5"/>
<stop offset="1" stop-color="#59D0B5"/>
</linearGradient>
<linearGradient id="paint17_linear_4314_20008" x1="393.626" y1="1856.53" x2="431.78" y2="2111.53" gradientUnits="userSpaceOnUse">
<stop stop-color="#CAEDE5"/>
<stop offset="1" stop-color="#59D0B5"/>
</linearGradient>
<linearGradient id="paint18_linear_4314_20008" x1="385.289" y1="1826.38" x2="425.2" y2="2081.11" gradientUnits="userSpaceOnUse">
<stop stop-color="#CAEDE5"/>
<stop offset="1" stop-color="#59D0B5"/>
</linearGradient>
<linearGradient id="paint19_linear_4314_20008" x1="376.958" y1="1796.23" x2="418.622" y2="2050.68" gradientUnits="userSpaceOnUse">
<stop stop-color="#CAEDE5"/>
<stop offset="1" stop-color="#59D0B5"/>
</linearGradient>
<linearGradient id="paint20_linear_4314_20008" x1="368.627" y1="1766.09" x2="412.043" y2="2020.25" gradientUnits="userSpaceOnUse">
<stop stop-color="#CAEDE5"/>
<stop offset="1" stop-color="#59D0B5"/>
</linearGradient>
<linearGradient id="paint21_linear_4314_20008" x1="360.327" y1="1735.96" x2="405.493" y2="1989.81" gradientUnits="userSpaceOnUse">
<stop stop-color="#CAEDE5"/>
<stop offset="1" stop-color="#59D0B5"/>
</linearGradient>
<linearGradient id="paint22_linear_4314_20008" x1="352.086" y1="1705.82" x2="399" y2="1959.36" gradientUnits="userSpaceOnUse">
<stop stop-color="#CAEDE5"/>
<stop offset="1" stop-color="#59D0B5"/>
</linearGradient>
<linearGradient id="paint23_linear_4314_20008" x1="343.85" y1="1675.69" x2="392.51" y2="1928.89" gradientUnits="userSpaceOnUse">
<stop stop-color="#CAEDE5"/>
<stop offset="1" stop-color="#59D0B5"/>
</linearGradient>
<linearGradient id="paint24_linear_4314_20008" x1="336.012" y1="1645.47" x2="386.415" y2="1898.34" gradientUnits="userSpaceOnUse">
<stop stop-color="#CAEDE5"/>
<stop offset="1" stop-color="#59D0B5"/>
</linearGradient>
<linearGradient id="paint25_linear_4314_20008" x1="328.396" y1="1615.22" x2="380.54" y2="1867.73" gradientUnits="userSpaceOnUse">
<stop stop-color="#CAEDE5"/>
<stop offset="1" stop-color="#59D0B5"/>
</linearGradient>
<linearGradient id="paint26_linear_4314_20008" x1="320.782" y1="1584.97" x2="374.665" y2="1837.12" gradientUnits="userSpaceOnUse">
<stop stop-color="#CAEDE5"/>
<stop offset="1" stop-color="#59D0B5"/>
</linearGradient>
<linearGradient id="paint27_linear_4314_20008" x1="312.447" y1="1554.9" x2="368.066" y2="1806.66" gradientUnits="userSpaceOnUse">
<stop stop-color="#CAEDE5"/>
<stop offset="1" stop-color="#59D0B5"/>
</linearGradient>
<linearGradient id="paint28_linear_4314_20008" x1="304.084" y1="1524.83" x2="361.436" y2="1776.21" gradientUnits="userSpaceOnUse">
<stop stop-color="#CAEDE5"/>
<stop offset="1" stop-color="#59D0B5"/>
</linearGradient>
<linearGradient id="paint29_linear_4314_20008" x1="295.986" y1="1494.72" x2="355.068" y2="1745.7" gradientUnits="userSpaceOnUse">
<stop stop-color="#CAEDE5"/>
<stop offset="1" stop-color="#59D0B5"/>
</linearGradient>
<linearGradient id="paint30_linear_4314_20008" x1="288.885" y1="1464.41" x2="349.694" y2="1714.97" gradientUnits="userSpaceOnUse">
<stop stop-color="#CAEDE5"/>
<stop offset="1" stop-color="#59D0B5"/>
</linearGradient>
<linearGradient id="paint31_linear_4314_20008" x1="281.786" y1="1434.1" x2="344.321" y2="1684.24" gradientUnits="userSpaceOnUse">
<stop stop-color="#CAEDE5"/>
<stop offset="1" stop-color="#59D0B5"/>
</linearGradient>
<linearGradient id="paint32_linear_4314_20008" x1="274.564" y1="1403.82" x2="338.821" y2="1653.52" gradientUnits="userSpaceOnUse">
<stop stop-color="#CAEDE5"/>
<stop offset="1" stop-color="#59D0B5"/>
</linearGradient>
<linearGradient id="paint33_linear_4314_20008" x1="267.203" y1="1373.57" x2="333.178" y2="1622.83" gradientUnits="userSpaceOnUse">
<stop stop-color="#CAEDE5"/>
<stop offset="1" stop-color="#59D0B5"/>
</linearGradient>
<linearGradient id="paint34_linear_4314_20008" x1="259.844" y1="1343.34" x2="327.535" y2="1592.13" gradientUnits="userSpaceOnUse">
<stop stop-color="#CAEDE5"/>
<stop offset="1" stop-color="#59D0B5"/>
</linearGradient>
<linearGradient id="paint35_linear_4314_20008" x1="253.026" y1="1313.01" x2="322.429" y2="1561.33" gradientUnits="userSpaceOnUse">
<stop stop-color="#CAEDE5"/>
<stop offset="1" stop-color="#59D0B5"/>
</linearGradient>
<linearGradient id="paint36_linear_4314_20008" x1="246.693" y1="1282.6" x2="317.805" y2="1530.44" gradientUnits="userSpaceOnUse">
<stop stop-color="#CAEDE5"/>
<stop offset="1" stop-color="#59D0B5"/>
</linearGradient>
<linearGradient id="paint37_linear_4314_20008" x1="240.365" y1="1252.2" x2="313.183" y2="1499.54" gradientUnits="userSpaceOnUse">
<stop stop-color="#CAEDE5"/>
<stop offset="1" stop-color="#59D0B5"/>
</linearGradient>
<linearGradient id="paint38_linear_4314_20008" x1="234.038" y1="1221.8" x2="308.559" y2="1468.64" gradientUnits="userSpaceOnUse">
<stop stop-color="#CAEDE5"/>
<stop offset="1" stop-color="#59D0B5"/>
</linearGradient>
<linearGradient id="paint39_linear_4314_20008" x1="227.785" y1="1191.4" x2="304.004" y2="1437.72" gradientUnits="userSpaceOnUse">
<stop stop-color="#CAEDE5"/>
<stop offset="1" stop-color="#59D0B5"/>
</linearGradient>
<linearGradient id="paint40_linear_4314_20008" x1="222.431" y1="1160.87" x2="300.346" y2="1406.66" gradientUnits="userSpaceOnUse">
<stop stop-color="#CAEDE5"/>
<stop offset="1" stop-color="#59D0B5"/>
</linearGradient>
<linearGradient id="paint41_linear_4314_20008" x1="217.081" y1="1130.35" x2="296.686" y2="1375.59" gradientUnits="userSpaceOnUse">
<stop stop-color="#CAEDE5"/>
<stop offset="1" stop-color="#59D0B5"/>
</linearGradient>
<linearGradient id="paint42_linear_4314_20008" x1="211.735" y1="1099.83" x2="293.029" y2="1344.52" gradientUnits="userSpaceOnUse">
<stop stop-color="#CAEDE5"/>
<stop offset="1" stop-color="#59D0B5"/>
</linearGradient>
<linearGradient id="paint43_linear_4314_20008" x1="206.395" y1="1069.33" x2="289.372" y2="1313.45" gradientUnits="userSpaceOnUse">
<stop stop-color="#CAEDE5"/>
<stop offset="1" stop-color="#59D0B5"/>
</linearGradient>
<linearGradient id="paint44_linear_4314_20008" x1="201.057" y1="1038.82" x2="285.714" y2="1282.37" gradientUnits="userSpaceOnUse">
<stop stop-color="#CAEDE5"/>
<stop offset="1" stop-color="#59D0B5"/>
</linearGradient>
<linearGradient id="paint45_linear_4314_20008" x1="195.723" y1="1008.33" x2="282.056" y2="1251.29" gradientUnits="userSpaceOnUse">
<stop stop-color="#CAEDE5"/>
<stop offset="1" stop-color="#59D0B5"/>
</linearGradient>
<linearGradient id="paint46_linear_4314_20008" x1="190.394" y1="977.848" x2="278.399" y2="1220.2" gradientUnits="userSpaceOnUse">
<stop stop-color="#CAEDE5"/>
<stop offset="1" stop-color="#59D0B5"/>
</linearGradient>
<linearGradient id="paint47_linear_4314_20008" x1="185.258" y1="947.344" x2="274.93" y2="1189.09" gradientUnits="userSpaceOnUse">
<stop stop-color="#CAEDE5"/>
<stop offset="1" stop-color="#59D0B5"/>
</linearGradient>
<linearGradient id="paint48_linear_4314_20008" x1="180.99" y1="916.743" x2="272.325" y2="1157.86" gradientUnits="userSpaceOnUse">
<stop stop-color="#CAEDE5"/>
<stop offset="1" stop-color="#59D0B5"/>
</linearGradient>
<linearGradient id="paint49_linear_4314_20008" x1="176.725" y1="886.149" x2="269.719" y2="1126.63" gradientUnits="userSpaceOnUse">
<stop stop-color="#CAEDE5"/>
<stop offset="1" stop-color="#59D0B5"/>
</linearGradient>
<linearGradient id="paint50_linear_4314_20008" x1="172.465" y1="855.56" x2="267.114" y2="1095.4" gradientUnits="userSpaceOnUse">
<stop stop-color="#CAEDE5"/>
<stop offset="1" stop-color="#59D0B5"/>
</linearGradient>
<linearGradient id="paint51_linear_4314_20008" x1="168.509" y1="824.95" x2="264.809" y2="1064.13" gradientUnits="userSpaceOnUse">
<stop stop-color="#CAEDE5"/>
<stop offset="1" stop-color="#59D0B5"/>
</linearGradient>
<linearGradient id="paint52_linear_4314_20008" x1="164.633" y1="794.34" x2="262.578" y2="1032.85" gradientUnits="userSpaceOnUse">
<stop stop-color="#CAEDE5"/>
<stop offset="1" stop-color="#59D0B5"/>
</linearGradient>
<linearGradient id="paint53_linear_4314_20008" x1="160.762" y1="763.737" x2="260.348" y2="1001.57" gradientUnits="userSpaceOnUse">
<stop stop-color="#CAEDE5"/>
<stop offset="1" stop-color="#59D0B5"/>
</linearGradient>
<linearGradient id="paint54_linear_4314_20008" x1="157.341" y1="733.108" x2="258.563" y2="970.247" gradientUnits="userSpaceOnUse">
<stop stop-color="#CAEDE5"/>
<stop offset="1" stop-color="#59D0B5"/>
</linearGradient>
<linearGradient id="paint55_linear_4314_20008" x1="154.828" y1="702.424" x2="257.682" y2="938.86" gradientUnits="userSpaceOnUse">
<stop stop-color="#CAEDE5"/>
<stop offset="1" stop-color="#59D0B5"/>
</linearGradient>
<linearGradient id="paint56_linear_4314_20008" x1="152.319" y1="671.748" x2="256.798" y2="907.47" gradientUnits="userSpaceOnUse">
<stop stop-color="#CAEDE5"/>
<stop offset="1" stop-color="#59D0B5"/>
</linearGradient>
<linearGradient id="paint57_linear_4314_20008" x1="149.816" y1="641.074" x2="255.917" y2="876.071" gradientUnits="userSpaceOnUse">
<stop stop-color="#CAEDE5"/>
<stop offset="1" stop-color="#59D0B5"/>
</linearGradient>
<linearGradient id="paint58_linear_4314_20008" x1="147.35" y1="610.41" x2="255.068" y2="844.67" gradientUnits="userSpaceOnUse">
<stop stop-color="#CAEDE5"/>
<stop offset="1" stop-color="#59D0B5"/>
</linearGradient>
<linearGradient id="paint59_linear_4314_20008" x1="144.903" y1="579.748" x2="254.232" y2="813.26" gradientUnits="userSpaceOnUse">
<stop stop-color="#CAEDE5"/>
<stop offset="1" stop-color="#59D0B5"/>
</linearGradient>
<linearGradient id="paint60_linear_4314_20008" x1="142.459" y1="549.095" x2="253.394" y2="781.849" gradientUnits="userSpaceOnUse">
<stop stop-color="#CAEDE5"/>
<stop offset="1" stop-color="#59D0B5"/>
</linearGradient>
<linearGradient id="paint61_linear_4314_20008" x1="140.067" y1="518.446" x2="252.604" y2="750.43" gradientUnits="userSpaceOnUse">
<stop stop-color="#CAEDE5"/>
<stop offset="1" stop-color="#59D0B5"/>
</linearGradient>
<linearGradient id="paint62_linear_4314_20008" x1="138.605" y1="487.773" x2="252.737" y2="718.977" gradientUnits="userSpaceOnUse">
<stop stop-color="#CAEDE5"/>
<stop offset="1" stop-color="#59D0B5"/>
</linearGradient>
<linearGradient id="paint63_linear_4314_20008" x1="137.146" y1="457.108" x2="252.868" y2="687.52" gradientUnits="userSpaceOnUse">
<stop stop-color="#CAEDE5"/>
<stop offset="1" stop-color="#59D0B5"/>
</linearGradient>
<linearGradient id="paint64_linear_4314_20008" x1="135.694" y1="426.449" x2="253" y2="656.058" gradientUnits="userSpaceOnUse">
<stop stop-color="#CAEDE5"/>
<stop offset="1" stop-color="#59D0B5"/>
</linearGradient>
<linearGradient id="paint65_linear_4314_20008" x1="134.414" y1="395.797" x2="253.299" y2="624.592" gradientUnits="userSpaceOnUse">
<stop stop-color="#CAEDE5"/>
<stop offset="1" stop-color="#59D0B5"/>
</linearGradient>
<linearGradient id="paint66_linear_4314_20008" x1="133.904" y1="365.15" x2="254.363" y2="593.121" gradientUnits="userSpaceOnUse">
<stop stop-color="#CAEDE5"/>
<stop offset="1" stop-color="#59D0B5"/>
</linearGradient>
<linearGradient id="paint67_linear_4314_20008" x1="133.4" y1="334.506" x2="255.427" y2="561.641" gradientUnits="userSpaceOnUse">
<stop stop-color="#CAEDE5"/>
<stop offset="1" stop-color="#59D0B5"/>
</linearGradient>
<linearGradient id="paint68_linear_4314_20008" x1="132.901" y1="303.872" x2="256.49" y2="530.161" gradientUnits="userSpaceOnUse">
<stop stop-color="#CAEDE5"/>
<stop offset="1" stop-color="#59D0B5"/>
</linearGradient>
<linearGradient id="paint69_linear_4314_20008" x1="132.41" y1="273.245" x2="257.555" y2="498.677" gradientUnits="userSpaceOnUse">
<stop stop-color="#CAEDE5"/>
<stop offset="1" stop-color="#59D0B5"/>
</linearGradient>
<linearGradient id="paint70_linear_4314_20008" x1="131.922" y1="242.622" x2="258.617" y2="467.187" gradientUnits="userSpaceOnUse">
<stop stop-color="#CAEDE5"/>
<stop offset="1" stop-color="#59D0B5"/>
</linearGradient>
<linearGradient id="paint71_linear_4314_20008" x1="131.618" y1="212.014" x2="259.857" y2="435.7" gradientUnits="userSpaceOnUse">
<stop stop-color="#CAEDE5"/>
<stop offset="1" stop-color="#59D0B5"/>
</linearGradient>
<linearGradient id="paint72_linear_4314_20008" x1="132.162" y1="181.432" x2="261.939" y2="404.23" gradientUnits="userSpaceOnUse">
<stop stop-color="#CAEDE5"/>
<stop offset="1" stop-color="#59D0B5"/>
</linearGradient>
<linearGradient id="paint73_linear_4314_20008" x1="132.71" y1="150.859" x2="264.019" y2="372.757" gradientUnits="userSpaceOnUse">
<stop stop-color="#CAEDE5"/>
<stop offset="1" stop-color="#59D0B5"/>
</linearGradient>
<linearGradient id="paint74_linear_4314_20008" x1="133.266" y1="120.29" x2="266.101" y2="341.279" gradientUnits="userSpaceOnUse">
<stop stop-color="#CAEDE5"/>
<stop offset="1" stop-color="#59D0B5"/>
</linearGradient>
<linearGradient id="paint75_linear_4314_20008" x1="133.827" y1="89.7302" x2="268.181" y2="309.798" gradientUnits="userSpaceOnUse">
<stop stop-color="#CAEDE5"/>
<stop offset="1" stop-color="#59D0B5"/>
</linearGradient>
</defs>
</svg>
