<svg width="20" height="21" viewBox="0 0 20 21" fill="none" xmlns="http://www.w3.org/2000/svg">
<g clip-path="url(#clip0_2352_1490)">
<path d="M10 0.887695C4.4772 0.887695 0 5.36489 0 10.8877C0 15.5773 3.2288 19.5125 7.5844 20.5933L7.5844 13.9437L5.5224 13.9437L5.5224 10.8877L7.5844 10.8877V9.5709C7.5844 6.1673 9.1248 4.5897 12.4664 4.5897C13.1 4.5897 14.1932 4.7141 14.6404 4.8381V7.6081C14.4044 7.58329 13.9944 7.5709 13.4852 7.5709C11.8456 7.5709 11.212 8.19209 11.212 9.8069V10.8877H14.4784L13.9172 13.9437H11.212V20.8145C16.1636 20.2165 20.0004 16.0005 20.0004 10.8877C20 5.36489 15.5228 0.887695 10 0.887695Z" fill="#074139"/>
</g>
<defs>
<clipPath id="clip0_2352_1490">
<rect width="20" height="20" fill="white" transform="translate(0 0.887695)"/>
</clipPath>
</defs>
</svg>
