<svg width="20" height="21" viewBox="0 0 20 21" fill="none" xmlns="http://www.w3.org/2000/svg">
<g clip-path="url(#clip0_2352_1486)">
<path d="M10 2.68848C12.6719 2.68848 12.9883 2.7002 14.0391 2.74707C15.0156 2.79004 15.543 2.9541 15.8945 3.09082C16.3594 3.27051 16.6953 3.48926 17.043 3.83691C17.3945 4.18848 17.6094 4.52051 17.7891 4.98535C17.9258 5.33691 18.0898 5.86816 18.1328 6.84082C18.1797 7.89551 18.1914 8.21191 18.1914 10.8799C18.1914 13.5518 18.1797 13.8682 18.1328 14.9189C18.0898 15.8955 17.9258 16.4229 17.7891 16.7744C17.6094 17.2393 17.3906 17.5752 17.043 17.9229C16.6914 18.2744 16.3594 18.4893 15.8945 18.6689C15.543 18.8057 15.0117 18.9697 14.0391 19.0127C12.9844 19.0596 12.668 19.0713 10 19.0713C7.32813 19.0713 7.01172 19.0596 5.96094 19.0127C4.98438 18.9697 4.45703 18.8057 4.10547 18.6689C3.64063 18.4893 3.30469 18.2705 2.95703 17.9229C2.60547 17.5713 2.39063 17.2393 2.21094 16.7744C2.07422 16.4229 1.91016 15.8916 1.86719 14.9189C1.82031 13.8643 1.80859 13.5479 1.80859 10.8799C1.80859 8.20801 1.82031 7.8916 1.86719 6.84082C1.91016 5.86426 2.07422 5.33691 2.21094 4.98535C2.39063 4.52051 2.60938 4.18457 2.95703 3.83691C3.30859 3.48535 3.64063 3.27051 4.10547 3.09082C4.45703 2.9541 4.98828 2.79004 5.96094 2.74707C7.01172 2.7002 7.32813 2.68848 10 2.68848ZM10 0.887695C7.28516 0.887695 6.94531 0.899414 5.87891 0.946289C4.81641 0.993164 4.08594 1.16504 3.45313 1.41113C2.79297 1.66895 2.23438 2.00879 1.67969 2.56738C1.12109 3.12207 0.78125 3.68066 0.523438 4.33691C0.277344 4.97363 0.105469 5.7002 0.0585938 6.7627C0.0117188 7.83301 0 8.17285 0 10.8877C0 13.6025 0.0117188 13.9424 0.0585938 15.0088C0.105469 16.0713 0.277344 16.8018 0.523438 17.4346C0.78125 18.0947 1.12109 18.6533 1.67969 19.208C2.23438 19.7627 2.79297 20.1064 3.44922 20.3604C4.08594 20.6064 4.8125 20.7783 5.875 20.8252C6.94141 20.8721 7.28125 20.8838 9.99609 20.8838C12.7109 20.8838 13.0508 20.8721 14.1172 20.8252C15.1797 20.7783 15.9102 20.6064 16.543 20.3604C17.1992 20.1064 17.7578 19.7627 18.3125 19.208C18.8672 18.6533 19.2109 18.0947 19.4648 17.4385C19.7109 16.8018 19.8828 16.0752 19.9297 15.0127C19.9766 13.9463 19.9883 13.6064 19.9883 10.8916C19.9883 8.17676 19.9766 7.83691 19.9297 6.77051C19.8828 5.70801 19.7109 4.97754 19.4648 4.34473C19.2188 3.68066 18.8789 3.12207 18.3203 2.56738C17.7656 2.0127 17.207 1.66895 16.5508 1.41504C15.9141 1.16895 15.1875 0.99707 14.125 0.950195C13.0547 0.899414 12.7148 0.887695 10 0.887695Z" fill="#074139"/>
<path d="M10 5.75098C7.16406 5.75098 4.86328 8.05176 4.86328 10.8877C4.86328 13.7236 7.16406 16.0244 10 16.0244C12.8359 16.0244 15.1367 13.7236 15.1367 10.8877C15.1367 8.05176 12.8359 5.75098 10 5.75098ZM10 14.2197C8.16016 14.2197 6.66797 12.7275 6.66797 10.8877C6.66797 9.04785 8.16016 7.55566 10 7.55566C11.8398 7.55566 13.332 9.04785 13.332 10.8877C13.332 12.7275 11.8398 14.2197 10 14.2197Z" fill="#074139"/>
<path d="M16.5391 5.54785C16.5391 6.21192 16 6.74707 15.3398 6.74707C14.6758 6.74707 14.1406 6.20801 14.1406 5.54785C14.1406 4.88379 14.6797 4.34863 15.3398 4.34863C16 4.34863 16.5391 4.8877 16.5391 5.54785Z" fill="#074139"/>
</g>
<defs>
<clipPath id="clip0_2352_1486">
<rect width="20" height="20" fill="white" transform="translate(0 0.887695)"/>
</clipPath>
</defs>
</svg>
