<svg width="20" height="21" viewBox="0 0 20 21" fill="none" xmlns="http://www.w3.org/2000/svg">
<g clip-path="url(#clip0_2352_1484)">
<path d="M18.5195 0.887695L1.47656 0.887695C0.660156 0.887695 0 1.53223 0 2.3291L0 19.4424C0 20.2393 0.660156 20.8877 1.47656 20.8877L18.5195 20.8877C19.3359 20.8877 20 20.2393 20 19.4463L20 2.3291C20 1.53223 19.3359 0.887695 18.5195 0.887695ZM5.93359 17.9307H2.96484L2.96484 8.38379H5.93359L5.93359 17.9307ZM4.44922 7.08301C3.49609 7.08301 2.72656 6.31348 2.72656 5.36426C2.72656 4.41504 3.49609 3.64551 4.44922 3.64551C5.39844 3.64551 6.16797 4.41504 6.16797 5.36426C6.16797 6.30957 5.39844 7.08301 4.44922 7.08301ZM17.043 17.9307L14.0781 17.9307V13.29C14.0781 12.1846 14.0586 10.7588 12.5352 10.7588C10.9922 10.7588 10.7578 11.9658 10.7578 13.2119V17.9307H7.79688L7.79688 8.38379H10.6406V9.68848H10.6797C11.0742 8.93848 12.043 8.14551 13.4844 8.14551C16.4883 8.14551 17.043 10.1221 17.043 12.6924L17.043 17.9307Z" fill="#074139"/>
</g>
<defs>
<clipPath id="clip0_2352_1484">
<rect width="20" height="20" fill="white" transform="translate(0 0.887695)"/>
</clipPath>
</defs>
</svg>
