<svg width="20" height="21" viewBox="0 0 20 21" fill="none" xmlns="http://www.w3.org/2000/svg">
<g clip-path="url(#clip0_2352_1494)">
<path d="M20 10.7443C20 13.3938 19.556 15.5429 19.0081 15.5429C18.4602 15.5429 18.0164 13.3944 18.0164 10.7443C18.0164 8.09434 18.4604 5.9458 19.0081 5.9458C19.5558 5.9458 20 8.09414 20 10.7443Z" fill="#074139"/>
<path d="M17.4691 10.7442C17.4691 13.7019 16.2064 16.1006 14.6487 16.1006C13.0911 16.1006 11.8284 13.7019 11.8284 10.7442C11.8284 7.78639 13.0909 5.3877 14.6485 5.3877C16.2062 5.3877 17.4689 7.78562 17.4689 10.7442" fill="#074139"/>
<path d="M11.2812 10.744C11.2812 13.8862 8.75578 16.4335 5.6407 16.4335C2.52561 16.4335 0 13.8856 0 10.744C0 7.60226 2.52542 5.0542 5.6407 5.0542C8.75598 5.0542 11.2812 7.60169 11.2812 10.744Z" fill="#074139"/>
</g>
<defs>
<clipPath id="clip0_2352_1494">
<rect width="20" height="20" fill="white" transform="translate(0 0.887695)"/>
</clipPath>
</defs>
</svg>
