<svg width="121" height="80" viewBox="0 0 121 80" fill="none" xmlns="http://www.w3.org/2000/svg">
<g filter="url(#filter0_i_1739_13987)">
<path d="M34.1847 46.1342C34.1847 55.3421 26.3131 62.6521 16.993 62.6521C7.67286 62.6521 0.433594 55.3421 0.433594 46.1342C0.433594 36.9264 7.98903 29.4619 17.3091 29.4619C26.6292 29.4619 34.1847 36.9264 34.1847 46.1342Z" fill="white"/>
</g>
<path d="M50.0371 12.0664C52.3586 12.1063 54.6528 12.5438 56.7998 13.3564C59.0542 14.2098 61.1027 15.4604 62.8281 17.0371C64.5537 18.6139 65.9226 20.4857 66.8564 22.5459C67.7903 24.6061 68.2705 26.8149 68.2705 29.0449C68.2704 31.2747 67.7903 33.4829 66.8564 35.543C65.9226 37.6031 64.5537 39.475 62.8281 41.0518C61.1027 42.6285 59.0542 43.879 56.7998 44.7324C54.699 45.5276 52.4569 45.9628 50.1865 46.0186C52.4569 46.0743 54.699 46.5105 56.7998 47.3057C59.0541 48.159 61.1027 49.4097 62.8281 50.9863C64.5535 52.5631 65.9226 54.4351 66.8564 56.4951C67.7902 58.5553 68.2705 60.7643 68.2705 62.9941C68.2704 65.2239 67.7902 67.4322 66.8564 69.4922C65.9226 71.5522 64.5536 73.4242 62.8281 75.001C61.1026 76.5777 59.0542 77.8293 56.7998 78.6826C54.6528 79.4952 52.3585 79.9308 50.0371 79.9707L50.0381 80H0.25V62.6582H46.0996C48.7234 62.6582 49.6775 60.8567 49.6777 59.207L49.6875 59.7705V34.0693L49.6777 34.6826C49.6777 32.0901 49.5536 29.7472 46.0996 29.7334L0.25 29.4062V12.0635H50.0381L50.0371 12.0664Z" fill="white"/>
<path d="M68.0312 3.33H76.1013V5.03H73.1313V10H71.0013V5.03H68.0312V3.33ZM76.5677 3.33H80.2477L82.2277 7.66L84.2177 3.33H87.8777V10H85.8777L85.9277 5.01H85.5877L83.0777 10H81.3877L78.8777 5.01H78.5177L78.5677 10H76.5677V3.33Z" fill="white"/>
<defs>
<filter id="filter0_i_1739_13987" x="0.433594" y="29.4619" width="33.75" height="35.1904" filterUnits="userSpaceOnUse" color-interpolation-filters="sRGB">
<feFlood flood-opacity="0" result="BackgroundImageFix"/>
<feBlend mode="normal" in="SourceGraphic" in2="BackgroundImageFix" result="shape"/>
<feColorMatrix in="SourceAlpha" type="matrix" values="0 0 0 0 0 0 0 0 0 0 0 0 0 0 0 0 0 0 127 0" result="hardAlpha"/>
<feOffset dy="2"/>
<feGaussianBlur stdDeviation="5"/>
<feComposite in2="hardAlpha" operator="arithmetic" k2="-1" k3="1"/>
<feColorMatrix type="matrix" values="0 0 0 0 0 0 0 0 0 1 0 0 0 0 1 0 0 0 0.2 0"/>
<feBlend mode="normal" in2="shape" result="effect1_innerShadow_1739_13987"/>
</filter>
</defs>
</svg>
