<svg width="79" height="52" viewBox="0 0 79 52" fill="none" xmlns="http://www.w3.org/2000/svg">
<g filter="url(#filter0_i_1489_12393)">
<path d="M22.0548 29.9874C22.0548 35.9725 16.9383 40.724 10.8802 40.724C4.8222 40.724 0.116699 35.9725 0.116699 29.9874C0.116699 24.0023 5.02771 19.1504 11.0857 19.1504C17.1438 19.1504 22.0548 24.0023 22.0548 29.9874Z" fill="#074139"/>
</g>
<path d="M32.3612 7.84668C33.8698 7.87265 35.3605 8.15359 36.7557 8.68164C38.2211 9.23629 39.5531 10.0494 40.6747 11.0742C41.7962 12.0991 42.6858 13.3162 43.2928 14.6553C43.8999 15.9944 44.2128 17.4304 44.2128 18.8799C44.2127 20.3292 43.8998 21.7645 43.2928 23.1035C42.6858 24.4426 41.7963 25.6597 40.6747 26.6846C39.5531 27.7094 38.2211 28.5225 36.7557 29.0771C35.3445 29.6112 33.8357 29.8918 32.3094 29.9121C33.8356 29.9324 35.3446 30.2149 36.7557 30.749C38.221 31.3037 39.5532 32.1168 40.6747 33.1416C41.7961 34.1664 42.6859 35.3837 43.2928 36.7227C43.8998 38.0617 44.2128 39.4979 44.2128 40.9473C44.2127 42.3965 43.8998 43.832 43.2928 45.1709C42.6858 46.5099 41.7962 47.7271 40.6747 48.752C39.5531 49.7768 38.2211 50.5899 36.7557 51.1445C35.3605 51.6726 33.8697 51.9525 32.3612 51.9785L32.3622 52.001H-0.00012207V40.7285H29.8016C31.5069 40.7285 32.1276 39.5575 32.1278 38.4854L32.1337 38.8232V22.1758L32.1278 22.5439C32.1278 20.8589 32.0466 19.3361 29.8016 19.3271L-0.00012207 19.1143V7.8418H32.3622L32.3612 7.84668Z" fill="#074139"/>
<path d="M44.0596 3.33H52.1296V5.03H49.1596V10H47.0296V5.03H44.0596V3.33ZM52.596 3.33H56.276L58.256 7.66L60.246 3.33H63.906V10H61.906L61.956 5.01H61.616L59.106 10H57.416L54.906 5.01H54.546L54.596 10H52.596V3.33Z" fill="#074139"/>
<defs>
<filter id="filter0_i_1489_12393" x="0.116699" y="19.1504" width="21.9381" height="23.5742" filterUnits="userSpaceOnUse" color-interpolation-filters="sRGB">
<feFlood flood-opacity="0" result="BackgroundImageFix"/>
<feBlend mode="normal" in="SourceGraphic" in2="BackgroundImageFix" result="shape"/>
<feColorMatrix in="SourceAlpha" type="matrix" values="0 0 0 0 0 0 0 0 0 0 0 0 0 0 0 0 0 0 127 0" result="hardAlpha"/>
<feOffset dy="2"/>
<feGaussianBlur stdDeviation="5"/>
<feComposite in2="hardAlpha" operator="arithmetic" k2="-1" k3="1"/>
<feColorMatrix type="matrix" values="0 0 0 0 0 0 0 0 0 1 0 0 0 0 1 0 0 0 0.2 0"/>
<feBlend mode="normal" in2="shape" result="effect1_innerShadow_1489_12393"/>
</filter>
</defs>
</svg>
