<svg width="233" height="47" viewBox="0 0 233 47" fill="none" xmlns="http://www.w3.org/2000/svg">
<path d="M39.0635 35.9627L39.0635 6.81641L60.6983 6.81641C67.8345 6.86011 67.8345 6.86011 69.1894 6.9475C74.1125 7.29708 75.7387 9.13238 75.7387 14.4198C75.7387 18.571 74.6997 20.2752 71.6738 21.1055C75.6483 21.761 76.8678 23.4652 76.8678 28.1408C76.8678 32.292 75.7387 34.4332 73.0738 35.3072C71.3575 35.8752 70.8607 35.919 60.7433 35.9627H39.0635ZM47.7805 18.3089H60.6983C63.9501 18.3089 65.26 18.2215 65.8472 17.9593C66.5246 17.6971 66.8408 16.9542 66.8408 15.9055C66.8408 14.682 66.4345 14.0265 65.4859 13.808C64.9891 13.7206 64.8536 13.7206 60.6983 13.6769L47.7805 13.6769V18.3089ZM47.7805 28.971L60.7433 28.971C66.2086 28.9274 66.2086 28.9274 66.8859 28.6215C67.654 28.3156 67.9699 27.6601 67.9699 26.4366C67.9699 25.082 67.5635 24.4702 66.5246 24.2517C66.0731 24.1643 66.0731 24.1643 60.7433 24.1206L47.7805 24.1206V28.971Z" fill="#074139"/>
<path d="M78.7588 35.9627V6.81641L100.936 6.81641C111.325 6.81641 111.325 6.81641 113.267 7.95255C115.57 9.30717 116.248 11.2298 116.248 16.2988C116.248 20.6248 115.796 22.2853 114.17 23.4652C113.312 24.1206 112.454 24.4265 110.647 24.6887C115.3 25.2131 116.113 26.524 115.932 33.2534V35.9627H106.898V34.4332C106.898 31.1559 106.718 30.1072 105.995 29.3643C105.363 28.6652 104.685 28.5778 100.891 28.5778L87.9279 28.5778V35.9627H78.7588ZM87.9279 21.2803L100.846 21.2803C105.453 21.1929 105.453 21.1929 106.085 20.7559C106.808 20.319 107.079 19.445 107.079 17.6097C107.079 15.6433 106.718 14.813 105.769 14.4198C105.137 14.1576 105.001 14.1576 100.846 14.1139L87.9279 14.1139V21.2803Z" fill="#074139"/>
<path d="M118.139 6.81641L127.906 6.81641V35.9627H118.139V6.81641Z" fill="#074139"/>
<path d="M129.797 6.81641L139.895 6.81641L150.899 28.6215H152.665L163.534 6.81641L173.587 6.81641L158.824 35.9627H144.741L129.797 6.81641Z" fill="#074139"/>
<path d="M175.475 6.81641L209.002 6.81641V13.6769L184.561 13.6769V17.9156L207.775 17.9156V24.3391L184.561 24.3391V28.971L209.183 28.971V35.9627H175.475V6.81641Z" fill="#074139"/>
<path d="M18.6093 6.81641C23.9834 6.81641 28.2915 6.9871 30.5122 7.32849C34.0208 7.79791 36.2414 9.7609 36.8189 12.8334C37.1298 14.4977 37.1743 15.1378 37.1743 21.3682C37.1743 27.6412 37.1298 28.2814 36.8189 29.9457C36.2414 33.0182 34.0208 34.9812 30.5122 35.4506C28.3359 35.792 23.9834 35.9627 18.6093 35.9627C13.1909 35.9627 8.83834 35.792 6.66207 35.4506C3.15339 34.9812 0.932687 33.0182 0.35531 29.9457C0 28.2387 0 27.7693 0 20.9841C0 15.2232 0.0444138 14.455 0.35531 12.8334C0.932687 9.7609 3.15339 7.79791 6.66207 7.32849C8.88273 6.9871 13.1909 6.81641 18.6093 6.81641ZM18.032 14.199C9.41571 14.199 9.01599 14.4977 9.01599 21.2402C9.01599 28.324 9.32687 28.5801 17.9876 28.5801C28.025 28.5801 28.1583 28.4521 28.1583 21.3682C28.1583 14.327 27.9806 14.199 18.032 14.199Z" fill="#074139"/>
<path d="M0.398438 41.122H2.21021L2.21021 46.5903H0.398437L0.398438 41.122ZM4.62285 41.122H7.65098L10.6196 45.1966H10.7982L10.7557 41.122H12.5164V46.5903H9.51379L6.52819 42.5075H6.34106L6.38359 46.5903H4.62285L4.62285 41.122ZM14.9277 46.5903V41.122H19.0191C20.4651 41.122 20.6607 41.1302 21.1456 41.2286C21.707 41.3352 22.0812 41.6467 22.2514 42.155C22.379 42.5403 22.413 42.8847 22.413 43.7783C22.413 45.2048 22.2854 45.7623 21.8686 46.1312C21.4348 46.5083 20.9329 46.5903 19.0191 46.5903H14.9277ZM16.6289 45.1966H19.0361C20.6012 45.1966 20.7118 45.1146 20.7118 43.8767C20.7118 43.2044 20.6522 42.9011 20.4821 42.7207C20.3035 42.5239 20.0738 42.4911 19.0191 42.4911H16.6289V45.1966ZM24.6752 41.122H26.4019V43.6389C26.4189 44.4997 26.4189 44.5079 26.4615 44.7293C26.555 45.1638 26.8868 45.254 28.3583 45.254C29.5491 45.254 29.9064 45.2048 30.0935 45.008C30.2296 44.8686 30.2722 44.7211 30.2977 44.2046C30.3062 44.016 30.3147 43.7537 30.3147 43.6389V41.122H32.0413V43.6389C32.0158 44.8768 32.0073 44.967 31.9562 45.3523C31.8627 45.9754 31.429 46.4099 30.7825 46.5411C30.2722 46.6395 29.7023 46.6723 28.3838 46.6723C26.2148 46.6723 25.5343 46.5575 25.109 46.123C24.8283 45.8442 24.7348 45.5081 24.6922 44.7047C24.6837 44.5243 24.6837 44.5243 24.6752 43.6389V41.122ZM34.2286 44.7785H35.9043C35.9043 45.1064 35.9383 45.213 36.0744 45.295C36.236 45.3933 36.4231 45.4097 37.6395 45.4097C39.4938 45.4097 39.4938 45.4097 39.4938 44.926C39.4938 44.5981 39.3662 44.5161 38.8133 44.5079L37.4524 44.4587L36.5337 44.4177L36.0744 44.4013C34.6709 44.3604 34.2796 44.016 34.2796 42.8109C34.2796 41.7697 34.5858 41.3024 35.3684 41.1384C35.7001 41.0728 36.4827 41.04 37.8436 41.04C39.4938 41.04 40.0892 41.1138 40.489 41.3762C40.8292 41.5975 40.9653 41.9419 40.9653 42.5895C40.9653 42.6223 40.9653 42.7371 40.9568 42.8437H39.2897C39.2726 42.5403 39.2471 42.4665 39.1195 42.3928C38.9749 42.3108 38.7623 42.2944 37.5374 42.2944C36.0744 42.2944 35.9553 42.3272 35.9553 42.7289C35.9553 42.9338 36.0319 43.0404 36.2105 43.0814C36.3636 43.1224 36.8314 43.147 38.0308 43.1798C39.9021 43.2372 40.2678 43.2782 40.6336 43.4995C41.0249 43.7455 41.1695 44.1144 41.1695 44.8768C41.1695 45.8279 40.9313 46.2952 40.3444 46.5083C40.0042 46.6313 39.2897 46.6723 37.597 46.6723C35.8362 46.6723 35.1472 46.5985 34.7475 46.3525C34.3562 46.1148 34.2286 45.7951 34.2286 45.0408V44.7785ZM43.0584 41.122H49.9228V42.5157H47.3965V46.5903H45.5847V42.5157H43.0584V41.122ZM51.9358 46.5903V41.122H56.1123C58.0686 41.122 58.0686 41.122 58.4344 41.3352C58.8682 41.5893 58.9958 41.9501 58.9958 42.9011C58.9958 43.7127 58.9107 44.0242 58.6045 44.2456C58.4429 44.3686 58.2813 44.4259 57.9411 44.4751C58.8172 44.5735 58.9703 44.8195 58.9363 46.082V46.5903H57.2351V46.3034C57.2351 45.6885 57.201 45.4917 57.0649 45.3523C56.9459 45.2212 56.8183 45.2048 56.1038 45.2048H53.6625V46.5903H51.9358ZM53.6625 43.8357H56.0953C56.9629 43.8193 56.9629 43.8193 57.082 43.7373C57.218 43.6553 57.2691 43.4913 57.2691 43.147C57.2691 42.7781 57.201 42.6223 57.0224 42.5485C56.9033 42.4993 56.8778 42.4993 56.0953 42.4911H53.6625V43.8357ZM61.2105 41.122H63.0223V46.5903H61.2105V41.122ZM65.4348 41.122H71.7122V42.4092H67.136V43.2044H71.4826V44.4095H67.136V45.2786H71.7463V46.5903H65.4348V41.122ZM73.6998 44.7785H75.3755C75.3755 45.1064 75.4095 45.213 75.5456 45.295C75.7072 45.3933 75.8943 45.4097 77.1107 45.4097C78.965 45.4097 78.965 45.4097 78.965 44.926C78.965 44.5981 78.8374 44.5161 78.2845 44.5079L76.9236 44.4587L76.0049 44.4177L75.5456 44.4013C74.1421 44.3604 73.7508 44.016 73.7508 42.8109C73.7508 41.7697 74.057 41.3024 74.8396 41.1384C75.1713 41.0728 75.9539 41.04 77.3148 41.04C78.965 41.04 79.5604 41.1138 79.9602 41.3762C80.3004 41.5975 80.4365 41.9419 80.4365 42.5895C80.4365 42.6223 80.4365 42.7371 80.428 42.8437H78.7608C78.7438 42.5403 78.7183 42.4665 78.5907 42.3928C78.4461 42.3108 78.2335 42.2944 77.0086 42.2944C75.5456 42.2944 75.4265 42.3272 75.4265 42.7289C75.4265 42.9338 75.5031 43.0404 75.6817 43.0814C75.8348 43.1224 76.3026 43.147 77.502 43.1798C79.3733 43.2372 79.739 43.2782 80.1048 43.4995C80.4961 43.7455 80.6407 44.1144 80.6407 44.8768C80.6407 45.8279 80.4025 46.2952 79.8156 46.5083C79.4754 46.6313 78.7608 46.6723 77.0682 46.6723C75.3074 46.6723 74.6184 46.5985 74.2187 46.3525C73.8274 46.1148 73.6998 45.7951 73.6998 45.0408V44.7785ZM90.3485 46.5903V41.122H94.2357C95.3075 41.122 95.4606 41.1302 95.7753 41.1712C96.8471 41.327 97.1533 41.7697 97.1533 43.1716C97.1533 44.3849 96.9236 44.8605 96.2431 45.0982C95.8604 45.2212 95.4776 45.254 94.2528 45.254H92.0752V46.5903H90.3485ZM92.0752 43.8849H94.2357C95.0353 43.8767 95.0693 43.8767 95.2139 43.7947C95.3755 43.6963 95.4266 43.5487 95.4266 43.1716C95.4266 42.7781 95.35 42.6141 95.1289 42.5403C95.0098 42.4993 94.9928 42.4993 94.2357 42.4911H92.0752V43.8849ZM99.3409 46.5903V41.122H103.517C105.474 41.122 105.474 41.122 105.839 41.3352C106.273 41.5893 106.401 41.9501 106.401 42.9011C106.401 43.7127 106.316 44.0242 106.01 44.2456C105.848 44.3686 105.686 44.4259 105.346 44.4751C106.222 44.5735 106.375 44.8195 106.341 46.082V46.5903H104.64V46.3034C104.64 45.6885 104.606 45.4917 104.47 45.3523C104.351 45.2212 104.223 45.2048 103.509 45.2048H101.068V46.5903H99.3409ZM101.068 43.8357H103.5C104.368 43.8193 104.368 43.8193 104.487 43.7373C104.623 43.6553 104.674 43.4913 104.674 43.147C104.674 42.7781 104.606 42.6223 104.427 42.5485C104.308 42.4993 104.283 42.4993 103.5 42.4911H101.068V43.8357ZM108.616 41.122H110.428V46.5903H108.616V41.122ZM112.33 41.122H114.227L116.294 45.213H116.625L118.667 41.122H120.555L117.782 46.5903H115.137L112.33 41.122ZM127.683 46.5903L127.199 45.6639H123.447L122.963 46.5903H120.989L123.992 41.122H126.68L129.648 46.5903H127.683ZM126.595 44.4669L125.497 42.3928H125.157L124.06 44.4669H126.595ZM130.384 41.122H137.248V42.5157H134.722V46.5903H132.91V42.5157H130.384V41.122ZM139.261 41.122L145.538 41.122V42.4092H140.962V43.2044H145.308V44.4095H140.962V45.2786H145.572V46.5903H139.261V41.122ZM155.215 41.122H157.027V45.1966H161.059V46.5903H155.215V41.122ZM163.078 41.122H164.89V46.5903H163.078V41.122ZM167.302 41.122H170.433L172.117 44.6719L173.809 41.122H176.923V46.5903H175.221L175.264 42.4993H174.975L172.84 46.5903H171.402L169.267 42.4993H168.961L169.004 46.5903H167.302V41.122ZM179.327 41.122H181.138V46.5903H179.327V41.122ZM183.151 41.122H190.016V42.5157H187.489V46.5903H185.678V42.5157H183.151V41.122ZM192.028 41.122H198.306V42.4092H193.73V43.2044H198.076V44.4095H193.73V45.2786H198.34V46.5903H192.028V41.122ZM200.497 46.5903V41.122L204.589 41.122C206.035 41.122 206.23 41.1302 206.715 41.2286C207.277 41.3352 207.651 41.6467 207.821 42.155C207.949 42.5403 207.983 42.8847 207.983 43.7783C207.983 45.2048 207.855 45.7623 207.438 46.1312C207.005 46.5083 206.503 46.5903 204.589 46.5903H200.497ZM202.199 45.1966H204.606C206.171 45.1966 206.282 45.1146 206.282 43.8767C206.282 43.2044 206.222 42.9011 206.052 42.7207C205.873 42.5239 205.644 42.4911 204.589 42.4911L202.199 42.4911V45.1966Z" fill="#074139"/>
<path d="M210.844 0.257812L219.62 0.257813V2.347H216.39V8.45481H214.074V2.347L210.844 2.347V0.257812ZM220.127 0.257813L224.129 0.257813L226.282 5.5791L228.446 0.257813L232.426 0.257813V8.45481H230.251L230.306 2.32242H229.936L227.206 8.45481H225.369L222.639 2.32242H222.247L222.302 8.45481H220.127V0.257813Z" fill="#074139"/>
</svg>
